<svg xmlns="http://www.w3.org/2000/svg" xmlns:xlink="http://www.w3.org/1999/xlink" contentStyleType="text/css" data-diagram-type="CLASS" height="406px" preserveAspectRatio="none" style="width:309px;height:406px;background:#FFFFFF;" version="1.1" viewBox="0 0 309 406" width="309px" zoomAndPan="magnify"><defs/><g><g class="entity" data-entity="Usuario" data-source-line="1" data-uid="ent0002" id="entity_Usuario"><rect fill="#F1F1F1" height="39.0679" rx="2.5" ry="2.5" style="stroke:#181818;stroke-width:0.5;" width="65.3098" x="85.45" y="7"/><text fill="#000000" font-family="sans-serif" font-size="14" lengthAdjust="spacing" textLength="51.3098" x="92.45" y="23.9659">Usuario</text><line style="stroke:#181818;stroke-width:0.5;" x1="86.45" x2="149.7598" y1="30.0679" y2="30.0679"/></g><g class="entity" data-entity="Frontend" data-source-line="2" data-uid="ent0003" id="entity_Frontend"><rect fill="#F1F1F1" height="39.0679" rx="2.5" ry="2.5" style="stroke:#181818;stroke-width:0.5;" width="74.3818" x="80.95" y="125"/><text fill="#000000" font-family="sans-serif" font-size="14" lengthAdjust="spacing" textLength="60.3818" x="87.95" y="141.9659">Frontend</text><line style="stroke:#181818;stroke-width:0.5;" x1="81.95" x2="154.3318" y1="148.0679" y2="148.0679"/></g><g class="entity" data-entity="AuthService" data-source-line="3" data-uid="ent0004" id="entity_AuthService"><rect fill="#F1F1F1" height="39.0679" rx="2.5" ry="2.5" style="stroke:#181818;stroke-width:0.5;" width="92.0077" x="71.95" y="243"/><text fill="#000000" font-family="sans-serif" font-size="14" lengthAdjust="spacing" textLength="78.0077" x="78.95" y="259.9659">AuthService</text><line style="stroke:#181818;stroke-width:0.5;" x1="72.95" x2="162.9577" y1="266.0679" y2="266.0679"/></g><g class="entity" data-entity="DB" data-source-line="4" data-uid="ent0005" id="entity_DB"><rect fill="#F1F1F1" height="39.0679" rx="2.5" ry="2.5" style="stroke:#181818;stroke-width:0.5;" width="33.3199" x="101.45" y="361"/><text fill="#000000" font-family="sans-serif" font-size="14" lengthAdjust="spacing" textLength="19.3199" x="108.45" y="377.9659">DB</text><line style="stroke:#181818;stroke-width:0.5;" x1="102.45" x2="133.7699" y1="384.0679" y2="384.0679"/></g><!--link Usuario to Frontend--><g class="link" data-entity-1="Usuario" data-entity-2="Frontend" data-source-line="7" data-uid="lnk6" id="link_Usuario_Frontend"><path codeLine="7" d="M85.32,35.82 C64.95,42.88 40.33,55.27 27.95,76 C12.23,102.33 43.9847,119.7456 75.2747,130.8356" fill="none" id="Usuario-to-Frontend" style="stroke:#181818;stroke-width:1;"/><polygon fill="#181818" points="80.93,132.84,73.7833,126.0632,76.2172,131.1697,71.1108,133.6036,80.93,132.84" style="stroke:#181818;stroke-width:1;"/><text fill="#000000" font-family="sans-serif" font-size="13" lengthAdjust="spacing" textLength="133.4841" x="28.95" y="90.897">1. login(usuario, pass)</text></g><!--link Frontend to Usuario--><g class="link" data-entity-1="Frontend" data-entity-2="Usuario" data-source-line="12" data-uid="lnk11" id="link_Frontend_Usuario"><path codeLine="12" d="M145.16,124.89 C160.23,112.09 174.54,94.18 166.95,76 C162.11,64.4 157.4875,58.1428 148.4175,50.0928" fill="none" id="Frontend-to-Usuario" style="stroke:#181818;stroke-width:1;"/><polygon fill="#181818" points="143.93,46.11,148.006,55.0758,147.6695,49.429,153.3164,49.0926,143.93,46.11" style="stroke:#181818;stroke-width:1;"/><text fill="#000000" font-family="sans-serif" font-size="13" lengthAdjust="spacing" textLength="131.9501" x="169.95" y="90.897">4. mostrarResultado()</text></g><!--link Frontend to AuthService--><g class="link" data-entity-1="Frontend" data-entity-2="AuthService" data-source-line="8" data-uid="lnk7" id="link_Frontend_AuthService"><path codeLine="8" d="M80.6,154.53 C60.05,161.61 36.28,173.77 23.95,194 C8.79,218.88 35.3247,235.1701 66.0747,246.4101" fill="none" id="Frontend-to-AuthService" style="stroke:#181818;stroke-width:1;"/><polygon fill="#181818" points="71.71,248.47,64.6303,241.6233,67.0139,246.7534,61.8838,249.1371,71.71,248.47" style="stroke:#181818;stroke-width:1;"/><text fill="#000000" font-family="sans-serif" font-size="13" lengthAdjust="spacing" textLength="141.4401" x="24.95" y="208.897">2. validarCredenciales()</text></g><!--link AuthService to Frontend--><g class="link" data-entity-1="AuthService" data-entity-2="Frontend" data-source-line="11" data-uid="lnk10" id="link_AuthService_Frontend"><path codeLine="11" d="M147.71,242.85 C163.88,230.17 179.06,212.41 170.95,194 C165.77,182.24 160.8078,175.9188 151.1978,167.9888" fill="none" id="AuthService-to-Frontend" style="stroke:#181818;stroke-width:1;"/><polygon fill="#181818" points="146.57,164.17,150.9659,172.9834,150.4265,167.3523,156.0576,166.813,146.57,164.17" style="stroke:#181818;stroke-width:1;"/><text fill="#000000" font-family="sans-serif" font-size="13" lengthAdjust="spacing" textLength="72.0331" x="173.95" y="208.897">3. tokenJWT</text></g><!--link AuthService to DB--><g class="link" data-entity-1="AuthService" data-entity-2="DB" data-source-line="9" data-uid="lnk8" id="link_AuthService_DB"><path codeLine="9" d="M71.84,276.44 C54.31,283.85 36.12,295.15 25.95,312 C6,345.08 64.028,365.364 95.578,373.894" fill="none" id="AuthService-to-DB" style="stroke:#181818;stroke-width:1;"/><polygon fill="#181818" points="101.37,375.46,93.7259,369.2497,96.5433,374.155,91.638,376.9724,101.37,375.46" style="stroke:#181818;stroke-width:1;"/><text fill="#000000" font-family="sans-serif" font-size="13" lengthAdjust="spacing" textLength="137.7741" x="26.95" y="326.897">2.1. consultarUsuario()</text></g><!--link DB to AuthService--><g class="link" data-entity-1="DB" data-entity-2="AuthService" data-source-line="10" data-uid="lnk9" id="link_DB_AuthService"><path codeLine="10" d="M134.68,369.53 C153.08,357.18 178.8,334.95 168.95,312 C163.94,300.32 159.1514,294.0279 149.8014,286.0379" fill="none" id="DB-to-AuthService" style="stroke:#181818;stroke-width:1;"/><polygon fill="#181818" points="145.24,282.14,149.4835,291.0278,149.0412,285.3883,154.6807,284.9459,145.24,282.14" style="stroke:#181818;stroke-width:1;"/><text fill="#000000" font-family="sans-serif" font-size="13" lengthAdjust="spacing" textLength="106.9381" x="171.95" y="326.897">2.2. datosUsuario</text></g><!--SRC=[RP0zRW9138NxEOMxW1HM8ab5WHI2KaHAau1IEpCMcSrY4tk6- -GC786BCVmiMX2bxUVlFLk-Q_89vfPHepWvbgygd8X3Mp_dzFD9kewUsjPqujmTl1CRrcJWXO7paXHzt6uOQjBjl_xbwD6Tu30OZCza6C6mWaOMaNlvEB-75PhrtLcortUSoyf31MjiOa1zKGh4Fc93rkkxhco_DfqSrCMY1BFS9DHJYY8kmrle0W-OnDfVN3CxqHyhIF9B_FOrkupRdZg2fmgMOabHF-WG81Jh7G00]--></g></svg>