<svg xmlns="http://www.w3.org/2000/svg" xmlns:xlink="http://www.w3.org/1999/xlink" contentStyleType="text/css" data-diagram-type="CLASS" height="406px" preserveAspectRatio="none" style="width:652px;height:406px;background:#FFFFFF;" version="1.1" viewBox="0 0 652 406" width="652px" zoomAndPan="magnify"><defs/><g><g class="entity" data-entity="Usuario" data-source-line="1" data-uid="ent0002" id="entity_Usuario"><rect fill="#F1F1F1" height="39.0679" rx="2.5" ry="2.5" style="stroke:#181818;stroke-width:0.5;" width="65.3098" x="197.94" y="7"/><text fill="#000000" font-family="sans-serif" font-size="14" lengthAdjust="spacing" textLength="51.3098" x="204.94" y="23.9659">Usuario</text><line style="stroke:#181818;stroke-width:0.5;" x1="198.94" x2="262.2498" y1="30.0679" y2="30.0679"/></g><g class="entity" data-entity="Frontend" data-source-line="2" data-uid="ent0003" id="entity_Frontend"><rect fill="#F1F1F1" height="39.0679" rx="2.5" ry="2.5" style="stroke:#181818;stroke-width:0.5;" width="74.3818" x="193.44" y="125"/><text fill="#000000" font-family="sans-serif" font-size="14" lengthAdjust="spacing" textLength="60.3818" x="200.44" y="141.9659">Frontend</text><line style="stroke:#181818;stroke-width:0.5;" x1="194.44" x2="266.8218" y1="148.0679" y2="148.0679"/></g><g class="entity" data-entity="AuthService" data-source-line="3" data-uid="ent0004" id="entity_AuthService"><rect fill="#F1F1F1" height="39.0679" rx="2.5" ry="2.5" style="stroke:#181818;stroke-width:0.5;" width="92.0077" x="184.44" y="243"/><text fill="#000000" font-family="sans-serif" font-size="14" lengthAdjust="spacing" textLength="78.0077" x="191.44" y="259.9659">AuthService</text><line style="stroke:#181818;stroke-width:0.5;" x1="185.44" x2="275.4477" y1="266.0679" y2="266.0679"/></g><g class="entity" data-entity="DB" data-source-line="4" data-uid="ent0005" id="entity_DB"><rect fill="#F1F1F1" height="39.0679" rx="2.5" ry="2.5" style="stroke:#181818;stroke-width:0.5;" width="33.3199" x="213.94" y="361"/><text fill="#000000" font-family="sans-serif" font-size="14" lengthAdjust="spacing" textLength="19.3199" x="220.94" y="377.9659">DB</text><line style="stroke:#181818;stroke-width:0.5;" x1="214.94" x2="246.2599" y1="384.0679" y2="384.0679"/></g><!--link Usuario to Frontend--><g class="link" data-entity-1="Usuario" data-entity-2="Frontend" data-source-line="6" data-uid="lnk6" id="link_Usuario_Frontend"><path codeLine="6" d="M197.71,31.67 C151.28,38.34 69.99,53.03 52.44,76 C14.42,125.77 124.229,138.5115 186.959,141.9515" fill="none" id="Usuario-to-Frontend" style="stroke:#181818;stroke-width:1;"/><polygon fill="#181818" points="192.95,142.28,184.1825,137.7932,187.9575,142.0062,183.7445,145.7812,192.95,142.28" style="stroke:#181818;stroke-width:1;"/><text fill="#000000" font-family="sans-serif" font-size="13" lengthAdjust="spacing" textLength="133.4841" x="53.44" y="90.897">1. login(usuario, pass)</text></g><!--link Frontend to Usuario--><g class="link" data-entity-1="Frontend" data-entity-2="Usuario" data-source-line="15" data-uid="lnk12" id="link_Frontend_Usuario"><path codeLine="15" d="M229,124.63 C228.39,115.66 227.74,104.78 227.44,95 C226.93,78.47 227.4616,65.6547 228.4316,52.1047" fill="none" id="Frontend-to-Usuario" style="stroke:#181818;stroke-width:1;"/><polygon fill="#181818" points="228.86,46.12,224.2276,54.8114,228.503,51.1072,232.2072,55.3826,228.86,46.12" style="stroke:#181818;stroke-width:1;"/><text fill="#000000" font-family="sans-serif" font-size="13" lengthAdjust="spacing" textLength="218.8032" x="228.44" y="90.897">4a. mostrarResultadoOK() [si v&#225;lido]</text></g><!--link Frontend to Usuario--><g class="link" data-entity-1="Frontend" data-entity-2="Usuario" data-source-line="16" data-uid="lnk13" id="link_Frontend_Usuario"><path codeLine="16" d="M267.57,144.21 C342.6,144.39 501.1,137.74 451.44,76 C428.18,47.07 324.7793,34.9185 269.1293,30.2785" fill="none" id="Frontend-to-Usuario-1" style="stroke:#181818;stroke-width:1;"/><polygon fill="#181818" points="263.15,29.78,271.7865,34.514,268.1327,30.1954,272.4512,26.5416,263.15,29.78" style="stroke:#181818;stroke-width:1;"/><text fill="#000000" font-family="sans-serif" font-size="13" lengthAdjust="spacing" textLength="183.0142" x="461.44" y="90.897">4b. mostrarError() [si inv&#225;lido]</text></g><!--link Frontend to AuthService--><g class="link" data-entity-1="Frontend" data-entity-2="AuthService" data-source-line="7" data-uid="lnk7" id="link_Frontend_AuthService"><path codeLine="7" d="M193.39,149.83 C144.5,156.39 62.5,170.63 44.44,194 C6,243.74 111.578,256.5512 178.328,259.9912" fill="none" id="Frontend-to-AuthService" style="stroke:#181818;stroke-width:1;"/><polygon fill="#181818" points="184.32,260.3,175.5378,255.8421,179.3266,260.0427,175.1261,263.8315,184.32,260.3" style="stroke:#181818;stroke-width:1;"/><text fill="#000000" font-family="sans-serif" font-size="13" lengthAdjust="spacing" textLength="141.4401" x="45.44" y="208.897">2. validarCredenciales()</text></g><!--link AuthService to Frontend--><g class="link" data-entity-1="AuthService" data-entity-2="Frontend" data-source-line="12" data-uid="lnk10" id="link_AuthService_Frontend"><path codeLine="12" d="M228.86,242.88 C227.89,229.33 226.93,210.53 227.44,194 C227.74,184.22 227.9829,179.3262 228.5929,170.3562" fill="none" id="AuthService-to-Frontend" style="stroke:#181818;stroke-width:1;"/><polygon fill="#181818" points="229,164.37,224.3986,173.0779,228.6608,169.3585,232.3802,173.6207,229,164.37" style="stroke:#181818;stroke-width:1;"/><text fill="#000000" font-family="sans-serif" font-size="13" lengthAdjust="spacing" textLength="140.6861" x="228.44" y="208.897">3a. tokenJWT [si v&#225;lido]</text></g><!--link AuthService to Frontend--><g class="link" data-entity-1="AuthService" data-entity-2="Frontend" data-source-line="13" data-uid="lnk11" id="link_AuthService_Frontend"><path codeLine="13" d="M276.76,256.67 C328.22,249.35 400.71,232.04 373.44,194 C349.54,160.65 307.3919,150.5295 273.5919,147.2495" fill="none" id="AuthService-to-Frontend-1" style="stroke:#181818;stroke-width:1;"/><polygon fill="#181818" points="267.62,146.67,276.1916,151.5206,272.5966,147.1529,276.9643,143.558,267.62,146.67" style="stroke:#181818;stroke-width:1;"/><text fill="#000000" font-family="sans-serif" font-size="13" lengthAdjust="spacing" textLength="155.4152" x="379.44" y="208.897">3b. errorAuth [si inv&#225;lido]</text></g><!--link AuthService to DB--><g class="link" data-entity-1="AuthService" data-entity-2="DB" data-source-line="8" data-uid="lnk8" id="link_AuthService_DB"><path codeLine="8" d="M184.34,276.76 C167.14,284.2 149.39,295.42 139.44,312 C119.8,344.72 176.4078,365.0082 207.7778,373.6982" fill="none" id="AuthService-to-DB" style="stroke:#181818;stroke-width:1;"/><polygon fill="#181818" points="213.56,375.3,205.9545,369.0425,208.7415,373.9652,203.8188,376.7522,213.56,375.3" style="stroke:#181818;stroke-width:1;"/><text fill="#000000" font-family="sans-serif" font-size="13" lengthAdjust="spacing" textLength="134.2901" x="140.44" y="326.897">2.1 consultarUsuario()</text></g><!--link DB to AuthService--><g class="link" data-entity-1="DB" data-entity-2="AuthService" data-source-line="9" data-uid="lnk9" id="link_DB_AuthService"><path codeLine="9" d="M247.15,369.01 C264.78,356.51 288.81,334.45 279.44,312 C274.6,300.4 269.9775,294.1428 260.9075,286.0928" fill="none" id="DB-to-AuthService" style="stroke:#181818;stroke-width:1;"/><polygon fill="#181818" points="256.42,282.11,260.496,291.0758,260.1595,285.429,265.8064,285.0926,256.42,282.11" style="stroke:#181818;stroke-width:1;"/><text fill="#000000" font-family="sans-serif" font-size="13" lengthAdjust="spacing" textLength="103.4541" x="282.44" y="326.897">2.2 datosUsuario</text></g><!--SRC=[VP1DJiD038NtSmhlI2GQgOLL5qYKqaLP8F4Z5gWB9sF1b65SUMPo7yx2nPYaIPgAmjBs-_pypEMMgW3FFg8OLhmlLy8kaDDzVHt3-oD9RIhgMyk5KXq5aydLWC0SfWLOVZCkY_lvEUpG-rmDaaO_MfcGMG4rMgDHReGqkSgW9P_bQYnhiEMYLK-XOkUZ3IZT4KcRPgSspq1ZODz7L6Umid7BW3QGE0ocvbysepGNM43W3tBhboTuzGRgxwzqAM_-XSe2I8IbqRIKSGDt_8Z-YNEuJ4wVx8EWF50RJlFzNPOVk_u5bmDysnXtsC7s1m00]--></g></svg>