<svg xmlns="http://www.w3.org/2000/svg" xmlns:xlink="http://www.w3.org/1999/xlink" contentStyleType="text/css" data-diagram-type="CLASS" height="406px" preserveAspectRatio="none" style="width:574px;height:406px;background:#FFFFFF;" version="1.1" viewBox="0 0 574 406" width="574px" zoomAndPan="magnify"><defs/><g><g class="entity" data-entity="Usuario" data-source-line="1" data-uid="ent0002" id="entity_Usuario"><rect fill="#F1F1F1" height="39.0679" rx="2.5" ry="2.5" style="stroke:#181818;stroke-width:0.5;" width="65.3098" x="230.33" y="7"/><text fill="#000000" font-family="sans-serif" font-size="14" lengthAdjust="spacing" textLength="51.3098" x="237.33" y="23.9659">Usuario</text><line style="stroke:#181818;stroke-width:0.5;" x1="231.33" x2="294.6398" y1="30.0679" y2="30.0679"/></g><g class="entity" data-entity="APIGateway" data-source-line="2" data-uid="ent0003" id="entity_APIGateway"><rect fill="#F1F1F1" height="39.0679" rx="2.5" ry="2.5" style="stroke:#181818;stroke-width:0.5;" width="93.1557" x="216.33" y="125"/><text fill="#000000" font-family="sans-serif" font-size="14" lengthAdjust="spacing" textLength="79.1557" x="223.33" y="141.9659">APIGateway</text><line style="stroke:#181818;stroke-width:0.5;" x1="217.33" x2="308.4857" y1="148.0679" y2="148.0679"/></g><g class="entity" data-entity="OrderService" data-source-line="3" data-uid="ent0004" id="entity_OrderService"><rect fill="#F1F1F1" height="39.0679" rx="2.5" ry="2.5" style="stroke:#181818;stroke-width:0.5;" width="99.7077" x="212.83" y="243"/><text fill="#000000" font-family="sans-serif" font-size="14" lengthAdjust="spacing" textLength="85.7077" x="219.83" y="259.9659">OrderService</text><line style="stroke:#181818;stroke-width:0.5;" x1="213.83" x2="311.5377" y1="266.0679" y2="266.0679"/></g><g class="entity" data-entity="PaymentService" data-source-line="4" data-uid="ent0005" id="entity_PaymentService"><rect fill="#F1F1F1" height="39.0679" rx="2.5" ry="2.5" style="stroke:#181818;stroke-width:0.5;" width="118.8596" x="87.33" y="361"/><text fill="#000000" font-family="sans-serif" font-size="14" lengthAdjust="spacing" textLength="104.8596" x="94.33" y="377.9659">PaymentService</text><line style="stroke:#181818;stroke-width:0.5;" x1="88.33" x2="205.1896" y1="384.0679" y2="384.0679"/></g><g class="entity" data-entity="InventoryService" data-source-line="5" data-uid="ent0006" id="entity_InventoryService"><rect fill="#F1F1F1" height="39.0679" rx="2.5" ry="2.5" style="stroke:#181818;stroke-width:0.5;" width="124.2076" x="316.83" y="361"/><text fill="#000000" font-family="sans-serif" font-size="14" lengthAdjust="spacing" textLength="110.2076" x="323.83" y="377.9659">InventoryService</text><line style="stroke:#181818;stroke-width:0.5;" x1="317.83" x2="440.0376" y1="384.0679" y2="384.0679"/></g><!--link Usuario to APIGateway--><g class="link" data-entity-1="Usuario" data-entity-2="APIGateway" data-source-line="7" data-uid="lnk7" id="link_Usuario_APIGateway"><path codeLine="7" d="M229.98,41.21 C215.52,49.1 199.99,60.55 191.83,76 C181.51,95.55 194.8013,109.6199 215.4813,121.7199" fill="none" id="Usuario-to-APIGateway" style="stroke:#181818;stroke-width:1;"/><polygon fill="#181818" points="220.66,124.75,214.912,116.7524,216.3444,122.2249,210.8719,123.6573,220.66,124.75" style="stroke:#181818;stroke-width:1;"/><text fill="#000000" font-family="sans-serif" font-size="13" lengthAdjust="spacing" textLength="95.0561" x="192.83" y="90.897">1. POST /orders</text></g><!--link APIGateway to Usuario--><g class="link" data-entity-1="APIGateway" data-entity-2="Usuario" data-source-line="20" data-uid="lnk14" id="link_APIGateway_Usuario"><path codeLine="20" d="M278.96,124.83 C288.44,111.57 297.71,93.15 292.83,76 C289.8,65.33 287.0941,59.654 281.1641,51.084" fill="none" id="APIGateway-to-Usuario" style="stroke:#181818;stroke-width:1;"/><polygon fill="#181818" points="277.75,46.15,279.5818,55.827,280.5951,50.2617,286.1604,51.2749,277.75,46.15" style="stroke:#181818;stroke-width:1;"/><text fill="#000000" font-family="sans-serif" font-size="13" lengthAdjust="spacing" textLength="135.8241" x="295.83" y="90.897">5. respuesta HTTP 201</text></g><!--link APIGateway to OrderService--><g class="link" data-entity-1="APIGateway" data-entity-2="OrderService" data-source-line="8" data-uid="lnk8" id="link_APIGateway_OrderService"><path codeLine="8" d="M220.82,164.16 C208.96,171.63 197.49,181.49 190.83,194 C180.37,213.66 193.8999,227.7669 214.8699,239.8369" fill="none" id="APIGateway-to-OrderService" style="stroke:#181818;stroke-width:1;"/><polygon fill="#181818" points="220.07,242.83,214.2652,234.8736,215.7366,240.3357,210.2744,241.8071,220.07,242.83" style="stroke:#181818;stroke-width:1;"/><text fill="#000000" font-family="sans-serif" font-size="13" lengthAdjust="spacing" textLength="96.1091" x="191.83" y="208.897">2. crearPedido()</text></g><!--link OrderService to APIGateway--><g class="link" data-entity-1="OrderService" data-entity-2="APIGateway" data-source-line="19" data-uid="lnk13" id="link_OrderService_APIGateway"><path codeLine="19" d="M278.96,242.83 C288.44,229.57 297.71,211.15 292.83,194 C289.8,183.33 287.0941,177.654 281.1641,169.084" fill="none" id="OrderService-to-APIGateway" style="stroke:#181818;stroke-width:1;"/><polygon fill="#181818" points="277.75,164.15,279.5818,173.827,280.5951,168.2617,286.1604,169.2749,277.75,164.15" style="stroke:#181818;stroke-width:1;"/><text fill="#000000" font-family="sans-serif" font-size="13" lengthAdjust="spacing" textLength="136.9811" x="295.83" y="208.897">4. confirmaci&#243;nPedido</text></g><!--link OrderService to InventoryService--><g class="link" data-entity-1="OrderService" data-entity-2="InventoryService" data-source-line="11" data-uid="lnk9" id="link_OrderService_InventoryService"><path codeLine="11" d="M281.47,282.14 C303.12,303.78 334.3674,335.0374 355.9974,356.6674" fill="none" id="OrderService-to-InventoryService" style="stroke:#181818;stroke-width:1;"/><polygon fill="#181818" points="360.24,360.91,356.7045,351.7176,356.7045,357.3745,351.0476,357.3745,360.24,360.91" style="stroke:#181818;stroke-width:1;"/><text fill="#000000" font-family="sans-serif" font-size="13" lengthAdjust="spacing" textLength="111.8001" x="328.83" y="326.897">2.1 verificarStock()</text></g><!--link InventoryService to OrderService--><g class="link" data-entity-1="InventoryService" data-entity-2="OrderService" data-source-line="12" data-uid="lnk10" id="link_InventoryService_OrderService"><path codeLine="12" d="M419.81,360.89 C442.24,348.08 462.87,330.17 448.83,312 C432.31,290.61 368.1467,277.7391 318.8967,270.5291" fill="none" id="InventoryService-to-OrderService" style="stroke:#181818;stroke-width:1;"/><polygon fill="#181818" points="312.96,269.66,321.2857,274.9215,317.9073,270.3843,322.4445,267.0059,312.96,269.66" style="stroke:#181818;stroke-width:1;"/><text fill="#000000" font-family="sans-serif" font-size="13" lengthAdjust="spacing" textLength="112.7751" x="453.83" y="326.897">2.2 resultadoStock</text></g><!--link OrderService to PaymentService--><g class="link" data-entity-1="OrderService" data-entity-2="PaymentService" data-source-line="15" data-uid="lnk11" id="link_OrderService_PaymentService"><path codeLine="15" d="M212.72,266.61 C150.77,271.63 50.69,283.94 27.83,312 C6,338.79 41.6344,355.3774 81.4644,366.0474" fill="none" id="OrderService-to-PaymentService" style="stroke:#181818;stroke-width:1;"/><polygon fill="#181818" points="87.26,367.6,79.6016,361.4074,82.4303,366.3062,77.5315,369.1349,87.26,367.6" style="stroke:#181818;stroke-width:1;"/><text fill="#000000" font-family="sans-serif" font-size="13" lengthAdjust="spacing" textLength="114.2441" x="28.83" y="326.897">3.1 procesarPago()</text></g><!--link PaymentService to OrderService--><g class="link" data-entity-1="PaymentService" data-entity-2="OrderService" data-source-line="16" data-uid="lnk12" id="link_PaymentService_OrderService"><path codeLine="16" d="M157.77,360.76 C166.66,346.45 180.1,326.75 194.83,312 C206,300.82 215.0082,293.704 227.3882,285.394" fill="none" id="PaymentService-to-OrderService" style="stroke:#181818;stroke-width:1;"/><polygon fill="#181818" points="232.37,282.05,222.6681,283.7448,228.2185,284.8366,227.1267,290.3871,232.37,282.05" style="stroke:#181818;stroke-width:1;"/><text fill="#000000" font-family="sans-serif" font-size="13" lengthAdjust="spacing" textLength="110.9161" x="195.83" y="326.897">3.2 resultadoPago</text></g><!--SRC=[RP51KeGm44NtdA9twc9G6DtCmYfNEgj92RflayQA0g4w0OjpUGGlPW935J0iyzF_zykF-VWYwU3DjiZQH6OyFedZCphwmNvIJgo8C-9EIveqWNr5jLkfnxhpek5-qgDpEEnsZxDaE40IWpXbEToQa6wZsMMOdU_qqsaCaWbPaDBANDz4qHMyOwaLIlttMuCYqCFkuIKBSqXRSms92NJ4kj0IEND6VllKYxbDb1IOR5iwL6Om1XZ1HfB5IWT_m6dmSmDaMPjFstkCPlIoy1OFiPhPGDZF4O8h4BoIRLgo3g7GDPQNknVrt_j2JLrehiO6nsBNlp3ztW4Uuh3nlE0bpmMaTya_]--></g></svg>