<svg xmlns="http://www.w3.org/2000/svg" xmlns:xlink="http://www.w3.org/1999/xlink" contentStyleType="text/css" data-diagram-type="CLASS" height="534px" preserveAspectRatio="none" style="width:1394px;height:534px;background:#FFFFFF;" version="1.1" viewBox="0 0 1394 534" width="1394px" zoomAndPan="magnify"><defs/><g><g class="entity" data-entity="Usuario" data-source-line="1" data-uid="ent0002" id="entity_Usuario"><rect fill="#F1F1F1" height="39.0679" rx="2.5" ry="2.5" style="stroke:#181818;stroke-width:0.5;" width="65.3098" x="551.38" y="7"/><text fill="#000000" font-family="sans-serif" font-size="14" lengthAdjust="spacing" textLength="51.3098" x="558.38" y="23.9659">Usuario</text><line style="stroke:#181818;stroke-width:0.5;" x1="552.38" x2="615.6898" y1="30.0679" y2="30.0679"/></g><g class="entity" data-entity="APIGateway" data-source-line="2" data-uid="ent0003" id="entity_APIGateway"><rect fill="#F1F1F1" height="39.0679" rx="2.5" ry="2.5" style="stroke:#181818;stroke-width:0.5;" width="93.1557" x="537.38" y="125"/><text fill="#000000" font-family="sans-serif" font-size="14" lengthAdjust="spacing" textLength="79.1557" x="544.38" y="141.9659">APIGateway</text><line style="stroke:#181818;stroke-width:0.5;" x1="538.38" x2="629.5357" y1="148.0679" y2="148.0679"/></g><g class="entity" data-entity="OrderService" data-source-line="3" data-uid="ent0004" id="entity_OrderService"><rect fill="#F1F1F1" height="39.0679" rx="2.5" ry="2.5" style="stroke:#181818;stroke-width:0.5;" width="99.7077" x="533.88" y="243"/><text fill="#000000" font-family="sans-serif" font-size="14" lengthAdjust="spacing" textLength="85.7077" x="540.88" y="259.9659">OrderService</text><line style="stroke:#181818;stroke-width:0.5;" x1="534.88" x2="632.5877" y1="266.0679" y2="266.0679"/></g><g class="entity" data-entity="PaymentService" data-source-line="4" data-uid="ent0005" id="entity_PaymentService"><rect fill="#F1F1F1" height="39.0679" rx="2.5" ry="2.5" style="stroke:#181818;stroke-width:0.5;" width="118.8596" x="1113.38" y="483.5"/><text fill="#000000" font-family="sans-serif" font-size="14" lengthAdjust="spacing" textLength="104.8596" x="1120.38" y="500.4659">PaymentService</text><line style="stroke:#181818;stroke-width:0.5;" x1="1114.38" x2="1231.2396" y1="506.5679" y2="506.5679"/></g><g class="entity" data-entity="InventoryService" data-source-line="5" data-uid="ent0006" id="entity_InventoryService"><rect fill="#F1F1F1" height="39.0679" rx="2.5" ry="2.5" style="stroke:#181818;stroke-width:0.5;" width="124.2076" x="135.88" y="483.5"/><text fill="#000000" font-family="sans-serif" font-size="14" lengthAdjust="spacing" textLength="110.2076" x="142.88" y="500.4659">InventoryService</text><line style="stroke:#181818;stroke-width:0.5;" x1="136.88" x2="259.0876" y1="506.5679" y2="506.5679"/></g><g class="entity" data-entity="Broker" data-source-line="6" data-uid="ent0007" id="entity_Broker"><rect fill="#F1F1F1" height="39.0679" rx="2.5" ry="2.5" style="stroke:#181818;stroke-width:0.5;" width="58.5058" x="554.38" y="361"/><text fill="#000000" font-family="sans-serif" font-size="14" lengthAdjust="spacing" textLength="44.5058" x="561.38" y="377.9659">Broker</text><line style="stroke:#181818;stroke-width:0.5;" x1="555.38" x2="611.8858" y1="384.0679" y2="384.0679"/></g><!--class AnalyticsService--><g class="entity" data-entity="AnalyticsService" data-source-line="23" data-uid="ent0017" id="entity_AnalyticsService"><rect fill="#F1F1F1" height="48" rx="2.5" ry="2.5" style="stroke:#181818;stroke-width:0.5;" width="136.9996" x="515.38" y="479"/><ellipse cx="530.38" cy="495" fill="#ADD1B2" rx="11" ry="11" style="stroke:#181818;stroke-width:1;"/><path d="M533.3488,500.6406 Q532.7706,500.9375 532.13,501.0781 Q531.4894,501.2344 530.7863,501.2344 Q528.2863,501.2344 526.9581,499.5938 Q525.6456,497.9375 525.6456,494.8125 Q525.6456,491.6875 526.9581,490.0313 Q528.2863,488.375 530.7863,488.375 Q531.4894,488.375 532.13,488.5313 Q532.7863,488.6875 533.3488,488.9844 L533.3488,491.7031 Q532.7238,491.125 532.13,490.8594 Q531.5363,490.5781 530.9113,490.5781 Q529.5675,490.5781 528.88,491.6563 Q528.1925,492.7188 528.1925,494.8125 Q528.1925,496.9063 528.88,497.9844 Q529.5675,499.0469 530.9113,499.0469 Q531.5363,499.0469 532.13,498.7813 Q532.7238,498.5 533.3488,497.9219 L533.3488,500.6406 Z " fill="#000000"/><text fill="#000000" font-family="sans-serif" font-size="14" lengthAdjust="spacing" textLength="104.9996" x="544.38" y="500.432">AnalyticsService</text><line style="stroke:#181818;stroke-width:0.5;" x1="516.38" x2="651.3796" y1="511" y2="511"/><line style="stroke:#181818;stroke-width:0.5;" x1="516.38" x2="651.3796" y1="519" y2="519"/></g><!--link Usuario to APIGateway--><g class="link" data-entity-1="Usuario" data-entity-2="APIGateway" data-source-line="9" data-uid="lnk8" id="link_Usuario_APIGateway"><path codeLine="9" d="M551.03,41.21 C536.57,49.1 521.04,60.55 512.88,76 C502.56,95.55 515.8513,109.6199 536.5313,121.7199" fill="none" id="Usuario-to-APIGateway" style="stroke:#181818;stroke-width:1;"/><polygon fill="#181818" points="541.71,124.75,535.962,116.7524,537.3944,122.2249,531.9219,123.6573,541.71,124.75" style="stroke:#181818;stroke-width:1;"/><text fill="#000000" font-family="sans-serif" font-size="13" lengthAdjust="spacing" textLength="95.0561" x="513.88" y="90.897">1. POST /orders</text></g><!--link APIGateway to Usuario--><g class="link" data-entity-1="APIGateway" data-entity-2="Usuario" data-source-line="27" data-uid="lnk20" id="link_APIGateway_Usuario"><path codeLine="27" d="M598.8,124.85 C604.73,116.28 610.85,105.67 613.88,95 C618.76,77.85 612.9795,64.3109 603.4995,51.0509" fill="none" id="APIGateway-to-Usuario" style="stroke:#181818;stroke-width:1;"/><polygon fill="#181818" points="600.01,46.17,601.9903,55.8177,602.9179,50.2374,608.4982,51.165,600.01,46.17" style="stroke:#181818;stroke-width:1;"/><text fill="#000000" font-family="sans-serif" font-size="13" lengthAdjust="spacing" textLength="71.9421" x="616.88" y="90.897">7. HTTP 201</text></g><!--link APIGateway to OrderService--><g class="link" data-entity-1="APIGateway" data-entity-2="OrderService" data-source-line="10" data-uid="lnk9" id="link_APIGateway_OrderService"><path codeLine="10" d="M541.87,164.16 C530.01,171.63 518.54,181.49 511.88,194 C501.42,213.66 514.9499,227.7669 535.9199,239.8369" fill="none" id="APIGateway-to-OrderService" style="stroke:#181818;stroke-width:1;"/><polygon fill="#181818" points="541.12,242.83,535.3152,234.8736,536.7866,240.3357,531.3244,241.8071,541.12,242.83" style="stroke:#181818;stroke-width:1;"/><text fill="#000000" font-family="sans-serif" font-size="13" lengthAdjust="spacing" textLength="96.1091" x="512.88" y="208.897">2. crearPedido()</text></g><!--link OrderService to APIGateway--><g class="link" data-entity-1="OrderService" data-entity-2="APIGateway" data-source-line="26" data-uid="lnk19" id="link_OrderService_APIGateway"><path codeLine="26" d="M598.8,242.85 C604.73,234.28 610.85,223.67 613.88,213 C618.76,195.85 612.9795,182.3109 603.4995,169.0509" fill="none" id="OrderService-to-APIGateway" style="stroke:#181818;stroke-width:1;"/><polygon fill="#181818" points="600.01,164.17,601.9903,173.8177,602.9179,168.2374,608.4982,169.165,600.01,164.17" style="stroke:#181818;stroke-width:1;"/><text fill="#000000" font-family="sans-serif" font-size="13" lengthAdjust="spacing" textLength="136.9811" x="616.88" y="208.897">6. confirmaci&#243;nPedido</text></g><!--link OrderService to InventoryService--><g class="link" data-entity-1="OrderService" data-entity-2="InventoryService" data-source-line="11" data-uid="lnk10" id="link_OrderService_InventoryService"><path codeLine="11" d="M533.66,263.99 C410.12,266.44 97.5,280.6 41.88,361 C6,412.87 84.0499,456.6123 142.2099,481.0923" fill="none" id="OrderService-to-InventoryService" style="stroke:#181818;stroke-width:1;"/><polygon fill="#181818" points="147.74,483.42,140.9966,476.2418,143.1316,481.4803,137.8931,483.6152,147.74,483.42" style="stroke:#181818;stroke-width:1;"/><text fill="#000000" font-family="sans-serif" font-size="13" lengthAdjust="spacing" textLength="111.8001" x="42.88" y="385.897">2.1 verificarStock()</text></g><!--link InventoryService to OrderService--><g class="link" data-entity-1="InventoryService" data-entity-2="OrderService" data-source-line="12" data-uid="lnk11" id="link_InventoryService_OrderService"><path codeLine="12" d="M207.26,483.49 C216.03,467.66 230.37,445.11 247.88,430 C335.62,354.29 458.1147,305.3169 528.0747,281.3169" fill="none" id="InventoryService-to-OrderService" style="stroke:#181818;stroke-width:1;"/><polygon fill="#181818" points="533.75,279.37,523.939,278.5069,529.0206,280.9925,526.535,286.074,533.75,279.37" style="stroke:#181818;stroke-width:1;"/><text fill="#000000" font-family="sans-serif" font-size="13" lengthAdjust="spacing" textLength="36.543" x="347.88" y="385.897">2.2 ok</text></g><!--link OrderService to PaymentService--><g class="link" data-entity-1="OrderService" data-entity-2="PaymentService" data-source-line="14" data-uid="lnk12" id="link_OrderService_PaymentService"><path codeLine="14" d="M634.06,264.31 C761.45,266.86 1094.62,276.79 1198.88,312 C1247.84,328.53 1294.66,352.26 1274.88,400 C1260.12,435.63 1231.0595,461.777 1206.3795,479.757" fill="none" id="OrderService-to-PaymentService" style="stroke:#181818;stroke-width:1;"/><polygon fill="#181818" points="1201.53,483.29,1211.1596,481.2235,1205.5713,480.3458,1206.449,474.7575,1201.53,483.29" style="stroke:#181818;stroke-width:1;"/><text fill="#000000" font-family="sans-serif" font-size="13" lengthAdjust="spacing" textLength="106.8081" x="1279.88" y="385.897">3. procesarPago()</text></g><!--link PaymentService to OrderService--><g class="link" data-entity-1="PaymentService" data-entity-2="OrderService" data-source-line="15" data-uid="lnk13" id="link_PaymentService_OrderService"><path codeLine="15" d="M1171.96,483.26 C1170.16,467.06 1165.07,444.09 1150.88,430 C1020.57,300.59 931.23,363.28 754.88,312 C714.29,300.2 673.9456,288.7655 639.8356,279.1655" fill="none" id="PaymentService-to-OrderService" style="stroke:#181818;stroke-width:1;"/><polygon fill="#181818" points="634.06,277.54,641.6398,283.8287,638.873,278.8946,643.8071,276.1278,634.06,277.54" style="stroke:#181818;stroke-width:1;"/><text fill="#000000" font-family="sans-serif" font-size="13" lengthAdjust="spacing" textLength="92.3781" x="1117.88" y="385.897">3.1 confirmado</text></g><!--link OrderService to Broker--><g class="link" data-entity-1="OrderService" data-entity-2="Broker" data-source-line="18" data-uid="lnk14" id="link_OrderService_Broker"><path codeLine="18" d="M583.88,282.14 C583.88,303.78 583.88,333.28 583.88,354.91" fill="none" id="OrderService-to-Broker" style="stroke:#181818;stroke-width:1;stroke-dasharray:7,7;"/><polygon fill="#181818" points="583.88,360.91,587.88,351.91,583.88,355.91,579.88,351.91,583.88,360.91" style="stroke:#181818;stroke-width:1;"/><text fill="#000000" font-family="sans-serif" font-size="13" lengthAdjust="spacing" textLength="161.3692" x="584.88" y="326.897">4. publish("order.created")</text></g><!--link Broker to InventoryService--><g class="link" data-entity-1="Broker" data-entity-2="InventoryService" data-source-line="21" data-uid="lnk15" id="link_Broker_InventoryService"><path codeLine="21" d="M553.97,381.26 C498.4,381.89 376.59,388.38 284.88,430 C257.03,442.64 234.9888,462.2948 218.7588,479.0948" fill="none" id="Broker-to-InventoryService" style="stroke:#181818;stroke-width:1;stroke-dasharray:7,7;"/><polygon fill="#181818" points="214.59,483.41,223.72,479.7164,218.064,479.814,217.9664,474.158,214.59,483.41" style="stroke:#181818;stroke-width:1;"/><text fill="#000000" font-family="sans-serif" font-size="13" lengthAdjust="spacing" textLength="286.0002" x="285.88" y="444.897">5a. event("order.created")  ' p.ej. reservar stock</text></g><!--link Broker to PaymentService--><g class="link" data-entity-1="Broker" data-entity-2="PaymentService" data-source-line="22" data-uid="lnk16" id="link_Broker_PaymentService"><path codeLine="22" d="M613.57,384.28 C661.76,389.43 759.5,402.53 837.88,430 C854.96,435.98 856.77,443.13 873.88,449 C954.29,476.59 1046.0632,489.8197 1107.4032,496.2997" fill="none" id="Broker-to-PaymentService" style="stroke:#181818;stroke-width:1;stroke-dasharray:7,7;"/><polygon fill="#181818" points="1113.37,496.93,1104.84,492.0066,1108.3977,496.4047,1103.9996,499.9624,1113.37,496.93" style="stroke:#181818;stroke-width:1;"/><text fill="#000000" font-family="sans-serif" font-size="13" lengthAdjust="spacing" textLength="271.6873" x="874.88" y="444.897">5b. event("order.created")  ' p.ej. conciliaci&#243;n</text></g><!--link Broker to AnalyticsService--><g class="link" data-entity-1="Broker" data-entity-2="AnalyticsService" data-source-line="23" data-uid="lnk18" id="link_Broker_AnalyticsService"><path codeLine="23" d="M582.44,400.37 C581.83,409.34 581.18,420.22 580.88,430 C580.38,446.38 580.7886,458.8621 581.6886,472.9921" fill="none" id="Broker-to-AnalyticsService" style="stroke:#181818;stroke-width:1;stroke-dasharray:7,7;"/><polygon fill="#181818" points="582.07,478.98,585.4898,469.7439,581.7522,473.9901,577.506,470.2525,582.07,478.98" style="stroke:#181818;stroke-width:1;"/><text fill="#000000" font-family="sans-serif" font-size="13" lengthAdjust="spacing" textLength="251.3682" x="581.88" y="444.897">5c. event("order.created")  ' p.ej. m&#233;tricas</text></g><!--SRC=[XPD1Ri8m44NtESM83R30BL1QYGKINRHbHLJe0Ompj8RWGME7YYDrqLMFmCLgXu12WaHs6V_vy_8zeSKAbOCFcqdM5D7nTHnFNgN3Rxa_LQQS8C-GTrhXgHRB_GQDgrGdPkUBnFjA_PbfZHn5JNX9inM1FVmQnMG8jD5AopGg8A3J6PK887-6q1KGJsTpkAE0OgEI8ZIK0Rsw9q0nIeunqGcrsj75UMYeSkPDNTWXwwLMacUErDetrdHNf_M0rb5zo6L4NjaNi6LIQ3sQ_0nW5SaLzxx7KcIMcZSoeP1Wd2rIpwZquSz0We0v8iXpffSaGeoA-BtRWoS8xVQhrSYZ524eXqcZ7QndcLMij_w3qKAhO3M01iWnmOO2BBMZmYzONqbo8CKHgZO3e0bRWIi1Ve3NImORaYuRLY89jpzOt3Rq6IcTwcCiPR-naUdUQMLBWEgst-RmuzZ7R4CkxsYt6LedGQQG5RzBxRvBIpc4Ht6-jXpfk8lLnJrjVR7cJmBUvlCOUlVTVm00]--></g></svg>