<svg xmlns="http://www.w3.org/2000/svg" xmlns:xlink="http://www.w3.org/1999/xlink" contentStyleType="text/css" data-diagram-type="TIMING" height="215px" preserveAspectRatio="none" style="width:500px;height:215px;background:#FFFFFF;" version="1.1" viewBox="0 0 500 215" width="500px" zoomAndPan="magnify"><defs/><g><line style="stroke:#333333;stroke-width:0.5;" x1="10" x2="10" y1="10" y2="184.1358"/><line style="stroke:#333333;stroke-width:0.5;" x1="488.6688" x2="488.6688" y1="10" y2="184.1358"/><line style="stroke:#333333;stroke-width:0.5;stroke-dasharray:3,5;" x1="133.6688" x2="133.6688" y1="10" y2="184.1358"/><line style="stroke:#333333;stroke-width:0.5;stroke-dasharray:3,5;" x1="183.6688" x2="183.6688" y1="10" y2="184.1358"/><line style="stroke:#333333;stroke-width:0.5;stroke-dasharray:3,5;" x1="233.6688" x2="233.6688" y1="10" y2="184.1358"/><line style="stroke:#333333;stroke-width:0.5;stroke-dasharray:3,5;" x1="283.6688" x2="283.6688" y1="10" y2="184.1358"/><line style="stroke:#333333;stroke-width:0.5;stroke-dasharray:3,5;" x1="333.6688" x2="333.6688" y1="10" y2="184.1358"/><line style="stroke:#333333;stroke-width:0.5;stroke-dasharray:3,5;" x1="383.6688" x2="383.6688" y1="10" y2="184.1358"/><line style="stroke:#333333;stroke-width:0.5;stroke-dasharray:3,5;" x1="433.6688" x2="433.6688" y1="10" y2="184.1358"/><line style="stroke:#333333;stroke-width:0.5;stroke-dasharray:3,5;" x1="483.6688" x2="483.6688" y1="10" y2="184.1358"/><line style="stroke:#333333;stroke-width:0.5;" x1="10" x2="488.6688" y1="10" y2="10"/><text fill="#333333" font-family="sans-serif" font-size="14" font-weight="bold" lengthAdjust="spacing" textLength="49.2798" x="15" y="24.9659">Cliente</text><line style="stroke:#333333;stroke-width:0.5;" x1="10" x2="65.2798" y1="30.0679" y2="30.0679"/><line style="stroke:#333333;stroke-width:0.5;" x1="65.2798" x2="75.2798" y1="30.0679" y2="10"/><text fill="#333333" font-family="sans-serif" font-size="12" lengthAdjust="spacing" textLength="21.3121" x="15" y="100.7239">Idle</text><text fill="#333333" font-family="sans-serif" font-size="12" lengthAdjust="spacing" textLength="97.0567" x="15" y="80.7239">EnviandoPeticion</text><text fill="#333333" font-family="sans-serif" font-size="12" lengthAdjust="spacing" textLength="118.6688" x="15" y="60.7239">EsperandoRespuesta</text><text fill="#333333" font-family="sans-serif" font-size="12" lengthAdjust="spacing" textLength="62.3884" x="15" y="40.7239">Recibiendo</text><line style="stroke:#006400;stroke-width:2;" x1="133.6688" x2="183.6688" y1="95.0679" y2="95.0679"/><line style="stroke:#006400;stroke-width:2;" x1="183.6688" x2="233.6688" y1="75.0679" y2="75.0679"/><line style="stroke:#006400;stroke-width:2;" x1="233.6688" x2="333.6688" y1="55.0679" y2="55.0679"/><line style="stroke:#006400;stroke-width:2;" x1="333.6688" x2="433.6688" y1="35.0679" y2="35.0679"/><line style="stroke:#006400;stroke-width:2;" x1="433.6688" x2="483.6688" y1="95.0679" y2="95.0679"/><line style="stroke:#006400;stroke-width:2;" x1="183.6688" x2="183.6688" y1="75.0679" y2="95.0679"/><line style="stroke:#006400;stroke-width:2;" x1="233.6688" x2="233.6688" y1="55.0679" y2="75.0679"/><line style="stroke:#006400;stroke-width:2;" x1="333.6688" x2="333.6688" y1="35.0679" y2="55.0679"/><line style="stroke:#006400;stroke-width:2;" x1="433.6688" x2="433.6688" y1="35.0679" y2="95.0679"/><line style="stroke:#333333;stroke-width:0.5;" x1="10" x2="488.6688" y1="107.0679" y2="107.0679"/><text fill="#333333" font-family="sans-serif" font-size="14" font-weight="bold" lengthAdjust="spacing" textLength="58.4638" x="15" y="122.0339">Servidor</text><line style="stroke:#333333;stroke-width:0.5;" x1="10" x2="74.4638" y1="127.1358" y2="127.1358"/><line style="stroke:#333333;stroke-width:0.5;" x1="74.4638" x2="84.4638" y1="127.1358" y2="107.0679"/><text fill="#333333" font-family="sans-serif" font-size="12" lengthAdjust="spacing" textLength="21.3121" x="18.2441" y="177.7919">Idle</text><text fill="#333333" font-family="sans-serif" font-size="12" lengthAdjust="spacing" textLength="66.5405" x="18.2441" y="157.7919">Procesando</text><text fill="#333333" font-family="sans-serif" font-size="12" lengthAdjust="spacing" textLength="110.4248" x="18.2441" y="137.7919">EnviandoRespuesta</text><line style="stroke:#006400;stroke-width:2;" x1="133.6688" x2="183.6688" y1="172.1358" y2="172.1358"/><line style="stroke:#006400;stroke-width:2;" x1="183.6688" x2="233.6688" y1="172.1358" y2="172.1358"/><line style="stroke:#006400;stroke-width:2;" x1="233.6688" x2="333.6688" y1="152.1358" y2="152.1358"/><line style="stroke:#006400;stroke-width:2;" x1="333.6688" x2="433.6688" y1="132.1358" y2="132.1358"/><line style="stroke:#006400;stroke-width:2;" x1="433.6688" x2="483.6688" y1="172.1358" y2="172.1358"/><line style="stroke:#006400;stroke-width:2;" x1="183.6688" x2="183.6688" y1="172.1358" y2="172.1358"/><line style="stroke:#006400;stroke-width:2;" x1="233.6688" x2="233.6688" y1="152.1358" y2="172.1358"/><line style="stroke:#006400;stroke-width:2;" x1="333.6688" x2="333.6688" y1="132.1358" y2="152.1358"/><line style="stroke:#006400;stroke-width:2;" x1="433.6688" x2="433.6688" y1="132.1358" y2="172.1358"/><line style="stroke:#333333;stroke-width:2;" x1="133.6688" x2="133.6688" y1="184.1358" y2="189.1358"/><line style="stroke:#333333;stroke-width:2;" x1="183.6688" x2="183.6688" y1="184.1358" y2="189.1358"/><line style="stroke:#333333;stroke-width:2;" x1="233.6688" x2="233.6688" y1="184.1358" y2="189.1358"/><line style="stroke:#333333;stroke-width:2;" x1="283.6688" x2="283.6688" y1="184.1358" y2="189.1358"/><line style="stroke:#333333;stroke-width:2;" x1="333.6688" x2="333.6688" y1="184.1358" y2="189.1358"/><line style="stroke:#333333;stroke-width:2;" x1="383.6688" x2="383.6688" y1="184.1358" y2="189.1358"/><line style="stroke:#333333;stroke-width:2;" x1="433.6688" x2="433.6688" y1="184.1358" y2="189.1358"/><line style="stroke:#333333;stroke-width:2;" x1="483.6688" x2="483.6688" y1="184.1358" y2="189.1358"/><line style="stroke:#333333;stroke-width:2;" x1="133.6688" x2="483.6688" y1="184.1358" y2="184.1358"/><text fill="#333333" font-family="sans-serif" font-size="11" lengthAdjust="spacing" textLength="6.2919" x="130.5229" y="201.8947">0</text><text fill="#333333" font-family="sans-serif" font-size="11" lengthAdjust="spacing" textLength="12.5839" x="177.3769" y="201.8947">50</text><text fill="#333333" font-family="sans-serif" font-size="11" lengthAdjust="spacing" textLength="18.8758" x="224.2309" y="201.8947">100</text><text fill="#333333" font-family="sans-serif" font-size="11" lengthAdjust="spacing" textLength="18.8758" x="324.2309" y="201.8947">200</text><text fill="#333333" font-family="sans-serif" font-size="11" lengthAdjust="spacing" textLength="18.8758" x="424.2309" y="201.8947">300</text><!--SRC=[ROvB2iCm34JtEeN82ToMxWscY-v2V0B7ra8Gx20vEN-TDka7kXDltg2HCYvQiNCJKwxKOL1q83lr92kd8a_i0Qm1XwnuJnE1VrzWhtjmook7d4fFbIEN_2ETp67fJB9f0-cyaDRmydefaNGBcdq-x84YZsrTe_xxnwSCzcB-Bdi0]--></g></svg>