<svg xmlns="http://www.w3.org/2000/svg" xmlns:xlink="http://www.w3.org/1999/xlink" contentStyleType="text/css" data-diagram-type="TIMING" height="101px" preserveAspectRatio="none" style="width:633px;height:101px;background:#FFFFFF;" version="1.1" viewBox="0 0 633 101" width="633px" zoomAndPan="magnify"><defs/><g><line style="stroke:#333333;stroke-width:0.5;" x1="10" x2="10" y1="10" y2="70"/><line style="stroke:#333333;stroke-width:0.5;" x1="621.8998" x2="621.8998" y1="10" y2="70"/><line style="stroke:#333333;stroke-width:0.5;stroke-dasharray:3,5;" x1="66.8998" x2="66.8998" y1="10" y2="70"/><line style="stroke:#333333;stroke-width:0.5;stroke-dasharray:3,5;" x1="116.8998" x2="116.8998" y1="10" y2="70"/><line style="stroke:#333333;stroke-width:0.5;stroke-dasharray:3,5;" x1="166.8998" x2="166.8998" y1="10" y2="70"/><line style="stroke:#333333;stroke-width:0.5;stroke-dasharray:3,5;" x1="216.8998" x2="216.8998" y1="10" y2="70"/><line style="stroke:#333333;stroke-width:0.5;stroke-dasharray:3,5;" x1="266.8998" x2="266.8998" y1="10" y2="70"/><line style="stroke:#333333;stroke-width:0.5;stroke-dasharray:3,5;" x1="316.8998" x2="316.8998" y1="10" y2="70"/><line style="stroke:#333333;stroke-width:0.5;stroke-dasharray:3,5;" x1="366.8998" x2="366.8998" y1="10" y2="70"/><line style="stroke:#333333;stroke-width:0.5;stroke-dasharray:3,5;" x1="416.8998" x2="416.8998" y1="10" y2="70"/><line style="stroke:#333333;stroke-width:0.5;stroke-dasharray:3,5;" x1="466.8998" x2="466.8998" y1="10" y2="70"/><line style="stroke:#333333;stroke-width:0.5;stroke-dasharray:3,5;" x1="516.8998" x2="516.8998" y1="10" y2="70"/><line style="stroke:#333333;stroke-width:0.5;stroke-dasharray:3,5;" x1="566.8998" x2="566.8998" y1="10" y2="70"/><line style="stroke:#333333;stroke-width:0.5;stroke-dasharray:3,5;" x1="616.8998" x2="616.8998" y1="10" y2="70"/><line style="stroke:#333333;stroke-width:0.5;" x1="10" x2="621.8998" y1="10" y2="10"/><line style="stroke:#006400;stroke-width:1.5;" x1="66.8998" x2="66.8998" y1="18" y2="32"/><line style="stroke:#006400;stroke-width:1.5;" x1="66.8998" x2="91.8998" y1="18" y2="18"/><line style="stroke:#006400;stroke-width:1.5;" x1="91.8998" x2="91.8998" y1="18" y2="32"/><line style="stroke:#006400;stroke-width:1.5;" x1="91.8998" x2="116.8998" y1="32" y2="32"/><line style="stroke:#006400;stroke-width:1.5;" x1="116.8998" x2="116.8998" y1="18" y2="32"/><line style="stroke:#006400;stroke-width:1.5;" x1="116.8998" x2="141.8998" y1="18" y2="18"/><line style="stroke:#006400;stroke-width:1.5;" x1="141.8998" x2="141.8998" y1="18" y2="32"/><line style="stroke:#006400;stroke-width:1.5;" x1="141.8998" x2="166.8998" y1="32" y2="32"/><line style="stroke:#006400;stroke-width:1.5;" x1="166.8998" x2="166.8998" y1="18" y2="32"/><line style="stroke:#006400;stroke-width:1.5;" x1="166.8998" x2="191.8998" y1="18" y2="18"/><line style="stroke:#006400;stroke-width:1.5;" x1="191.8998" x2="191.8998" y1="18" y2="32"/><line style="stroke:#006400;stroke-width:1.5;" x1="191.8998" x2="216.8998" y1="32" y2="32"/><line style="stroke:#006400;stroke-width:1.5;" x1="216.8998" x2="216.8998" y1="18" y2="32"/><line style="stroke:#006400;stroke-width:1.5;" x1="216.8998" x2="241.8998" y1="18" y2="18"/><line style="stroke:#006400;stroke-width:1.5;" x1="241.8998" x2="241.8998" y1="18" y2="32"/><line style="stroke:#006400;stroke-width:1.5;" x1="241.8998" x2="266.8998" y1="32" y2="32"/><line style="stroke:#006400;stroke-width:1.5;" x1="266.8998" x2="266.8998" y1="18" y2="32"/><line style="stroke:#006400;stroke-width:1.5;" x1="266.8998" x2="291.8998" y1="18" y2="18"/><line style="stroke:#006400;stroke-width:1.5;" x1="291.8998" x2="291.8998" y1="18" y2="32"/><line style="stroke:#006400;stroke-width:1.5;" x1="291.8998" x2="316.8998" y1="32" y2="32"/><line style="stroke:#006400;stroke-width:1.5;" x1="316.8998" x2="316.8998" y1="18" y2="32"/><line style="stroke:#006400;stroke-width:1.5;" x1="316.8998" x2="341.8998" y1="18" y2="18"/><line style="stroke:#006400;stroke-width:1.5;" x1="341.8998" x2="341.8998" y1="18" y2="32"/><line style="stroke:#006400;stroke-width:1.5;" x1="341.8998" x2="366.8998" y1="32" y2="32"/><line style="stroke:#006400;stroke-width:1.5;" x1="366.8998" x2="366.8998" y1="18" y2="32"/><line style="stroke:#006400;stroke-width:1.5;" x1="366.8998" x2="391.8998" y1="18" y2="18"/><line style="stroke:#006400;stroke-width:1.5;" x1="391.8998" x2="391.8998" y1="18" y2="32"/><line style="stroke:#006400;stroke-width:1.5;" x1="391.8998" x2="416.8998" y1="32" y2="32"/><line style="stroke:#006400;stroke-width:1.5;" x1="416.8998" x2="416.8998" y1="18" y2="32"/><line style="stroke:#006400;stroke-width:1.5;" x1="416.8998" x2="441.8998" y1="18" y2="18"/><line style="stroke:#006400;stroke-width:1.5;" x1="441.8998" x2="441.8998" y1="18" y2="32"/><line style="stroke:#006400;stroke-width:1.5;" x1="441.8998" x2="466.8998" y1="32" y2="32"/><line style="stroke:#006400;stroke-width:1.5;" x1="466.8998" x2="466.8998" y1="18" y2="32"/><line style="stroke:#006400;stroke-width:1.5;" x1="466.8998" x2="491.8998" y1="18" y2="18"/><line style="stroke:#006400;stroke-width:1.5;" x1="491.8998" x2="491.8998" y1="18" y2="32"/><line style="stroke:#006400;stroke-width:1.5;" x1="491.8998" x2="516.8998" y1="32" y2="32"/><line style="stroke:#006400;stroke-width:1.5;" x1="516.8998" x2="516.8998" y1="18" y2="32"/><line style="stroke:#006400;stroke-width:1.5;" x1="516.8998" x2="541.8998" y1="18" y2="18"/><line style="stroke:#006400;stroke-width:1.5;" x1="541.8998" x2="541.8998" y1="18" y2="32"/><line style="stroke:#006400;stroke-width:1.5;" x1="541.8998" x2="566.8998" y1="32" y2="32"/><line style="stroke:#006400;stroke-width:1.5;" x1="566.8998" x2="566.8998" y1="18" y2="32"/><line style="stroke:#006400;stroke-width:1.5;" x1="566.8998" x2="591.8998" y1="18" y2="18"/><line style="stroke:#006400;stroke-width:1.5;" x1="591.8998" x2="591.8998" y1="18" y2="32"/><line style="stroke:#006400;stroke-width:1.5;" x1="591.8998" x2="616.8998" y1="32" y2="32"/><line style="stroke:#006400;stroke-width:1.5;" x1="616.8998" x2="616.8998" y1="18" y2="32"/><line style="stroke:#006400;stroke-width:1.5;" x1="616.8998" x2="616.8998" y1="18" y2="18"/><line style="stroke:#333333;stroke-width:0.5;" x1="10" x2="621.8998" y1="40" y2="40"/><text fill="#333333" font-family="sans-serif" font-size="14" font-weight="bold" lengthAdjust="spacing" textLength="46.8998" x="15" y="60.432">Enable</text><line style="stroke:#006400;stroke-width:2;" x1="66.8998" x2="66.8998" y1="62" y2="62"/><line style="stroke:#006400;stroke-width:2;" x1="66.8998" x2="316.8998" y1="62" y2="62"/><line style="stroke:#006400;stroke-width:2;" x1="316.8998" x2="316.8998" y1="48" y2="62"/><line style="stroke:#006400;stroke-width:2;" x1="316.8998" x2="566.8998" y1="48" y2="48"/><line style="stroke:#006400;stroke-width:2;" x1="566.8998" x2="566.8998" y1="48" y2="62"/><line style="stroke:#006400;stroke-width:2;" x1="566.8998" x2="616.8998" y1="62" y2="62"/><line style="stroke:#333333;stroke-width:2;" x1="66.8998" x2="66.8998" y1="70" y2="75"/><line style="stroke:#333333;stroke-width:2;" x1="116.8998" x2="116.8998" y1="70" y2="75"/><line style="stroke:#333333;stroke-width:2;" x1="166.8998" x2="166.8998" y1="70" y2="75"/><line style="stroke:#333333;stroke-width:2;" x1="216.8998" x2="216.8998" y1="70" y2="75"/><line style="stroke:#333333;stroke-width:2;" x1="266.8998" x2="266.8998" y1="70" y2="75"/><line style="stroke:#333333;stroke-width:2;" x1="316.8998" x2="316.8998" y1="70" y2="75"/><line style="stroke:#333333;stroke-width:2;" x1="366.8998" x2="366.8998" y1="70" y2="75"/><line style="stroke:#333333;stroke-width:2;" x1="416.8998" x2="416.8998" y1="70" y2="75"/><line style="stroke:#333333;stroke-width:2;" x1="466.8998" x2="466.8998" y1="70" y2="75"/><line style="stroke:#333333;stroke-width:2;" x1="516.8998" x2="516.8998" y1="70" y2="75"/><line style="stroke:#333333;stroke-width:2;" x1="566.8998" x2="566.8998" y1="70" y2="75"/><line style="stroke:#333333;stroke-width:2;" x1="616.8998" x2="616.8998" y1="70" y2="75"/><line style="stroke:#333333;stroke-width:2;" x1="66.8998" x2="616.8998" y1="70" y2="70"/><text fill="#333333" font-family="sans-serif" font-size="11" lengthAdjust="spacing" textLength="6.2919" x="63.7539" y="87.7589">0</text><text fill="#333333" font-family="sans-serif" font-size="11" lengthAdjust="spacing" textLength="6.2919" x="113.7539" y="87.7589">1</text><text fill="#333333" font-family="sans-serif" font-size="11" lengthAdjust="spacing" textLength="6.2919" x="313.7539" y="87.7589">5</text><text fill="#333333" font-family="sans-serif" font-size="11" lengthAdjust="spacing" textLength="12.5839" x="560.6079" y="87.7589">10</text><!--SRC=[Iyx9JyvMICx9LYZFBCbGA4WjoinFKJ3aIihCIoogL51opKjCoabLKaWiLd3ru-9oCE1ozLF8B5R8oIy7yaoXl8pCz0mWrn195W00]--></g></svg>