<svg xmlns="http://www.w3.org/2000/svg" xmlns:xlink="http://www.w3.org/1999/xlink" contentStyleType="text/css" data-diagram-type="TIMING" height="177px" preserveAspectRatio="none" style="width:298px;height:177px;background:#FFFFFF;" version="1.1" viewBox="0 0 298 177" width="298px" zoomAndPan="magnify"><defs/><g><line style="stroke:#333333;stroke-width:0.5;" x1="10" x2="10" y1="10" y2="146.1358"/><line style="stroke:#333333;stroke-width:0.5;" x1="281.3925" x2="281.3925" y1="10" y2="146.1358"/><line style="stroke:#333333;stroke-width:0.5;stroke-dasharray:3,5;" x1="76.3925" x2="76.3925" y1="10" y2="146.1358"/><line style="stroke:#333333;stroke-width:0.5;stroke-dasharray:3,5;" x1="126.3925" x2="126.3925" y1="10" y2="146.1358"/><line style="stroke:#333333;stroke-width:0.5;stroke-dasharray:3,5;" x1="176.3925" x2="176.3925" y1="10" y2="146.1358"/><line style="stroke:#333333;stroke-width:0.5;stroke-dasharray:3,5;" x1="226.3925" x2="226.3925" y1="10" y2="146.1358"/><line style="stroke:#333333;stroke-width:0.5;stroke-dasharray:3,5;" x1="276.3925" x2="276.3925" y1="10" y2="146.1358"/><line style="stroke:#333333;stroke-width:0.5;" x1="10" x2="281.3925" y1="10" y2="10"/><text fill="#333333" font-family="sans-serif" font-size="14" font-weight="bold" lengthAdjust="spacing" textLength="92.3156" x="15" y="24.9659">Web Browser</text><line style="stroke:#333333;stroke-width:0.5;" x1="10" x2="108.3156" y1="30.0679" y2="30.0679"/><line style="stroke:#333333;stroke-width:0.5;" x1="108.3156" x2="118.3156" y1="30.0679" y2="10"/><text fill="#333333" font-family="sans-serif" font-size="12" lengthAdjust="spacing" textLength="21.3121" x="15" y="80.7239">Idle</text><text fill="#333333" font-family="sans-serif" font-size="12" lengthAdjust="spacing" textLength="61.3925" x="15" y="60.7239">Processing</text><text fill="#333333" font-family="sans-serif" font-size="12" lengthAdjust="spacing" textLength="43.2123" x="15" y="40.7239">Waiting</text><line style="stroke:#006400;stroke-width:2;" x1="76.3925" x2="126.3925" y1="75.0679" y2="75.0679"/><line style="stroke:#006400;stroke-width:2;" x1="126.3925" x2="226.3925" y1="55.0679" y2="55.0679"/><line style="stroke:#006400;stroke-width:2;" x1="226.3925" x2="276.3925" y1="35.0679" y2="35.0679"/><line style="stroke:#006400;stroke-width:2;" x1="126.3925" x2="126.3925" y1="55.0679" y2="75.0679"/><line style="stroke:#006400;stroke-width:2;" x1="226.3925" x2="226.3925" y1="35.0679" y2="55.0679"/><line style="stroke:#333333;stroke-width:0.5;" x1="10" x2="281.3925" y1="87.0679" y2="87.0679"/><text fill="#333333" font-family="sans-serif" font-size="14" font-weight="bold" lengthAdjust="spacing" textLength="66.4857" x="15" y="102.0339">Web User</text><line style="stroke:#333333;stroke-width:0.5;" x1="10" x2="82.4857" y1="107.1358" y2="107.1358"/><line style="stroke:#333333;stroke-width:0.5;" x1="82.4857" x2="92.4857" y1="107.1358" y2="87.0679"/><polygon fill="#E2E2F0" points="88.3925,112.1358,114.3925,112.1358,126.3925,124.1358,114.3925,136.1358,88.3925,136.1358,76.3925,124.1358" style="stroke:#006400;stroke-width:1.5;"/><polygon fill="#E2E2F0" points="138.3925,112.1358,276.3925,112.1358,276.3925,136.1358,138.3925,136.1358,126.3925,124.1358" style="stroke:#E2E2F0;stroke-width:1.5;"/><path d="M276.3925,112.1358 L138.3925,112.1358 L126.3925,124.1358 L138.3925,136.1358 L276.3925,136.1358" fill="#E2E2F0" style="stroke:#006400;stroke-width:1.5;"/><text fill="#333333" font-family="sans-serif" font-size="12" font-weight="bold" lengthAdjust="spacing" textLength="23.0162" x="89.8844" y="128.7919">Idle</text><text fill="#333333" font-family="sans-serif" font-size="12" font-weight="bold" lengthAdjust="spacing" textLength="46.8603" x="138.3925" y="128.7919">Waiting</text><line style="stroke:#333333;stroke-width:2;" x1="76.3925" x2="76.3925" y1="146.1358" y2="151.1358"/><line style="stroke:#333333;stroke-width:2;" x1="126.3925" x2="126.3925" y1="146.1358" y2="151.1358"/><line style="stroke:#333333;stroke-width:2;" x1="176.3925" x2="176.3925" y1="146.1358" y2="151.1358"/><line style="stroke:#333333;stroke-width:2;" x1="226.3925" x2="226.3925" y1="146.1358" y2="151.1358"/><line style="stroke:#333333;stroke-width:2;" x1="276.3925" x2="276.3925" y1="146.1358" y2="151.1358"/><line style="stroke:#333333;stroke-width:2;" x1="76.3925" x2="276.3925" y1="146.1358" y2="146.1358"/><text fill="#333333" font-family="sans-serif" font-size="11" lengthAdjust="spacing" textLength="6.2919" x="73.2465" y="163.8947">0</text><text fill="#333333" font-family="sans-serif" font-size="11" lengthAdjust="spacing" textLength="18.8758" x="116.9545" y="163.8947">100</text><text fill="#333333" font-family="sans-serif" font-size="11" lengthAdjust="spacing" textLength="18.8758" x="216.9545" y="163.8947">300</text><line style="stroke:#00008B;stroke-width:1.5;" x1="126.3925" x2="126.3925" y1="124.1358" y2="75.0679"/><polygon fill="#00008B" points="129.1286,82.5855,123.6563,82.5855,126.3925,75.0679" style="stroke:#00008B;stroke-width:1.5;"/><text fill="#00008B" font-family="Serif" font-size="14" lengthAdjust="spacing" textLength="27.9439" x="126.3925" y="97.5514">URL</text><!--SRC=[AyfFAYqkKL0AJqrIS2hABozEBL9II2nM27VYIixFIyuiJeN8XS8bGhcu70oumaCLCeiLF5DoKhd2dU1CBWT30x2ShXtG10KhXT0W7wZIyCJCaioyTAZgWAByvDJYOf00buCnI8yJaY80]--></g></svg>