<svg xmlns="http://www.w3.org/2000/svg" xmlns:xlink="http://www.w3.org/1999/xlink" contentStyleType="text/css" data-diagram-type="TIMING" height="234px" preserveAspectRatio="none" style="width:498px;height:234px;background:#FFFFFF;" version="1.1" viewBox="0 0 498 234" width="498px" zoomAndPan="magnify"><defs/><g><line style="stroke:#333333;stroke-width:0.5;" x1="10" x2="10" y1="10" y2="203.2038"/><line style="stroke:#333333;stroke-width:0.5;" x1="481.3925" x2="481.3925" y1="10" y2="203.2038"/><line style="stroke:#333333;stroke-width:0.5;stroke-dasharray:3,5;" x1="76.3925" x2="76.3925" y1="10" y2="203.2038"/><line style="stroke:#333333;stroke-width:0.5;stroke-dasharray:3,5;" x1="126.3925" x2="126.3925" y1="10" y2="203.2038"/><line style="stroke:#333333;stroke-width:0.5;stroke-dasharray:3,5;" x1="176.3925" x2="176.3925" y1="10" y2="203.2038"/><line style="stroke:#333333;stroke-width:0.5;stroke-dasharray:3,5;" x1="226.3925" x2="226.3925" y1="10" y2="203.2038"/><line style="stroke:#333333;stroke-width:0.5;stroke-dasharray:3,5;" x1="276.3925" x2="276.3925" y1="10" y2="203.2038"/><line style="stroke:#333333;stroke-width:0.5;stroke-dasharray:3,5;" x1="326.3925" x2="326.3925" y1="10" y2="203.2038"/><line style="stroke:#333333;stroke-width:0.5;stroke-dasharray:3,5;" x1="376.3925" x2="376.3925" y1="10" y2="203.2038"/><line style="stroke:#333333;stroke-width:0.5;stroke-dasharray:3,5;" x1="426.3925" x2="426.3925" y1="10" y2="203.2038"/><line style="stroke:#333333;stroke-width:0.5;stroke-dasharray:3,5;" x1="476.3925" x2="476.3925" y1="10" y2="203.2038"/><line style="stroke:#333333;stroke-width:0.5;" x1="10" x2="481.3925" y1="10" y2="10"/><text fill="#333333" font-family="sans-serif" font-size="14" font-weight="bold" lengthAdjust="spacing" textLength="93.0997" x="15" y="24.9659">DNS Resolver</text><line style="stroke:#333333;stroke-width:0.5;" x1="10" x2="109.0997" y1="30.0679" y2="30.0679"/><line style="stroke:#333333;stroke-width:0.5;" x1="109.0997" x2="119.0997" y1="30.0679" y2="10"/><text fill="#333333" font-family="sans-serif" font-size="12" lengthAdjust="spacing" textLength="21.3121" x="15" y="60.7239">Idle</text><text fill="#333333" font-family="sans-serif" font-size="12" lengthAdjust="spacing" textLength="61.3925" x="15" y="40.7239">Processing</text><line style="stroke:#006400;stroke-width:2;" x1="76.3925" x2="276.3925" y1="55.0679" y2="55.0679"/><line style="stroke:#006400;stroke-width:2;" x1="276.3925" x2="426.3925" y1="35.0679" y2="35.0679"/><line style="stroke:#006400;stroke-width:2;" x1="426.3925" x2="476.3925" y1="55.0679" y2="55.0679"/><line style="stroke:#006400;stroke-width:2;" x1="276.3925" x2="276.3925" y1="35.0679" y2="55.0679"/><line style="stroke:#006400;stroke-width:2;" x1="426.3925" x2="426.3925" y1="35.0679" y2="55.0679"/><line style="stroke:#333333;stroke-width:0.5;" x1="10" x2="481.3925" y1="67.0679" y2="67.0679"/><text fill="#333333" font-family="sans-serif" font-size="14" font-weight="bold" lengthAdjust="spacing" textLength="92.3156" x="15" y="82.0339">Web Browser</text><line style="stroke:#333333;stroke-width:0.5;" x1="10" x2="108.3156" y1="87.1358" y2="87.1358"/><line style="stroke:#333333;stroke-width:0.5;" x1="108.3156" x2="118.3156" y1="87.1358" y2="67.0679"/><text fill="#333333" font-family="sans-serif" font-size="12" lengthAdjust="spacing" textLength="21.3121" x="15" y="137.7919">Idle</text><text fill="#333333" font-family="sans-serif" font-size="12" lengthAdjust="spacing" textLength="61.3925" x="15" y="117.7919">Processing</text><text fill="#333333" font-family="sans-serif" font-size="12" lengthAdjust="spacing" textLength="43.2123" x="15" y="97.7919">Waiting</text><line style="stroke:#006400;stroke-width:2;" x1="76.3925" x2="126.3925" y1="132.1358" y2="132.1358"/><line style="stroke:#006400;stroke-width:2;" x1="126.3925" x2="226.3925" y1="112.1358" y2="112.1358"/><line style="stroke:#006400;stroke-width:2;" x1="226.3925" x2="476.3925" y1="92.1358" y2="92.1358"/><line style="stroke:#006400;stroke-width:2;" x1="126.3925" x2="126.3925" y1="112.1358" y2="132.1358"/><line style="stroke:#006400;stroke-width:2;" x1="226.3925" x2="226.3925" y1="92.1358" y2="112.1358"/><line style="stroke:#333333;stroke-width:0.5;" x1="10" x2="481.3925" y1="144.1358" y2="144.1358"/><text fill="#333333" font-family="sans-serif" font-size="14" font-weight="bold" lengthAdjust="spacing" textLength="66.4857" x="15" y="159.1018">Web User</text><line style="stroke:#333333;stroke-width:0.5;" x1="10" x2="82.4857" y1="164.2038" y2="164.2038"/><line style="stroke:#333333;stroke-width:0.5;" x1="82.4857" x2="92.4857" y1="164.2038" y2="144.1358"/><polygon fill="#E2E2F0" points="88.3925,169.2038,114.3925,169.2038,126.3925,181.2038,114.3925,193.2038,88.3925,193.2038,76.3925,181.2038" style="stroke:#006400;stroke-width:1.5;"/><polygon fill="#E2E2F0" points="138.3925,169.2038,476.3925,169.2038,476.3925,193.2038,138.3925,193.2038,126.3925,181.2038" style="stroke:#E2E2F0;stroke-width:1.5;"/><path d="M476.3925,169.2038 L138.3925,169.2038 L126.3925,181.2038 L138.3925,193.2038 L476.3925,193.2038" fill="#E2E2F0" style="stroke:#006400;stroke-width:1.5;"/><text fill="#333333" font-family="sans-serif" font-size="12" font-weight="bold" lengthAdjust="spacing" textLength="23.0162" x="89.8844" y="185.8598">Idle</text><text fill="#333333" font-family="sans-serif" font-size="12" font-weight="bold" lengthAdjust="spacing" textLength="46.8603" x="138.3925" y="185.8598">Waiting</text><line style="stroke:#333333;stroke-width:2;" x1="76.3925" x2="76.3925" y1="203.2038" y2="208.2038"/><line style="stroke:#333333;stroke-width:2;" x1="126.3925" x2="126.3925" y1="203.2038" y2="208.2038"/><line style="stroke:#333333;stroke-width:2;" x1="176.3925" x2="176.3925" y1="203.2038" y2="208.2038"/><line style="stroke:#333333;stroke-width:2;" x1="226.3925" x2="226.3925" y1="203.2038" y2="208.2038"/><line style="stroke:#333333;stroke-width:2;" x1="276.3925" x2="276.3925" y1="203.2038" y2="208.2038"/><line style="stroke:#333333;stroke-width:2;" x1="326.3925" x2="326.3925" y1="203.2038" y2="208.2038"/><line style="stroke:#333333;stroke-width:2;" x1="376.3925" x2="376.3925" y1="203.2038" y2="208.2038"/><line style="stroke:#333333;stroke-width:2;" x1="426.3925" x2="426.3925" y1="203.2038" y2="208.2038"/><line style="stroke:#333333;stroke-width:2;" x1="476.3925" x2="476.3925" y1="203.2038" y2="208.2038"/><line style="stroke:#333333;stroke-width:2;" x1="76.3925" x2="476.3925" y1="203.2038" y2="203.2038"/><text fill="#333333" font-family="sans-serif" font-size="11" lengthAdjust="spacing" textLength="6.2919" x="73.2465" y="220.9627">0</text><text fill="#333333" font-family="sans-serif" font-size="11" lengthAdjust="spacing" textLength="18.8758" x="116.9545" y="220.9627">100</text><text fill="#333333" font-family="sans-serif" font-size="11" lengthAdjust="spacing" textLength="18.8758" x="216.9545" y="220.9627">300</text><text fill="#333333" font-family="sans-serif" font-size="11" lengthAdjust="spacing" textLength="18.8758" x="266.9545" y="220.9627">400</text><text fill="#333333" font-family="sans-serif" font-size="11" lengthAdjust="spacing" textLength="18.8758" x="416.9545" y="220.9627">700</text><line style="stroke:#00008B;stroke-width:1.5;" x1="126.3925" x2="126.3925" y1="181.2038" y2="132.1358"/><polygon fill="#00008B" points="129.1286,139.6534,123.6563,139.6534,126.3925,132.1358" style="stroke:#00008B;stroke-width:1.5;"/><text fill="#00008B" font-family="Serif" font-size="14" lengthAdjust="spacing" textLength="27.9439" x="126.3925" y="154.6193">URL</text><line style="stroke:#00008B;stroke-width:1.5;" x1="226.3925" x2="251.3925" y1="92.1358" y2="55.0679"/><polygon fill="#00008B" points="249.4575,62.8304,244.9205,59.7705,251.3925,55.0679" style="stroke:#00008B;stroke-width:1.5;"/><text fill="#00008B" font-family="Serif" font-size="14" lengthAdjust="spacing" textLength="82.5857" x="247.189" y="76.2664">Resolve URL</text><!--SRC=[NO_12i8m38RlUOgmwn2guiM3bE954959wNchGGfZXMRgwzlEED5Ro9V_-ziKkpkFMErF5so8O_-WL67Bc1UG13hgqAJuP67EW8-33qnlPcTW0RG2Pp4m7guzWJFpM2e-C-XwgQR3nIxhS8ksEKhEjM4CmqsYvnGzCPT53grAoFnTPKLswtgZiaS-CVcaHOf_JUilA2zw0G00]--></g></svg>