<svg xmlns="http://www.w3.org/2000/svg" xmlns:xlink="http://www.w3.org/1999/xlink" contentStyleType="text/css" data-diagram-type="DESCRIPTION" height="799px" preserveAspectRatio="none" style="width:2008px;height:799px;background:#FFFFFF;" version="1.1" viewBox="0 0 2008 799" width="2008px" zoomAndPan="magnify"><defs/><g><!--cluster Worker--><g class="cluster" data-entity="Worker" data-source-line="9" data-uid="ent0002" id="cluster_Worker"><polygon fill="none" points="16,16,26,6,1227,6,1227,772,1217,782,16,782,16,16" style="stroke:#181818;stroke-width:1;"/><line style="stroke:#181818;stroke-width:1;" x1="1217" x2="1227" y1="16" y2="6"/><line style="stroke:#181818;stroke-width:1;" x1="16" x2="1217" y1="16" y2="16"/><line style="stroke:#181818;stroke-width:1;" x1="1217" x2="1217" y1="16" y2="782"/><text fill="#000000" font-family="sans-serif" font-size="18" font-weight="bold" lengthAdjust="spacing" textLength="312.5861" x="461.2069" y="38.2419">Nodo K8s Worker de Contenedores</text><text fill="#000000" font-family="sans-serif" font-size="18" font-weight="bold" lengthAdjust="spacing" textLength="98.0274" x="568.4863" y="62.7577">(VM/Linux)</text></g><!--cluster Pod--><g class="cluster" data-entity="Pod" data-source-line="12" data-uid="ent0003" id="cluster_Pod"><polygon fill="none" points="48,105,58,95,1195,95,1195,740,1185,750,48,750,48,105" style="stroke:#181818;stroke-width:1;"/><line style="stroke:#181818;stroke-width:1;" x1="1185" x2="1195" y1="105" y2="95"/><line style="stroke:#181818;stroke-width:1;" x1="48" x2="1185" y1="105" y2="105"/><line style="stroke:#181818;stroke-width:1;" x1="1185" x2="1185" y1="105" y2="750"/><text fill="#000000" font-family="sans-serif" font-size="18" font-weight="bold" lengthAdjust="spacing" textLength="163.889" x="535.5555" y="127.2419">Pod: tienda-online</text></g><!--cluster C_API--><g class="cluster" data-entity="C_API" data-source-line="15" data-uid="ent0004" id="cluster_C_API"><polygon fill="none" points="369,177,379,167,1051,167,1051,383,1041,393,369,393,369,177" style="stroke:#181818;stroke-width:1;"/><line style="stroke:#181818;stroke-width:1;" x1="1041" x2="1051" y1="177" y2="167"/><line style="stroke:#181818;stroke-width:1;" x1="369" x2="1041" y1="177" y2="177"/><line style="stroke:#181818;stroke-width:1;" x1="1041" x2="1041" y1="177" y2="393"/><text fill="#000000" font-family="sans-serif" font-size="18" font-weight="bold" lengthAdjust="spacing" textLength="143.6212" x="634.1894" y="199.2419">Contenedor: api</text><text fill="#000000" font-family="sans-serif" font-size="18" font-weight="bold" lengthAdjust="spacing" textLength="217.5827" x="597.2087" y="223.7577">(image: tienda/api:1.4.2)</text></g><!--cluster C_WEB--><g class="cluster" data-entity="C_WEB" data-source-line="21" data-uid="ent0007" id="cluster_C_WEB"><polygon fill="none" points="293,518,303,508,1051,508,1051,700,1041,710,293,710,293,518" style="stroke:#181818;stroke-width:1;"/><line style="stroke:#181818;stroke-width:1;" x1="1041" x2="1051" y1="518" y2="508"/><line style="stroke:#181818;stroke-width:1;" x1="293" x2="1041" y1="518" y2="518"/><line style="stroke:#181818;stroke-width:1;" x1="1041" x2="1041" y1="518" y2="710"/><text fill="#000000" font-family="sans-serif" font-size="18" font-weight="bold" lengthAdjust="spacing" textLength="153.3051" x="591.3475" y="540.2419">Contenedor: web</text><text fill="#000000" font-family="sans-serif" font-size="18" font-weight="bold" lengthAdjust="spacing" textLength="227.2666" x="554.3667" y="564.7577">(image: tienda/web:2.1.0)</text></g><!--cluster VOL--><g class="cluster" data-entity="VOL" data-source-line="27" data-uid="ent0010" id="cluster_VOL"><polygon fill="none" points="80,246.5,90,236.5,337,236.5,337,338.5,327,348.5,80,348.5,80,246.5" style="stroke:#181818;stroke-width:1;"/><line style="stroke:#181818;stroke-width:1;" x1="327" x2="337" y1="246.5" y2="236.5"/><line style="stroke:#181818;stroke-width:1;" x1="80" x2="327" y1="246.5" y2="246.5"/><line style="stroke:#181818;stroke-width:1;" x1="327" x2="327" y1="246.5" y2="348.5"/><text fill="#000000" font-family="sans-serif" font-size="18" font-weight="bold" lengthAdjust="spacing" textLength="181.9249" x="113.5376" y="268.7419">Volumen (emptyDir)</text></g><!--cluster DBaaS--><g class="cluster" data-entity="DBaaS" data-source-line="34" data-uid="ent0012" id="cluster_DBaaS"><polygon fill="none" points="1259,518,1269,508,1991,508,1991,700,1981,710,1259,710,1259,518" style="stroke:#181818;stroke-width:1;"/><line style="stroke:#181818;stroke-width:1;" x1="1981" x2="1991" y1="518" y2="508"/><line style="stroke:#181818;stroke-width:1;" x1="1259" x2="1981" y1="518" y2="518"/><line style="stroke:#181818;stroke-width:1;" x1="1981" x2="1981" y1="518" y2="710"/><text fill="#000000" font-family="sans-serif" font-size="18" font-weight="bold" lengthAdjust="spacing" textLength="232.7386" x="1504.6307" y="540.2419">Base de Datos Gestionada</text><text fill="#000000" font-family="sans-serif" font-size="18" font-weight="bold" lengthAdjust="spacing" textLength="163.673" x="1539.1635" y="564.7577">(PostgreSQL PaaS)</text></g><!--entity A_API--><g class="entity" data-entity="A_API" data-source-line="16" data-uid="ent0005" id="entity_A_API"><rect fill="#F1F1F1" height="47.5158" rx="2.5" ry="2.5" style="stroke:#181818;stroke-width:0.5;" width="82.8117" x="943.5" y="284.5"/><polygon fill="#F1F1F1" points="1009.3117,289.5,1009.3117,303.5,1021.3117,303.5,1021.3117,295.5,1015.3117,289.5,1009.3117,289.5" style="stroke:#181818;stroke-width:0.5;"/><line style="stroke:#181818;stroke-width:0.5;" x1="1015.3117" x2="1015.3117" y1="289.5" y2="295.5"/><line style="stroke:#181818;stroke-width:0.5;" x1="1021.3117" x2="1015.3117" y1="295.5" y2="295.5"/><text fill="#000000" font-family="sans-serif" font-size="18" lengthAdjust="spacing" textLength="52.8117" x="953.5" y="316.7419">api.jar</text></g><!--entity A_API_ENV--><g class="entity" data-entity="A_API_ENV" data-source-line="17" data-uid="ent0006" id="entity_A_API_ENV"><rect fill="#F1F1F1" height="121.0634" rx="2.5" ry="2.5" style="stroke:#181818;stroke-width:0.5;" width="245.5667" x="537" y="248"/><polygon fill="#F1F1F1" points="765.5667,253,765.5667,267,777.5667,267,777.5667,259,771.5667,253,765.5667,253" style="stroke:#181818;stroke-width:0.5;"/><line style="stroke:#181818;stroke-width:0.5;" x1="771.5667" x2="771.5667" y1="253" y2="259"/><line style="stroke:#181818;stroke-width:0.5;" x1="777.5667" x2="771.5667" y1="259" y2="259"/><text fill="#000000" font-family="sans-serif" font-size="18" lengthAdjust="spacing" textLength="39.3118" x="547" y="280.2419">ENV:</text><text fill="#000000" font-family="sans-serif" font-size="18" lengthAdjust="spacing" textLength="97.6313" x="547" y="304.7577">PORT=8080</text><text fill="#000000" font-family="sans-serif" font-size="18" lengthAdjust="spacing" textLength="215.5667" x="547" y="329.2736">CACHE_HOST=cache.local</text><text fill="#000000" font-family="sans-serif" font-size="18" lengthAdjust="spacing" textLength="147.743" x="547" y="353.7894">LOG_LEVEL=INFO</text></g><!--entity A_WEB--><g class="entity" data-entity="A_WEB" data-source-line="22" data-uid="ent0008" id="entity_A_WEB"><rect fill="#F1F1F1" height="72.0317" rx="2.5" ry="2.5" style="stroke:#181818;stroke-width:0.5;" width="120.3054" x="907" y="601.5"/><polygon fill="#F1F1F1" points="1010.3054,606.5,1010.3054,620.5,1022.3054,620.5,1022.3054,612.5,1016.3054,606.5,1010.3054,606.5" style="stroke:#181818;stroke-width:0.5;"/><line style="stroke:#181818;stroke-width:0.5;" x1="1016.3054" x2="1016.3054" y1="606.5" y2="612.5"/><line style="stroke:#181818;stroke-width:0.5;" x1="1022.3054" x2="1016.3054" y1="612.5" y2="612.5"/><text fill="#000000" font-family="sans-serif" font-size="18" lengthAdjust="spacing" textLength="37.5298" x="917" y="633.7419">dist/</text><text fill="#000000" font-family="sans-serif" font-size="18" lengthAdjust="spacing" textLength="90.3054" x="917" y="658.2577">(build SPA)</text></g><!--entity A_WEB_ENV--><g class="entity" data-entity="A_WEB_ENV" data-source-line="23" data-uid="ent0009" id="entity_A_WEB_ENV"><rect fill="#F1F1F1" height="96.5475" rx="2.5" ry="2.5" style="stroke:#181818;stroke-width:0.5;" width="286.0303" x="461" y="589"/><polygon fill="#F1F1F1" points="730.0303,594,730.0303,608,742.0303,608,742.0303,600,736.0303,594,730.0303,594" style="stroke:#181818;stroke-width:0.5;"/><line style="stroke:#181818;stroke-width:0.5;" x1="736.0303" x2="736.0303" y1="594" y2="600"/><line style="stroke:#181818;stroke-width:0.5;" x1="742.0303" x2="736.0303" y1="600" y2="600"/><text fill="#000000" font-family="sans-serif" font-size="18" lengthAdjust="spacing" textLength="39.3118" x="471" y="621.2419">ENV:</text><text fill="#000000" font-family="sans-serif" font-size="18" lengthAdjust="spacing" textLength="77.0395" x="471" y="645.7577">PORT=80</text><text fill="#000000" font-family="sans-serif" font-size="18" lengthAdjust="spacing" textLength="256.0303" x="471" y="670.2736">API_URL=http://localhost:8080</text></g><!--entity A_VOL--><g class="entity" data-entity="A_VOL" data-source-line="28" data-uid="ent0011" id="entity_A_VOL"><rect fill="#F1F1F1" height="47.5158" rx="2.5" ry="2.5" style="stroke:#181818;stroke-width:0.5;" width="85.3497" x="113.5" y="284.5"/><polygon fill="#F1F1F1" points="181.8497,289.5,181.8497,303.5,193.8497,303.5,193.8497,295.5,187.8497,289.5,181.8497,289.5" style="stroke:#181818;stroke-width:0.5;"/><line style="stroke:#181818;stroke-width:0.5;" x1="187.8497" x2="187.8497" y1="289.5" y2="295.5"/><line style="stroke:#181818;stroke-width:0.5;" x1="193.8497" x2="187.8497" y1="295.5" y2="295.5"/><text fill="#000000" font-family="sans-serif" font-size="18" lengthAdjust="spacing" textLength="55.3497" x="123.5" y="316.7419">/cache</text></g><!--entity A_DB--><g class="entity" data-entity="A_DB" data-source-line="35" data-uid="ent0013" id="entity_A_DB"><rect fill="#F1F1F1" height="47.5158" rx="2.5" ry="2.5" style="stroke:#181818;stroke-width:0.5;" width="159.8152" x="1807" y="613.5"/><polygon fill="#F1F1F1" points="1949.8152,618.5,1949.8152,632.5,1961.8152,632.5,1961.8152,624.5,1955.8152,618.5,1949.8152,618.5" style="stroke:#181818;stroke-width:0.5;"/><line style="stroke:#181818;stroke-width:0.5;" x1="1955.8152" x2="1955.8152" y1="618.5" y2="624.5"/><line style="stroke:#181818;stroke-width:0.5;" x1="1961.8152" x2="1955.8152" y1="624.5" y2="624.5"/><text fill="#000000" font-family="sans-serif" font-size="18" lengthAdjust="spacing" textLength="129.8152" x="1817" y="645.7419">Schema: tienda</text></g><!--entity A_DB_CFG--><g class="entity" data-entity="A_DB_CFG" data-source-line="36" data-uid="ent0014" id="entity_A_DB_CFG"><rect fill="#F1F1F1" height="96.5475" rx="2.5" ry="2.5" style="stroke:#181818;stroke-width:0.5;" width="220.3128" x="1427" y="589"/><polygon fill="#F1F1F1" points="1630.3128,594,1630.3128,608,1642.3128,608,1642.3128,600,1636.3128,594,1630.3128,594" style="stroke:#181818;stroke-width:0.5;"/><line style="stroke:#181818;stroke-width:0.5;" x1="1636.3128" x2="1636.3128" y1="594" y2="600"/><line style="stroke:#181818;stroke-width:0.5;" x1="1642.3128" x2="1636.3128" y1="600" y2="600"/><text fill="#000000" font-family="sans-serif" font-size="18" lengthAdjust="spacing" textLength="103.7694" x="1437" y="621.2419">Par&#225;metros:</text><text fill="#000000" font-family="sans-serif" font-size="18" lengthAdjust="spacing" textLength="187.9728" x="1437" y="645.7577">max_connections=200</text><text fill="#000000" font-family="sans-serif" font-size="18" lengthAdjust="spacing" textLength="190.3128" x="1437" y="670.2736">statement_timeout=5s</text></g><!--link C_WEB to C_API--><g class="link" data-entity-1="C_WEB" data-entity-2="C_API" data-source-line="40" data-uid="lnk15" id="link_C_WEB_C_API"><path d="M377,507.1055 C377,506.489 377,505.8718 377,505.2539 C377,504.0183 377,502.7802 377,501.5398 C377,499.0592 377,496.5697 377,494.0737 C377,489.0817 377,484.0638 377,479.0388 C377,458.9384 377,438.723 377,419.5913 C377,414.8084 377,410.0932 377,405.4644 C377,403.15 377,400.8573 377,398.5885 C377,397.4541 377,396.3257 377,395.2035 C377,394.6425 377,394.083 377,393.5251" fill="none" id="C_WEB-C_API" style="stroke:#181818;stroke-width:1;"/><text fill="#000000" font-family="sans-serif" font-size="18" lengthAdjust="spacing" textLength="124.9912" x="248.52" y="480.7319">HTTP 80&#8594;8080</text><text fill="#000000" font-family="sans-serif" font-size="18" lengthAdjust="spacing" textLength="130.0312" x="246" y="505.2477">(Loopback Pod)</text></g><!--link C_API to C_WEB--><!--link C_API to DBaaS--><g class="link" data-entity-1="C_API" data-entity-2="DBaaS" data-source-line="41" data-uid="lnk16" id="link_C_API_DBaaS"><path d="M419.5,394.7091 C419.5,395.3581 419.5,396.0095 419.5,396.6633 C419.5,397.9708 419.5,399.2878 419.5,400.6138 C419.5,411.2217 419.5,422.4082 419.5,433.9805 C419.5,457.125 419.5,481.8125 419.5,506.5 C419.5,605.25 419.5,704 419.5,704 C419.5,704 631.375,704 843.25,704 C949.1875,704 1055.125,704 1134.5781,704 C1174.3047,704 1207.4102,704 1230.584,704 C1242.1709,704 1251.2749,704 1257.4822,704 C1257.8701,704 1258.2468,704 1258.612,704" fill="none" id="C_API-DBaaS" style="stroke:#181818;stroke-width:1;"/><text fill="#000000" font-family="sans-serif" font-size="18" lengthAdjust="spacing" textLength="89.0094" x="567.6" y="724.2419">JDBC/5432</text><text fill="#000000" font-family="sans-serif" font-size="18" lengthAdjust="spacing" textLength="29.3218" x="597.4438" y="748.7577">TLS</text></g><!--link Pod to DBaaS--><!--SRC=[VLJDRjf04BxxAKQvn1p0GDCAMUB0NqXQDxY1aaEfhCLUO8EzQ-sk6v8gKazzWAelq6V8hLVU94_IMHi2QMYHaQpPRxxvll7CQf625Z0LMei48YPfg9dWbbeodX994eWPf_esfI2aNeYz0ouYgcWAjJVLlQWaV6cYzVf-DA8paiNwL70zP7SKQWrhmI8AIbD9XQ6th6Du_FOJ7xWGaS0C2DSFIPgXEdlzcxDGm8sGIofB6vnb1C1HZdxNK72Ldvh43fQXd4P2KZNXzlYzup6UhKf7G9vWNoqBu1Xy4JbzcQK2ulN3t1GnXVVo4LNKGQGBcb4UaRBWfYiv7OOBBiEsAmmr5rh-UHulydTdBf2KeIwMa3dTSZeOSskLaqgzaDa9C1sP8VyHgTcCX1gE45Qv9ZB7j89jYNr4xsBiJhW_k1mr6zL6TS8xhSvPBpWR34VDa8GBMeb5IE89zmRzmEkDUrxp_E9qi6CCa25dlJ_Wg-x25Ps2FVHRfN-ukw7J5-umvjOhjKfrw-wgrpxWBc9AEvWypLWSWQcnaONm_nkTSAFyuwNNN6YTkewJcrm8fLtJXHtDItTZ4MS9vVZPazImuppPE08pDdVoVa5EjUzscs7J9DMtNIOBcUE1Ty1JGR8HW91DSVE__tlgwGeNWWiNsaHHCueHqKB1d2gpbIGYpsT_Y-hcgFuJ2Zlee_EvfCCF7lY430k1tJQ-vX9tyeOeBY7R3xMHsMq_m_X4hdybL4kXiEC9MGNO7rvS5QfPhsBtbIQQOazqe5b2HQQRhzKJMT0vxJypY-D2LvXC5NnXYarZVDauAqQZNDviW0jdev4FZUhZzn_5EDkU4EcKX4kpUoMhW26-CEV2sswxuxm-ULMVy94tF5oKSTDdL6Tpt7WspQwnQwe4vhQ2cP1tH0B1ot0dAY_o2I-jYFBFvMA0BRFyi1_EDVm1]--></g></svg>