<svg xmlns="http://www.w3.org/2000/svg" xmlns:xlink="http://www.w3.org/1999/xlink" contentStyleType="text/css" data-diagram-type="CLASS" height="289px" preserveAspectRatio="none" style="width:451px;height:289px;background:#FFFFFF;" version="1.1" viewBox="0 0 451 289" width="451px" zoomAndPan="magnify"><defs/><g><!--cluster MyProfile--><g class="cluster" data-entity="MyProfile" data-source-line="11" data-uid="ent0002" id="cluster_MyProfile"><path d="M8.5,6.602 L76.7138,6.602 A3.75,3.75 0 0 1 79.2138,9.102 L86.2138,31.6699 L268.5,31.6699 A2.5,2.5 0 0 1 271,34.1699 L271,138.102 A2.5,2.5 0 0 1 268.5,140.602 L8.5,140.602 A2.5,2.5 0 0 1 6,138.102 L6,9.102 A2.5,2.5 0 0 1 8.5,6.602" fill="none" style="stroke:#000000;stroke-width:1.5;"/><line style="stroke:#000000;stroke-width:1.5;" x1="6" x2="86.2138" y1="31.6699" y2="31.6699"/><text fill="#000000" font-family="sans-serif" font-size="14" font-weight="bold" lengthAdjust="spacing" textLength="67.2138" x="10" y="23.5679">MyProfile</text><text fill="#000000" font-family="sans-serif" font-size="14" font-style="italic" lengthAdjust="spacing" textLength="53.5778" x="115.7111" y="48.6358">&#171;profile&#187;</text></g><!--cluster Modelo de Negocio--><g class="cluster" data-entity="Modelo de Negocio" data-source-line="17" data-uid="ent0005" id="cluster_Modelo de Negocio"><path d="M297.5,25.602 L432.1715,25.602 A3.75,3.75 0 0 1 434.6715,28.102 L441.6715,50.6699 L441.5,50.6699 A2.5,2.5 0 0 1 444,53.1699 L444,280.102 A2.5,2.5 0 0 1 441.5,282.602 L297.5,282.602 A2.5,2.5 0 0 1 295,280.102 L295,28.102 A2.5,2.5 0 0 1 297.5,25.602" fill="none" style="stroke:#000000;stroke-width:1.5;"/><line style="stroke:#000000;stroke-width:1.5;" x1="295" x2="441.6715" y1="50.6699" y2="50.6699"/><text fill="#000000" font-family="sans-serif" font-size="14" font-weight="bold" lengthAdjust="spacing" textLength="133.6715" x="299" y="42.5679">Modelo de Negocio</text></g><!--class Service--><g class="entity" data-entity="Service" data-source-line="12" data-uid="ent0003" id="entity_Service"><rect fill="#F1F1F1" height="61.412" rx="2.5" ry="2.5" style="stroke:#181818;stroke-width:0.5;" width="94.6484" x="159.5" y="63.602"/><ellipse cx="174.5" cy="86.308" fill="#ADD1B2" rx="11" ry="11" style="stroke:#181818;stroke-width:1;"/><path d="M177.4688,91.9486 Q176.8906,92.2455 176.25,92.3861 Q175.6094,92.5424 174.9063,92.5424 Q172.4063,92.5424 171.0781,90.9017 Q169.7656,89.2455 169.7656,86.1205 Q169.7656,82.9955 171.0781,81.3392 Q172.4063,79.683 174.9063,79.683 Q175.6094,79.683 176.25,79.8392 Q176.9063,79.9955 177.4688,80.2924 L177.4688,83.0111 Q176.8438,82.433 176.25,82.1674 Q175.6563,81.8861 175.0313,81.8861 Q173.6875,81.8861 173,82.9642 Q172.3125,84.0267 172.3125,86.1205 Q172.3125,88.2142 173,89.2924 Q173.6875,90.3549 175.0313,90.3549 Q175.6563,90.3549 176.25,90.0892 Q176.8438,89.808 177.4688,89.2299 L177.4688,91.9486 Z " fill="#000000"/><text fill="#000000" font-family="sans-serif" font-size="12" font-style="italic" lengthAdjust="spacing" textLength="66.6484" x="186.5" y="81.4301">&#171;stereotype&#187;</text><text fill="#000000" font-family="sans-serif" font-size="14" lengthAdjust="spacing" textLength="46.7038" x="196.4723" y="99.912">Service</text><line style="stroke:#181818;stroke-width:0.5;" x1="160.5" x2="253.1484" y1="109.014" y2="109.014"/><line style="stroke:#181818;stroke-width:0.5;" x1="160.5" x2="253.1484" y1="117.014" y2="117.014"/></g><!--class Repository--><g class="entity" data-entity="Repository" data-source-line="13" data-uid="ent0004" id="entity_Repository"><rect fill="#F1F1F1" height="61.412" rx="2.5" ry="2.5" style="stroke:#181818;stroke-width:0.5;" width="102.4477" x="22" y="63.602"/><ellipse cx="37" cy="86.308" fill="#ADD1B2" rx="11" ry="11" style="stroke:#181818;stroke-width:1;"/><path d="M39.9688,91.9486 Q39.3906,92.2455 38.75,92.3861 Q38.1094,92.5424 37.4063,92.5424 Q34.9063,92.5424 33.5781,90.9017 Q32.2656,89.2455 32.2656,86.1205 Q32.2656,82.9955 33.5781,81.3392 Q34.9063,79.683 37.4063,79.683 Q38.1094,79.683 38.75,79.8392 Q39.4063,79.9955 39.9688,80.2924 L39.9688,83.0111 Q39.3438,82.433 38.75,82.1674 Q38.1563,81.8861 37.5313,81.8861 Q36.1875,81.8861 35.5,82.9642 Q34.8125,84.0267 34.8125,86.1205 Q34.8125,88.2142 35.5,89.2924 Q36.1875,90.3549 37.5313,90.3549 Q38.1563,90.3549 38.75,90.0892 Q39.3438,89.808 39.9688,89.2299 L39.9688,91.9486 Z " fill="#000000"/><text fill="#000000" font-family="sans-serif" font-size="12" font-style="italic" lengthAdjust="spacing" textLength="66.6484" x="52.8997" y="81.4301">&#171;stereotype&#187;</text><text fill="#000000" font-family="sans-serif" font-size="14" lengthAdjust="spacing" textLength="70.4477" x="51" y="99.912">Repository</text><line style="stroke:#181818;stroke-width:0.5;" x1="23" x2="123.4477" y1="109.014" y2="109.014"/><line style="stroke:#181818;stroke-width:0.5;" x1="23" x2="123.4477" y1="117.014" y2="117.014"/></g><!--class Pedido--><g class="entity" data-entity="Pedido" data-source-line="18" data-uid="ent0006" id="entity_Pedido"><rect fill="#ADD8E6" height="61.412" rx="2.5" ry="2.5" style="stroke:#0000FF;stroke-width:0.5;" width="77.6678" x="330" y="63.602"/><ellipse cx="345" cy="86.308" fill="#ADD1B2" rx="11" ry="11" style="stroke:#181818;stroke-width:1;"/><path d="M347.9688,91.9486 Q347.3906,92.2455 346.75,92.3861 Q346.1094,92.5424 345.4063,92.5424 Q342.9063,92.5424 341.5781,90.9017 Q340.2656,89.2455 340.2656,86.1205 Q340.2656,82.9955 341.5781,81.3392 Q342.9063,79.683 345.4063,79.683 Q346.1094,79.683 346.75,79.8392 Q347.4063,79.9955 347.9688,80.2924 L347.9688,83.0111 Q347.3438,82.433 346.75,82.1674 Q346.1563,81.8861 345.5313,81.8861 Q344.1875,81.8861 343.5,82.9642 Q342.8125,84.0267 342.8125,86.1205 Q342.8125,88.2142 343.5,89.2924 Q344.1875,90.3549 345.5313,90.3549 Q346.1563,90.3549 346.75,90.0892 Q347.3438,89.808 347.9688,89.2299 L347.9688,91.9486 Z " fill="#000000"/><text fill="#000000" font-family="sans-serif" font-size="12" font-style="italic" lengthAdjust="spacing" textLength="48.3963" x="357.6357" y="81.4301">&#171;Service&#187;</text><text fill="#000000" font-family="sans-serif" font-size="14" lengthAdjust="spacing" textLength="45.6678" x="359" y="99.912">Pedido</text><line style="stroke:#0000FF;stroke-width:0.5;" x1="331" x2="406.6678" y1="109.014" y2="109.014"/><line style="stroke:#0000FF;stroke-width:0.5;" x1="331" x2="406.6678" y1="117.014" y2="117.014"/></g><!--class PedidoRepo--><g class="entity" data-entity="PedidoRepo" data-source-line="19" data-uid="ent0007" id="entity_PedidoRepo"><rect fill="#90EE90" height="61.412" rx="2.5" ry="2.5" style="stroke:#006400;stroke-width:0.5;" width="111.3517" x="313.5" y="205.602"/><ellipse cx="328.5" cy="228.308" fill="#ADD1B2" rx="11" ry="11" style="stroke:#181818;stroke-width:1;"/><path d="M331.4688,233.9486 Q330.8906,234.2455 330.25,234.3861 Q329.6094,234.5424 328.9063,234.5424 Q326.4063,234.5424 325.0781,232.9017 Q323.7656,231.2455 323.7656,228.1205 Q323.7656,224.9955 325.0781,223.3392 Q326.4063,221.683 328.9063,221.683 Q329.6094,221.683 330.25,221.8392 Q330.9063,221.9955 331.4688,222.2924 L331.4688,225.0111 Q330.8438,224.433 330.25,224.1674 Q329.6563,223.8861 329.0313,223.8861 Q327.6875,223.8861 327,224.9642 Q326.3125,226.0267 326.3125,228.1205 Q326.3125,230.2142 327,231.2924 Q327.6875,232.3549 329.0313,232.3549 Q329.6563,232.3549 330.25,232.0892 Q330.8438,231.808 331.4688,231.2299 L331.4688,233.9486 Z " fill="#000000"/><text fill="#000000" font-family="sans-serif" font-size="12" font-style="italic" lengthAdjust="spacing" textLength="67.4165" x="348.4676" y="223.4301">&#171;Repository&#187;</text><text fill="#000000" font-family="sans-serif" font-size="14" lengthAdjust="spacing" textLength="79.3517" x="342.5" y="241.912">PedidoRepo</text><line style="stroke:#006400;stroke-width:0.5;" x1="314.5" x2="423.8517" y1="251.014" y2="251.014"/><line style="stroke:#006400;stroke-width:0.5;" x1="314.5" x2="423.8517" y1="259.014" y2="259.014"/></g><!--link Pedido to PedidoRepo--><g class="link" data-entity-1="Pedido" data-entity-2="PedidoRepo" data-source-line="21" data-uid="lnk8" id="link_Pedido_PedidoRepo"><path codeLine="21" d="M369,124.792 C369,148.552 369,175.712 369,199.452" fill="none" id="Pedido-to-PedidoRepo" style="stroke:#181818;stroke-width:1;"/><polygon fill="#181818" points="369,205.452,373,196.452,369,200.452,365,196.452,369,205.452" style="stroke:#181818;stroke-width:1;"/><text fill="#000000" font-family="sans-serif" font-size="13" lengthAdjust="spacing" textLength="21.554" x="370" y="171.499">usa</text></g><!--SRC=[RP31QiCm38RlVWgHIqzvWH5ow0gxh2DiJs1YDHDn8qzE1c7qYVO8k_N99ZSPJTCPWstfi_Jhty0E3zJHaIDWxCdh6QpOz411xYbmDB6bBaMFK7iR8tmPWAsjsqPuwDmZUvQYU4Fvf1hB4fwfUU-tVi24iJYKE-II_Q_AAsf3wbd6lq9FWjYjAzrWEoljH9sCsK2k2ogK0td0u-2juqlC16rc6uHiFrR2ciOCYY9CLwsJnfe6F7_FKiy_IinMZ46X1NBLS4zTXUpPeMVu6126gBvw29EqbQG9SmWls71Dd2taLEX8XrWOk4ebAN3hYXAwvvzvNYx9XoJ5d7u1]--></g></svg>