<svg xmlns="http://www.w3.org/2000/svg" xmlns:xlink="http://www.w3.org/1999/xlink" contentStyleType="text/css" data-diagram-type="CLASS" height="362px" preserveAspectRatio="none" style="width:688px;height:362px;background:#FFFFFF;" version="1.1" viewBox="0 0 688 362" width="688px" zoomAndPan="magnify"><defs/><g><!--cluster MyProfile--><g class="cluster" data-entity="MyProfile" data-source-line="10" data-uid="ent0002" id="cluster_MyProfile"><path d="M351.5,186.602 L419.7138,186.602 A3.75,3.75 0 0 1 422.2138,189.102 L429.2138,211.6699 L678.5,211.6699 A2.5,2.5 0 0 1 681,214.1699 L681,353.102 A2.5,2.5 0 0 1 678.5,355.602 L351.5,355.602 A2.5,2.5 0 0 1 349,353.102 L349,189.102 A2.5,2.5 0 0 1 351.5,186.602" fill="none" style="stroke:#000000;stroke-width:1.5;"/><line style="stroke:#000000;stroke-width:1.5;" x1="349" x2="429.2138" y1="211.6699" y2="211.6699"/><text fill="#000000" font-family="sans-serif" font-size="14" font-weight="bold" lengthAdjust="spacing" textLength="67.2138" x="353" y="203.5679">MyProfile</text><text fill="#000000" font-family="sans-serif" font-size="14" font-style="italic" lengthAdjust="spacing" textLength="53.5778" x="492.2111" y="228.6358">&#171;profile&#187;</text></g><!--cluster Modelo de Negocio--><g class="cluster" data-entity="Modelo de Negocio" data-source-line="20" data-uid="ent0005" id="cluster_Modelo de Negocio"><path d="M8.5,6.602 L143.1715,6.602 A3.75,3.75 0 0 1 145.6715,9.102 L152.6715,31.6699 L306.5,31.6699 A2.5,2.5 0 0 1 309,34.1699 L309,343.602 A2.5,2.5 0 0 1 306.5,346.102 L8.5,346.102 A2.5,2.5 0 0 1 6,343.602 L6,9.102 A2.5,2.5 0 0 1 8.5,6.602" fill="none" style="stroke:#000000;stroke-width:1.5;"/><line style="stroke:#000000;stroke-width:1.5;" x1="6" x2="152.6715" y1="31.6699" y2="31.6699"/><text fill="#000000" font-family="sans-serif" font-size="14" font-weight="bold" lengthAdjust="spacing" textLength="133.6715" x="10" y="23.5679">Modelo de Negocio</text></g><!--class Service--><g class="entity" data-entity="Service" data-source-line="11" data-uid="ent0003" id="entity_Service"><rect fill="#F1F1F1" height="80.4799" rx="2.5" ry="2.5" style="stroke:#181818;stroke-width:0.5;" width="94.6484" x="561.5" y="251.602"/><ellipse cx="576.5" cy="274.308" fill="#ADD1B2" rx="11" ry="11" style="stroke:#181818;stroke-width:1;"/><path d="M579.4688,279.9486 Q578.8906,280.2455 578.25,280.3861 Q577.6094,280.5424 576.9063,280.5424 Q574.4063,280.5424 573.0781,278.9017 Q571.7656,277.2455 571.7656,274.1205 Q571.7656,270.9955 573.0781,269.3392 Q574.4063,267.683 576.9063,267.683 Q577.6094,267.683 578.25,267.8392 Q578.9063,267.9955 579.4688,268.2924 L579.4688,271.0111 Q578.8438,270.433 578.25,270.1674 Q577.6563,269.8861 577.0313,269.8861 Q575.6875,269.8861 575,270.9642 Q574.3125,272.0267 574.3125,274.1205 Q574.3125,276.2142 575,277.2924 Q575.6875,278.3549 577.0313,278.3549 Q577.6563,278.3549 578.25,278.0892 Q578.8438,277.808 579.4688,277.2299 L579.4688,279.9486 Z " fill="#000000"/><text fill="#000000" font-family="sans-serif" font-size="12" font-style="italic" lengthAdjust="spacing" textLength="66.6484" x="588.5" y="269.4301">&#171;stereotype&#187;</text><text fill="#000000" font-family="sans-serif" font-size="14" lengthAdjust="spacing" textLength="46.7038" x="598.4723" y="287.912">Service</text><line style="stroke:#181818;stroke-width:0.5;" x1="562.5" x2="655.1484" y1="297.014" y2="297.014"/><ellipse cx="572.5" cy="312.048" fill="none" rx="3" ry="3" style="stroke:#038048;stroke-width:1;"/><text fill="#000000" font-family="sans-serif" font-size="14" lengthAdjust="spacing" textLength="46.5218" x="581.5" y="315.9799">sla : int</text><line style="stroke:#181818;stroke-width:0.5;" x1="562.5" x2="655.1484" y1="324.0819" y2="324.0819"/></g><!--class Repository--><g class="entity" data-entity="Repository" data-source-line="14" data-uid="ent0004" id="entity_Repository"><rect fill="#F1F1F1" height="80.4799" rx="2.5" ry="2.5" style="stroke:#181818;stroke-width:0.5;" width="133.5616" x="392" y="251.602"/><ellipse cx="421.0012" cy="274.308" fill="#ADD1B2" rx="11" ry="11" style="stroke:#181818;stroke-width:1;"/><path d="M423.97,279.9486 Q423.3919,280.2455 422.7512,280.3861 Q422.1106,280.5424 421.4075,280.5424 Q418.9075,280.5424 417.5794,278.9017 Q416.2669,277.2455 416.2669,274.1205 Q416.2669,270.9955 417.5794,269.3392 Q418.9075,267.683 421.4075,267.683 Q422.1106,267.683 422.7512,267.8392 Q423.4075,267.9955 423.97,268.2924 L423.97,271.0111 Q423.345,270.433 422.7512,270.1674 Q422.1575,269.8861 421.5325,269.8861 Q420.1887,269.8861 419.5012,270.9642 Q418.8137,272.0267 418.8137,274.1205 Q418.8137,276.2142 419.5012,277.2924 Q420.1887,278.3549 421.5325,278.3549 Q422.1575,278.3549 422.7512,278.0892 Q423.345,277.808 423.97,277.2299 L423.97,279.9486 Z " fill="#000000"/><text fill="#000000" font-family="sans-serif" font-size="12" font-style="italic" lengthAdjust="spacing" textLength="66.6484" x="440.0123" y="269.4301">&#171;stereotype&#187;</text><text fill="#000000" font-family="sans-serif" font-size="14" lengthAdjust="spacing" textLength="70.4477" x="438.1126" y="287.912">Repository</text><line style="stroke:#181818;stroke-width:0.5;" x1="393" x2="524.5616" y1="297.014" y2="297.014"/><ellipse cx="403" cy="312.048" fill="none" rx="3" ry="3" style="stroke:#038048;stroke-width:1;"/><text fill="#000000" font-family="sans-serif" font-size="14" lengthAdjust="spacing" textLength="107.5616" x="412" y="315.9799">critical : boolean</text><line style="stroke:#181818;stroke-width:0.5;" x1="393" x2="524.5616" y1="324.0819" y2="324.0819"/></g><!--class Pedido--><g class="entity" data-entity="Pedido" data-source-line="21" data-uid="ent0006" id="entity_Pedido"><rect fill="#ADD8E6" height="61.412" rx="2.5" ry="2.5" style="stroke:#0000FF;stroke-width:0.5;" width="77.6678" x="46" y="52.602"/><ellipse cx="61" cy="75.308" fill="#ADD1B2" rx="11" ry="11" style="stroke:#181818;stroke-width:1;"/><path d="M63.9688,80.9486 Q63.3906,81.2455 62.75,81.3861 Q62.1094,81.5424 61.4063,81.5424 Q58.9063,81.5424 57.5781,79.9017 Q56.2656,78.2455 56.2656,75.1205 Q56.2656,71.9955 57.5781,70.3392 Q58.9063,68.683 61.4063,68.683 Q62.1094,68.683 62.75,68.8392 Q63.4063,68.9955 63.9688,69.2924 L63.9688,72.0111 Q63.3438,71.433 62.75,71.1674 Q62.1563,70.8861 61.5313,70.8861 Q60.1875,70.8861 59.5,71.9642 Q58.8125,73.0267 58.8125,75.1205 Q58.8125,77.2142 59.5,78.2924 Q60.1875,79.3549 61.5313,79.3549 Q62.1563,79.3549 62.75,79.0892 Q63.3438,78.808 63.9688,78.2299 L63.9688,80.9486 Z " fill="#000000"/><text fill="#000000" font-family="sans-serif" font-size="12" font-style="italic" lengthAdjust="spacing" textLength="48.3963" x="73.6357" y="70.4301">&#171;Service&#187;</text><text fill="#000000" font-family="sans-serif" font-size="14" lengthAdjust="spacing" textLength="45.6678" x="75" y="88.912">Pedido</text><line style="stroke:#0000FF;stroke-width:0.5;" x1="47" x2="122.6678" y1="98.014" y2="98.014"/><line style="stroke:#0000FF;stroke-width:0.5;" x1="47" x2="122.6678" y1="106.014" y2="106.014"/></g><g class="entity" data-entity="GMN7" data-source-line="23" data-uid="ent0008" id="entity_GMN7"><path d="M159,69.102 L159,79.102 L124.02,83.102 L159,87.102 L159,96.808 A0,0 0 0 0 159,96.808 L233.378,96.808 A0,0 0 0 0 233.378,96.808 L233.378,79.102 L223.378,69.102 L159,69.102 A0,0 0 0 0 159,69.102" fill="#FEFFDD" style="stroke:#181818;stroke-width:0.5;"/><path d="M223.378,69.102 L223.378,79.102 L233.378,79.102 L223.378,69.102" fill="#FEFFDD" style="stroke:#181818;stroke-width:0.5;"/><text fill="#000000" font-family="sans-serif" font-size="13" lengthAdjust="spacing" textLength="53.378" x="165" y="87.999">sla = 200</text></g><!--class PedidoRepo--><g class="entity" data-entity="PedidoRepo" data-source-line="26" data-uid="ent0010" id="entity_PedidoRepo"><rect fill="#90EE90" height="61.412" rx="2.5" ry="2.5" style="stroke:#006400;stroke-width:0.5;" width="111.3517" x="29.5" y="261.102"/><ellipse cx="44.5" cy="283.808" fill="#ADD1B2" rx="11" ry="11" style="stroke:#181818;stroke-width:1;"/><path d="M47.4688,289.4486 Q46.8906,289.7455 46.25,289.8861 Q45.6094,290.0424 44.9063,290.0424 Q42.4063,290.0424 41.0781,288.4017 Q39.7656,286.7455 39.7656,283.6205 Q39.7656,280.4955 41.0781,278.8392 Q42.4063,277.183 44.9063,277.183 Q45.6094,277.183 46.25,277.3392 Q46.9063,277.4955 47.4688,277.7924 L47.4688,280.5111 Q46.8438,279.933 46.25,279.6674 Q45.6563,279.3861 45.0313,279.3861 Q43.6875,279.3861 43,280.4642 Q42.3125,281.5267 42.3125,283.6205 Q42.3125,285.7142 43,286.7924 Q43.6875,287.8549 45.0313,287.8549 Q45.6563,287.8549 46.25,287.5892 Q46.8438,287.308 47.4688,286.7299 L47.4688,289.4486 Z " fill="#000000"/><text fill="#000000" font-family="sans-serif" font-size="12" font-style="italic" lengthAdjust="spacing" textLength="67.4165" x="64.4676" y="278.9301">&#171;Repository&#187;</text><text fill="#000000" font-family="sans-serif" font-size="14" lengthAdjust="spacing" textLength="79.3517" x="58.5" y="297.412">PedidoRepo</text><line style="stroke:#006400;stroke-width:0.5;" x1="30.5" x2="139.8517" y1="306.514" y2="306.514"/><line style="stroke:#006400;stroke-width:0.5;" x1="30.5" x2="139.8517" y1="314.514" y2="314.514"/></g><g class="entity" data-entity="GMN11" data-source-line="28" data-uid="ent0012" id="entity_GMN11"><path d="M175.5,277.602 L175.5,287.602 L140.63,291.602 L175.5,295.602 L175.5,305.308 A0,0 0 0 0 175.5,305.308 L276.0211,305.308 A0,0 0 0 0 276.0211,305.308 L276.0211,287.602 L266.0211,277.602 L175.5,277.602 A0,0 0 0 0 175.5,277.602" fill="#FEFFDD" style="stroke:#181818;stroke-width:0.5;"/><path d="M266.0211,277.602 L266.0211,287.602 L276.0211,287.602 L266.0211,277.602" fill="#FEFFDD" style="stroke:#181818;stroke-width:0.5;"/><text fill="#000000" font-family="sans-serif" font-size="13" lengthAdjust="spacing" textLength="79.5211" x="181.5" y="296.499">critical = true</text></g><!--link Pedido to PedidoRepo--><g class="link" data-entity-1="Pedido" data-entity-2="PedidoRepo" data-source-line="31" data-uid="lnk14" id="link_Pedido_PedidoRepo"><path codeLine="31" d="M85,113.692 C85,152.942 85,215.842 85,255.072" fill="none" id="Pedido-to-PedidoRepo" style="stroke:#181818;stroke-width:1;"/><polygon fill="#181818" points="85,261.072,89,252.072,85,256.072,81,252.072,85,261.072" style="stroke:#181818;stroke-width:1;"/><text fill="#000000" font-family="sans-serif" font-size="13" lengthAdjust="spacing" textLength="21.554" x="86" y="158.499">usa</text></g><!--link Modelo de Negocio to MyProfile--><g class="link" data-entity-1="Modelo de Negocio" data-entity-2="MyProfile" data-source-line="35" data-uid="lnk15" id="link_Modelo de Negocio_MyProfile"><path codeLine="35" d="M309.0643,113.8401 C309.1414,114.1243 309.2189,114.4102 309.2968,114.6975 C309.6085,115.8469 309.9269,117.0206 310.2514,118.2173 C315.4441,137.3639 322.2281,162.3782 329.0113,187.3895 C335.7944,212.4007 342.5766,237.4089 347.7655,256.5429 C348.0898,257.7388 348.4079,258.9117 348.7193,260.0603 C348.7972,260.3474 347.3043,254.8422 347.3813,255.1263" fill="none" id="Modelo de Negocio-to-MyProfile" style="stroke:#181818;stroke-width:1;stroke-dasharray:7,7;"/><polygon fill="#181818" points="348.9517,260.9171,350.4567,251.1839,347.643,256.0914,342.7355,253.2778,348.9517,260.9171" style="stroke:#181818;stroke-width:1;"/><text fill="#000000" font-family="sans-serif" font-size="13" lengthAdjust="spacing" textLength="46.501" x="322" y="158.499">&#171;apply&#187;</text></g><!--SRC=[TP6nJiCm54NtVCLJbmweLSLOfHaAY8MYgdo1iL-3LTVFF3j85UeNCJAobH_3YLEQ1fefzZk-llTw2AFumPqFsf07Hmpe0p9Iq8wQOUOtsZh1OWlI2E_XFGEO2xafcIghRiWGv_aJyfkMM1JmeCkNC3SLrXYnGlw37ATzaHKwyZeGxuuwzune-q9dsAtWJQBsMJPCSPR8Qsq0jvKHgatXucMYH1WiTakcECO1vBbBlr6dJfNo7JvQfuUlIBHjxDmH0hZoHi0Kj0rnkU-SEncxU5Io3beA4yy_4naKjj4uUL-GGaCWoO9m9g9IVtzQY9lWKgnUdCGhX4SiIMeQTA8iKUbOGAVxEB8K4BXk5sZT8esvEjOChYUJk4Ah6Z3hQTKHuVm9BaZMI2Fx6ta6WPk7xugt5aUZedl352elEgsiqBH5e0sCuCHhXG5zAkE_4iRZukojfz6rSCv4mpy0]--></g></svg>