<svg xmlns="http://www.w3.org/2000/svg" xmlns:xlink="http://www.w3.org/1999/xlink" contentStyleType="text/css" data-diagram-type="DESCRIPTION" height="694px" preserveAspectRatio="none" style="width:755px;height:694px;background:#FFFFFF;" version="1.1" viewBox="0 0 755 694" width="755px" zoomAndPan="magnify"><defs/><g><!--cluster Plataforma--><g class="cluster" data-entity="Plataforma" data-source-line="15" data-uid="ent0002" id="cluster_Plataforma"><path d="M408.5,199.602 L488.1937,199.602 A3.75,3.75 0 0 1 490.6937,202.102 L497.6937,224.6699 L745.5,224.6699 A2.5,2.5 0 0 1 748,227.1699 L748,341.102 A2.5,2.5 0 0 1 745.5,343.602 L408.5,343.602 A2.5,2.5 0 0 1 406,341.102 L406,202.102 A2.5,2.5 0 0 1 408.5,199.602" fill="none" style="stroke:#000000;stroke-width:1.5;"/><line style="stroke:#000000;stroke-width:1.5;" x1="406" x2="497.6937" y1="224.6699" y2="224.6699"/><text fill="#000000" font-family="sans-serif" font-size="14" font-weight="bold" lengthAdjust="spacing" textLength="78.6937" x="410" y="216.5679">Plataforma</text></g><!--cluster Cat?logo--><g class="cluster" data-entity="Cat.logo" data-source-line="20" data-uid="ent0005" id="cluster_Cat.logo"><path d="M478.5,394.602 L541.8698,394.602 A3.75,3.75 0 0 1 544.3698,397.102 L551.3698,419.6699 L643.5,419.6699 A2.5,2.5 0 0 1 646,422.1699 L646,685.102 A2.5,2.5 0 0 1 643.5,687.602 L478.5,687.602 A2.5,2.5 0 0 1 476,685.102 L476,397.102 A2.5,2.5 0 0 1 478.5,394.602" fill="none" style="stroke:#000000;stroke-width:1.5;"/><line style="stroke:#000000;stroke-width:1.5;" x1="476" x2="551.3698" y1="419.6699" y2="419.6699"/><text fill="#000000" font-family="sans-serif" font-size="14" font-weight="bold" lengthAdjust="spacing" textLength="62.3698" x="480" y="411.5679">Cat&#225;logo</text></g><!--cluster Pedidos--><g class="cluster" data-entity="Pedidos" data-source-line="26" data-uid="ent0009" id="cluster_Pedidos"><path d="M8.5,6.602 L64.1838,6.602 A3.75,3.75 0 0 1 66.6838,9.102 L73.6838,31.6699 L169.5,31.6699 A2.5,2.5 0 0 1 172,34.1699 L172,341.102 A2.5,2.5 0 0 1 169.5,343.602 L8.5,343.602 A2.5,2.5 0 0 1 6,341.102 L6,9.102 A2.5,2.5 0 0 1 8.5,6.602" fill="none" style="stroke:#000000;stroke-width:1.5;"/><line style="stroke:#000000;stroke-width:1.5;" x1="6" x2="73.6838" y1="31.6699" y2="31.6699"/><text fill="#000000" font-family="sans-serif" font-size="14" font-weight="bold" lengthAdjust="spacing" textLength="54.6838" x="10" y="23.5679">Pedidos</text></g><!--cluster Pagos--><g class="cluster" data-entity="Pagos" data-source-line="32" data-uid="ent0013" id="cluster_Pagos"><path d="M198.5,199.602 L241.2338,199.602 A3.75,3.75 0 0 1 243.7338,202.102 L250.7338,224.6699 L379.5,224.6699 A2.5,2.5 0 0 1 382,227.1699 L382,536.102 A2.5,2.5 0 0 1 379.5,538.602 L198.5,538.602 A2.5,2.5 0 0 1 196,536.102 L196,202.102 A2.5,2.5 0 0 1 198.5,199.602" fill="none" style="stroke:#000000;stroke-width:1.5;"/><line style="stroke:#000000;stroke-width:1.5;" x1="196" x2="250.7338" y1="224.6699" y2="224.6699"/><text fill="#000000" font-family="sans-serif" font-size="14" font-weight="bold" lengthAdjust="spacing" textLength="41.7338" x="200" y="216.5679">Pagos</text></g><!--entity API Gateway--><g class="entity" data-entity="API Gateway" data-source-line="16" data-uid="ent0003" id="entity_API Gateway"><rect fill="#FFFFE0" height="68.1358" rx="2.5" ry="2.5" style="stroke:#DAA520;stroke-width:0.5;" width="122.7957" x="422.5" y="259.602"/><rect fill="#FFFFE0" height="10" style="stroke:#DAA520;stroke-width:0.5;" width="15" x="525.2957" y="264.602"/><rect fill="#FFFFE0" height="2" style="stroke:#DAA520;stroke-width:0.5;" width="4" x="523.2957" y="266.602"/><rect fill="#FFFFE0" height="2" style="stroke:#DAA520;stroke-width:0.5;" width="4" x="523.2957" y="270.602"/><text fill="#000000" font-family="sans-serif" font-size="14" font-style="italic" lengthAdjust="spacing" textLength="33.6979" x="462.0489" y="294.5679">&#171;API&#187;</text><text fill="#000000" font-family="sans-serif" font-size="14" lengthAdjust="spacing" textLength="82.7957" x="437.5" y="313.6358">API Gateway</text></g><!--entity Kafka--><g class="entity" data-entity="Kafka" data-source-line="17" data-uid="ent0004" id="entity_Kafka"><rect fill="#D3D3D3" height="68.1358" rx="2.5" ry="2.5" style="stroke:#696969;stroke-width:0.5;" width="150.5976" x="580.5" y="259.602"/><rect fill="#D3D3D3" height="10" style="stroke:#696969;stroke-width:0.5;" width="15" x="711.0976" y="264.602"/><rect fill="#D3D3D3" height="2" style="stroke:#696969;stroke-width:0.5;" width="4" x="709.0976" y="266.602"/><rect fill="#D3D3D3" height="2" style="stroke:#696969;stroke-width:0.5;" width="4" x="709.0976" y="270.602"/><text fill="#000000" font-family="sans-serif" font-size="14" font-style="italic" lengthAdjust="spacing" textLength="108.5976" x="596.5" y="294.5679">&#171;MessageBroker&#187;</text><text fill="#000000" font-family="sans-serif" font-size="14" lengthAdjust="spacing" textLength="36.6659" x="632.4659" y="313.6358">Kafka</text></g><!--entity CatalogService--><g class="entity" data-entity="CatalogService" data-source-line="21" data-uid="ent0006" id="entity_CatalogService"><rect fill="#ADD8E6" height="68.1358" rx="2.5" ry="2.5" style="stroke:#0000FF;stroke-width:0.5;" width="137.0056" x="492.5" y="454.602"/><rect fill="#ADD8E6" height="10" style="stroke:#0000FF;stroke-width:0.5;" width="15" x="609.5056" y="459.602"/><rect fill="#ADD8E6" height="2" style="stroke:#0000FF;stroke-width:0.5;" width="4" x="607.5056" y="461.602"/><rect fill="#ADD8E6" height="2" style="stroke:#0000FF;stroke-width:0.5;" width="4" x="607.5056" y="465.602"/><text fill="#000000" font-family="sans-serif" font-size="14" font-style="italic" lengthAdjust="spacing" textLength="90.6217" x="510.692" y="489.5679">&#171;Microservice&#187;</text><text fill="#000000" font-family="sans-serif" font-size="14" lengthAdjust="spacing" textLength="97.0056" x="507.5" y="508.6358">CatalogService</text></g><!--entity CatalogDB--><g class="entity" data-entity="CatalogDB" data-source-line="22" data-uid="ent0007" id="entity_CatalogDB"><rect fill="#90EE90" height="68.1358" rx="2.5" ry="2.5" style="stroke:#006400;stroke-width:0.5;" width="114.3377" x="504" y="603.602"/><rect fill="#90EE90" height="10" style="stroke:#006400;stroke-width:0.5;" width="15" x="598.3377" y="608.602"/><rect fill="#90EE90" height="2" style="stroke:#006400;stroke-width:0.5;" width="4" x="596.3377" y="610.602"/><rect fill="#90EE90" height="2" style="stroke:#006400;stroke-width:0.5;" width="4" x="596.3377" y="614.602"/><text fill="#000000" font-family="sans-serif" font-size="14" font-style="italic" lengthAdjust="spacing" textLength="72.3377" x="520" y="638.5679">&#171;Database&#187;</text><text fill="#000000" font-family="sans-serif" font-size="14" lengthAdjust="spacing" textLength="69.6217" x="521.358" y="657.6358">CatalogDB</text></g><!--entity OrderService--><g class="entity" data-entity="OrderService" data-source-line="27" data-uid="ent0010" id="entity_OrderService"><rect fill="#ADD8E6" height="68.1358" rx="2.5" ry="2.5" style="stroke:#0000FF;stroke-width:0.5;" width="132.6217" x="22.5" y="66.602"/><rect fill="#ADD8E6" height="10" style="stroke:#0000FF;stroke-width:0.5;" width="15" x="135.1217" y="71.602"/><rect fill="#ADD8E6" height="2" style="stroke:#0000FF;stroke-width:0.5;" width="4" x="133.1217" y="73.602"/><rect fill="#ADD8E6" height="2" style="stroke:#0000FF;stroke-width:0.5;" width="4" x="133.1217" y="77.602"/><text fill="#000000" font-family="sans-serif" font-size="14" font-style="italic" lengthAdjust="spacing" textLength="90.6217" x="38.5" y="101.5679">&#171;Microservice&#187;</text><text fill="#000000" font-family="sans-serif" font-size="14" lengthAdjust="spacing" textLength="85.7077" x="40.957" y="120.6358">OrderService</text></g><!--entity OrderDB--><g class="entity" data-entity="OrderDB" data-source-line="28" data-uid="ent0011" id="entity_OrderDB"><rect fill="#90EE90" height="68.1358" rx="2.5" ry="2.5" style="stroke:#006400;stroke-width:0.5;" width="114.3377" x="32" y="259.602"/><rect fill="#90EE90" height="10" style="stroke:#006400;stroke-width:0.5;" width="15" x="126.3377" y="264.602"/><rect fill="#90EE90" height="2" style="stroke:#006400;stroke-width:0.5;" width="4" x="124.3377" y="266.602"/><rect fill="#90EE90" height="2" style="stroke:#006400;stroke-width:0.5;" width="4" x="124.3377" y="270.602"/><text fill="#000000" font-family="sans-serif" font-size="14" font-style="italic" lengthAdjust="spacing" textLength="72.3377" x="48" y="294.5679">&#171;Database&#187;</text><text fill="#000000" font-family="sans-serif" font-size="14" lengthAdjust="spacing" textLength="58.3238" x="55.007" y="313.6358">OrderDB</text></g><!--entity PaymentService--><g class="entity" data-entity="PaymentService" data-source-line="33" data-uid="ent0014" id="entity_PaymentService"><rect fill="#ADD8E6" height="68.1358" rx="2.5" ry="2.5" style="stroke:#0000FF;stroke-width:0.5;" width="144.8596" x="213.5" y="259.602"/><rect fill="#ADD8E6" height="10" style="stroke:#0000FF;stroke-width:0.5;" width="15" x="338.3596" y="264.602"/><rect fill="#ADD8E6" height="2" style="stroke:#0000FF;stroke-width:0.5;" width="4" x="336.3596" y="266.602"/><rect fill="#ADD8E6" height="2" style="stroke:#0000FF;stroke-width:0.5;" width="4" x="336.3596" y="270.602"/><text fill="#000000" font-family="sans-serif" font-size="14" font-style="italic" lengthAdjust="spacing" textLength="90.6217" x="235.619" y="294.5679">&#171;Microservice&#187;</text><text fill="#000000" font-family="sans-serif" font-size="14" lengthAdjust="spacing" textLength="104.8596" x="228.5" y="313.6358">PaymentService</text></g><!--entity PaymentProvider--><g class="entity" data-entity="PaymentProvider" data-source-line="34" data-uid="ent0015" id="entity_PaymentProvider"><rect fill="#FFB6C1" height="68.1358" rx="2.5" ry="2.5" style="stroke:#DC143C;stroke-width:0.5;" width="153.8896" x="212" y="454.602"/><rect fill="#FFB6C1" height="10" style="stroke:#DC143C;stroke-width:0.5;" width="15" x="345.8896" y="459.602"/><rect fill="#FFB6C1" height="2" style="stroke:#DC143C;stroke-width:0.5;" width="4" x="343.8896" y="461.602"/><rect fill="#FFB6C1" height="2" style="stroke:#DC143C;stroke-width:0.5;" width="4" x="343.8896" y="465.602"/><text fill="#000000" font-family="sans-serif" font-size="14" font-style="italic" lengthAdjust="spacing" textLength="107.2956" x="230.297" y="489.5679">&#171;ExternalService&#187;</text><text fill="#000000" font-family="sans-serif" font-size="14" lengthAdjust="spacing" textLength="113.8896" x="227" y="508.6358">PaymentProvider</text></g><!--link CatalogService to CatalogDB--><g class="link" data-entity-1="CatalogService" data-entity-2="CatalogDB" data-source-line="23" data-uid="lnk8" id="link_CatalogService_CatalogDB"><path d="M561,522.962 C561,547.012 561,573.352 561,597.382" fill="none" id="CatalogService-to-CatalogDB" style="stroke:#181818;stroke-width:1;"/><polygon fill="#181818" points="561,603.382,565,594.382,561,598.382,557,594.382,561,603.382" style="stroke:#181818;stroke-width:1;"/><text fill="#000000" font-family="sans-serif" font-size="13" lengthAdjust="spacing" textLength="35.295" x="562" y="569.499">CRUD</text></g><!--link OrderService to OrderDB--><g class="link" data-entity-1="OrderService" data-entity-2="OrderDB" data-source-line="29" data-uid="lnk12" id="link_OrderService_OrderDB"><path d="M89,134.872 C89,169.822 89,218.462 89,253.392" fill="none" id="OrderService-to-OrderDB" style="stroke:#181818;stroke-width:1;"/><polygon fill="#181818" points="89,259.392,93,250.392,89,254.392,85,250.392,89,259.392" style="stroke:#181818;stroke-width:1;"/><text fill="#000000" font-family="sans-serif" font-size="13" lengthAdjust="spacing" textLength="35.295" x="90" y="179.499">CRUD</text></g><!--link PaymentService to PaymentProvider--><g class="link" data-entity-1="PaymentService" data-entity-2="PaymentProvider" data-source-line="35" data-uid="lnk16" id="link_PaymentService_PaymentProvider"><path d="M286.52,327.782 C287.07,363.242 287.8468,413.1227 288.3968,448.5327" fill="none" id="PaymentService-to-PaymentProvider" style="stroke:#181818;stroke-width:1;stroke-dasharray:7,7;"/><polygon fill="#181818" points="288.49,454.532,292.3497,445.4709,288.4123,449.5326,284.3507,445.5952,288.49,454.532" style="stroke:#181818;stroke-width:1;"/><text fill="#000000" font-family="sans-serif" font-size="13" lengthAdjust="spacing" textLength="29.679" x="288" y="374.499">REST</text></g><!--link API Gateway to OrderService--><g class="link" data-entity-1="API Gateway" data-entity-2="OrderService" data-source-line="38" data-uid="lnk17" id="link_API Gateway_OrderService"><path d="M483.42,259.432 C481.03,230.132 472.73,188.442 446,164.602 C404.08,127.212 253.0462,111.7381 161.8062,105.5481" fill="none" id="API Gateway-to-OrderService" style="stroke:#181818;stroke-width:1;"/><polygon fill="#181818" points="155.82,105.142,164.5286,109.742,160.8085,105.4804,165.0701,101.7603,155.82,105.142" style="stroke:#181818;stroke-width:1;"/><text fill="#000000" font-family="sans-serif" font-size="13" lengthAdjust="spacing" textLength="78.0521" x="460" y="179.499">REST /orders</text></g><!--link API Gateway to CatalogService--><g class="link" data-entity-1="API Gateway" data-entity-2="CatalogService" data-source-line="39" data-uid="lnk18" id="link_API Gateway_CatalogService"><path d="M496.94,327.742 C503,343.212 510.33,361.862 517,378.602 C527.12,404.012 536.4459,427.1215 545.1859,448.6815" fill="none" id="API Gateway-to-CatalogService" style="stroke:#181818;stroke-width:1;"/><polygon fill="#181818" points="547.44,454.242,547.7658,444.3985,545.5616,449.6082,540.3518,447.404,547.44,454.242" style="stroke:#181818;stroke-width:1;"/><text fill="#000000" font-family="sans-serif" font-size="13" lengthAdjust="spacing" textLength="82.6281" x="518" y="374.499">REST /catalog</text></g><!--link OrderService to PaymentService--><g class="link" data-entity-1="OrderService" data-entity-2="PaymentService" data-source-line="40" data-uid="lnk19" id="link_OrderService_PaymentService"><path d="M123.31,134.872 C159.36,169.822 211.4121,220.2856 247.4421,255.2156" fill="none" id="OrderService-to-PaymentService" style="stroke:#181818;stroke-width:1;"/><polygon fill="#181818" points="251.75,259.392,248.0724,250.2555,248.1601,255.9117,242.5039,255.9994,251.75,259.392" style="stroke:#181818;stroke-width:1;"/><text fill="#000000" font-family="sans-serif" font-size="13" lengthAdjust="spacing" textLength="59.8131" x="170" y="179.499">REST /pay</text></g><!--link OrderService to Kafka--><g class="link" data-entity-1="OrderService" data-entity-2="Kafka" data-source-line="41" data-uid="lnk20" id="link_OrderService_Kafka"><path d="M155.65,104.952 C265.99,111.462 481,128.462 547,164.602 C587.06,186.542 615.7146,224.3949 634.3946,254.4749" fill="none" id="OrderService-to-Kafka" style="stroke:#181818;stroke-width:1;stroke-dasharray:7,7;"/><polygon fill="#181818" points="637.56,259.572,636.21,249.8161,634.9222,255.3244,629.4139,254.0366,637.56,259.572" style="stroke:#181818;stroke-width:1;"/><text fill="#000000" font-family="sans-serif" font-size="13" lengthAdjust="spacing" textLength="49.634" x="574" y="179.499">publicar</text><text fill="#000000" font-family="sans-serif" font-size="13" lengthAdjust="spacing" textLength="83.6681" x="642.4265" y="247.756">order.created</text></g><!--link PaymentService to Kafka--><g class="link" data-entity-1="PaymentService" data-entity-2="Kafka" data-source-line="42" data-uid="lnk21" id="link_PaymentService_Kafka"><path d="M314.05,259.412 C336.16,235.342 369.3,205.092 406,191.602 C471.49,167.532 499.17,163.422 563,191.602 C594.24,205.392 616.1465,230.4702 632.4165,254.4002" fill="none" id="PaymentService-to-Kafka" style="stroke:#181818;stroke-width:1;stroke-dasharray:7,7;"/><polygon fill="#181818" points="635.79,259.362,634.0376,249.6703,632.9787,255.2272,627.4219,254.1683,635.79,259.362" style="stroke:#181818;stroke-width:1;"/><text fill="#000000" font-family="sans-serif" font-size="13" lengthAdjust="spacing" textLength="49.634" x="394.5" y="179.499">publicar</text><text fill="#000000" font-family="sans-serif" font-size="13" lengthAdjust="spacing" textLength="120.4321" x="533.8275" y="247.8213">payment.confirmed</text></g><!--link CatalogService to Kafka--><g class="link" data-entity-1="CatalogService" data-entity-2="Kafka" data-source-line="43" data-uid="lnk22" id="link_CatalogService_Kafka"><path d="M577.28,454.532 C594.71,419.122 619.5708,368.6254 637.0208,333.1654" fill="none" id="CatalogService-to-Kafka" style="stroke:#181818;stroke-width:1;stroke-dasharray:7,7;"/><polygon fill="#181818" points="639.67,327.782,632.1072,334.091,637.4623,332.2682,639.2851,337.6233,639.67,327.782" style="stroke:#181818;stroke-width:1;"/><text fill="#000000" font-family="sans-serif" font-size="13" lengthAdjust="spacing" textLength="57.2781" x="623" y="374.499">consumir</text><text fill="#000000" font-family="sans-serif" font-size="13" lengthAdjust="spacing" textLength="83.6681" x="546.1063" y="349.6007">order.created</text></g><!--SRC=[VP91Rjim44NtEWNXJTj5tBqH6AWjmmYIeeBJBe8WYmarLWXH768e9pMA72PdwSL2oP8SKKIMejx_V-QJNyJ6rKgJ4vPOeAkHaMfbINmbAnKPqDyILofZWQ4IaYfB1aqj_YL2h42M1TF1v6lIn9UNFvLaSiZFIk9oAMvKyLIlz04RbZX7ZdCz4jhzoAvwbplKcbv2dnEm9PsZsL4UyqYXXaTmmpXRHZIXpmSe1Iu7Ph8VEWS5hfXAvBCZ72SB1c2ggXuBFJT_VUU-vjjnRPaoPUWwHTUiAaScUKqIwurzf9Xbsc-p9wvWrjxIlMz9RA765pW-YAwqvlmQzYKq9y6q8xSrrF_VD1NKcVbly9_T2ArwT9aVc7JL_3vt6vDVN2n7_4AiTt_IyJwOgvnSb_-hwUFJz9Q8PO-bRVB0ndAX658pE5R-rN-Qsp4PqxFohWqqkR2Orto-Z8WNOhUv_TqCDBw_yzY3mGaLtzkduc9ys7glaAVp95PDE6QliVuP1toxGVUQ5i8U7hMIm6BM3ZINZ7wOV9R4Du_ex8cRIp9xnLMh3LSOQptf3fMQPBu3]--></g></svg>