<svg xmlns="http://www.w3.org/2000/svg" xmlns:xlink="http://www.w3.org/1999/xlink" contentStyleType="text/css" data-diagram-type="DESCRIPTION" height="239px" preserveAspectRatio="none" style="width:908px;height:239px;background:#FFFFFF;" version="1.1" viewBox="0 0 908 239" width="908px" zoomAndPan="magnify"><title>CIM &#8212; Procesos de negocio (plataforma de cursos)</title><defs/><g><g class="title" data-source-line="2"><text fill="#000000" font-family="sans-serif" font-size="14" font-weight="bold" lengthAdjust="spacing" textLength="351.9027" x="271.3081" y="24.9659">CIM &#8212; Procesos de negocio (plataforma de cursos)</text></g><!--entity Alumno--><g class="entity" data-entity="Alumno" data-source-line="4" data-uid="ent0002" id="entity_Alumno"><ellipse cx="336.2109" cy="54.0679" fill="#F1F1F1" rx="8" ry="8" style="stroke:#181818;stroke-width:0.5;"/><path d="M336.2109,62.0679 L336.2109,89.0679 M323.2109,70.0679 L349.2109,70.0679 M336.2109,89.0679 L323.2109,104.0679 M336.2109,89.0679 L349.2109,104.0679" fill="none" style="stroke:#181818;stroke-width:0.5;"/><text fill="#000000" font-family="sans-serif" font-size="14" lengthAdjust="spacing" textLength="51.4218" x="310.5" y="120.5339">Alumno</text></g><!--entity Profesor--><g class="entity" data-entity="Profesor" data-source-line="5" data-uid="ent0003" id="entity_Profesor"><ellipse cx="807.1959" cy="54.0679" fill="#F1F1F1" rx="8" ry="8" style="stroke:#181818;stroke-width:0.5;"/><path d="M807.1959,62.0679 L807.1959,89.0679 M794.1959,70.0679 L820.1959,70.0679 M807.1959,89.0679 L794.1959,104.0679 M807.1959,89.0679 L820.1959,104.0679" fill="none" style="stroke:#181818;stroke-width:0.5;"/><text fill="#000000" font-family="sans-serif" font-size="14" lengthAdjust="spacing" textLength="56.3918" x="779" y="120.5339">Profesor</text></g><!--entity Administrador--><g class="entity" data-entity="Administrador" data-source-line="6" data-uid="ent0004" id="entity_Administrador"><ellipse cx="629.8898" cy="54.0679" fill="#F1F1F1" rx="8" ry="8" style="stroke:#181818;stroke-width:0.5;"/><path d="M629.8898,62.0679 L629.8898,89.0679 M616.8898,70.0679 L642.8898,70.0679 M629.8898,89.0679 L616.8898,104.0679 M629.8898,89.0679 L642.8898,104.0679" fill="none" style="stroke:#181818;stroke-width:0.5;"/><text fill="#000000" font-family="sans-serif" font-size="14" lengthAdjust="spacing" textLength="94.7797" x="582.5" y="120.5339">Administrador</text></g><!--entity UC1--><g class="entity" data-entity="UC1" data-source-line="8" data-uid="ent0005" id="entity_UC1"><ellipse cx="111.9094" cy="209.1498" fill="#F1F1F1" rx="105.9094" ry="23.5819" style="stroke:#181818;stroke-width:0.5;"/><text fill="#000000" font-family="sans-serif" font-size="14" lengthAdjust="spacing" textLength="182.4053" x="20.7067" y="215.1837">Explorar cat&#225;logo de cursos</text></g><!--entity UC2--><g class="entity" data-entity="UC2" data-source-line="9" data-uid="ent0006" id="entity_UC2"><ellipse cx="336.1964" cy="209.1072" fill="#F1F1F1" rx="83.1964" ry="19.0393" style="stroke:#181818;stroke-width:0.5;"/><text fill="#000000" font-family="sans-serif" font-size="14" lengthAdjust="spacing" textLength="128.9815" x="271.7057" y="215.1412">Inscribirse en curso</text></g><!--entity UC3--><g class="entity" data-entity="UC3" data-source-line="10" data-uid="ent0007" id="entity_UC3"><ellipse cx="807.0094" cy="209.0698" fill="#F1F1F1" rx="95.5094" ry="21.5019" style="stroke:#181818;stroke-width:0.5;"/><text fill="#000000" font-family="sans-serif" font-size="14" lengthAdjust="spacing" textLength="158.5634" x="727.7277" y="215.1038">Asignar docente a curso</text></g><!--entity UC4--><g class="entity" data-entity="UC4" data-source-line="11" data-uid="ent0008" id="entity_UC4"><ellipse cx="565.1359" cy="209.1951" fill="#F1F1F1" rx="111.1359" ry="24.6272" style="stroke:#181818;stroke-width:0.5;"/><text fill="#000000" font-family="sans-serif" font-size="14" lengthAdjust="spacing" textLength="194.1233" x="468.0743" y="215.2291">Gestionar pagos de matr&#237;cula</text></g><!--link Alumno to UC1--><g class="link" data-entity-1="Alumno" data-entity-2="UC1" data-source-line="13" data-uid="lnk9" id="link_Alumno_UC1"><path d="M310.3,100.0579 C271.12,121.4079 201.4392,159.3581 155.7392,184.2481" fill="none" id="Alumno-to-UC1" style="stroke:#181818;stroke-width:1;"/><polygon fill="#181818" points="150.47,187.1179,160.287,186.326,154.861,184.7264,156.4606,179.3004,150.47,187.1179" style="stroke:#181818;stroke-width:1;"/></g><!--link Alumno to UC2--><g class="link" data-entity-1="Alumno" data-entity-2="UC2" data-source-line="14" data-uid="lnk10" id="link_Alumno_UC2"><path d="M336,124.6679 C336,146.4479 336,166.6579 336,183.8079" fill="none" id="Alumno-to-UC2" style="stroke:#181818;stroke-width:1;"/><polygon fill="#181818" points="336,189.8079,340,180.8079,336,184.8079,332,180.8079,336,189.8079" style="stroke:#181818;stroke-width:1;"/></g><!--link Alumno to UC4--><g class="link" data-entity-1="Alumno" data-entity-2="UC4" data-source-line="15" data-uid="lnk11" id="link_Alumno_UC4"><path d="M361.82,99.8279 C401.24,120.8279 471.4946,158.2568 518.5346,183.3168" fill="none" id="Alumno-to-UC4" style="stroke:#181818;stroke-width:1;"/><polygon fill="#181818" points="523.83,186.1379,517.7676,178.376,519.4171,183.787,514.0061,185.4366,523.83,186.1379" style="stroke:#181818;stroke-width:1;"/></g><!--link Profesor to UC3--><g class="link" data-entity-1="Profesor" data-entity-2="UC3" data-source-line="16" data-uid="lnk12" id="link_Profesor_UC3"><path d="M807,124.6679 C807,145.4679 807,164.3079 807,181.4379" fill="none" id="Profesor-to-UC3" style="stroke:#181818;stroke-width:1;"/><polygon fill="#181818" points="807,187.4379,811,178.4379,807,182.4379,803,178.4379,807,187.4379" style="stroke:#181818;stroke-width:1;"/></g><!--link Administrador to UC3--><g class="link" data-entity-1="Administrador" data-entity-2="UC3" data-source-line="17" data-uid="lnk13" id="link_Administrador_UC3"><path d="M677.9,119.0779 C710.05,141.2379 746.3802,166.2823 773.4902,184.9723" fill="none" id="Administrador-to-UC3" style="stroke:#181818;stroke-width:1;"/><polygon fill="#181818" points="778.43,188.3779,773.2906,179.9763,774.3135,185.5399,768.7499,186.5628,778.43,188.3779" style="stroke:#181818;stroke-width:1;"/></g><!--link Administrador to UC4--><g class="link" data-entity-1="Administrador" data-entity-2="UC4" data-source-line="18" data-uid="lnk14" id="link_Administrador_UC4"><path d="M609.43,124.6679 C598.95,144.3579 589.3522,162.3631 580.3122,179.3231" fill="none" id="Administrador-to-UC4" style="stroke:#181818;stroke-width:1;"/><polygon fill="#181818" points="577.49,184.6179,585.2532,178.5572,579.8419,180.2056,578.1935,174.7942,577.49,184.6179" style="stroke:#181818;stroke-width:1;"/></g><!--SRC=[VOz1JWCn34NtEONL5Iowe9qrKbKXr0KI6mvWCfvWaSGZEoDOzX2z00VW5Bq99o5bfXhDXkN_UNRyx9rpZue9x0rR-U0SeCDev0gNIB0_FC7FyGJFAfvC35g2J44y2zpq4GjseWaljH-q0hVEeI-Yi8j3oZA5EjxLSRs-jOapMz7wfJet67aqWjN3Pnz5KS5ZENz52J8lNW4QlEplPlgGpIk_ijP0USGcQZDJE-EGwygs2kH2W0jmEuEFP8NbWlOOHjE4HS_VVeWuuOrpenUir_T_ropYPXaRT_MUYgrRcF_RDhy0]--></g></svg>