<svg xmlns="http://www.w3.org/2000/svg" xmlns:xlink="http://www.w3.org/1999/xlink" contentStyleType="text/css" data-diagram-type="CLASS" height="565px" preserveAspectRatio="none" style="width:428px;height:565px;background:#FFFFFF;" version="1.1" viewBox="0 0 428 565" width="428px" zoomAndPan="magnify"><title>PIM &#8212; Modelo de dominio (independiente de plataforma)</title><defs/><g><g class="title" data-source-line="3"><text fill="#000000" font-family="sans-serif" font-size="14" font-weight="bold" lengthAdjust="spacing" textLength="400.9586" x="10" y="24.9659">PIM &#8212; Modelo de dominio (independiente de plataforma)</text></g><!--class Usuario--><g class="entity" data-entity="Usuario" data-source-line="5" data-uid="ent0002" id="entity_Usuario"><rect fill="#F1F1F1" height="124.2717" rx="2.5" ry="2.5" style="stroke:#181818;stroke-width:0.5;" width="260.457" x="17.4759" y="47.0679"/><ellipse cx="117.7995" cy="63.0679" fill="#ADD1B2" rx="11" ry="11" style="stroke:#181818;stroke-width:1;"/><path d="M120.7683,68.7085 Q120.1901,69.0054 119.5495,69.146 Q118.9089,69.3023 118.2058,69.3023 Q115.7058,69.3023 114.3776,67.6617 Q113.0651,66.0054 113.0651,62.8804 Q113.0651,59.7554 114.3776,58.0992 Q115.7058,56.4429 118.2058,56.4429 Q118.9089,56.4429 119.5495,56.5992 Q120.2058,56.7554 120.7683,57.0523 L120.7683,59.771 Q120.1433,59.1929 119.5495,58.9273 Q118.9558,58.646 118.3308,58.646 Q116.987,58.646 116.2995,59.7242 Q115.612,60.7867 115.612,62.8804 Q115.612,64.9742 116.2995,66.0523 Q116.987,67.1148 118.3308,67.1148 Q118.9558,67.1148 119.5495,66.8492 Q120.1433,66.5679 120.7683,65.9898 L120.7683,68.7085 Z " fill="#000000"/><text fill="#000000" font-family="sans-serif" font-size="14" lengthAdjust="spacing" textLength="51.3098" x="138.2995" y="68.4999">Usuario</text><line style="stroke:#181818;stroke-width:0.5;" x1="18.4759" x2="276.933" y1="79.0679" y2="79.0679"/><text fill="#000000" font-family="sans-serif" font-size="14" lengthAdjust="spacing" textLength="71.5397" x="23.4759" y="98.0339">+idUsuario</text><text fill="#000000" font-family="sans-serif" font-size="14" lengthAdjust="spacing" textLength="60.5078" x="23.4759" y="117.1018">+nombre</text><text fill="#000000" font-family="sans-serif" font-size="14" lengthAdjust="spacing" textLength="44.0718" x="23.4759" y="136.1697">+email</text><text fill="#000000" font-family="sans-serif" font-size="14" lengthAdjust="spacing" textLength="248.457" x="23.4759" y="155.2376">+rol  ' ALUMNO | PROFESOR | ADMIN</text><line style="stroke:#181818;stroke-width:0.5;" x1="18.4759" x2="276.933" y1="163.3396" y2="163.3396"/></g><!--class Curso--><g class="entity" data-entity="Curso" data-source-line="12" data-uid="ent0003" id="entity_Curso"><rect fill="#F1F1F1" height="105.2038" rx="2.5" ry="2.5" style="stroke:#181818;stroke-width:0.5;" width="95.3977" x="312.9759" y="56.5679"/><ellipse cx="339.1988" cy="72.5679" fill="#ADD1B2" rx="11" ry="11" style="stroke:#181818;stroke-width:1;"/><path d="M342.1676,78.2085 Q341.5895,78.5054 340.9488,78.646 Q340.3082,78.8023 339.6051,78.8023 Q337.1051,78.8023 335.777,77.1617 Q334.4645,75.5054 334.4645,72.3804 Q334.4645,69.2554 335.777,67.5992 Q337.1051,65.9429 339.6051,65.9429 Q340.3082,65.9429 340.9488,66.0992 Q341.6051,66.2554 342.1676,66.5523 L342.1676,69.271 Q341.5426,68.6929 340.9488,68.4273 Q340.3551,68.146 339.7301,68.146 Q338.3863,68.146 337.6988,69.2242 Q337.0113,70.2867 337.0113,72.3804 Q337.0113,74.4742 337.6988,75.5523 Q338.3863,76.6148 339.7301,76.6148 Q340.3551,76.6148 340.9488,76.3492 Q341.5426,76.0679 342.1676,75.4898 L342.1676,78.2085 Z " fill="#000000"/><text fill="#000000" font-family="sans-serif" font-size="14" lengthAdjust="spacing" textLength="38.4579" x="355.6928" y="77.9999">Curso</text><line style="stroke:#181818;stroke-width:0.5;" x1="313.9759" x2="407.3736" y1="88.5679" y2="88.5679"/><text fill="#000000" font-family="sans-serif" font-size="14" lengthAdjust="spacing" textLength="58.6878" x="318.9759" y="107.5339">+idCurso</text><text fill="#000000" font-family="sans-serif" font-size="14" lengthAdjust="spacing" textLength="42.4618" x="318.9759" y="126.6018">+titulo</text><text fill="#000000" font-family="sans-serif" font-size="14" lengthAdjust="spacing" textLength="83.3977" x="318.9759" y="145.6697">+descripcion</text><line style="stroke:#181818;stroke-width:0.5;" x1="313.9759" x2="407.3736" y1="153.7717" y2="153.7717"/></g><!--class Matricula--><g class="entity" data-entity="Matricula" data-source-line="18" data-uid="ent0004" id="entity_Matricula"><rect fill="#F1F1F1" height="105.2038" rx="2.5" ry="2.5" style="stroke:#181818;stroke-width:0.5;" width="262.991" x="121.9759" y="250.0679"/><ellipse cx="218.3025" cy="266.0679" fill="#ADD1B2" rx="11" ry="11" style="stroke:#181818;stroke-width:1;"/><path d="M221.2713,271.7085 Q220.6932,272.0054 220.0525,272.146 Q219.4119,272.3023 218.7088,272.3023 Q216.2088,272.3023 214.8807,270.6617 Q213.5682,269.0054 213.5682,265.8804 Q213.5682,262.7554 214.8807,261.0992 Q216.2088,259.4429 218.7088,259.4429 Q219.4119,259.4429 220.0525,259.5992 Q220.7088,259.7554 221.2713,260.0523 L221.2713,262.771 Q220.6463,262.1929 220.0525,261.9273 Q219.4588,261.646 218.8338,261.646 Q217.49,261.646 216.8025,262.7242 Q216.115,263.7867 216.115,265.8804 Q216.115,267.9742 216.8025,269.0523 Q217.49,270.1148 218.8338,270.1148 Q219.4588,270.1148 220.0525,269.8492 Q220.6463,269.5679 221.2713,268.9898 L221.2713,271.7085 Z " fill="#000000"/><text fill="#000000" font-family="sans-serif" font-size="14" lengthAdjust="spacing" textLength="61.8378" x="238.8025" y="271.4999">Matricula</text><line style="stroke:#181818;stroke-width:0.5;" x1="122.9759" x2="383.9669" y1="282.0679" y2="282.0679"/><text fill="#000000" font-family="sans-serif" font-size="14" lengthAdjust="spacing" textLength="82.0677" x="127.9759" y="301.0339">+idMatricula</text><text fill="#000000" font-family="sans-serif" font-size="14" lengthAdjust="spacing" textLength="69.4117" x="127.9759" y="320.1018">+fechaAlta</text><text fill="#000000" font-family="sans-serif" font-size="14" lengthAdjust="spacing" textLength="250.991" x="127.9759" y="339.1697">+estado  ' ACTIVA | PENDIENTE | BAJA</text><line style="stroke:#181818;stroke-width:0.5;" x1="122.9759" x2="383.9669" y1="347.2717" y2="347.2717"/></g><!--class Pago--><g class="entity" data-entity="Pago" data-source-line="24" data-uid="ent0005" id="entity_Pago"><rect fill="#F1F1F1" height="124.2717" rx="2.5" ry="2.5" style="stroke:#181818;stroke-width:0.5;" width="328.0067" x="89.4759" y="434.0679"/><ellipse cx="232.5273" cy="450.0679" fill="#ADD1B2" rx="11" ry="11" style="stroke:#181818;stroke-width:1;"/><path d="M235.4961,455.7085 Q234.918,456.0054 234.2773,456.146 Q233.6367,456.3023 232.9336,456.3023 Q230.4336,456.3023 229.1055,454.6617 Q227.793,453.0054 227.793,449.8804 Q227.793,446.7554 229.1055,445.0992 Q230.4336,443.4429 232.9336,443.4429 Q233.6367,443.4429 234.2773,443.5992 Q234.9336,443.7554 235.4961,444.0523 L235.4961,446.771 Q234.8711,446.1929 234.2773,445.9273 Q233.6836,445.646 233.0586,445.646 Q231.7148,445.646 231.0273,446.7242 Q230.3398,447.7867 230.3398,449.8804 Q230.3398,451.9742 231.0273,453.0523 Q231.7148,454.1148 233.0586,454.1148 Q233.6836,454.1148 234.2773,453.8492 Q234.8711,453.5679 235.4961,452.9898 L235.4961,455.7085 Z " fill="#000000"/><text fill="#000000" font-family="sans-serif" font-size="14" lengthAdjust="spacing" textLength="33.4039" x="253.0273" y="455.4999">Pago</text><line style="stroke:#181818;stroke-width:0.5;" x1="90.4759" x2="416.4827" y1="466.0679" y2="466.0679"/><text fill="#000000" font-family="sans-serif" font-size="14" lengthAdjust="spacing" textLength="53.6338" x="95.4759" y="485.0339">+idPago</text><text fill="#000000" font-family="sans-serif" font-size="14" lengthAdjust="spacing" textLength="77.3497" x="95.4759" y="504.1018">+fechaPago</text><text fill="#000000" font-family="sans-serif" font-size="14" lengthAdjust="spacing" textLength="60.5218" x="95.4759" y="523.1697">+importe</text><text fill="#000000" font-family="sans-serif" font-size="14" lengthAdjust="spacing" textLength="316.0067" x="95.4759" y="542.2376">+metodo  ' TARJETA | TRANSFERENCIA | PAYPAL</text><line style="stroke:#181818;stroke-width:0.5;" x1="90.4759" x2="416.4827" y1="550.3396" y2="550.3396"/></g><!--link Usuario to Matricula--><g class="link" data-entity-1="Usuario" data-entity-2="Matricula" data-source-line="31" data-uid="lnk6" id="link_Usuario_Matricula"><path codeLine="31" d="M181.3059,171.1879 C195.3659,196.5779 211.4959,225.7279 224.9459,250.0179" fill="none" id="Usuario-Matricula" style="stroke:#181818;stroke-width:1;"/><polygon fill="#000000" points="214.8976,215.2953,213.088,205.9585,207.9455,208.8054,214.8976,215.2953" style="stroke:#000000;stroke-width:1;"/><text fill="#000000" font-family="sans-serif" font-size="13" lengthAdjust="spacing" textLength="40.105" x="221.4759" y="215.9649">realiza</text><text fill="#000000" font-family="sans-serif" font-size="13" lengthAdjust="spacing" textLength="7.436" x="177.8116" y="193.2755">1</text><text fill="#000000" font-family="sans-serif" font-size="13" lengthAdjust="spacing" textLength="21.567" x="198.4978" y="238.3651">0..*</text></g><!--link Curso to Matricula--><g class="link" data-entity-1="Curso" data-entity-2="Matricula" data-source-line="32" data-uid="lnk7" id="link_Curso_Matricula"><path codeLine="32" d="M331.6659,161.6379 C316.3759,188.9979 297.6359,222.5279 282.3459,249.9079" fill="none" id="Curso-Matricula" style="stroke:#181818;stroke-width:1;"/><polygon fill="#000000" points="309.0371,215.2858,316.0146,208.8232,310.8834,205.9562,309.0371,215.2858" style="stroke:#000000;stroke-width:1;"/><text fill="#000000" font-family="sans-serif" font-size="13" lengthAdjust="spacing" textLength="88.2961" x="320.4759" y="215.9649">corresponde a</text><text fill="#000000" font-family="sans-serif" font-size="13" lengthAdjust="spacing" textLength="7.436" x="320.3268" y="183.775">1</text><text fill="#000000" font-family="sans-serif" font-size="13" lengthAdjust="spacing" textLength="21.567" x="263.9697" y="238.2396">0..*</text></g><!--link Matricula to Pago--><g class="link" data-entity-1="Matricula" data-entity-2="Pago" data-source-line="33" data-uid="lnk8" id="link_Matricula_Pago"><path codeLine="33" d="M253.4759,355.1379 C253.4759,379.3979 253.4759,408.5079 253.4759,433.8779" fill="none" id="Matricula-Pago" style="stroke:#181818;stroke-width:1;"/><polygon fill="#000000" points="258.4759,399.9209,261.4148,390.8758,255.537,390.8758,258.4759,399.9209" style="stroke:#000000;stroke-width:1;"/><text fill="#000000" font-family="sans-serif" font-size="13" lengthAdjust="spacing" textLength="43.264" x="267.4759" y="399.9649">origina</text><text fill="#000000" font-family="sans-serif" font-size="13" lengthAdjust="spacing" textLength="7.436" x="246.0355" y="377.275">1</text><text fill="#000000" font-family="sans-serif" font-size="13" lengthAdjust="spacing" textLength="21.567" x="231.2304" y="422.1861">0..*</text></g><!--SRC=[VL7BJiCm4BpdArQvy5AhSkq1oRIfbAf9epGWSNIJRRl2iIFR4L81YO_W2_aIOfUaSE4suvsTtLcRPv8Drxo6Kd1ZcBMQjgt5k5HoGqU4IM06YJdmIhsGtCEE2uE19IiGiZY1huzFI5I5Ga65KAcQ92cu95bXWx8Yb1PTfH7SyftIDRyA0ZyH7apBTIT-3G1kgFgXZaXLRpKwX3KduO1M0k02sEeXITVm1bc-NaIRTTv1Da_YD7ZlRMUjDeEf9mvs6xV2emfDgQafISbpKyAx-6KhUDyuF3Ywm_B0cR2UeB7TCVmoio9-P6wPA9t7KLf47RvdItRspVX-sCNXmQqdL3TAMv-rHgjEnWNBbr7Xd8kSfPj5b4VfBFQJs5F6Liw_lrvu6y9e1E5aFBuEV-MOWaOkwCZXBZYTv1zfgRH6qwZkry0rd6j_UtoSAIXDUvATy1i0]--></g></svg>