<svg xmlns="http://www.w3.org/2000/svg" xmlns:xlink="http://www.w3.org/1999/xlink" contentStyleType="text/css" data-diagram-type="CLASS" height="736px" preserveAspectRatio="none" style="width:1082px;height:736px;background:#FFFFFF;" version="1.1" viewBox="0 0 1082 736" width="1082px" zoomAndPan="magnify"><title>PSM &#8212; Espec&#237;fico de plataforma (Java/JPA + PostgreSQL)</title><defs/><g><g class="title" data-source-line="3"><text fill="#000000" font-family="sans-serif" font-size="14" font-weight="bold" lengthAdjust="spacing" textLength="390.6685" x="338.6657" y="24.9659">PSM &#8212; Espec&#237;fico de plataforma (Java/JPA + PostgreSQL)</text></g><!--cluster Capa Persistencia (JPA)--><g class="cluster" data-entity="Capa Persistencia .JPA." data-source-line="5" data-uid="ent0002" id="cluster_Capa Persistencia .JPA."><path d="M8.5,46.6699 L169.1274,46.6699 A3.75,3.75 0 0 1 171.6274,49.1699 L178.6274,71.7378 L467.5,71.7378 A2.5,2.5 0 0 1 470,74.2378 L470,717.6699 A2.5,2.5 0 0 1 467.5,720.1699 L8.5,720.1699 A2.5,2.5 0 0 1 6,717.6699 L6,49.1699 A2.5,2.5 0 0 1 8.5,46.6699" fill="none" style="stroke:#000000;stroke-width:1.5;"/><line style="stroke:#000000;stroke-width:1.5;" x1="6" x2="178.6274" y1="71.7378" y2="71.7378"/><text fill="#000000" font-family="sans-serif" font-size="14" font-weight="bold" lengthAdjust="spacing" textLength="159.6274" x="10" y="63.6358">Capa Persistencia (JPA)</text></g><!--cluster Esquema SQL (PostgreSQL)--><g class="cluster" data-entity="Esquema SQL .PostgreSQL." data-source-line="37" data-uid="ent0010" id="cluster_Esquema SQL .PostgreSQL."><path d="M496.5,46.6699 L685.1273,46.6699 A3.75,3.75 0 0 1 687.6273,49.1699 L694.6273,71.7378 L1072.5,71.7378 A2.5,2.5 0 0 1 1075,74.2378 L1075,727.1699 A2.5,2.5 0 0 1 1072.5,729.6699 L496.5,729.6699 A2.5,2.5 0 0 1 494,727.1699 L494,49.1699 A2.5,2.5 0 0 1 496.5,46.6699" fill="none" style="stroke:#000000;stroke-width:1.5;"/><line style="stroke:#000000;stroke-width:1.5;" x1="494" x2="694.6273" y1="71.7378" y2="71.7378"/><text fill="#000000" font-family="sans-serif" font-size="14" font-weight="bold" lengthAdjust="spacing" textLength="187.6273" x="498" y="63.6358">Esquema SQL (PostgreSQL)</text></g><!--class UsuarioEntity--><g class="entity" data-entity="UsuarioEntity" data-source-line="6" data-uid="ent0003" id="entity_UsuarioEntity"><rect fill="#F1F1F1" height="137.6837" rx="2.5" ry="2.5" style="stroke:#181818;stroke-width:0.5;" width="256.523" x="196.5" y="84.6699"/><ellipse cx="276.2087" cy="107.3759" fill="#ADD1B2" rx="11" ry="11" style="stroke:#181818;stroke-width:1;"/><path d="M279.1774,113.0165 Q278.5993,113.3134 277.9587,113.454 Q277.3181,113.6103 276.6149,113.6103 Q274.1149,113.6103 272.7868,111.9697 Q271.4743,110.3134 271.4743,107.1884 Q271.4743,104.0634 272.7868,102.4072 Q274.1149,100.7509 276.6149,100.7509 Q277.3181,100.7509 277.9587,100.9072 Q278.6149,101.0634 279.1774,101.3603 L279.1774,104.079 Q278.5524,103.5009 277.9587,103.2353 Q277.3649,102.954 276.7399,102.954 Q275.3962,102.954 274.7087,104.0322 Q274.0212,105.0947 274.0212,107.1884 Q274.0212,109.2822 274.7087,110.3603 Q275.3962,111.4228 276.7399,111.4228 Q277.3649,111.4228 277.9587,111.1572 Q278.5524,110.8759 279.1774,110.2978 L279.1774,113.0165 Z " fill="#000000"/><text fill="#000000" font-family="sans-serif" font-size="12" font-style="italic" lengthAdjust="spacing" textLength="71.3525" x="305.3353" y="102.498">&#171;JPA @Entity&#187;</text><text fill="#000000" font-family="sans-serif" font-size="14" lengthAdjust="spacing" textLength="88.6057" x="296.7087" y="120.9799">UsuarioEntity</text><line style="stroke:#181818;stroke-width:0.5;" x1="197.5" x2="452.023" y1="130.0819" y2="130.0819"/><text fill="#000000" font-family="sans-serif" font-size="14" lengthAdjust="spacing" textLength="140.1955" x="202.5" y="149.0479">+UUID idUsuario @Id</text><text fill="#000000" font-family="sans-serif" font-size="14" lengthAdjust="spacing" textLength="103.5436" x="202.5" y="168.1158">+String nombre</text><text fill="#000000" font-family="sans-serif" font-size="14" lengthAdjust="spacing" textLength="147.7974" x="202.5" y="187.1837">+Rol rol @Enumerated</text><line style="stroke:#181818;stroke-width:0.5;" x1="197.5" x2="452.023" y1="195.2857" y2="195.2857"/><text fill="#000000" font-family="sans-serif" font-size="14" lengthAdjust="spacing" textLength="244.523" x="202.5" y="214.2516">+String email @Column(unique=true)</text></g><!--class CursoEntity--><g class="entity" data-entity="CursoEntity" data-source-line="13" data-uid="ent0004" id="entity_CursoEntity"><rect fill="#F1F1F1" height="118.6158" rx="2.5" ry="2.5" style="stroke:#181818;stroke-width:0.5;" width="139.3435" x="22.5" y="94.1699"/><ellipse cx="51.7154" cy="116.8759" fill="#ADD1B2" rx="11" ry="11" style="stroke:#181818;stroke-width:1;"/><path d="M54.6842,122.5165 Q54.106,122.8134 53.4654,122.954 Q52.8248,123.1103 52.1217,123.1103 Q49.6217,123.1103 48.2935,121.4697 Q46.981,119.8134 46.981,116.6884 Q46.981,113.5634 48.2935,111.9072 Q49.6217,110.2509 52.1217,110.2509 Q52.8248,110.2509 53.4654,110.4072 Q54.1217,110.5634 54.6842,110.8603 L54.6842,113.579 Q54.0592,113.0009 53.4654,112.7353 Q52.8717,112.454 52.2467,112.454 Q50.9029,112.454 50.2154,113.5322 Q49.5279,114.5947 49.5279,116.6884 Q49.5279,118.7822 50.2154,119.8603 Q50.9029,120.9228 52.2467,120.9228 Q52.8717,120.9228 53.4654,120.6572 Q54.0592,120.3759 54.6842,119.7978 L54.6842,122.5165 Z " fill="#000000"/><text fill="#000000" font-family="sans-serif" font-size="12" font-style="italic" lengthAdjust="spacing" textLength="71.3525" x="71.075" y="111.998">&#171;JPA @Entity&#187;</text><text fill="#000000" font-family="sans-serif" font-size="14" lengthAdjust="spacing" textLength="75.7537" x="68.8744" y="130.4799">CursoEntity</text><line style="stroke:#181818;stroke-width:0.5;" x1="23.5" x2="160.8435" y1="139.5819" y2="139.5819"/><text fill="#000000" font-family="sans-serif" font-size="14" lengthAdjust="spacing" textLength="127.3435" x="28.5" y="158.5479">+UUID idCurso @Id</text><text fill="#000000" font-family="sans-serif" font-size="14" lengthAdjust="spacing" textLength="85.4977" x="28.5" y="177.6158">+String titulo</text><text fill="#000000" font-family="sans-serif" font-size="14" lengthAdjust="spacing" textLength="126.4335" x="28.5" y="196.6837">+String descripcion</text><line style="stroke:#181818;stroke-width:0.5;" x1="23.5" x2="160.8435" y1="204.7857" y2="204.7857"/></g><!--class MatriculaEntity--><g class="entity" data-entity="MatriculaEntity" data-source-line="19" data-uid="ent0005" id="entity_MatriculaEntity"><rect fill="#F1F1F1" height="118.6158" rx="2.5" ry="2.5" style="stroke:#181818;stroke-width:0.5;" width="272.049" x="79" y="330.1699"/><ellipse cx="161.2077" cy="352.8759" fill="#ADD1B2" rx="11" ry="11" style="stroke:#181818;stroke-width:1;"/><path d="M164.1764,358.5165 Q163.5983,358.8134 162.9577,358.954 Q162.3171,359.1103 161.6139,359.1103 Q159.1139,359.1103 157.7858,357.4697 Q156.4733,355.8134 156.4733,352.6884 Q156.4733,349.5634 157.7858,347.9072 Q159.1139,346.2509 161.6139,346.2509 Q162.3171,346.2509 162.9577,346.4072 Q163.6139,346.5634 164.1764,346.8603 L164.1764,349.579 Q163.5514,349.0009 162.9577,348.7353 Q162.3639,348.454 161.7389,348.454 Q160.3952,348.454 159.7077,349.5322 Q159.0202,350.5947 159.0202,352.6884 Q159.0202,354.7822 159.7077,355.8603 Q160.3952,356.9228 161.7389,356.9228 Q162.3639,356.9228 162.9577,356.6572 Q163.5514,356.3759 164.1764,355.7978 L164.1764,358.5165 Z " fill="#000000"/><text fill="#000000" font-family="sans-serif" font-size="12" font-style="italic" lengthAdjust="spacing" textLength="71.3525" x="195.5983" y="347.998">&#171;JPA @Entity&#187;</text><text fill="#000000" font-family="sans-serif" font-size="14" lengthAdjust="spacing" textLength="99.1336" x="181.7077" y="366.4799">MatriculaEntity</text><line style="stroke:#181818;stroke-width:0.5;" x1="80" x2="350.049" y1="375.5819" y2="375.5819"/><text fill="#000000" font-family="sans-serif" font-size="14" lengthAdjust="spacing" textLength="150.7234" x="85" y="394.5479">+UUID idMatricula @Id</text><text fill="#000000" font-family="sans-serif" font-size="14" lengthAdjust="spacing" textLength="119.7695" x="85" y="413.6158">+Instant fechaAlta</text><text fill="#000000" font-family="sans-serif" font-size="14" lengthAdjust="spacing" textLength="260.049" x="85" y="432.6837">+EstadoMatricula estado @Enumerated</text><line style="stroke:#181818;stroke-width:0.5;" x1="80" x2="350.049" y1="440.7857" y2="440.7857"/></g><!--class PagoEntity--><g class="entity" data-entity="PagoEntity" data-source-line="25" data-uid="ent0006" id="entity_PagoEntity"><rect fill="#F1F1F1" height="137.6837" rx="2.5" ry="2.5" style="stroke:#181818;stroke-width:0.5;" width="257.3351" x="86.5" y="566.1699"/><ellipse cx="175.5677" cy="588.8759" fill="#ADD1B2" rx="11" ry="11" style="stroke:#181818;stroke-width:1;"/><path d="M178.5364,594.5165 Q177.9583,594.8134 177.3177,594.954 Q176.677,595.1103 175.9739,595.1103 Q173.4739,595.1103 172.1458,593.4697 Q170.8333,591.8134 170.8333,588.6884 Q170.8333,585.5634 172.1458,583.9072 Q173.4739,582.2509 175.9739,582.2509 Q176.677,582.2509 177.3177,582.4072 Q177.9739,582.5634 178.5364,582.8603 L178.5364,585.579 Q177.9114,585.0009 177.3177,584.7353 Q176.7239,584.454 176.0989,584.454 Q174.7552,584.454 174.0677,585.5322 Q173.3802,586.5947 173.3802,588.6884 Q173.3802,590.7822 174.0677,591.8603 Q174.7552,592.9228 176.0989,592.9228 Q176.7239,592.9228 177.3177,592.6572 Q177.9114,592.3759 178.5364,591.7978 L178.5364,594.5165 Z " fill="#000000"/><text fill="#000000" font-family="sans-serif" font-size="12" font-style="italic" lengthAdjust="spacing" textLength="71.3525" x="195.7413" y="583.998">&#171;JPA @Entity&#187;</text><text fill="#000000" font-family="sans-serif" font-size="14" lengthAdjust="spacing" textLength="70.6997" x="196.0677" y="602.4799">PagoEntity</text><line style="stroke:#181818;stroke-width:0.5;" x1="87.5" x2="342.8351" y1="611.5819" y2="611.5819"/><text fill="#000000" font-family="sans-serif" font-size="14" lengthAdjust="spacing" textLength="122.2896" x="92.5" y="630.5479">+UUID idPago @Id</text><text fill="#000000" font-family="sans-serif" font-size="14" lengthAdjust="spacing" textLength="127.7075" x="92.5" y="649.6158">+Instant fechaPago</text><text fill="#000000" font-family="sans-serif" font-size="14" lengthAdjust="spacing" textLength="138.4875" x="92.5" y="668.6837">+BigDecimal importe</text><text fill="#000000" font-family="sans-serif" font-size="14" lengthAdjust="spacing" textLength="245.3351" x="92.5" y="687.7516">+MetodoPago metodo @Enumerated</text><line style="stroke:#181818;stroke-width:0.5;" x1="87.5" x2="342.8351" y1="695.8536" y2="695.8536"/></g><!--class usuario--><g class="entity" data-entity="usuario" data-source-line="38" data-uid="ent0011" id="entity_usuario"><rect fill="#F1F1F1" height="137.6837" rx="2.5" ry="2.5" style="stroke:#181818;stroke-width:0.5;" width="288.4849" x="771" y="84.6699"/><ellipse cx="886.1285" cy="107.3759" fill="#ADD1B2" rx="11" ry="11" style="stroke:#181818;stroke-width:1;"/><path d="M889.0973,113.0165 Q888.5191,113.3134 887.8785,113.454 Q887.2379,113.6103 886.5348,113.6103 Q884.0348,113.6103 882.7066,111.9697 Q881.3941,110.3134 881.3941,107.1884 Q881.3941,104.0634 882.7066,102.4072 Q884.0348,100.7509 886.5348,100.7509 Q887.2379,100.7509 887.8785,100.9072 Q888.5348,101.0634 889.0973,101.3603 L889.0973,104.079 Q888.4723,103.5009 887.8785,103.2353 Q887.2848,102.954 886.6598,102.954 Q885.316,102.954 884.6285,104.0322 Q883.941,105.0947 883.941,107.1884 Q883.941,109.2822 884.6285,110.3603 Q885.316,111.4228 886.6598,111.4228 Q887.2848,111.4228 887.8785,111.1572 Q888.4723,110.8759 889.0973,110.2978 L889.0973,113.0165 Z " fill="#000000"/><text fill="#000000" font-family="sans-serif" font-size="12" font-style="italic" lengthAdjust="spacing" textLength="38.2803" x="912.3523" y="102.498">&#171;table&#187;</text><text fill="#000000" font-family="sans-serif" font-size="14" lengthAdjust="spacing" textLength="49.7278" x="906.6285" y="120.9799">usuario</text><line style="stroke:#181818;stroke-width:0.5;" x1="772" x2="1058.4849" y1="130.0819" y2="130.0819"/><text fill="#000000" font-family="sans-serif" font-size="14" lengthAdjust="spacing" textLength="146.0474" x="777" y="149.0479">{PK} id_usuario : UUID</text><text fill="#000000" font-family="sans-serif" font-size="14" lengthAdjust="spacing" textLength="185.8073" x="777" y="168.1158">rol    : rol_usuario NOT NULL</text><line style="stroke:#181818;stroke-width:0.5;" x1="772" x2="1058.4849" y1="176.2178" y2="176.2178"/><text fill="#000000" font-family="sans-serif" font-size="14" lengthAdjust="spacing" textLength="231.0691" x="777" y="195.1837">nombre : VARCHAR(120) NOT NULL</text><text fill="#000000" font-family="sans-serif" font-size="14" lengthAdjust="spacing" textLength="276.4849" x="777" y="214.2516">email  : VARCHAR(150) UNIQUE NOT NULL</text></g><!--class curso--><g class="entity" data-entity="curso" data-source-line="45" data-uid="ent0012" id="entity_curso"><rect fill="#F1F1F1" height="118.6158" rx="2.5" ry="2.5" style="stroke:#181818;stroke-width:0.5;" width="225.0231" x="510.5" y="94.1699"/><ellipse cx="600.5966" cy="116.8759" fill="#ADD1B2" rx="11" ry="11" style="stroke:#181818;stroke-width:1;"/><path d="M603.5654,122.5165 Q602.9873,122.8134 602.3466,122.954 Q601.706,123.1103 601.0029,123.1103 Q598.5029,123.1103 597.1748,121.4697 Q595.8623,119.8134 595.8623,116.6884 Q595.8623,113.5634 597.1748,111.9072 Q598.5029,110.2509 601.0029,110.2509 Q601.706,110.2509 602.3466,110.4072 Q603.0029,110.5634 603.5654,110.8603 L603.5654,113.579 Q602.9404,113.0009 602.3466,112.7353 Q601.7529,112.454 601.1279,112.454 Q599.7841,112.454 599.0966,113.5322 Q598.4091,114.5947 598.4091,116.6884 Q598.4091,118.7822 599.0966,119.8603 Q599.7841,120.9228 601.1279,120.9228 Q601.7529,120.9228 602.3466,120.6572 Q602.9404,120.3759 603.5654,119.7978 L603.5654,122.5165 Z " fill="#000000"/><text fill="#000000" font-family="sans-serif" font-size="12" font-style="italic" lengthAdjust="spacing" textLength="38.2803" x="620.1214" y="111.998">&#171;table&#187;</text><text fill="#000000" font-family="sans-serif" font-size="14" lengthAdjust="spacing" textLength="36.3299" x="621.0966" y="130.4799">curso</text><line style="stroke:#181818;stroke-width:0.5;" x1="511.5" x2="734.5231" y1="139.5819" y2="139.5819"/><text fill="#000000" font-family="sans-serif" font-size="14" lengthAdjust="spacing" textLength="132.6495" x="516.5" y="158.5479">{PK} id_curso : UUID</text><text fill="#000000" font-family="sans-serif" font-size="14" lengthAdjust="spacing" textLength="117.9775" x="516.5" y="177.6158">descripcion : TEXT</text><line style="stroke:#181818;stroke-width:0.5;" x1="511.5" x2="734.5231" y1="185.7178" y2="185.7178"/><text fill="#000000" font-family="sans-serif" font-size="14" lengthAdjust="spacing" textLength="213.0231" x="516.5" y="204.6837">titulo : VARCHAR(200) NOT NULL</text></g><!--class matricula--><g class="entity" data-entity="matricula" data-source-line="51" data-uid="ent0013" id="entity_matricula"><rect fill="#F1F1F1" height="175.8195" rx="2.5" ry="2.5" style="stroke:#181818;stroke-width:0.5;" width="252.8411" x="603.5" y="301.6699"/><ellipse cx="694.5557" cy="324.3759" fill="#ADD1B2" rx="11" ry="11" style="stroke:#181818;stroke-width:1;"/><path d="M697.5244,330.0165 Q696.9463,330.3134 696.3057,330.454 Q695.665,330.6103 694.9619,330.6103 Q692.4619,330.6103 691.1338,328.9697 Q689.8213,327.3134 689.8213,324.1884 Q689.8213,321.0634 691.1338,319.4072 Q692.4619,317.7509 694.9619,317.7509 Q695.665,317.7509 696.3057,317.9072 Q696.9619,318.0634 697.5244,318.3603 L697.5244,321.079 Q696.8994,320.5009 696.3057,320.2353 Q695.7119,319.954 695.0869,319.954 Q693.7432,319.954 693.0557,321.0322 Q692.3682,322.0947 692.3682,324.1884 Q692.3682,326.2822 693.0557,327.3603 Q693.7432,328.4228 695.0869,328.4228 Q695.7119,328.4228 696.3057,328.1572 Q696.8994,327.8759 697.5244,327.2978 L697.5244,330.0165 Z " fill="#000000"/><text fill="#000000" font-family="sans-serif" font-size="12" font-style="italic" lengthAdjust="spacing" textLength="38.2803" x="727.0304" y="319.498">&#171;table&#187;</text><text fill="#000000" font-family="sans-serif" font-size="14" lengthAdjust="spacing" textLength="62.2298" x="715.0557" y="337.9799">matricula</text><line style="stroke:#181818;stroke-width:0.5;" x1="604.5" x2="855.3411" y1="347.0819" y2="347.0819"/><text fill="#000000" font-family="sans-serif" font-size="14" lengthAdjust="spacing" textLength="158.5494" x="609.5" y="366.0479">{PK} id_matricula : UUID</text><text fill="#000000" font-family="sans-serif" font-size="14" lengthAdjust="spacing" textLength="228.3391" x="609.5" y="385.1158">fecha_alta : TIMESTAMP NOT NULL</text><text fill="#000000" font-family="sans-serif" font-size="14" lengthAdjust="spacing" textLength="240.8411" x="609.5" y="404.1837">estado : estado_matricula NOT NULL</text><text fill="#000000" font-family="sans-serif" font-size="14" lengthAdjust="spacing" textLength="144.8434" x="609.5" y="423.2516">{FK} id_usuario : UUID</text><text fill="#000000" font-family="sans-serif" font-size="14" lengthAdjust="spacing" textLength="131.4455" x="609.5" y="442.3195">{FK} id_curso : UUID</text><line style="stroke:#181818;stroke-width:0.5;" x1="604.5" x2="855.3411" y1="450.4215" y2="450.4215"/><text fill="#000000" font-family="sans-serif" font-size="14" lengthAdjust="spacing" textLength="205.9532" x="609.5" y="469.3874">-- UNIQUE(id_usuario, id_curso)</text></g><!--class pago--><g class="entity" data-entity="pago" data-source-line="60" data-uid="ent0014" id="entity_pago"><rect fill="#F1F1F1" height="156.7516" rx="2.5" ry="2.5" style="stroke:#181818;stroke-width:0.5;" width="249.5091" x="605" y="556.6699"/><ellipse cx="708.3644" cy="579.3759" fill="#ADD1B2" rx="11" ry="11" style="stroke:#181818;stroke-width:1;"/><path d="M711.3331,585.0165 Q710.755,585.3134 710.1144,585.454 Q709.4738,585.6103 708.7706,585.6103 Q706.2706,585.6103 704.9425,583.9697 Q703.63,582.3134 703.63,579.1884 Q703.63,576.0634 704.9425,574.4072 Q706.2706,572.7509 708.7706,572.7509 Q709.4738,572.7509 710.1144,572.9072 Q710.7706,573.0634 711.3331,573.3603 L711.3331,576.079 Q710.7081,575.5009 710.1144,575.2353 Q709.5206,574.954 708.8956,574.954 Q707.5519,574.954 706.8644,576.0322 Q706.1769,577.0947 706.1769,579.1884 Q706.1769,581.2822 706.8644,582.3603 Q707.5519,583.4228 708.8956,583.4228 Q709.5206,583.4228 710.1144,583.1572 Q710.7081,582.8759 711.3331,582.2978 L711.3331,585.0165 Z " fill="#000000"/><text fill="#000000" font-family="sans-serif" font-size="12" font-style="italic" lengthAdjust="spacing" textLength="38.2803" x="726.8644" y="574.498">&#171;table&#187;</text><text fill="#000000" font-family="sans-serif" font-size="14" lengthAdjust="spacing" textLength="33.5439" x="729.2326" y="592.9799">pago</text><line style="stroke:#181818;stroke-width:0.5;" x1="606" x2="853.5091" y1="602.0819" y2="602.0819"/><text fill="#000000" font-family="sans-serif" font-size="14" lengthAdjust="spacing" textLength="129.8635" x="611" y="621.0479">{PK} id_pago : UUID</text><text fill="#000000" font-family="sans-serif" font-size="14" lengthAdjust="spacing" textLength="237.5091" x="611" y="640.1158">fecha_pago : TIMESTAMP NOT NULL</text><text fill="#000000" font-family="sans-serif" font-size="14" lengthAdjust="spacing" textLength="226.1551" x="611" y="659.1837">metodo : metodo_pago NOT NULL</text><text fill="#000000" font-family="sans-serif" font-size="14" lengthAdjust="spacing" textLength="157.3454" x="611" y="678.2516">{FK} id_matricula : UUID</text><line style="stroke:#181818;stroke-width:0.5;" x1="606" x2="853.5091" y1="686.3536" y2="686.3536"/><text fill="#000000" font-family="sans-serif" font-size="14" lengthAdjust="spacing" textLength="235.563" x="611" y="705.3195">importe : NUMERIC(12,2) NOT NULL</text></g><!--link UsuarioEntity to MatriculaEntity--><g class="link" data-entity-1="UsuarioEntity" data-entity-2="MatriculaEntity" data-source-line="32" data-uid="lnk7" id="link_UsuarioEntity_MatriculaEntity"><path codeLine="32" d="M292.89,222.9799 C276.97,256.8399 257.94,297.3199 242.68,329.7999" fill="none" id="UsuarioEntity-MatriculaEntity" style="stroke:#181818;stroke-width:1;"/><text fill="#000000" font-family="sans-serif" font-size="13" lengthAdjust="spacing" textLength="86.0471" x="277" y="267.5669">@OneToMany</text><text fill="#000000" font-family="sans-serif" font-size="13" lengthAdjust="spacing" textLength="7.436" x="282.5394" y="244.3419">1</text><text fill="#000000" font-family="sans-serif" font-size="13" lengthAdjust="spacing" textLength="21.567" x="223.8054" y="318.4308">0..*</text></g><!--link CursoEntity to MatriculaEntity--><g class="link" data-entity-1="CursoEntity" data-entity-2="MatriculaEntity" data-source-line="33" data-uid="lnk8" id="link_CursoEntity_MatriculaEntity"><path codeLine="33" d="M122.88,213.4199 C141.59,249.0199 165.39,294.2899 184.11,329.8999" fill="none" id="CursoEntity-MatriculaEntity" style="stroke:#181818;stroke-width:1;"/><text fill="#000000" font-family="sans-serif" font-size="13" lengthAdjust="spacing" textLength="86.0471" x="154" y="267.5669">@OneToMany</text><text fill="#000000" font-family="sans-serif" font-size="13" lengthAdjust="spacing" textLength="7.436" x="118.8797" y="234.8414">1</text><text fill="#000000" font-family="sans-serif" font-size="13" lengthAdjust="spacing" textLength="21.567" x="158.0972" y="318.5429">0..*</text></g><!--link MatriculaEntity to PagoEntity--><g class="link" data-entity-1="MatriculaEntity" data-entity-2="PagoEntity" data-source-line="34" data-uid="lnk9" id="link_MatriculaEntity_PagoEntity"><path codeLine="34" d="M215,449.2999 C215,484.4899 215,529.3899 215,566.1299" fill="none" id="MatriculaEntity-PagoEntity" style="stroke:#181818;stroke-width:1;"/><text fill="#000000" font-family="sans-serif" font-size="13" lengthAdjust="spacing" textLength="86.0471" x="216" y="522.5669">@OneToMany</text><text fill="#000000" font-family="sans-serif" font-size="13" lengthAdjust="spacing" textLength="7.436" x="207.6384" y="470.7083">1</text><text fill="#000000" font-family="sans-serif" font-size="13" lengthAdjust="spacing" textLength="21.567" x="192.7993" y="554.1205">0..*</text></g><!--link usuario to matricula--><g class="link" data-entity-1="usuario" data-entity-2="matricula" data-source-line="68" data-uid="lnk15" id="link_usuario_matricula"><path codeLine="68" d="M856.0284,229.2554 C836.6184,253.8054 830.5867,261.4523 810.0767,287.3823" fill="none" id="usuario-matricula" style="stroke:#181818;stroke-width:1;"/><line style="stroke:#181818;stroke-width:1;" x1="855.3714" x2="861.6469" y1="223.6368" y2="228.5985"/><line style="stroke:#181818;stroke-width:1;" x1="853.5108" x2="859.7863" y1="225.9902" y2="230.9518"/><line style="stroke:#181818;stroke-width:1;" x1="856.0284" x2="860.99" y1="229.2554" y2="222.9799"/><line style="stroke:#181818;stroke-width:1;" x1="803.873" x2="803.6159" y1="295.2254" y2="305.2221"/><line style="stroke:#181818;stroke-width:1;" x1="803.873" x2="794.2041" y1="295.2254" y2="297.7777"/><line style="stroke:#181818;stroke-width:1;" x1="803.873" x2="798.91" y1="295.2254" y2="301.4999"/><ellipse cx="807.5952" cy="290.5196" fill="none" rx="4" ry="4" style="stroke:#181818;stroke-width:1;"/><text fill="#000000" font-family="sans-serif" font-size="13" lengthAdjust="spacing" textLength="81.4711" x="834" y="267.5669">FK id_usuario</text></g><!--link curso to matricula--><g class="link" data-entity-1="curso" data-entity-2="matricula" data-source-line="69" data-uid="lnk16" id="link_curso_matricula"><path codeLine="69" d="M653.1879,220.6949 C665.3879,247.3649 669.2442,255.8103 682.6842,285.2003" fill="none" id="curso-matricula" style="stroke:#181818;stroke-width:1;"/><line style="stroke:#181818;stroke-width:1;" x1="647.8865" x2="655.1614" y1="218.7213" y2="215.3934"/><line style="stroke:#181818;stroke-width:1;" x1="649.1344" x2="656.4094" y1="221.4494" y2="218.1216"/><line style="stroke:#181818;stroke-width:1;" x1="653.1879" x2="649.86" y1="220.6949" y2="213.4199"/><line style="stroke:#181818;stroke-width:1;" x1="686.843" x2="695.6265" y1="294.2945" y2="299.0746"/><line style="stroke:#181818;stroke-width:1;" x1="686.843" x2="684.7135" y1="294.2945" y2="304.0652"/><line style="stroke:#181818;stroke-width:1;" x1="686.843" x2="690.17" y1="294.2945" y2="301.5699"/><ellipse cx="684.3477" cy="288.838" fill="none" rx="4" ry="4" style="stroke:#181818;stroke-width:1;"/><text fill="#000000" font-family="sans-serif" font-size="13" lengthAdjust="spacing" textLength="69.0301" x="677" y="267.5669">FK id_curso</text></g><!--link matricula to pago--><g class="link" data-entity-1="matricula" data-entity-2="pago" data-source-line="70" data-uid="lnk17" id="link_matricula_pago"><path codeLine="70" d="M730,485.8899 C730,511.5499 730,513.4299 730,538.4499" fill="none" id="matricula-pago" style="stroke:#181818;stroke-width:1;"/><line style="stroke:#181818;stroke-width:1;" x1="726" x2="734" y1="481.8899" y2="481.8899"/><line style="stroke:#181818;stroke-width:1;" x1="726" x2="734" y1="484.8899" y2="484.8899"/><line style="stroke:#181818;stroke-width:1;" x1="730" x2="730" y1="485.8899" y2="477.8899"/><line style="stroke:#181818;stroke-width:1;" x1="730" x2="736" y1="548.4499" y2="556.4499"/><line style="stroke:#181818;stroke-width:1;" x1="730" x2="724" y1="548.4499" y2="556.4499"/><line style="stroke:#181818;stroke-width:1;" x1="730" x2="730" y1="548.4499" y2="556.4499"/><ellipse cx="730" cy="542.4499" fill="none" rx="4" ry="4" style="stroke:#181818;stroke-width:1;"/><text fill="#000000" font-family="sans-serif" font-size="13" lengthAdjust="spacing" textLength="93.0801" x="731" y="522.5669">FK id_matricula</text></g><!--SRC=[bPFTRjem5CVlynH7NC5QEbffDuXLP3JLqXQQ0fbsLvd4KAk9dTbEfuuYxI7s6dkAlScUP8wT1WSQYI4XEUVyZi-7_qSy4feXZbA84YI4AoKdYrnYFs9qHdvWw3cYGiG3YjbtGbUmH8d0ZYGomH3Cnl3tvo_mH8QZFx-N968GOyWI9D6IyHH1-mezeVTNWGj7430XLnpFxcuwZfEXw16jCBH6A4CGO2w8a9X6f8W9t4uBrWwOoY0KEUA4ULHbVOR1eBXkQBxEppK7S1I6_WMGk6HXwCV6FbDjgR8fInSSrqmuHII1uOWbUKhREINVSlnHyXnt33Pb2N3rLwdo57CaSN7bngdg6kLS75QL9lTgKcYUi9efnYBY98i8e_LSOwI0A4_GGVagUflJfq8YAc69emVa9X8PiwUiCTloM7ytznoWrM4j5s13zi9bp9_8wW9794K9a3HZN9OlDCQInKnVaUhZMmNLPT4wRK6t2wtUoScxrjwu-Z2yfNYk6gNFAjH-EVY_q5rtFTWQZ_hLGZUMw3sXjARMG-q2jAszi5MVbqeU32HQ9BWQy3gutgZvth_w-r1CNBkCo9NbYpiTVNQdxTEpNWScjtEOX3St6Z6Yjv4F2Wad_bterSb2-he7TQYIMOGbYaZBkwbGuxNADBgtQZZhxPPfxO7YvjxNUJrZMWcsAUkMi39h-TqZfVxYLd_ipURkEDYPaDc0VdcmBgfXwyl6PtXrxJMkT68ctTu67bTafzvYLgY_gJljt6kij3OqLcwO0YRXs9lw8oMFuxETmPVhrYyFviet6tzZmBhwru6yl7IxR0qsTdbjJQneL0y8cb4DA73hAL5TbbQd0Il0sVm3]--></g></svg>