<svg xmlns="http://www.w3.org/2000/svg" xmlns:xlink="http://www.w3.org/1999/xlink" contentStyleType="text/css" data-diagram-type="DESCRIPTION" height="846px" preserveAspectRatio="none" style="width:541px;height:846px;background:#FFFFFF;" version="1.1" viewBox="0 0 541 846" width="541px" zoomAndPan="magnify"><defs/><g><!--cluster WebSrv--><g class="cluster" data-entity="WebSrv" data-source-line="10" data-uid="ent0003" id="cluster_WebSrv"><polygon fill="none" points="183,215,193,205,524,205,524,323,514,333,183,333,183,215" style="stroke:#181818;stroke-width:1;"/><line style="stroke:#181818;stroke-width:1;" x1="514" x2="524" y1="215" y2="205"/><line style="stroke:#181818;stroke-width:1;" x1="183" x2="514" y1="215" y2="215"/><line style="stroke:#181818;stroke-width:1;" x1="514" x2="514" y1="215" y2="333"/><text fill="#000000" font-family="sans-serif" font-size="18" font-weight="bold" lengthAdjust="spacing" textLength="248.7045" x="225.1477" y="237.2419">Servidor Web / Balanceador</text></g><!--cluster AppSrv--><g class="cluster" data-entity="AppSrv" data-source-line="13" data-uid="ent0005" id="cluster_AppSrv"><polygon fill="none" points="183,463,193,453,513,453,513,571,503,581,183,581,183,463" style="stroke:#181818;stroke-width:1;"/><line style="stroke:#181818;stroke-width:1;" x1="503" x2="513" y1="463" y2="453"/><line style="stroke:#181818;stroke-width:1;" x1="183" x2="503" y1="463" y2="463"/><line style="stroke:#181818;stroke-width:1;" x1="503" x2="503" y1="463" y2="581"/><text fill="#000000" font-family="sans-serif" font-size="18" font-weight="bold" lengthAdjust="spacing" textLength="218.7707" x="234.6147" y="485.2419">Servidor de Aplicaciones</text></g><!--cluster DBSrv--><g class="cluster" data-entity="DBSrv" data-source-line="16" data-uid="ent0007" id="cluster_DBSrv"><polygon fill="none" points="181,711,191,701,489,701,489,819,479,829,181,829,181,711" style="stroke:#181818;stroke-width:1;"/><line style="stroke:#181818;stroke-width:1;" x1="479" x2="489" y1="711" y2="701"/><line style="stroke:#181818;stroke-width:1;" x1="181" x2="479" y1="711" y2="711"/><line style="stroke:#181818;stroke-width:1;" x1="479" x2="479" y1="711" y2="829"/><text fill="#000000" font-family="sans-serif" font-size="18" font-weight="bold" lengthAdjust="spacing" textLength="232.5946" x="214.7027" y="733.2419">Servidor de Base de Datos</text></g><!--entity WebSoft--><g class="entity" data-entity="WebSoft" data-source-line="11" data-uid="ent0004" id="entity_WebSoft"><rect fill="#F1F1F1" height="47.5158" rx="2.5" ry="2.5" style="stroke:#181818;stroke-width:0.5;" width="149.3212" x="351.5" y="261"/><polygon fill="#F1F1F1" points="483.8212,266,483.8212,280,495.8212,280,495.8212,272,489.8212,266,483.8212,266" style="stroke:#181818;stroke-width:0.5;"/><line style="stroke:#181818;stroke-width:0.5;" x1="489.8212" x2="489.8212" y1="266" y2="272"/><line style="stroke:#181818;stroke-width:0.5;" x1="495.8212" x2="489.8212" y1="272" y2="272"/><text fill="#000000" font-family="sans-serif" font-size="18" lengthAdjust="spacing" textLength="119.3212" x="361.5" y="293.2419">Nginx/Apache</text></g><!--entity WebApp--><g class="entity" data-entity="WebApp" data-source-line="14" data-uid="ent0006" id="entity_WebApp"><rect fill="#F1F1F1" height="47.5158" rx="2.5" ry="2.5" style="stroke:#181818;stroke-width:0.5;" width="138.1073" x="351" y="509"/><polygon fill="#F1F1F1" points="472.1073,514,472.1073,528,484.1073,528,484.1073,520,478.1073,514,472.1073,514" style="stroke:#181818;stroke-width:0.5;"/><line style="stroke:#181818;stroke-width:0.5;" x1="478.1073" x2="478.1073" y1="514" y2="520"/><line style="stroke:#181818;stroke-width:0.5;" x1="484.1073" x2="478.1073" y1="520" y2="520"/><text fill="#000000" font-family="sans-serif" font-size="18" lengthAdjust="spacing" textLength="108.1073" x="361" y="541.2419">WebApp.war</text></g><!--entity DB--><g class="entity" data-entity="DB" data-source-line="17" data-uid="ent0008" id="entity_DB"><rect fill="#F1F1F1" height="47.5158" rx="2.5" ry="2.5" style="stroke:#181818;stroke-width:0.5;" width="111.9355" x="352" y="757"/><polygon fill="#F1F1F1" points="446.9355,762,446.9355,776,458.9355,776,458.9355,768,452.9355,762,446.9355,762" style="stroke:#181818;stroke-width:0.5;"/><line style="stroke:#181818;stroke-width:0.5;" x1="452.9355" x2="452.9355" y1="762" y2="768"/><line style="stroke:#181818;stroke-width:0.5;" x1="458.9355" x2="452.9355" y1="768" y2="768"/><text fill="#000000" font-family="sans-serif" font-size="18" lengthAdjust="spacing" textLength="81.9355" x="362" y="789.2419">TiendaDB</text></g><!--entity Cliente--><g class="entity" data-entity="Cliente" data-source-line="9" data-uid="ent0002" id="entity_Cliente"><polygon fill="#F1F1F1" points="87,16,97,6,294.7049,6,294.7049,50.5158,284.7049,60.5158,87,60.5158,87,16" style="stroke:#181818;stroke-width:0.5;"/><line style="stroke:#181818;stroke-width:0.5;" x1="284.7049" x2="294.7049" y1="16" y2="6"/><line style="stroke:#181818;stroke-width:0.5;" x1="87" x2="284.7049" y1="16" y2="16"/><line style="stroke:#181818;stroke-width:0.5;" x1="284.7049" x2="284.7049" y1="16" y2="60.5158"/><text fill="#000000" font-family="sans-serif" font-size="18" lengthAdjust="spacing" textLength="167.7049" x="102" y="45.2419">Cliente (Navegador)</text></g><!--link Cliente to WebSrv--><g class="link" data-entity-1="Cliente" data-entity-2="WebSrv" data-source-line="21" data-uid="lnk9" id="link_Cliente_WebSrv"><path d="M191,61.38 C191,93.095 191,146.5525 191,193.2475 C191,196.1659 191,199.058 191,201.9166 C191,202.6313 191,203.3438 191,204.0542" fill="none" id="Cliente-WebSrv" style="stroke:#181818;stroke-width:1;"/><text fill="#000000" font-family="sans-serif" font-size="18" lengthAdjust="spacing" textLength="105.0654" x="85" y="167.2019">HTTP/HTTPS</text></g><!--link Cliente to WebSrv--><!--link WebSrv to AppSrv--><g class="link" data-entity-1="WebSrv" data-entity-2="AppSrv" data-source-line="22" data-uid="lnk10" id="link_WebSrv_AppSrv"><path d="M191,333.7095 C191,334.4613 191,335.2191 191,335.9826 C191,339.0365 191,342.1822 191,345.4066 C191,351.8553 191,358.6187 191,365.5916 C191,379.5374 191,394.3216 191,409.1038 C191,423.8859 191,438.6662 191,452.6042" fill="none" id="WebSrv-AppSrv" style="stroke:#181818;stroke-width:1;"/><text fill="#000000" font-family="sans-serif" font-size="18" lengthAdjust="spacing" textLength="183.9229" x="7" y="403.2519">Proxy/Load Balancing</text></g><!--link WebSrv to AppSrv--><!--link AppSrv to DBSrv--><g class="link" data-entity-1="AppSrv" data-entity-2="DBSrv" data-source-line="23" data-uid="lnk11" id="link_AppSrv_DBSrv"><path d="M191,581.7095 C191,582.4613 191,583.2191 191,583.9826 C191,587.0365 191,590.1822 191,593.4066 C191,599.8553 191,606.6187 191,613.5916 C191,627.5374 191,642.3216 191,657.1038 C191,671.8859 191,686.6662 191,700.6042" fill="none" id="AppSrv-DBSrv" style="stroke:#181818;stroke-width:1;"/><text fill="#000000" font-family="sans-serif" font-size="18" lengthAdjust="spacing" textLength="81.1975" x="109" y="651.2519">JDBC/SQL</text></g><!--link AppSrv to DBSrv--><!--SRC=[RP71Qjj048Rl-nI3BsqEYP8SIl7DiYWX19CWGm-bXx5sR6yjxsntnwwTKiX3v0dx91tPaYFYWj2o___pxxUpmW64OSOYl0Rh8bNYs9kqSZvWn3NKpfFi0m57MNBFy6mfKO2RJzSzDQ9VDUhjTL-rDCTDBL_OI-cU2Mu-cwMp14ae4ZVrndo02LjEfkc5mRXsv8NWumItj43ByM80cA3LsrH9SUlKWwyqWmnohD5NrAGFOLNBk8NV1W2Zk3bM0eF9mlbTDWfOBUcKuhcOF-zBTJCAjQkmqf5GEeH78PnNQeFgLx_mTAnk_zkNOw9cBL3uM5ZavtrJlQF58cy3sgJJ6Il3xW02MvVShAPakYbTNdPt7SBTTFgODR_Ij9gwBVOG7YFlzja3essdvVp2jAxcZZH3k2_oSLO-FJG7_trvrGz6qILH7gxq9NNzkI6WTTZyG0zKGurxtaWRVWFxfkzioN_l03kcldCylgFeEmUSVm00]--></g></svg>