<svg xmlns="http://www.w3.org/2000/svg" xmlns:xlink="http://www.w3.org/1999/xlink" contentStyleType="text/css" data-diagram-type="DESCRIPTION" height="846px" preserveAspectRatio="none" style="width:988px;height:846px;background:#FFFFFF;" version="1.1" viewBox="0 0 988 846" width="988px" zoomAndPan="magnify"><defs/><g><!--cluster WebSrv--><g class="cluster" data-entity="WebSrv" data-source-line="12" data-uid="ent0003" id="cluster_WebSrv"><polygon fill="none" points="406,215,416,205,747,205,747,323,737,333,406,333,406,215" style="stroke:#181818;stroke-width:1;"/><line style="stroke:#181818;stroke-width:1;" x1="737" x2="747" y1="215" y2="205"/><line style="stroke:#181818;stroke-width:1;" x1="406" x2="737" y1="215" y2="215"/><line style="stroke:#181818;stroke-width:1;" x1="737" x2="737" y1="215" y2="333"/><text fill="#000000" font-family="sans-serif" font-size="18" font-weight="bold" lengthAdjust="spacing" textLength="248.7045" x="448.1477" y="237.2419">Servidor Web / Balanceador</text></g><!--cluster AppSrvA--><g class="cluster" data-entity="AppSrvA" data-source-line="17" data-uid="ent0005" id="cluster_AppSrvA"><polygon fill="none" points="183,463,193,453,513,453,513,571,503,581,183,581,183,463" style="stroke:#181818;stroke-width:1;"/><line style="stroke:#181818;stroke-width:1;" x1="503" x2="513" y1="463" y2="453"/><line style="stroke:#181818;stroke-width:1;" x1="183" x2="503" y1="463" y2="463"/><line style="stroke:#181818;stroke-width:1;" x1="503" x2="503" y1="463" y2="581"/><text fill="#000000" font-family="sans-serif" font-size="18" font-weight="bold" lengthAdjust="spacing" textLength="235.8706" x="226.0647" y="485.2419">Servidor de Aplicaciones A</text></g><!--cluster AppSrvB--><g class="cluster" data-entity="AppSrvB" data-source-line="20" data-uid="ent0007" id="cluster_AppSrvB"><polygon fill="none" points="641,463,651,453,971,453,971,571,961,581,641,581,641,463" style="stroke:#181818;stroke-width:1;"/><line style="stroke:#181818;stroke-width:1;" x1="961" x2="971" y1="463" y2="453"/><line style="stroke:#181818;stroke-width:1;" x1="641" x2="961" y1="463" y2="463"/><line style="stroke:#181818;stroke-width:1;" x1="961" x2="961" y1="463" y2="581"/><text fill="#000000" font-family="sans-serif" font-size="18" font-weight="bold" lengthAdjust="spacing" textLength="235.5466" x="684.2267" y="485.2419">Servidor de Aplicaciones B</text></g><!--cluster DBSrv--><g class="cluster" data-entity="DBSrv" data-source-line="25" data-uid="ent0009" id="cluster_DBSrv"><polygon fill="none" points="412,711,422,701,720,701,720,819,710,829,412,829,412,711" style="stroke:#181818;stroke-width:1;"/><line style="stroke:#181818;stroke-width:1;" x1="710" x2="720" y1="711" y2="701"/><line style="stroke:#181818;stroke-width:1;" x1="412" x2="710" y1="711" y2="711"/><line style="stroke:#181818;stroke-width:1;" x1="710" x2="710" y1="711" y2="829"/><text fill="#000000" font-family="sans-serif" font-size="18" font-weight="bold" lengthAdjust="spacing" textLength="232.5946" x="445.7027" y="733.2419">Servidor de Base de Datos</text></g><!--entity WebSoft--><g class="entity" data-entity="WebSoft" data-source-line="13" data-uid="ent0004" id="entity_WebSoft"><rect fill="#F1F1F1" height="47.5158" rx="2.5" ry="2.5" style="stroke:#181818;stroke-width:0.5;" width="149.3212" x="574.5" y="261"/><polygon fill="#F1F1F1" points="706.8212,266,706.8212,280,718.8212,280,718.8212,272,712.8212,266,706.8212,266" style="stroke:#181818;stroke-width:0.5;"/><line style="stroke:#181818;stroke-width:0.5;" x1="712.8212" x2="712.8212" y1="266" y2="272"/><line style="stroke:#181818;stroke-width:0.5;" x1="718.8212" x2="712.8212" y1="272" y2="272"/><text fill="#000000" font-family="sans-serif" font-size="18" lengthAdjust="spacing" textLength="119.3212" x="584.5" y="293.2419">Nginx/Apache</text></g><!--entity WebAppA--><g class="entity" data-entity="WebAppA" data-source-line="18" data-uid="ent0006" id="entity_WebAppA"><rect fill="#F1F1F1" height="47.5158" rx="2.5" ry="2.5" style="stroke:#181818;stroke-width:0.5;" width="138.1073" x="351" y="509"/><polygon fill="#F1F1F1" points="472.1073,514,472.1073,528,484.1073,528,484.1073,520,478.1073,514,472.1073,514" style="stroke:#181818;stroke-width:0.5;"/><line style="stroke:#181818;stroke-width:0.5;" x1="478.1073" x2="478.1073" y1="514" y2="520"/><line style="stroke:#181818;stroke-width:0.5;" x1="484.1073" x2="478.1073" y1="520" y2="520"/><text fill="#000000" font-family="sans-serif" font-size="18" lengthAdjust="spacing" textLength="108.1073" x="361" y="541.2419">WebApp.war</text></g><!--entity WebAppB--><g class="entity" data-entity="WebAppB" data-source-line="21" data-uid="ent0008" id="entity_WebAppB"><rect fill="#F1F1F1" height="47.5158" rx="2.5" ry="2.5" style="stroke:#181818;stroke-width:0.5;" width="138.1073" x="809" y="509"/><polygon fill="#F1F1F1" points="930.1073,514,930.1073,528,942.1073,528,942.1073,520,936.1073,514,930.1073,514" style="stroke:#181818;stroke-width:0.5;"/><line style="stroke:#181818;stroke-width:0.5;" x1="936.1073" x2="936.1073" y1="514" y2="520"/><line style="stroke:#181818;stroke-width:0.5;" x1="942.1073" x2="936.1073" y1="520" y2="520"/><text fill="#000000" font-family="sans-serif" font-size="18" lengthAdjust="spacing" textLength="108.1073" x="819" y="541.2419">WebApp.war</text></g><!--entity DB--><g class="entity" data-entity="DB" data-source-line="26" data-uid="ent0010" id="entity_DB"><rect fill="#F1F1F1" height="47.5158" rx="2.5" ry="2.5" style="stroke:#181818;stroke-width:0.5;" width="111.9355" x="583" y="757"/><polygon fill="#F1F1F1" points="677.9355,762,677.9355,776,689.9355,776,689.9355,768,683.9355,762,677.9355,762" style="stroke:#181818;stroke-width:0.5;"/><line style="stroke:#181818;stroke-width:0.5;" x1="683.9355" x2="683.9355" y1="762" y2="768"/><line style="stroke:#181818;stroke-width:0.5;" x1="689.9355" x2="683.9355" y1="768" y2="768"/><text fill="#000000" font-family="sans-serif" font-size="18" lengthAdjust="spacing" textLength="81.9355" x="593" y="789.2419">TiendaDB</text></g><!--entity Cliente--><g class="entity" data-entity="Cliente" data-source-line="9" data-uid="ent0002" id="entity_Cliente"><polygon fill="#F1F1F1" points="310,16,320,6,517.7049,6,517.7049,50.5158,507.7049,60.5158,310,60.5158,310,16" style="stroke:#181818;stroke-width:0.5;"/><line style="stroke:#181818;stroke-width:0.5;" x1="507.7049" x2="517.7049" y1="16" y2="6"/><line style="stroke:#181818;stroke-width:0.5;" x1="310" x2="507.7049" y1="16" y2="16"/><line style="stroke:#181818;stroke-width:0.5;" x1="507.7049" x2="507.7049" y1="16" y2="60.5158"/><text fill="#000000" font-family="sans-serif" font-size="18" lengthAdjust="spacing" textLength="167.7049" x="325" y="45.2419">Cliente (Navegador)</text></g><!--link Cliente to WebSrv--><g class="link" data-entity-1="Cliente" data-entity-2="WebSrv" data-source-line="30" data-uid="lnk11" id="link_Cliente_WebSrv"><path d="M414,61.38 C414,93.095 414,146.5525 414,193.2475 C414,196.1659 414,199.058 414,201.9166 C414,202.6313 414,203.3438 414,204.0542" fill="none" id="Cliente-WebSrv" style="stroke:#181818;stroke-width:1;"/><text fill="#000000" font-family="sans-serif" font-size="18" lengthAdjust="spacing" textLength="105.0654" x="308" y="167.2019">HTTP/HTTPS</text></g><!--link Cliente to WebSrv--><!--link WebSrv to AppSrvA--><g class="link" data-entity-1="WebSrv" data-entity-2="AppSrvA" data-source-line="31" data-uid="lnk12" id="link_WebSrv_AppSrvA"><path d="M405.8982,285 C405.556,285 405.2039,285 404.8421,285 C403.3951,285 401.7937,285 400.0501,285 C393.0758,285 383.8278,285 373.0981,285 C351.6387,285 324.2525,285 297.275,285 C243.32,285 191,285 191,285 C191,285 191,344.1275 191,404.6413 C191,419.7697 191,434.9848 191,449.3843 C191,450.2842 191,451.181 191,452.0744" fill="none" id="WebSrv-AppSrvA" style="stroke:#181818;stroke-width:1;"/><text fill="#000000" font-family="sans-serif" font-size="18" lengthAdjust="spacing" textLength="183.9229" x="7" y="291.8619">Proxy/Load Balancing</text></g><!--link WebSrv to AppSrvA--><!--link WebSrv to AppSrvB--><g class="link" data-entity-1="WebSrv" data-entity-2="AppSrvB" data-source-line="32" data-uid="lnk13" id="link_WebSrv_AppSrvB"><path d="M498.67,333.2637 C498.67,333.8374 498.67,334.4136 498.67,334.9922 C498.67,344.25 498.67,354.125 498.67,364 C498.67,403.5 498.67,443 498.67,443 C498.67,443 649,443 649,443 C649,443 649,444.2775 649,446.5281 C649,447.6534 649,449.022 649,450.5958 C649,450.9892 649,451.3955 649,451.814 C649,452.0233 649,452.2356 649,452.4509 C649,452.5585 649,452.6669 649,452.7761" fill="none" id="WebSrv-AppSrvB" style="stroke:#181818;stroke-width:1;"/><text fill="#000000" font-family="sans-serif" font-size="18" lengthAdjust="spacing" textLength="183.9229" x="314.67" y="436.0619">Proxy/Load Balancing</text></g><!--link WebSrv to AppSrvB--><!--link AppSrvA to DBSrv--><g class="link" data-entity-1="AppSrvA" data-entity-2="DBSrv" data-source-line="33" data-uid="lnk14" id="link_AppSrvA_DBSrv"><path d="M191,581.2947 C191,582.8299 191,584.3901 191,585.9737 C191,589.1409 191,592.4013 191,595.7409 C191,602.4201 191,609.416 191,616.6157 C191,631.0152 191,646.2303 191,661.3588 C191,721.8725 191,781 191,781 C191,781 245.1975,781 301.0888,781 C329.0344,781 357.4034,781 379.633,781 C390.7477,781 400.3276,781 407.5522,781 C408.4553,781 409.3216,781 410.1495,781 C410.5634,781 410.9678,781 411.3623,781 C411.5596,781 411.7544,781 411.9467,781" fill="none" id="AppSrvA-DBSrv" style="stroke:#181818;stroke-width:1;"/><text fill="#000000" font-family="sans-serif" font-size="18" lengthAdjust="spacing" textLength="81.1975" x="109" y="766.6119">JDBC/SQL</text></g><!--link AppSrvA to DBSrv--><!--link AppSrvB to DBSrv--><g class="link" data-entity-1="AppSrvB" data-entity-2="DBSrv" data-source-line="34" data-uid="lnk15" id="link_AppSrvB_DBSrv"><path d="M640.6124,533 C640.4777,533 640.3416,533 640.2041,533 C635.8046,533 629.9709,533 623.2023,533 C609.6653,533 592.3894,533 575.3713,533 C541.335,533 508.33,533 508.33,533 C508.33,533 508.33,595 508.33,657 C508.33,664.75 508.33,672.5 508.33,680.1289 C508.33,683.9434 508.33,687.7275 508.33,691.4663 C508.33,693.3357 508.33,695.1937 508.33,697.0385 C508.33,697.9609 508.33,698.88 508.33,699.7955" fill="none" id="AppSrvB-DBSrv" style="stroke:#181818;stroke-width:1;"/><text fill="#000000" font-family="sans-serif" font-size="18" lengthAdjust="spacing" textLength="81.1975" x="426.33" y="624.0019">JDBC/SQL</text></g><!--link AppSrvB to DBSrv--><!--SRC=[ZLDDRzim3BthLn2vj3rqRdSOXjoi1CCm54K71zXXs86nc4Ih8ngIwYKT1kn7x1VkbunExTZvC5R0i20-yl4zIefSGcIOSuoy1cCzvT6oK-7HkX8zhg6mZkAs960VLzm371iALCBjkvjUrADxhADlR_fHGmjyAk87TZ6ppmItxzNA6e8GoHFNz4fTmD_VV-I3IM79HMgsgku3epPuUOyLBT6mlne1XZQvLvwHhwpWy8Nca8360brETSKXut3UZbYYcQ_Wfm907-q2ymYZ-wLrcoGjCL_HFeiNKVqw8u22-8QqB6oEkGnLzfSKSkbZ65RixREC0ukh0Ld7jUckOLgM8YizqYKo17Zp0_VQPPkAglzmwXwdVWsdFkkqvjKOg5wd63aCMpf8sn5FzUcSPtAe1gUwIJXeEX7bcnVvbGrsNj2-NNj9hg_Runl3nzdi8Qb_cMfYWhPJ7CE3vyqskMCqpGsmRdcIg8SIMnx9VB4nXazJFKcoptUgBJs7TMvIRqCKavpB-v2rVY-mfk_iqKE1MtwAK94CHkxDYSslyeWCkM-jtRtm3cWK3YAwyz11ExsTWIFW7m00]--></g></svg>