<svg xmlns="http://www.w3.org/2000/svg" xmlns:xlink="http://www.w3.org/1999/xlink" contentStyleType="text/css" data-diagram-type="DESCRIPTION" height="1174px" preserveAspectRatio="none" style="width:1037px;height:1174px;background:#FFFFFF;" version="1.1" viewBox="0 0 1037 1174" width="1037px" zoomAndPan="magnify"><defs/><g><!--cluster WebSrv--><g class="cluster" data-entity="WebSrv" data-source-line="12" data-uid="ent0003" id="cluster_WebSrv"><polygon fill="none" points="435.67,235,445.67,225,786.67,225,786.67,343,776.67,353,435.67,353,435.67,235" style="stroke:#181818;stroke-width:1;"/><line style="stroke:#181818;stroke-width:1;" x1="776.67" x2="786.67" y1="235" y2="225"/><line style="stroke:#181818;stroke-width:1;" x1="435.67" x2="776.67" y1="235" y2="235"/><line style="stroke:#181818;stroke-width:1;" x1="776.67" x2="776.67" y1="235" y2="353"/><text fill="#000000" font-family="sans-serif" font-size="18" font-weight="bold" lengthAdjust="spacing" textLength="248.7045" x="482.8177" y="257.2419">Servidor Web / Balanceador</text></g><!--cluster AppSrvA--><g class="cluster" data-entity="AppSrvA" data-source-line="17" data-uid="ent0005" id="cluster_AppSrvA"><polygon fill="none" points="202.67,503,212.67,493,542.67,493,542.67,611,532.67,621,202.67,621,202.67,503" style="stroke:#181818;stroke-width:1;"/><line style="stroke:#181818;stroke-width:1;" x1="532.67" x2="542.67" y1="503" y2="493"/><line style="stroke:#181818;stroke-width:1;" x1="202.67" x2="532.67" y1="503" y2="503"/><line style="stroke:#181818;stroke-width:1;" x1="532.67" x2="532.67" y1="503" y2="621"/><text fill="#000000" font-family="sans-serif" font-size="18" font-weight="bold" lengthAdjust="spacing" textLength="235.8706" x="250.7347" y="525.2419">Servidor de Aplicaciones A</text></g><!--cluster AppSrvB--><g class="cluster" data-entity="AppSrvB" data-source-line="20" data-uid="ent0007" id="cluster_AppSrvB"><polygon fill="none" points="680.67,503,690.67,493,1020.67,493,1020.67,611,1010.67,621,680.67,621,680.67,503" style="stroke:#181818;stroke-width:1;"/><line style="stroke:#181818;stroke-width:1;" x1="1010.67" x2="1020.67" y1="503" y2="493"/><line style="stroke:#181818;stroke-width:1;" x1="680.67" x2="1010.67" y1="503" y2="503"/><line style="stroke:#181818;stroke-width:1;" x1="1010.67" x2="1010.67" y1="503" y2="621"/><text fill="#000000" font-family="sans-serif" font-size="18" font-weight="bold" lengthAdjust="spacing" textLength="235.5466" x="728.8967" y="525.2419">Servidor de Aplicaciones B</text></g><!--cluster CacheSrv--><g class="cluster" data-entity="CacheSrv" data-source-line="25" data-uid="ent0009" id="cluster_CacheSrv"><polygon fill="none" points="330.67,771,340.67,761,717.67,761,717.67,879,707.67,889,330.67,889,330.67,771" style="stroke:#181818;stroke-width:1;"/><line style="stroke:#181818;stroke-width:1;" x1="707.67" x2="717.67" y1="771" y2="761"/><line style="stroke:#181818;stroke-width:1;" x1="330.67" x2="707.67" y1="771" y2="771"/><line style="stroke:#181818;stroke-width:1;" x1="707.67" x2="707.67" y1="771" y2="889"/><text fill="#000000" font-family="sans-serif" font-size="18" font-weight="bold" lengthAdjust="spacing" textLength="160.6131" x="439.8635" y="793.2419">Servidor de Cach&#233;</text></g><!--cluster DBSrv--><g class="cluster" data-entity="DBSrv" data-source-line="30" data-uid="ent0011" id="cluster_DBSrv"><polygon fill="none" points="330.67,1039,340.67,1029,644.67,1029,644.67,1147,634.67,1157,330.67,1157,330.67,1039" style="stroke:#181818;stroke-width:1;"/><line style="stroke:#181818;stroke-width:1;" x1="634.67" x2="644.67" y1="1039" y2="1029"/><line style="stroke:#181818;stroke-width:1;" x1="330.67" x2="634.67" y1="1039" y2="1039"/><line style="stroke:#181818;stroke-width:1;" x1="634.67" x2="634.67" y1="1039" y2="1157"/><text fill="#000000" font-family="sans-serif" font-size="18" font-weight="bold" lengthAdjust="spacing" textLength="232.5946" x="367.3727" y="1061.2419">Servidor de Base de Datos</text></g><!--entity WebSoft--><g class="entity" data-entity="WebSoft" data-source-line="13" data-uid="ent0004" id="entity_WebSoft"><rect fill="#F1F1F1" height="47.5158" rx="2.5" ry="2.5" style="stroke:#181818;stroke-width:0.5;" width="149.3212" x="614.17" y="281"/><polygon fill="#F1F1F1" points="746.4912,286,746.4912,300,758.4912,300,758.4912,292,752.4912,286,746.4912,286" style="stroke:#181818;stroke-width:0.5;"/><line style="stroke:#181818;stroke-width:0.5;" x1="752.4912" x2="752.4912" y1="286" y2="292"/><line style="stroke:#181818;stroke-width:0.5;" x1="758.4912" x2="752.4912" y1="292" y2="292"/><text fill="#000000" font-family="sans-serif" font-size="18" lengthAdjust="spacing" textLength="119.3212" x="624.17" y="313.2419">Nginx/Apache</text></g><!--entity WebAppA--><g class="entity" data-entity="WebAppA" data-source-line="18" data-uid="ent0006" id="entity_WebAppA"><rect fill="#F1F1F1" height="47.5158" rx="2.5" ry="2.5" style="stroke:#181818;stroke-width:0.5;" width="138.1073" x="380.67" y="549"/><polygon fill="#F1F1F1" points="501.7773,554,501.7773,568,513.7773,568,513.7773,560,507.7773,554,501.7773,554" style="stroke:#181818;stroke-width:0.5;"/><line style="stroke:#181818;stroke-width:0.5;" x1="507.7773" x2="507.7773" y1="554" y2="560"/><line style="stroke:#181818;stroke-width:0.5;" x1="513.7773" x2="507.7773" y1="560" y2="560"/><text fill="#000000" font-family="sans-serif" font-size="18" lengthAdjust="spacing" textLength="108.1073" x="390.67" y="581.2419">WebApp.war</text></g><!--entity WebAppB--><g class="entity" data-entity="WebAppB" data-source-line="21" data-uid="ent0008" id="entity_WebAppB"><rect fill="#F1F1F1" height="47.5158" rx="2.5" ry="2.5" style="stroke:#181818;stroke-width:0.5;" width="138.1073" x="858.67" y="549"/><polygon fill="#F1F1F1" points="979.7773,554,979.7773,568,991.7773,568,991.7773,560,985.7773,554,979.7773,554" style="stroke:#181818;stroke-width:0.5;"/><line style="stroke:#181818;stroke-width:0.5;" x1="985.7773" x2="985.7773" y1="554" y2="560"/><line style="stroke:#181818;stroke-width:0.5;" x1="991.7773" x2="985.7773" y1="560" y2="560"/><text fill="#000000" font-family="sans-serif" font-size="18" lengthAdjust="spacing" textLength="108.1073" x="868.67" y="581.2419">WebApp.war</text></g><!--entity CacheSoft--><g class="entity" data-entity="CacheSoft" data-source-line="26" data-uid="ent0010" id="entity_CacheSoft"><rect fill="#F1F1F1" height="47.5158" rx="2.5" ry="2.5" style="stroke:#181818;stroke-width:0.5;" width="185.411" x="509.17" y="817"/><polygon fill="#F1F1F1" points="677.581,822,677.581,836,689.581,836,689.581,828,683.581,822,677.581,822" style="stroke:#181818;stroke-width:0.5;"/><line style="stroke:#181818;stroke-width:0.5;" x1="683.581" x2="683.581" y1="822" y2="828"/><line style="stroke:#181818;stroke-width:0.5;" x1="689.581" x2="683.581" y1="828" y2="828"/><text fill="#000000" font-family="sans-serif" font-size="18" lengthAdjust="spacing" textLength="155.411" x="519.17" y="849.2419">Redis/Memcached</text></g><!--entity DB--><g class="entity" data-entity="DB" data-source-line="31" data-uid="ent0012" id="entity_DB"><rect fill="#F1F1F1" height="47.5158" rx="2.5" ry="2.5" style="stroke:#181818;stroke-width:0.5;" width="111.9355" x="508.67" y="1085"/><polygon fill="#F1F1F1" points="603.6055,1090,603.6055,1104,615.6055,1104,615.6055,1096,609.6055,1090,603.6055,1090" style="stroke:#181818;stroke-width:0.5;"/><line style="stroke:#181818;stroke-width:0.5;" x1="609.6055" x2="609.6055" y1="1090" y2="1096"/><line style="stroke:#181818;stroke-width:0.5;" x1="615.6055" x2="609.6055" y1="1096" y2="1096"/><text fill="#000000" font-family="sans-serif" font-size="18" lengthAdjust="spacing" textLength="81.9355" x="518.67" y="1117.2419">TiendaDB</text></g><!--entity Cliente--><g class="entity" data-entity="Cliente" data-source-line="9" data-uid="ent0002" id="entity_Cliente"><polygon fill="#F1F1F1" points="339.67,16,349.67,6,547.3749,6,547.3749,50.5158,537.3749,60.5158,339.67,60.5158,339.67,16" style="stroke:#181818;stroke-width:0.5;"/><line style="stroke:#181818;stroke-width:0.5;" x1="537.3749" x2="547.3749" y1="16" y2="6"/><line style="stroke:#181818;stroke-width:0.5;" x1="339.67" x2="537.3749" y1="16" y2="16"/><line style="stroke:#181818;stroke-width:0.5;" x1="537.3749" x2="537.3749" y1="16" y2="60.5158"/><text fill="#000000" font-family="sans-serif" font-size="18" lengthAdjust="spacing" textLength="167.7049" x="354.67" y="45.2419">Cliente (Navegador)</text></g><!--link Cliente to WebSrv--><g class="link" data-entity-1="Cliente" data-entity-2="WebSrv" data-source-line="35" data-uid="lnk13" id="link_Cliente_WebSrv"><path d="M443.67,61.03 C443.67,94.46 443.67,152.745 443.67,203.9638 C443.67,210.3661 443.67,216.658 443.67,222.7772 C443.67,223.1597 443.67,223.5414 443.67,223.9225" fill="none" id="Cliente-WebSrv" style="stroke:#181818;stroke-width:1;"/><text fill="#000000" font-family="sans-serif" font-size="18" lengthAdjust="spacing" textLength="105.0654" x="337.67" y="177.0019">HTTP/HTTPS</text></g><!--link Cliente to WebSrv--><!--link WebSrv to AppSrvA--><g class="link" data-entity-1="WebSrv" data-entity-2="AppSrvA" data-source-line="36" data-uid="lnk14" id="link_WebSrv_AppSrvA"><path d="M435.2029,305 C434.8453,305 434.4774,305 434.0994,305 C432.5874,305 430.9141,305 429.0923,305 C421.805,305 412.1423,305 400.9314,305 C378.5097,305 349.8956,305 321.7088,305 C265.335,305 210.67,305 210.67,305 C210.67,305 210.67,368.895 210.67,434.2888 C210.67,450.6372 210.67,467.0793 210.67,482.6401 C210.67,484.5852 210.67,486.5166 210.67,488.4322 C210.67,489.3901 210.67,490.344 210.67,491.2937 C210.67,491.7686 210.67,492.2425 210.67,492.7152" fill="none" id="WebSrv-AppSrvA" style="stroke:#181818;stroke-width:1;"/><text fill="#000000" font-family="sans-serif" font-size="18" lengthAdjust="spacing" textLength="183.9229" x="26.67" y="316.8619">Proxy/Load Balancing</text></g><!--link WebSrv to AppSrvA--><!--link WebSrv to AppSrvB--><g class="link" data-entity-1="WebSrv" data-entity-2="AppSrvB" data-source-line="37" data-uid="lnk15" id="link_WebSrv_AppSrvB"><path d="M533.17,354.1553 C533.17,354.9873 533.17,355.8266 533.17,356.6731 C533.17,360.0591 533.17,363.5596 533.17,367.1582 C533.17,374.3555 533.17,381.9453 533.17,389.7969 C533.17,405.5 533.17,422.25 533.17,439 C533.17,506 533.17,573 533.17,573 C533.17,573 569.6525,573 607.275,573 C626.0863,573 645.1825,573 660.1459,573 C667.6277,573 674.0762,573 678.9393,573 C679.2432,573 679.541,573 679.8324,573 C679.9781,573 680.1222,573 680.2647,573" fill="none" id="WebSrv-AppSrvB" style="stroke:#181818;stroke-width:1;"/><text fill="#000000" font-family="sans-serif" font-size="18" lengthAdjust="spacing" textLength="183.9229" x="349.17" y="466.3019">Proxy/Load Balancing</text></g><!--link WebSrv to AppSrvB--><!--link AppSrvA to CacheSrv--><g class="link" data-entity-1="AppSrvA" data-entity-2="CacheSrv" data-source-line="40" data-uid="lnk16" id="link_AppSrvA_CacheSrv"><path d="M211,622.0953 C211,622.5046 211,622.9157 211,623.3286 C211,624.9801 211,626.6598 211,628.3658 C211,631.7779 211,635.2952 211,638.9022 C211,646.1162 211,653.6888 211,661.4951 C211,677.1078 211,693.6556 211,710.14 C211,776.0775 211,841 211,841 C211,841 240.9525,841 271.8413,841 C287.2856,841 302.9641,841 315.2495,841 C318.3209,841 321.1802,841 323.7708,841 C325.0661,841 326.2942,841 327.448,841 C328.0249,841 328.5833,841 329.1222,841 C329.3916,841 329.6562,841 329.9158,841 C330.0456,841 330.1742,841 330.3015,841" fill="none" id="AppSrvA-CacheSrv" style="stroke:#181818;stroke-width:1;"/><text fill="#000000" font-family="sans-serif" font-size="18" lengthAdjust="spacing" textLength="203.1647" x="7" y="764.9919">TCP (Redis/Memcached)</text></g><!--link AppSrvA to CacheSrv--><!--link AppSrvB to CacheSrv--><g class="link" data-entity-1="AppSrvB" data-entity-2="CacheSrv" data-source-line="41" data-uid="lnk17" id="link_AppSrvB_CacheSrv"><path d="M688.67,621.0667 C688.67,622.5259 688.67,623.9862 688.67,625.4425 C688.67,648.7425 688.67,671 688.67,671 C688.67,671 360.17,671 360.17,671 C360.17,671 360.17,713.5 360.17,756 C360.17,757.3281 360.17,758.6563 360.17,759.9831 C360.17,760.3148 360.17,760.6464 360.17,760.9779" fill="none" id="AppSrvB-CacheSrv" style="stroke:#181818;stroke-width:1;"/><text fill="#000000" font-family="sans-serif" font-size="18" lengthAdjust="spacing" textLength="203.1647" x="273.62" y="665.2419">TCP (Redis/Memcached)</text></g><!--link AppSrvB to CacheSrv--><!--link AppSrvA to DBSrv--><g class="link" data-entity-1="AppSrvA" data-entity-2="DBSrv" data-source-line="44" data-uid="lnk18" id="link_AppSrvA_DBSrv"><path d="M210.33,621.1575 C210.33,623.6416 210.33,626.2056 210.33,628.8457 C210.33,639.4058 210.33,651.1825 210.33,663.9261 C210.33,714.9003 210.33,781.3444 210.33,847.2813 C210.33,979.155 210.33,1109 210.33,1109 C210.33,1109 240.44,1109 271.4913,1109 C287.0169,1109 302.7778,1109 315.128,1109 C321.303,1109 326.6254,1109 330.6394,1109" fill="none" id="AppSrvA-DBSrv" style="stroke:#181818;stroke-width:1;"/><text fill="#000000" font-family="sans-serif" font-size="18" lengthAdjust="spacing" textLength="81.1975" x="128.33" y="899.4219">JDBC/SQL</text></g><!--link AppSrvB to DBSrv--><g class="link" data-entity-1="AppSrvB" data-entity-2="DBSrv" data-source-line="45" data-uid="lnk19" id="link_AppSrvB_DBSrv"><path d="M810.92,622.28 C810.92,623.6112 810.92,624.965 810.92,626.3408 C810.92,637.3477 810.92,649.7656 810.92,663.3125 C810.92,717.5 810.92,789.75 810.92,862 C810.92,1006.5 810.92,1151 810.92,1151 C810.92,1151 781.4044,1151 737.1309,1151 C714.9942,1151 689.168,1151 661.4971,1151 C658.0383,1151 654.5506,1151 651.0377,1151 C649.2812,1151 647.5185,1151 645.7499,1151" fill="none" id="AppSrvB-DBSrv" style="stroke:#181818;stroke-width:1;"/><text fill="#000000" font-family="sans-serif" font-size="18" lengthAdjust="spacing" textLength="81.1975" x="728.92" y="1052.3919">JDBC/SQL</text></g><!--link CacheSrv to DBSrv--><!--SRC=[ZLJDZjem4BxdAKPS2eTjkdjfnIq6LLMrNT62r4FLms0FOAsn8zjGeAhKX-WBzDZ3FWLlqYVfX108Fr5NYf9ull7CDz-C7LqEqS7OnUZceBGd6RMpINZKDaUFSp3QKbpd1Cx7cQi1rYaAbCFjwrSrgqVxM5ZlxkfMHHDScFZMsJZK6uBRDybCAu8GoPChmYV92_ZxynS_q3EQRAJzCYdoGAiojXzmILDKpdTQWA5ohcqVabzgnk4pZI45WGQjf6B7QSHclrrWjWxz4hud0EYZdg2Cq7gOQhjAinpbZ0vURXAJ7rS8KE2w8SkDbYXPL5wtAKZEenpCdDSRbWDDfu7M-Tvibp3BSwQLdV5Y6Woy_8O7xhpCcDL_OefQJF6ScEAaqXxhiFq3aZlWqUWDAcmkfdGkcrReTwdk9r8wf1zeBWjSrLpF9HOOg8ZPn-X2SyeJjrsulhXCE-89KjWNUuVJ2bccLQdLKWSzDdH8LqtapKqrArruDneDqk8rJFOsHgkMTM7WtMgTtZjK-t7JTdhXA9eScLKc9GK72B9Klctul2uyXfG7o-lTB_Zjxrmh39saoion3v9tOTGRGFjCwyfNFCktpaJqeJZZm2D5lkW6MPZuxPFZCtKWLMTIjW0u-Fk-wAN3Z_Vrt5VGOpSohqFa2ftaouI_PMA-jD036J2uTei8I-R18suk6lM5xnn5zclLi4hwEh8dsWo9Oor7g5BiMCaLhFgfORjg_m40]--></g></svg>