<svg xmlns="http://www.w3.org/2000/svg" xmlns:xlink="http://www.w3.org/1999/xlink" contentStyleType="text/css" data-diagram-type="DESCRIPTION" height="1189px" preserveAspectRatio="none" style="width:1768px;height:1189px;background:#FFFFFF;" version="1.1" viewBox="0 0 1768 1189" width="1768px" zoomAndPan="magnify"><defs/><g><!--cluster Worker--><g class="cluster" data-entity="Worker" data-source-line="9" data-uid="ent0002" id="cluster_Worker"><polygon fill="none" points="16,16,26,6,1751,6,1751,977,1741,987,16,987,16,16" style="stroke:#181818;stroke-width:1;"/><line style="stroke:#181818;stroke-width:1;" x1="1741" x2="1751" y1="16" y2="6"/><line style="stroke:#181818;stroke-width:1;" x1="16" x2="1741" y1="16" y2="16"/><line style="stroke:#181818;stroke-width:1;" x1="1741" x2="1741" y1="16" y2="987"/><text fill="#000000" font-family="sans-serif" font-size="18" font-weight="bold" lengthAdjust="spacing" textLength="311.7941" x="723.6029" y="38.2419">Nodo k8s Worker de Contenedores</text><text fill="#000000" font-family="sans-serif" font-size="18" font-weight="bold" lengthAdjust="spacing" textLength="98.0274" x="830.4863" y="62.7577">(VM/Linux)</text></g><!--cluster PodWeb--><g class="cluster" data-entity="PodWeb" data-source-line="12" data-uid="ent0003" id="cluster_PodWeb"><polygon fill="none" points="759,105,769,95,1719,95,1719,399,1709,409,759,409,759,105" style="stroke:#181818;stroke-width:1;"/><line style="stroke:#181818;stroke-width:1;" x1="1709" x2="1719" y1="105" y2="95"/><line style="stroke:#181818;stroke-width:1;" x1="759" x2="1709" y1="105" y2="105"/><line style="stroke:#181818;stroke-width:1;" x1="1709" x2="1709" y1="105" y2="409"/><text fill="#000000" font-family="sans-serif" font-size="18" font-weight="bold" lengthAdjust="spacing" textLength="81.0895" x="1194.4552" y="127.2419">Pod: web</text></g><!--cluster C_WEB--><g class="cluster" data-entity="C_WEB" data-source-line="13" data-uid="ent0004" id="cluster_C_WEB"><polygon fill="none" points="920,177,930,167,1679,167,1679,359,1669,369,920,369,920,177" style="stroke:#181818;stroke-width:1;"/><line style="stroke:#181818;stroke-width:1;" x1="1669" x2="1679" y1="177" y2="167"/><line style="stroke:#181818;stroke-width:1;" x1="920" x2="1669" y1="177" y2="177"/><line style="stroke:#181818;stroke-width:1;" x1="1669" x2="1669" y1="177" y2="369"/><text fill="#000000" font-family="sans-serif" font-size="18" font-weight="bold" lengthAdjust="spacing" textLength="153.3051" x="1218.8475" y="199.2419">Contenedor: web</text><text fill="#000000" font-family="sans-serif" font-size="18" font-weight="bold" lengthAdjust="spacing" textLength="227.2666" x="1181.8667" y="223.7577">(image: tienda/web:2.2.0)</text></g><!--cluster PodBlue--><g class="cluster" data-entity="PodBlue" data-source-line="20" data-uid="ent0007" id="cluster_PodBlue"><polygon fill="none" points="48,651,58,641,833,641,833,945,823,955,48,955,48,651" style="stroke:#181818;stroke-width:1;"/><line style="stroke:#181818;stroke-width:1;" x1="823" x2="833" y1="651" y2="641"/><line style="stroke:#181818;stroke-width:1;" x1="48" x2="823" y1="651" y2="651"/><line style="stroke:#181818;stroke-width:1;" x1="823" x2="823" y1="651" y2="955"/><text fill="#000000" font-family="sans-serif" font-size="18" font-weight="bold" lengthAdjust="spacing" textLength="116.5493" x="378.2253" y="673.2419">Pod: api-blue</text></g><!--cluster C_API_BLUE--><g class="cluster" data-entity="C_API_BLUE" data-source-line="21" data-uid="ent0008" id="cluster_C_API_BLUE"><polygon fill="none" points="209,723,219,713,793,713,793,905,783,915,209,915,209,723" style="stroke:#181818;stroke-width:1;"/><line style="stroke:#181818;stroke-width:1;" x1="783" x2="793" y1="723" y2="713"/><line style="stroke:#181818;stroke-width:1;" x1="209" x2="783" y1="723" y2="723"/><line style="stroke:#181818;stroke-width:1;" x1="783" x2="783" y1="723" y2="915"/><text fill="#000000" font-family="sans-serif" font-size="18" font-weight="bold" lengthAdjust="spacing" textLength="143.6212" x="425.1894" y="745.2419">Contenedor: api</text><text fill="#000000" font-family="sans-serif" font-size="18" font-weight="bold" lengthAdjust="spacing" textLength="217.5827" x="388.2087" y="769.7577">(image: tienda/api:1.5.3)</text></g><!--cluster PodGreen--><g class="cluster" data-entity="PodGreen" data-source-line="28" data-uid="ent0011" id="cluster_PodGreen"><polygon fill="none" points="921,651,931,641,1719,641,1719,945,1709,955,921,955,921,651" style="stroke:#181818;stroke-width:1;"/><line style="stroke:#181818;stroke-width:1;" x1="1709" x2="1719" y1="651" y2="641"/><line style="stroke:#181818;stroke-width:1;" x1="921" x2="1709" y1="651" y2="651"/><line style="stroke:#181818;stroke-width:1;" x1="1709" x2="1709" y1="651" y2="955"/><text fill="#000000" font-family="sans-serif" font-size="18" font-weight="bold" lengthAdjust="spacing" textLength="129.8692" x="1251.0654" y="673.2419">Pod: api-green</text></g><!--cluster C_API_GREEN--><g class="cluster" data-entity="C_API_GREEN" data-source-line="29" data-uid="ent0012" id="cluster_C_API_GREEN"><polygon fill="none" points="1082,723,1092,713,1679,713,1679,905,1669,915,1082,915,1082,723" style="stroke:#181818;stroke-width:1;"/><line style="stroke:#181818;stroke-width:1;" x1="1669" x2="1679" y1="723" y2="713"/><line style="stroke:#181818;stroke-width:1;" x1="1082" x2="1669" y1="723" y2="723"/><line style="stroke:#181818;stroke-width:1;" x1="1669" x2="1669" y1="723" y2="915"/><text fill="#000000" font-family="sans-serif" font-size="18" font-weight="bold" lengthAdjust="spacing" textLength="143.6212" x="1304.6894" y="745.2419">Contenedor: api</text><text fill="#000000" font-family="sans-serif" font-size="18" font-weight="bold" lengthAdjust="spacing" textLength="217.5827" x="1267.7087" y="769.7577">(image: tienda/api:1.6.0)</text></g><!--cluster SVC_ACTIVE--><g class="cluster" data-entity="SVC_ACTIVE" data-source-line="36" data-uid="ent0015" id="cluster_SVC_ACTIVE"><polygon fill="none" points="1001,459,1011,449,1431,449,1431,591,1421,601,1001,601,1001,459" style="stroke:#181818;stroke-width:1;"/><line style="stroke:#181818;stroke-width:1;" x1="1421" x2="1431" y1="459" y2="449"/><line style="stroke:#181818;stroke-width:1;" x1="1001" x2="1421" y1="459" y2="459"/><line style="stroke:#181818;stroke-width:1;" x1="1421" x2="1421" y1="459" y2="601"/><text fill="#000000" font-family="sans-serif" font-size="18" font-weight="bold" lengthAdjust="spacing" textLength="162.017" x="1130.9915" y="481.2419">Service: api-active</text></g><!--cluster DBaaS--><g class="cluster" data-entity="DBaaS" data-source-line="42" data-uid="ent0017" id="cluster_DBaaS"><polygon fill="none" points="1082,1029,1092,1019,1434,1019,1434,1162,1424,1172,1082,1172,1082,1029" style="stroke:#181818;stroke-width:1;"/><line style="stroke:#181818;stroke-width:1;" x1="1424" x2="1434" y1="1029" y2="1019"/><line style="stroke:#181818;stroke-width:1;" x1="1082" x2="1424" y1="1029" y2="1029"/><line style="stroke:#181818;stroke-width:1;" x1="1424" x2="1424" y1="1029" y2="1172"/><text fill="#000000" font-family="sans-serif" font-size="18" font-weight="bold" lengthAdjust="spacing" textLength="232.7386" x="1137.6307" y="1051.2419">Base de Datos Gestionada</text><text fill="#000000" font-family="sans-serif" font-size="18" font-weight="bold" lengthAdjust="spacing" textLength="163.673" x="1172.1635" y="1075.7577">(PostgreSQL PaaS)</text></g><!--entity A_WEB--><g class="entity" data-entity="A_WEB" data-source-line="14" data-uid="ent0005" id="entity_A_WEB"><rect fill="#F1F1F1" height="47.5158" rx="2.5" ry="2.5" style="stroke:#181818;stroke-width:0.5;" width="115.2835" x="1539.5" y="272.5"/><polygon fill="#F1F1F1" points="1637.7835,277.5,1637.7835,291.5,1649.7835,291.5,1649.7835,283.5,1643.7835,277.5,1637.7835,277.5" style="stroke:#181818;stroke-width:0.5;"/><line style="stroke:#181818;stroke-width:0.5;" x1="1643.7835" x2="1643.7835" y1="277.5" y2="283.5"/><line style="stroke:#181818;stroke-width:0.5;" x1="1649.7835" x2="1643.7835" y1="283.5" y2="283.5"/><text fill="#000000" font-family="sans-serif" font-size="18" lengthAdjust="spacing" textLength="85.2835" x="1549.5" y="304.7419">dist/ (SPA)</text></g><!--entity A_WEB_ENV--><g class="entity" data-entity="A_WEB_ENV" data-source-line="15" data-uid="ent0006" id="entity_A_WEB_ENV"><rect fill="#F1F1F1" height="96.5475" rx="2.5" ry="2.5" style="stroke:#181818;stroke-width:0.5;" width="290.7643" x="1088.5" y="248"/><polygon fill="#F1F1F1" points="1362.2643,253,1362.2643,267,1374.2643,267,1374.2643,259,1368.2643,253,1362.2643,253" style="stroke:#181818;stroke-width:0.5;"/><line style="stroke:#181818;stroke-width:0.5;" x1="1368.2643" x2="1368.2643" y1="253" y2="259"/><line style="stroke:#181818;stroke-width:0.5;" x1="1374.2643" x2="1368.2643" y1="259" y2="259"/><text fill="#000000" font-family="sans-serif" font-size="18" lengthAdjust="spacing" textLength="39.3118" x="1098.5" y="280.2419">ENV:</text><text fill="#000000" font-family="sans-serif" font-size="18" lengthAdjust="spacing" textLength="77.0395" x="1098.5" y="304.7577">PORT=80</text><text fill="#000000" font-family="sans-serif" font-size="18" lengthAdjust="spacing" textLength="260.7643" x="1098.5" y="329.2736">API_URL=http://api-active:8080</text></g><!--entity A_API_BLUE--><g class="entity" data-entity="A_API_BLUE" data-source-line="22" data-uid="ent0009" id="entity_A_API_BLUE"><rect fill="#F1F1F1" height="47.5158" rx="2.5" ry="2.5" style="stroke:#181818;stroke-width:0.5;" width="82.8117" x="685.5" y="818.5"/><polygon fill="#F1F1F1" points="751.3117,823.5,751.3117,837.5,763.3117,837.5,763.3117,829.5,757.3117,823.5,751.3117,823.5" style="stroke:#181818;stroke-width:0.5;"/><line style="stroke:#181818;stroke-width:0.5;" x1="757.3117" x2="757.3117" y1="823.5" y2="829.5"/><line style="stroke:#181818;stroke-width:0.5;" x1="763.3117" x2="757.3117" y1="829.5" y2="829.5"/><text fill="#000000" font-family="sans-serif" font-size="18" lengthAdjust="spacing" textLength="52.8117" x="695.5" y="850.7419">api.jar</text></g><!--entity A_API_BLUE_ENV--><g class="entity" data-entity="A_API_BLUE_ENV" data-source-line="23" data-uid="ent0010" id="entity_A_API_BLUE_ENV"><rect fill="#F1F1F1" height="96.5475" rx="2.5" ry="2.5" style="stroke:#181818;stroke-width:0.5;" width="148.3132" x="377" y="794"/><polygon fill="#F1F1F1" points="508.3132,799,508.3132,813,520.3132,813,520.3132,805,514.3132,799,508.3132,799" style="stroke:#181818;stroke-width:0.5;"/><line style="stroke:#181818;stroke-width:0.5;" x1="514.3132" x2="514.3132" y1="799" y2="805"/><line style="stroke:#181818;stroke-width:0.5;" x1="520.3132" x2="514.3132" y1="805" y2="805"/><text fill="#000000" font-family="sans-serif" font-size="18" lengthAdjust="spacing" textLength="39.3118" x="387" y="826.2419">ENV:</text><text fill="#000000" font-family="sans-serif" font-size="18" lengthAdjust="spacing" textLength="97.6313" x="387" y="850.7577">PORT=8080</text><text fill="#000000" font-family="sans-serif" font-size="18" lengthAdjust="spacing" textLength="118.3132" x="387" y="875.2736">PROFILE=blue</text></g><!--entity A_API_GREEN--><g class="entity" data-entity="A_API_GREEN" data-source-line="30" data-uid="ent0013" id="entity_A_API_GREEN"><rect fill="#F1F1F1" height="47.5158" rx="2.5" ry="2.5" style="stroke:#181818;stroke-width:0.5;" width="82.8117" x="1571.5" y="818.5"/><polygon fill="#F1F1F1" points="1637.3117,823.5,1637.3117,837.5,1649.3117,837.5,1649.3117,829.5,1643.3117,823.5,1637.3117,823.5" style="stroke:#181818;stroke-width:0.5;"/><line style="stroke:#181818;stroke-width:0.5;" x1="1643.3117" x2="1643.3117" y1="823.5" y2="829.5"/><line style="stroke:#181818;stroke-width:0.5;" x1="1649.3117" x2="1643.3117" y1="829.5" y2="829.5"/><text fill="#000000" font-family="sans-serif" font-size="18" lengthAdjust="spacing" textLength="52.8117" x="1581.5" y="850.7419">api.jar</text></g><!--entity A_API_GREEN_ENV--><g class="entity" data-entity="A_API_GREEN_ENV" data-source-line="31" data-uid="ent0014" id="entity_A_API_GREEN_ENV"><rect fill="#F1F1F1" height="96.5475" rx="2.5" ry="2.5" style="stroke:#181818;stroke-width:0.5;" width="161.2552" x="1250.5" y="794"/><polygon fill="#F1F1F1" points="1394.7552,799,1394.7552,813,1406.7552,813,1406.7552,805,1400.7552,799,1394.7552,799" style="stroke:#181818;stroke-width:0.5;"/><line style="stroke:#181818;stroke-width:0.5;" x1="1400.7552" x2="1400.7552" y1="799" y2="805"/><line style="stroke:#181818;stroke-width:0.5;" x1="1406.7552" x2="1400.7552" y1="805" y2="805"/><text fill="#000000" font-family="sans-serif" font-size="18" lengthAdjust="spacing" textLength="39.3118" x="1260.5" y="826.2419">ENV:</text><text fill="#000000" font-family="sans-serif" font-size="18" lengthAdjust="spacing" textLength="97.6313" x="1260.5" y="850.7577">PORT=8080</text><text fill="#000000" font-family="sans-serif" font-size="18" lengthAdjust="spacing" textLength="131.2552" x="1260.5" y="875.2736">PROFILE=green</text></g><!--entity A_SVC--><g class="entity" data-entity="A_SVC" data-source-line="37" data-uid="ent0016" id="entity_A_SVC"><rect fill="#F1F1F1" height="72.0317" rx="2.5" ry="2.5" style="stroke:#181818;stroke-width:0.5;" width="237.7547" x="1169" y="505"/><polygon fill="#F1F1F1" points="1389.7547,510,1389.7547,524,1401.7547,524,1401.7547,516,1395.7547,510,1389.7547,510" style="stroke:#181818;stroke-width:0.5;"/><line style="stroke:#181818;stroke-width:0.5;" x1="1395.7547" x2="1395.7547" y1="510" y2="516"/><line style="stroke:#181818;stroke-width:0.5;" x1="1401.7547" x2="1395.7547" y1="516" y2="516"/><text fill="#000000" font-family="sans-serif" font-size="18" lengthAdjust="spacing" textLength="207.7547" x="1179" y="537.2419">Selector &#8594; versi&#243;n activa</text><text fill="#000000" font-family="sans-serif" font-size="18" lengthAdjust="spacing" textLength="116.9993" x="1179" y="561.7577">(blue | green)</text></g><!--entity A_DB--><g class="entity" data-entity="A_DB" data-source-line="43" data-uid="ent0018" id="entity_A_DB"><rect fill="#F1F1F1" height="47.5158" rx="2.5" ry="2.5" style="stroke:#181818;stroke-width:0.5;" width="159.8152" x="1250" y="1100"/><polygon fill="#F1F1F1" points="1392.8152,1105,1392.8152,1119,1404.8152,1119,1404.8152,1111,1398.8152,1105,1392.8152,1105" style="stroke:#181818;stroke-width:0.5;"/><line style="stroke:#181818;stroke-width:0.5;" x1="1398.8152" x2="1398.8152" y1="1105" y2="1111"/><line style="stroke:#181818;stroke-width:0.5;" x1="1404.8152" x2="1398.8152" y1="1111" y2="1111"/><text fill="#000000" font-family="sans-serif" font-size="18" lengthAdjust="spacing" textLength="129.8152" x="1260" y="1132.2419">Schema: tienda</text></g><!--link C_WEB to SVC_ACTIVE--><g class="link" data-entity-1="C_WEB" data-entity-2="SVC_ACTIVE" data-source-line="47" data-uid="lnk19" id="link_C_WEB_SVC_ACTIVE"><path d="M928.67,370.2319 C928.67,371.9878 928.67,373.7595 928.67,375.5454 C928.67,389.8324 928.67,405.0228 928.67,420.1838 C928.67,480.8275 928.67,541 928.67,541 C928.67,541 946.915,541 966.015,541 C975.565,541 985.3288,541 993.1325,541 C995.0834,541 996.9119,541 998.5838,541 C999.4198,541 1000.2167,541 1000.9702,541" fill="none" id="C_WEB-SVC_ACTIVE" style="stroke:#181818;stroke-width:1;"/><text fill="#000000" font-family="sans-serif" font-size="18" lengthAdjust="spacing" textLength="124.9912" x="779.2498" y="427.9219">HTTP 80&#8594;8080</text><text fill="#000000" font-family="sans-serif" font-size="18" lengthAdjust="spacing" textLength="172.1509" x="755.67" y="452.4377">(API_URL=api-active)</text></g><!--link SVC_ACTIVE to C_API_BLUE--><g class="link" data-entity-1="SVC_ACTIVE" data-entity-2="C_API_BLUE" data-source-line="48" data-uid="lnk20" id="link_SVC_ACTIVE_C_API_BLUE"><path d="M1000.1055,523 C994.3047,523 985.7969,523 974.9688,523 C953.3125,523 922.375,523 885.25,523 C811,523 712,523 613,523 C415,523 217,523 217,523 C217,523 217,599.175 217,677.135 C217,686.88 217,696.6529 217,706.3084 C217,707.5153 217,708.7204 217,709.9234 C217,710.5249 217,711.1259 217,711.7263" fill="none" id="SVC_ACTIVE-C_API_BLUE" style="stroke:#181818;stroke-width:1;"/><text fill="#000000" font-family="sans-serif" font-size="18" lengthAdjust="spacing" textLength="233.7465" x="228.29" y="517.2419">target (cuando BLUE activo)</text></g><!--link SVC_ACTIVE to C_API_GREEN--><g class="link" data-entity-1="SVC_ACTIVE" data-entity-2="C_API_GREEN" data-source-line="49" data-uid="lnk21" id="link_SVC_ACTIVE_C_API_GREEN"><path d="M1090,602.3304 C1090,604.2246 1090,606.1482 1090,608.0992 C1090,615.9033 1090,624.1449 1090,632.6871 C1090,649.7716 1090,668.0581 1090,686.45 C1090,691.048 1090,695.6525 1090,700.2465 C1090,702.5435 1090,704.8379 1090,707.1274 C1090,708.2722 1090,709.4158 1090,710.558 C1090,711.129 1090,711.6997 1090,712.27" fill="none" id="SVC_ACTIVE-C_API_GREEN" style="stroke:#181818;stroke-width:1;"/><text fill="#000000" font-family="sans-serif" font-size="18" lengthAdjust="spacing" textLength="247.4444" x="842" y="645.5019">target (cuando GREEN activo)</text></g><!--link C_API_BLUE to DBaaS--><g class="link" data-entity-1="C_API_BLUE" data-entity-2="DBaaS" data-source-line="50" data-uid="lnk22" id="link_C_API_BLUE_DBaaS"><path d="M217,915.5218 C217,916.0146 217,916.5088 217,917.0045 C217,924.9359 217,933.2434 217,941.793 C217,958.8922 217,976.96 217,994.925 C217,1066.785 217,1137 217,1137 C217,1137 435.25,1137 653.5,1137 C762.625,1137 871.75,1137 953.5938,1137 C994.5156,1137 1028.6172,1137 1052.4883,1137 C1064.4238,1137 1073.8018,1137 1080.1958,1137 C1080.5954,1137 1080.9834,1137 1081.3596,1137" fill="none" id="C_API_BLUE-DBaaS" style="stroke:#181818;stroke-width:1;"/><text fill="#000000" font-family="sans-serif" font-size="18" lengthAdjust="spacing" textLength="123.0112" x="388.71" y="1131.2419">JDBC/5432 TLS</text></g><!--link C_API_GREEN to DBaaS--><g class="link" data-entity-1="C_API_GREEN" data-entity-2="DBaaS" data-source-line="51" data-uid="lnk23" id="link_C_API_GREEN_DBaaS"><path d="M1090,915.2236 C1090,915.6892 1090,916.1561 1090,916.6243 C1090,918.497 1090,920.3901 1090,922.3018 C1090,926.1253 1090,930.0231 1090,933.9804 C1090,949.8096 1090,966.5903 1090,983.3688 C1090,991.758 1090,1000.1466 1090,1008.4155 C1090,1010.4827 1090,1012.5424 1090,1014.5928 C1090,1015.618 1090,1016.6409 1090,1017.6611 C1090,1017.9162 1090,1018.1711 1090,1018.4259" fill="none" id="C_API_GREEN-DBaaS" style="stroke:#181818;stroke-width:1;"/><text fill="#000000" font-family="sans-serif" font-size="18" lengthAdjust="spacing" textLength="123.0112" x="966" y="977.5019">JDBC/5432 TLS</text></g><!--link PodWeb to PodBlue--><!--link PodWeb to PodGreen--><!--link SVC_ACTIVE to DBaaS--><!--SRC=[dLLTJjj047xtAKQyO1xoIq6HfJpa3veg3MuSmaEfq2OUacsStMYzIQ4KgKyzGDKBz0mSWPjmaixw9pOG4AeKA_RiV3FVDxipg-KIj8Inr5ekmESA9vfBOOLpBfPCiGK4NA2-NY98fMSojo2aZo4keN9OpbaL4tDZhUQDFbwoLQ2FfD0U_uvGgLapxYE46XLA4zsoTk7Xvn_wGL_w4YeEd4arHmKJAS2N8QnHXSGCGue60OE6sqqGbc42En5kNWjJ8DbQb105-b9XU2xiqSTIZulLrTuEi8tRZMK1x88hVJZ3CTWXLsi4hUx_NlA9X6j0eLQQ0KkJCghGckqHAivBI0U-uJWAIXycoWsjfkiPYSYDUF05cw83cgFmMObiJhLOBPPZMgsBiqup2G30bEQNb15sV1xg4jYUsuZz6iRlcLUdFtBEXNio6DPhvND1V2zE1xtwJEkbKogn9Iz4zD6fbMlbBCu5uQ9OjvPvDXKnUjSLiCV12fyeDh6CEPNTfFSNTPFpCzraSoh5W-9-gjkGRVPEErl4as_nArC9uTJnTVL6lpiuEUhsElKDqGpygkGgs5E5ABPeZkofw6FpyH-g3xFTDdoE1vrE_qso8y-twyx8vk3Rb7kerdp29GJtTrDpxcqMS8Ar-nvmKgI4X1ACkD8h5a3NpGeJ8p4kJdoueeJUYBIrXjrHkfyPNGy36ZDImSEltt5Vtz-9fA-eO6Qpu0V46v2GfsWHsTkdWwBgG9E5QBhTPvhcn1H3Cy6OpnwFXzIh7NaTRxmeeIj3JTcyJprm6VFYdEqclKRKSyGdCromT2yJQktc8rPq0F0g7bHh7l9nG2y9aRYr2uLyRHnuFnowK2jJBUAzizEcpGgwP-KGXC_r2WNGJ4rHWprPCK4LYSmHJcx7nQVj6Iusfy1y2aB6rN3WGxlPAXsysw_2iETP-NWlEcMbQIYQOLGpEQ7BWFxDvG2CxXocqX8byxFmcUu77yMNGZfQjgz4_VT8PBOSiVa7]--></g></svg>