<svg xmlns="http://www.w3.org/2000/svg" xmlns:xlink="http://www.w3.org/1999/xlink" contentStyleType="text/css" data-diagram-type="DESCRIPTION" height="693px" preserveAspectRatio="none" style="width:357px;height:693px;background:#FFFFFF;" version="1.1" viewBox="0 0 357 693" width="357px" zoomAndPan="magnify"><title>Despliegue simple: Frontend + Backend + BBDD</title><defs/><g><g class="title" data-source-line="1"><text fill="#000000" font-family="sans-serif" font-size="14" font-weight="bold" lengthAdjust="spacing" textLength="329.7547" x="10" y="24.9659">Despliegue simple: Frontend + Backend + BBDD</text></g><!--cluster FE--><g class="cluster" data-entity="FE" data-source-line="19" data-uid="ent0003" id="cluster_FE"><polygon fill="#D3D3D3" points="85.8774,207.5679,95.8774,197.5679,336.8774,197.5679,336.8774,323.5679,326.8774,333.5679,85.8774,333.5679,85.8774,207.5679" style="stroke:#000000;stroke-width:1;"/><line style="stroke:#000000;stroke-width:1;" x1="326.8774" x2="336.8774" y1="207.5679" y2="197.5679"/><line style="stroke:#000000;stroke-width:1;" x1="85.8774" x2="326.8774" y1="207.5679" y2="207.5679"/><line style="stroke:#000000;stroke-width:1;" x1="326.8774" x2="326.8774" y1="207.5679" y2="333.5679"/><text fill="#000000" font-family="sans-serif" font-size="14" font-weight="bold" lengthAdjust="spacing" textLength="170.2254" x="122.2647" y="225.5339">Servidor Web (Frontend)</text></g><!--cluster BE--><g class="cluster" data-entity="BE" data-source-line="23" data-uid="ent0005" id="cluster_BE"><polygon fill="#D3D3D3" points="74.8774,410.5679,84.8774,400.5679,312.8774,400.5679,312.8774,526.5679,302.8774,536.5679,74.8774,536.5679,74.8774,410.5679" style="stroke:#000000;stroke-width:1;"/><line style="stroke:#000000;stroke-width:1;" x1="302.8774" x2="312.8774" y1="410.5679" y2="400.5679"/><line style="stroke:#000000;stroke-width:1;" x1="74.8774" x2="302.8774" y1="410.5679" y2="410.5679"/><line style="stroke:#000000;stroke-width:1;" x1="302.8774" x2="302.8774" y1="410.5679" y2="536.5679"/><text fill="#000000" font-family="sans-serif" font-size="14" font-weight="bold" lengthAdjust="spacing" textLength="162.6934" x="108.5307" y="428.5339">Servidor App (Backend)</text></g><!--entity Front--><g class="entity" data-entity="Front" data-source-line="20" data-uid="ent0004" id="entity_Front"><rect fill="#FFFFFF" height="61.1358" rx="2.5" ry="2.5" style="stroke:#808080;stroke-width:0.5;" width="184.3074" x="128.8774" y="248.5679"/><polygon fill="#FFFFFF" points="296.1848,253.5679,296.1848,267.5679,308.1848,267.5679,308.1848,259.5679,302.1848,253.5679,296.1848,253.5679" style="stroke:#808080;stroke-width:0.5;"/><line style="stroke:#808080;stroke-width:0.5;" x1="302.1848" x2="302.1848" y1="253.5679" y2="259.5679"/><line style="stroke:#808080;stroke-width:0.5;" x1="308.1848" x2="302.1848" y1="259.5679" y2="259.5679"/><text fill="#000000" font-family="sans-serif" font-size="14" lengthAdjust="spacing" textLength="154.3074" x="138.8774" y="276.5339">frontend (HTML/CSS/JS)</text><text fill="#000000" font-family="sans-serif" font-size="14" lengthAdjust="spacing" textLength="92.8056" x="138.8774" y="295.6018">Nginx/Apache</text></g><!--entity Back--><g class="entity" data-entity="Back" data-source-line="24" data-uid="ent0006" id="entity_Back"><rect fill="#FFFFFF" height="61.1358" rx="2.5" ry="2.5" style="stroke:#808080;stroke-width:0.5;" width="149.1115" x="134.3774" y="451.5679"/><polygon fill="#FFFFFF" points="266.4889,456.5679,266.4889,470.5679,278.4889,470.5679,278.4889,462.5679,272.4889,456.5679,266.4889,456.5679" style="stroke:#808080;stroke-width:0.5;"/><line style="stroke:#808080;stroke-width:0.5;" x1="272.4889" x2="272.4889" y1="456.5679" y2="462.5679"/><line style="stroke:#808080;stroke-width:0.5;" x1="278.4889" x2="272.4889" y1="462.5679" y2="462.5679"/><text fill="#000000" font-family="sans-serif" font-size="14" lengthAdjust="spacing" textLength="99.8196" x="144.3774" y="479.5339">backend (REST)</text><text fill="#000000" font-family="sans-serif" font-size="14" lengthAdjust="spacing" textLength="119.1115" x="144.3774" y="498.6018">Node/Java/Python</text></g><!--entity User--><g class="entity" data-entity="User" data-source-line="17" data-uid="ent0002" id="entity_User"><ellipse cx="94.0323" cy="54.0679" fill="#F1F1F1" rx="8" ry="8" style="stroke:#181818;stroke-width:0.5;"/><path d="M94.0323,62.0679 L94.0323,89.0679 M81.0323,70.0679 L107.0323,70.0679 M94.0323,89.0679 L81.0323,104.0679 M94.0323,89.0679 L107.0323,104.0679" fill="none" style="stroke:#181818;stroke-width:0.5;"/><text fill="#000000" font-family="sans-serif" font-size="14" lengthAdjust="spacing" textLength="51.3098" x="68.3774" y="120.5339">Usuario</text></g><!--entity DB--><g class="entity" data-entity="DB" data-source-line="27" data-uid="ent0007" id="entity_DB"><path d="M15.8774,619.5679 C15.8774,609.5679 94.0501,609.5679 94.0501,609.5679 C94.0501,609.5679 172.2229,609.5679 172.2229,619.5679 L172.2229,666.7038 C172.2229,676.7038 94.0501,676.7038 94.0501,676.7038 C94.0501,676.7038 15.8774,676.7038 15.8774,666.7038 L15.8774,619.5679" fill="#FFFFFF" style="stroke:#000000;stroke-width:0.5;"/><path d="M15.8774,619.5679 C15.8774,629.5679 94.0501,629.5679 94.0501,629.5679 C94.0501,629.5679 172.2229,629.5679 172.2229,619.5679" fill="none" style="stroke:#000000;stroke-width:0.5;"/><text fill="#000000" font-family="sans-serif" font-size="14" lengthAdjust="spacing" textLength="97.2296" x="25.8774" y="648.5339">Servidor BBDD</text><text fill="#000000" font-family="sans-serif" font-size="14" lengthAdjust="spacing" textLength="136.3455" x="25.8774" y="667.6018">(PostgreSQL/MySQL)</text></g><!--link User to FE--><g class="link" data-entity-1="User" data-entity-2="FE" data-source-line="29" data-uid="lnk8" id="link_User_FE"><path d="M93.8774,124.9179 C93.8774,138.7254 93.8774,155.0123 93.8774,171.722 C93.8774,180.0768 93.8774,182.5374 93.8774,190.8465" fill="none" id="User-to-FE" style="stroke:#181818;stroke-width:1;"/><polygon fill="#181818" points="93.8774,196.8465,97.8774,187.8465,93.8774,191.8465,89.8774,187.8465,93.8774,196.8465" style="stroke:#181818;stroke-width:1;"/><text fill="#000000" font-family="sans-serif" font-size="13" lengthAdjust="spacing" textLength="39.091" x="94.8774" y="169.4649">HTTPS</text></g><!--link FE to BE--><g class="link" data-entity-1="FE" data-entity-2="BE" data-source-line="30" data-uid="lnk9" id="link_FE_BE"><path d="M93.8774,334.2877 C93.8774,334.9717 93.8774,335.6594 93.8774,336.3505 C93.8774,339.1151 93.8774,341.9355 93.8774,344.8005 C93.8774,356.2603 93.8774,368.4339 93.8774,380.6067 C93.8774,386.6931 93.8774,392.7793 93.8774,398.7761 C93.8774,399.1509 93.8774,399.5253 93.8774,399.8994 C93.8774,400.0864 93.8774,394.2734 93.8774,394.4602" fill="none" id="FE-to-BE" style="stroke:#181818;stroke-width:1;"/><polygon fill="#181818" points="93.8774,400.4602,97.8774,391.4602,93.8774,395.4602,89.8774,391.4602,93.8774,400.4602" style="stroke:#181818;stroke-width:1;"/><text fill="#000000" font-family="sans-serif" font-size="13" lengthAdjust="spacing" textLength="107.6401" x="94.8774" y="372.4649">HTTP/HTTPS (API)</text></g><!--link BE to DB--><g class="link" data-entity-1="BE" data-entity-2="DB" data-source-line="31" data-uid="lnk10" id="link_BE_DB"><path d="M93.8774,537.0841 C93.8774,537.2889 93.8774,537.494 93.8774,537.6993 C93.8774,538.5205 93.8774,539.3457 93.8774,540.1744 C93.8774,543.4892 93.8774,546.8606 93.8774,550.2627 C93.8774,557.0671 93.8774,563.9946 93.8774,570.8395 C93.8774,584.5292 93.8774,591.8879 93.8774,603.2679" fill="none" id="BE-to-DB" style="stroke:#181818;stroke-width:1;"/><polygon fill="#181818" points="93.8774,609.2679,97.8774,600.2679,93.8774,604.2679,89.8774,600.2679,93.8774,609.2679" style="stroke:#181818;stroke-width:1;"/><text fill="#000000" font-family="sans-serif" font-size="13" lengthAdjust="spacing" textLength="126.2951" x="94.8774" y="575.4649">TCP 5432/3306 (SQL)</text></g><!--SRC=[ZL71JW8n4BttAoPxAZ6cHjG31nFAWaZ0hEuIBrm6jkmsBEscBIWn_BlRNK12JFJIjE_DlDTvuwGh18J2beKKsKQ0bUko41qO6AsSK2bS0SV5wd3ZOKY8NKbLei4rs1nJ_I5L1aiih3XZb4u5V16ecpEZDohjwK8R6CiiTqy6TvxJ9XMcmNbH5PBzcKIA3kTeVvTvpwKJVqgWSNA92_TlYVfZUqAgdkeLJEq6ZTG1e8Mf5OQGUguW5cOhKwyXva2FKRNgka6_TZjP1yjZadIOJCQi5yTi5BTcwYMJwfDrIrpaekdqXTxzmgHRba0FIsWy-AN7_B0Y-jQF4wzTAR0HRf55EvThrNGryP1Ji3yMVh4pHIDjNMP4_3fcarrrDcuX9yHF3zVNZtwy3WoJ98f9TVK8FoAiXe5se-SMuGqPyefCUX7StxLlMRjzym3K2ty3]--></g></svg>