<svg xmlns="http://www.w3.org/2000/svg" xmlns:xlink="http://www.w3.org/1999/xlink" contentStyleType="text/css" data-diagram-type="ACTIVITY" height="316px" preserveAspectRatio="none" style="width:295px;height:316px;background:#FFFFFF;" version="1.1" viewBox="0 0 295 316" width="295px" zoomAndPan="magnify"><defs/><g><ellipse cx="147.752" cy="20" fill="#222222" rx="10" ry="10" style="stroke:#222222;stroke-width:1;"/><rect fill="#F1F1F1" height="36.3441" rx="12.5" ry="12.5" style="stroke:#181818;stroke-width:0.5;" width="150.0089" x="72.7475" y="50"/><text fill="#000000" font-family="sans-serif" font-size="12" lengthAdjust="spacing" textLength="130.0089" x="82.7475" y="72.8281">Introducir credenciales</text><rect fill="#F1F1F1" height="36.3441" rx="12.5" ry="12.5" style="stroke:#181818;stroke-width:0.5;" width="132.5608" x="81.4716" y="106.3441"/><text fill="#000000" font-family="sans-serif" font-size="12" lengthAdjust="spacing" textLength="112.5608" x="91.4716" y="129.1722">Validar credenciales</text><polygon fill="#F1F1F1" points="93.0824,162.6882,202.4216,162.6882,214.4216,174.6882,202.4216,186.6882,93.0824,186.6882,81.0824,174.6882,93.0824,162.6882" style="stroke:#181818;stroke-width:0.5;"/><text fill="#000000" font-family="sans-serif" font-size="11" lengthAdjust="spacing" textLength="109.3392" x="93.0824" y="178.9562">Credenciales v&#225;lidas?</text><text fill="#000000" font-family="sans-serif" font-size="11" lengthAdjust="spacing" textLength="8.1069" x="72.9754" y="171.4653">s&#237;</text><text fill="#000000" font-family="sans-serif" font-size="11" lengthAdjust="spacing" textLength="13.4529" x="214.4216" y="171.4653">no</text><rect fill="#F1F1F1" height="36.3441" rx="12.5" ry="12.5" style="stroke:#181818;stroke-width:0.5;" width="120.1647" x="11" y="196.6882"/><text fill="#000000" font-family="sans-serif" font-size="12" lengthAdjust="spacing" textLength="100.1647" x="21" y="219.5163">Acceso concedido</text><rect fill="#F1F1F1" height="36.3441" rx="12.5" ry="12.5" style="stroke:#181818;stroke-width:0.5;" width="119.1687" x="164.8372" y="196.6882"/><text fill="#000000" font-family="sans-serif" font-size="12" lengthAdjust="spacing" textLength="99.1687" x="174.8372" y="219.5163">Acceso denegado</text><polygon fill="#F1F1F1" points="147.752,239.0323,159.752,251.0323,147.752,263.0323,135.752,251.0323,147.752,239.0323" style="stroke:#181818;stroke-width:0.5;"/><ellipse cx="147.752" cy="294.0323" fill="none" rx="11" ry="11" style="stroke:#222222;stroke-width:1;"/><ellipse cx="147.752" cy="294.0323" fill="#222222" rx="6" ry="6" style="stroke:#222222;stroke-width:1;"/><line style="stroke:#181818;stroke-width:1;" x1="147.752" x2="147.752" y1="30" y2="50"/><polygon fill="#181818" points="143.752,40,147.752,50,151.752,40,147.752,44" style="stroke:#181818;stroke-width:1;"/><line style="stroke:#181818;stroke-width:1;" x1="147.752" x2="147.752" y1="86.3441" y2="106.3441"/><polygon fill="#181818" points="143.752,96.3441,147.752,106.3441,151.752,96.3441,147.752,100.3441" style="stroke:#181818;stroke-width:1;"/><line style="stroke:#181818;stroke-width:1;" x1="81.0824" x2="71.0824" y1="174.6882" y2="174.6882"/><line style="stroke:#181818;stroke-width:1;" x1="71.0824" x2="71.0824" y1="174.6882" y2="196.6882"/><polygon fill="#181818" points="67.0824,186.6882,71.0824,196.6882,75.0824,186.6882,71.0824,190.6882" style="stroke:#181818;stroke-width:1;"/><line style="stroke:#181818;stroke-width:1;" x1="214.4216" x2="224.4216" y1="174.6882" y2="174.6882"/><line style="stroke:#181818;stroke-width:1;" x1="224.4216" x2="224.4216" y1="174.6882" y2="196.6882"/><polygon fill="#181818" points="220.4216,186.6882,224.4216,196.6882,228.4216,186.6882,224.4216,190.6882" style="stroke:#181818;stroke-width:1;"/><line style="stroke:#181818;stroke-width:1;" x1="71.0824" x2="71.0824" y1="233.0323" y2="251.0323"/><line style="stroke:#181818;stroke-width:1;" x1="71.0824" x2="135.752" y1="251.0323" y2="251.0323"/><polygon fill="#181818" points="125.752,247.0323,135.752,251.0323,125.752,255.0323,129.752,251.0323" style="stroke:#181818;stroke-width:1;"/><line style="stroke:#181818;stroke-width:1;" x1="224.4216" x2="224.4216" y1="233.0323" y2="251.0323"/><line style="stroke:#181818;stroke-width:1;" x1="224.4216" x2="159.752" y1="251.0323" y2="251.0323"/><polygon fill="#181818" points="169.752,247.0323,159.752,251.0323,169.752,255.0323,165.752,251.0323" style="stroke:#181818;stroke-width:1;"/><line style="stroke:#181818;stroke-width:1;" x1="147.752" x2="147.752" y1="142.6882" y2="162.6882"/><polygon fill="#181818" points="143.752,152.6882,147.752,162.6882,151.752,152.6882,147.752,156.6882" style="stroke:#181818;stroke-width:1;"/><line style="stroke:#181818;stroke-width:1;" x1="147.752" x2="147.752" y1="263.0323" y2="283.0323"/><polygon fill="#181818" points="143.752,273.0323,147.752,283.0323,151.752,273.0323,147.752,277.0323" style="stroke:#181818;stroke-width:1;"/><!--SRC=[NOon3S90301xJ-7oiyAdG8YA1UWjsm5BBnkz7_PX0AR8OWIgYFRkT3ce3u1wzj537cmTkQkeir7JdA5Ug9dGFmPRi9ns29_hwnlcOS9nKyUIwti2n7farWpaS5OnYHcqfMBnsEjjf5VwMHTR07B4_GC0]--></g></svg>