<svg xmlns="http://www.w3.org/2000/svg" xmlns:xlink="http://www.w3.org/1999/xlink" contentStyleType="text/css" data-diagram-type="ACTIVITY" height="537px" preserveAspectRatio="none" style="width:558px;height:537px;background:#FFFFFF;" version="1.1" viewBox="0 0 558 537" width="558px" zoomAndPan="magnify"><defs/><g><ellipse cx="332.7557" cy="20" fill="#222222" rx="10" ry="10" style="stroke:#222222;stroke-width:1;"/><rect fill="#F1F1F1" height="36.3441" rx="12.5" ry="12.5" style="stroke:#181818;stroke-width:0.5;" width="139.0648" x="263.2233" y="50"/><text fill="#000000" font-family="sans-serif" font-size="12" lengthAdjust="spacing" textLength="119.0648" x="273.2233" y="72.8281">Seleccionar producto</text><rect fill="#F1F1F1" height="36.3441" rx="12.5" ry="12.5" style="stroke:#181818;stroke-width:0.5;" width="110.4086" x="277.5514" y="106.3441"/><text fill="#000000" font-family="sans-serif" font-size="12" lengthAdjust="spacing" textLength="90.4086" x="287.5514" y="129.1722">A&#241;adir al carrito</text><rect fill="#F1F1F1" height="36.3441" rx="12.5" ry="12.5" style="stroke:#181818;stroke-width:0.5;" width="115.9287" x="274.7913" y="162.6882"/><text fill="#000000" font-family="sans-serif" font-size="12" lengthAdjust="spacing" textLength="95.9287" x="284.7913" y="185.5163">Proceder al pago</text><rect fill="#F1F1F1" height="36.3441" rx="12.5" ry="12.5" style="stroke:#181818;stroke-width:0.5;" width="91.0645" x="287.2234" y="219.0323"/><text fill="#000000" font-family="sans-serif" font-size="12" lengthAdjust="spacing" textLength="71.0645" x="297.2234" y="241.8604">Validar pago</text><polygon fill="#F1F1F1" points="290.571,275.3765,374.9404,275.3765,386.9404,287.3765,374.9404,299.3765,290.571,299.3765,278.571,287.3765,290.571,275.3765" style="stroke:#181818;stroke-width:0.5;"/><text fill="#000000" font-family="sans-serif" font-size="11" lengthAdjust="spacing" textLength="84.3694" x="290.571" y="291.6444">Pago aprobado?</text><text fill="#000000" font-family="sans-serif" font-size="11" lengthAdjust="spacing" textLength="8.1069" x="270.464" y="284.1535">s&#237;</text><text fill="#000000" font-family="sans-serif" font-size="11" lengthAdjust="spacing" textLength="13.4529" x="386.9404" y="284.1535">no</text><rect fill="#F1F1F1" height="36.3441" rx="12.5" ry="12.5" style="stroke:#181818;stroke-width:0.5;" width="108.7166" x="138.8726" y="309.3765"/><text fill="#000000" font-family="sans-serif" font-size="12" lengthAdjust="spacing" textLength="88.7166" x="148.8726" y="332.2045">Generar pedido</text><rect fill="#555555" height="6" rx="2.5" ry="2.5" style="stroke:#555555;stroke-width:1;" width="366.4619" x="11" y="365.7206"/><rect fill="#F1F1F1" height="36.3441" rx="12.5" ry="12.5" style="stroke:#181818;stroke-width:0.5;" width="135.7168" x="23" y="391.7206"/><text fill="#000000" font-family="sans-serif" font-size="12" lengthAdjust="spacing" textLength="115.7168" x="33" y="414.5487">Actualizar inventario</text><rect fill="#F1F1F1" height="36.3441" rx="12.5" ry="12.5" style="stroke:#181818;stroke-width:0.5;" width="176.7451" x="186.7168" y="391.7206"/><text fill="#000000" font-family="sans-serif" font-size="12" lengthAdjust="spacing" textLength="156.7451" x="196.7168" y="414.5487">Enviar notificaci&#243;n al cliente</text><rect fill="#555555" height="6" rx="2.5" ry="2.5" style="stroke:#555555;stroke-width:1;" width="366.4619" x="11" y="448.0647"/><rect fill="#F1F1F1" height="36.3441" rx="12.5" ry="12.5" style="stroke:#181818;stroke-width:0.5;" width="149.637" x="397.4619" y="309.3765"/><text fill="#000000" font-family="sans-serif" font-size="12" lengthAdjust="spacing" textLength="129.637" x="407.4619" y="332.2045">Notificar error de pago</text><polygon fill="#F1F1F1" points="332.7557,460.0647,344.7557,472.0647,332.7557,484.0647,320.7557,472.0647,332.7557,460.0647" style="stroke:#181818;stroke-width:0.5;"/><ellipse cx="332.7557" cy="515.0647" fill="none" rx="11" ry="11" style="stroke:#222222;stroke-width:1;"/><ellipse cx="332.7557" cy="515.0647" fill="#222222" rx="6" ry="6" style="stroke:#222222;stroke-width:1;"/><line style="stroke:#181818;stroke-width:1;" x1="332.7557" x2="332.7557" y1="30" y2="50"/><polygon fill="#181818" points="328.7557,40,332.7557,50,336.7557,40,332.7557,44" style="stroke:#181818;stroke-width:1;"/><line style="stroke:#181818;stroke-width:1;" x1="332.7557" x2="332.7557" y1="86.3441" y2="106.3441"/><polygon fill="#181818" points="328.7557,96.3441,332.7557,106.3441,336.7557,96.3441,332.7557,100.3441" style="stroke:#181818;stroke-width:1;"/><line style="stroke:#181818;stroke-width:1;" x1="332.7557" x2="332.7557" y1="142.6882" y2="162.6882"/><polygon fill="#181818" points="328.7557,152.6882,332.7557,162.6882,336.7557,152.6882,332.7557,156.6882" style="stroke:#181818;stroke-width:1;"/><line style="stroke:#181818;stroke-width:1;" x1="332.7557" x2="332.7557" y1="199.0323" y2="219.0323"/><polygon fill="#181818" points="328.7557,209.0323,332.7557,219.0323,336.7557,209.0323,332.7557,213.0323" style="stroke:#181818;stroke-width:1;"/><line style="stroke:#181818;stroke-width:1;" x1="90.8584" x2="90.8584" y1="371.7206" y2="391.7206"/><polygon fill="#181818" points="86.8584,381.7206,90.8584,391.7206,94.8584,381.7206,90.8584,385.7206" style="stroke:#181818;stroke-width:1;"/><line style="stroke:#181818;stroke-width:1;" x1="275.0894" x2="275.0894" y1="371.7206" y2="391.7206"/><polygon fill="#181818" points="271.0894,381.7206,275.0894,391.7206,279.0894,381.7206,275.0894,385.7206" style="stroke:#181818;stroke-width:1;"/><line style="stroke:#181818;stroke-width:1;" x1="90.8584" x2="90.8584" y1="428.0647" y2="448.0647"/><polygon fill="#181818" points="86.8584,438.0647,90.8584,448.0647,94.8584,438.0647,90.8584,442.0647" style="stroke:#181818;stroke-width:1;"/><line style="stroke:#181818;stroke-width:1;" x1="275.0894" x2="275.0894" y1="428.0647" y2="448.0647"/><polygon fill="#181818" points="271.0894,438.0647,275.0894,448.0647,279.0894,438.0647,275.0894,442.0647" style="stroke:#181818;stroke-width:1;"/><line style="stroke:#181818;stroke-width:1;" x1="193.231" x2="193.231" y1="345.7206" y2="365.7206"/><polygon fill="#181818" points="189.231,355.7206,193.231,365.7206,197.231,355.7206,193.231,359.7206" style="stroke:#181818;stroke-width:1;"/><line style="stroke:#181818;stroke-width:1;" x1="278.571" x2="193.231" y1="287.3765" y2="287.3765"/><line style="stroke:#181818;stroke-width:1;" x1="193.231" x2="193.231" y1="287.3765" y2="309.3765"/><polygon fill="#181818" points="189.231,299.3765,193.231,309.3765,197.231,299.3765,193.231,303.3765" style="stroke:#181818;stroke-width:1;"/><line style="stroke:#181818;stroke-width:1;" x1="386.9404" x2="472.2804" y1="287.3765" y2="287.3765"/><line style="stroke:#181818;stroke-width:1;" x1="472.2804" x2="472.2804" y1="287.3765" y2="309.3765"/><polygon fill="#181818" points="468.2804,299.3765,472.2804,309.3765,476.2804,299.3765,472.2804,303.3765" style="stroke:#181818;stroke-width:1;"/><line style="stroke:#181818;stroke-width:1;" x1="193.231" x2="193.231" y1="454.0647" y2="472.0647"/><line style="stroke:#181818;stroke-width:1;" x1="193.231" x2="320.7557" y1="472.0647" y2="472.0647"/><polygon fill="#181818" points="310.7557,468.0647,320.7557,472.0647,310.7557,476.0647,314.7557,472.0647" style="stroke:#181818;stroke-width:1;"/><line style="stroke:#181818;stroke-width:1;" x1="472.2804" x2="472.2804" y1="345.7206" y2="472.0647"/><line style="stroke:#181818;stroke-width:1;" x1="472.2804" x2="344.7557" y1="472.0647" y2="472.0647"/><polygon fill="#181818" points="354.7557,468.0647,344.7557,472.0647,354.7557,476.0647,350.7557,472.0647" style="stroke:#181818;stroke-width:1;"/><line style="stroke:#181818;stroke-width:1;" x1="332.7557" x2="332.7557" y1="255.3765" y2="275.3765"/><polygon fill="#181818" points="328.7557,265.3765,332.7557,275.3765,336.7557,265.3765,332.7557,269.3765" style="stroke:#181818;stroke-width:1;"/><line style="stroke:#181818;stroke-width:1;" x1="332.7557" x2="332.7557" y1="484.0647" y2="504.0647"/><polygon fill="#181818" points="328.7557,494.0647,332.7557,504.0647,336.7557,494.0647,332.7557,498.0647" style="stroke:#181818;stroke-width:1;"/><!--SRC=[BOunRiCm34LtdOAZSmLtA384tO801Rep8fqI4KY3LZBaJXcA7i4N2oLdelZvtzTVAdfDQVpcmZcBAJhCRdJBrJxIk5__aCG12sHqbowUt38JTtN6IvD-i0WrjAz99XXEyGICh3EIVUwW_hB2iApFNG8OlrZP6y0ar120oVmQ8uxxN6yH-8Yxw9qrEafuDWlW1KKtuq7l4YQrAfDapBB-Q-zQ92Xk22jjoOdBmZ2ezV-FRyI1tSs1-Dqz_3Abj5IRNm00]--></g></svg>