<svg xmlns="http://www.w3.org/2000/svg" xmlns:xlink="http://www.w3.org/1999/xlink" contentStyleType="text/css" data-diagram-type="CLASS" height="134px" preserveAspectRatio="none" style="width:279px;height:134px;background:#FFFFFF;" version="1.1" viewBox="0 0 279 134" width="279px" zoomAndPan="magnify"><defs/><g><!--class Cliente--><g class="entity" data-entity="Cliente" data-source-line="2" data-uid="ent0002" id="entity_Cliente"><rect fill="#F1F1F1" height="113.1875" rx="2.5" ry="2.5" style="stroke:#181818;stroke-width:0.5;" width="258.3262" x="7" y="7"/><ellipse cx="107.3413" cy="23" fill="#ADD1B2" rx="11" ry="11" style="stroke:#181818;stroke-width:1;"/><path d="M110.3101,28.6406 Q109.7319,28.9375 109.0913,29.0781 Q108.4507,29.2344 107.7476,29.2344 Q105.2476,29.2344 103.9194,27.5938 Q102.6069,25.9375 102.6069,22.8125 Q102.6069,19.6875 103.9194,18.0313 Q105.2476,16.375 107.7476,16.375 Q108.4507,16.375 109.0913,16.5313 Q109.7476,16.6875 110.3101,16.9844 L110.3101,19.7031 Q109.6851,19.125 109.0913,18.8594 Q108.4976,18.5781 107.8726,18.5781 Q106.5288,18.5781 105.8413,19.6563 Q105.1538,20.7188 105.1538,22.8125 Q105.1538,24.9063 105.8413,25.9844 Q106.5288,27.0469 107.8726,27.0469 Q108.4976,27.0469 109.0913,26.7813 Q109.6851,26.5 110.3101,25.9219 L110.3101,28.6406 Z " fill="#000000"/><text fill="#000000" font-family="sans-serif" font-size="14" lengthAdjust="spacing" textLength="49.1436" x="127.8413" y="27.8467">Cliente</text><line style="stroke:#181818;stroke-width:0.5;" x1="8" x2="264.3262" y1="39" y2="39"/><rect fill="none" height="6" style="stroke:#C82930;stroke-width:1;" width="6" x="15" y="49.6484"/><text fill="#000000" font-family="sans-serif" font-size="14" lengthAdjust="spacing" textLength="40.1953" x="27" y="55.9951">id: int</text><rect fill="none" height="6" style="stroke:#C82930;stroke-width:1;" width="6" x="15" y="65.9453"/><text fill="#000000" font-family="sans-serif" font-size="14" lengthAdjust="spacing" textLength="105.2803" x="27" y="72.292">nombre: String</text><line style="stroke:#181818;stroke-width:0.5;" x1="8" x2="264.3262" y1="79.5938" y2="79.5938"/><ellipse cx="18" cy="93.2422" fill="#84BE84" rx="3" ry="3" style="stroke:#038048;stroke-width:1;"/><text fill="#000000" font-family="sans-serif" font-size="14" lengthAdjust="spacing" textLength="140.793" x="27" y="96.5889">getNombre(): String</text><ellipse cx="18" cy="109.5391" fill="#84BE84" rx="3" ry="3" style="stroke:#038048;stroke-width:1;"/><text fill="#000000" font-family="sans-serif" font-size="14" lengthAdjust="spacing" textLength="232.3262" x="27" y="112.8857">setNombre(nombre: String): void</text></g><!--SRC=[LOjB2W8n40NtESNRgOWNo5RNRZn1vqDeIDAGpWWY7cQMdcCkPXn1cDsZwjKE5wRKg112XC-aKU6MMTcBnLG9Afb-0bugg3TsKnV50sLvTmcYvgiLvyonzeYd0KxWOC6rhxjASIrQt4PSqq17fDYlAzqVDbp_V1kDrrqucDS7]--></g></svg>