<svg xmlns="http://www.w3.org/2000/svg" xmlns:xlink="http://www.w3.org/1999/xlink" contentStyleType="text/css" data-diagram-type="SEQUENCE" height="377px" preserveAspectRatio="none" style="width:640px;height:377px;background:#FFFFFF;" version="1.1" viewBox="0 0 640 377" width="640px" zoomAndPan="magnify"><defs/><g><g><title>Usuario</title><rect fill="#000000" fill-opacity="0.00000" height="210.2361" width="8" x="29.6549" y="84.0679"/><line style="stroke:#181818;stroke-width:0.5;stroke-dasharray:5,5;" x1="33" x2="33" y1="84.0679" y2="294.304"/></g><g><title>Frontend</title><rect fill="#000000" fill-opacity="0.00000" height="210.2361" width="8" x="193.106" y="84.0679"/><line style="stroke:#181818;stroke-width:0.5;stroke-dasharray:5,5;" x1="196.9151" x2="196.9151" y1="84.0679" y2="294.304"/></g><g><title>Servicio de Autenticaci.n</title><rect fill="#000000" fill-opacity="0.00000" height="210.2361" width="8" x="371.2211" y="84.0679"/><line style="stroke:#181818;stroke-width:0.5;stroke-dasharray:5,5;" x1="374.9365" x2="374.9365" y1="84.0679" y2="294.304"/></g><g><title>Base de Datos</title><rect fill="#000000" fill-opacity="0.00000" height="210.2361" width="8" x="585.6323" y="84.0679"/><line style="stroke:#181818;stroke-width:0.5;stroke-dasharray:5,5;" x1="588.8095" x2="588.8095" y1="84.0679" y2="294.304"/></g><g class="participant participant-head" data-participant="Usuario"><text fill="#000000" font-family="sans-serif" font-size="14" lengthAdjust="spacing" textLength="51.3098" x="5" y="79.9659">Usuario</text><ellipse cx="33.6549" cy="13.5" fill="#E2E2F0" rx="8" ry="8" style="stroke:#181818;stroke-width:0.5;"/><path d="M33.6549,21.5 L33.6549,48.5 M20.6549,29.5 L46.6549,29.5 M33.6549,48.5 L20.6549,63.5 M33.6549,48.5 L46.6549,63.5" fill="none" style="stroke:#181818;stroke-width:0.5;"/></g><g class="participant participant-tail" data-participant="Usuario"><text fill="#000000" font-family="sans-serif" font-size="14" lengthAdjust="spacing" textLength="51.3098" x="5" y="308.27">Usuario</text><ellipse cx="33.6549" cy="320.8719" fill="#E2E2F0" rx="8" ry="8" style="stroke:#181818;stroke-width:0.5;"/><path d="M33.6549,328.8719 L33.6549,355.8719 M20.6549,336.8719 L46.6549,336.8719 M33.6549,355.8719 L20.6549,370.8719 M33.6549,355.8719 L46.6549,370.8719" fill="none" style="stroke:#181818;stroke-width:0.5;"/></g><g class="participant participant-head" data-participant="FE"><rect fill="#E2E2F0" height="33.0679" rx="2.5" ry="2.5" style="stroke:#181818;stroke-width:0.5;" width="74.3818" x="159.9151" y="50"/><text fill="#000000" font-family="sans-serif" font-size="14" lengthAdjust="spacing" textLength="60.3818" x="166.9151" y="71.9659">Frontend</text></g><g class="participant participant-tail" data-participant="FE"><rect fill="#E2E2F0" height="33.0679" rx="2.5" ry="2.5" style="stroke:#181818;stroke-width:0.5;" width="74.3818" x="159.9151" y="293.304"/><text fill="#000000" font-family="sans-serif" font-size="14" lengthAdjust="spacing" textLength="60.3818" x="166.9151" y="315.27">Frontend</text></g><g class="participant participant-head" data-participant="Auth"><rect fill="#E2E2F0" height="33.0679" rx="2.5" ry="2.5" style="stroke:#181818;stroke-width:0.5;" width="178.5694" x="285.9365" y="50"/><text fill="#000000" font-family="sans-serif" font-size="14" lengthAdjust="spacing" textLength="164.5694" x="292.9365" y="71.9659">Servicio de Autenticaci&#243;n</text></g><g class="participant participant-tail" data-participant="Auth"><rect fill="#E2E2F0" height="33.0679" rx="2.5" ry="2.5" style="stroke:#181818;stroke-width:0.5;" width="178.5694" x="285.9365" y="293.304"/><text fill="#000000" font-family="sans-serif" font-size="14" lengthAdjust="spacing" textLength="164.5694" x="292.9365" y="315.27">Servicio de Autenticaci&#243;n</text></g><g class="participant participant-head" data-participant="DB"><text fill="#000000" font-family="sans-serif" font-size="14" lengthAdjust="spacing" textLength="93.6456" x="539.8095" y="79.9659">Base de Datos</text><path d="M571.6323,29 C571.6323,19 589.6323,19 589.6323,19 C589.6323,19 607.6323,19 607.6323,29 L607.6323,55 C607.6323,65 589.6323,65 589.6323,65 C589.6323,65 571.6323,65 571.6323,55 L571.6323,29" fill="#E2E2F0" style="stroke:#181818;stroke-width:0.5;"/><path d="M571.6323,29 C571.6323,39 589.6323,39 589.6323,39 C589.6323,39 607.6323,39 607.6323,29" fill="none" style="stroke:#181818;stroke-width:0.5;"/></g><g class="participant participant-tail" data-participant="DB"><text fill="#000000" font-family="sans-serif" font-size="14" lengthAdjust="spacing" textLength="93.6456" x="539.8095" y="308.27">Base de Datos</text><path d="M571.6323,322.3719 C571.6323,312.3719 589.6323,312.3719 589.6323,312.3719 C589.6323,312.3719 607.6323,312.3719 607.6323,322.3719 L607.6323,348.3719 C607.6323,358.3719 589.6323,358.3719 589.6323,358.3719 C589.6323,358.3719 571.6323,358.3719 571.6323,348.3719 L571.6323,322.3719" fill="#E2E2F0" style="stroke:#181818;stroke-width:0.5;"/><path d="M571.6323,322.3719 C571.6323,332.3719 589.6323,332.3719 589.6323,332.3719 C589.6323,332.3719 607.6323,332.3719 607.6323,322.3719" fill="none" style="stroke:#181818;stroke-width:0.5;"/></g><g class="message" data-participant-1="Usuario" data-participant-2="FE"><polygon fill="#181818" points="185.106,113.7739,195.106,117.7739,185.106,121.7739,189.106,117.7739" style="stroke:#181818;stroke-width:1;"/><line style="stroke:#181818;stroke-width:1;" x1="33.6549" x2="191.106" y1="117.7739" y2="117.7739"/><text fill="#000000" font-family="sans-serif" font-size="13" lengthAdjust="spacing" textLength="139.4511" x="40.6549" y="111.9649">Introduce credenciales</text></g><g class="message" data-participant-1="FE" data-participant-2="Auth"><polygon fill="#181818" points="363.2211,145.4799,373.2211,149.4799,363.2211,153.4799,367.2211,149.4799" style="stroke:#181818;stroke-width:1;"/><line style="stroke:#181818;stroke-width:1;" x1="197.106" x2="369.2211" y1="149.4799" y2="149.4799"/><text fill="#000000" font-family="sans-serif" font-size="13" lengthAdjust="spacing" textLength="117.3641" x="204.106" y="143.6709">Enviar credenciales</text></g><g class="message" data-participant-1="Auth" data-participant-2="DB"><polygon fill="#181818" points="577.6323,177.186,587.6323,181.186,577.6323,185.186,581.6323,181.186" style="stroke:#181818;stroke-width:1;"/><line style="stroke:#181818;stroke-width:1;" x1="375.2211" x2="583.6323" y1="181.186" y2="181.186"/><text fill="#000000" font-family="sans-serif" font-size="13" lengthAdjust="spacing" textLength="190.4112" x="382.2211" y="175.377">Consultar usuario y contrase&#241;a</text></g><g class="message" data-participant-1="DB" data-participant-2="Auth"><polygon fill="#181818" points="386.2211,208.892,376.2211,212.892,386.2211,216.892,382.2211,212.892" style="stroke:#181818;stroke-width:1;"/><line style="stroke:#181818;stroke-width:1;stroke-dasharray:2,2;" x1="380.2211" x2="588.6323" y1="212.892" y2="212.892"/><text fill="#000000" font-family="sans-serif" font-size="13" lengthAdjust="spacing" textLength="148.7331" x="392.2211" y="207.083">Resultado de la consulta</text></g><g class="message" data-participant-1="Auth" data-participant-2="FE"><polygon fill="#181818" points="208.106,240.598,198.106,244.598,208.106,248.598,204.106,244.598" style="stroke:#181818;stroke-width:1;"/><line style="stroke:#181818;stroke-width:1;stroke-dasharray:2,2;" x1="202.106" x2="374.2211" y1="244.598" y2="244.598"/><text fill="#000000" font-family="sans-serif" font-size="13" lengthAdjust="spacing" textLength="154.1151" x="214.106" y="238.789">Respuesta (&#233;xito/fracaso)</text></g><g class="message" data-participant-1="FE" data-participant-2="Usuario"><polygon fill="#181818" points="44.6549,272.304,34.6549,276.304,44.6549,280.304,40.6549,276.304" style="stroke:#181818;stroke-width:1;"/><line style="stroke:#181818;stroke-width:1;stroke-dasharray:2,2;" x1="38.6549" x2="196.106" y1="276.304" y2="276.304"/><text fill="#000000" font-family="sans-serif" font-size="13" lengthAdjust="spacing" textLength="110.1491" x="50.6549" y="270.495">Mostrar resultado</text></g><!--SRC=[LS-nQiGm30RWtKyXChN3qVs6GjFSmGrTMle0ggrIGx2291ztZzInz17oObLCGhd5OEdZbuJHME1TAqhcCA5OZdd2Oj0TXOjHIHsWml5mstmZEVk78H4yLMVUmfZdtzAubxv2GiCFL8AkNrwN0nfh0qCVmZeLTeyU3tiu5HDEDH94eKGbPXn9W_TSB8bk3kMSKMv1QpaPUWVFNBIEvgQkyLU8VeZu2lCF1aUx_xXNQZYrEqPSP2kicTjcpgPAQWXty_Sb6pzy2aPKlc_RETjksSCBgmyJa2tw3m00]--></g></svg>