<svg xmlns="http://www.w3.org/2000/svg" xmlns:xlink="http://www.w3.org/1999/xlink" contentStyleType="text/css" data-diagram-type="SEQUENCE" height="782px" preserveAspectRatio="none" style="width:906px;height:782px;background:#FFFFFF;" version="1.1" viewBox="0 0 906 782" width="906px" zoomAndPan="magnify"><defs/><g><rect fill="none" height="467.848" style="stroke:#000000;stroke-width:1.5;" width="889.3557" x="10" y="213.892"/><rect fill="none" height="290.336" style="stroke:#000000;stroke-width:1.5;" width="869.3557" x="20" y="272.304"/><g><title>Usuario</title><rect fill="#000000" fill-opacity="0.00000" height="614.6721" width="8" x="54.6549" y="84.0679"/><line style="stroke:#181818;stroke-width:0.5;stroke-dasharray:5,5;" x1="58" x2="58" y1="84.0679" y2="698.74"/></g><g><title>Frontend</title><rect fill="#000000" fill-opacity="0.00000" height="614.6721" width="8" x="235.76" y="84.0679"/><line style="stroke:#181818;stroke-width:0.5;stroke-dasharray:5,5;" x1="239.5691" x2="239.5691" y1="84.0679" y2="698.74"/></g><g><title>Servicio de Perfil</title><rect fill="#000000" fill-opacity="0.00000" height="614.6721" width="8" x="489.2232" y="84.0679"/><line style="stroke:#181818;stroke-width:0.5;stroke-dasharray:5,5;" x1="492.7914" x2="492.7914" y1="84.0679" y2="698.74"/></g><g><title>Servicio de Autenticaci.n</title><rect fill="#000000" fill-opacity="0.00000" height="614.6721" width="8" x="676.4254" y="84.0679"/><line style="stroke:#181818;stroke-width:0.5;stroke-dasharray:5,5;" x1="680.1407" x2="680.1407" y1="84.0679" y2="698.74"/></g><g><title>Base de Datos</title><rect fill="#000000" fill-opacity="0.00000" height="614.6721" width="8" x="825.5329" y="84.0679"/><line style="stroke:#181818;stroke-width:0.5;stroke-dasharray:5,5;" x1="828.7101" x2="828.7101" y1="84.0679" y2="698.74"/></g><g class="participant participant-head" data-participant="Usuario"><text fill="#000000" font-family="sans-serif" font-size="14" lengthAdjust="spacing" textLength="51.3098" x="30" y="79.9659">Usuario</text><ellipse cx="58.6549" cy="13.5" fill="#E2E2F0" rx="8" ry="8" style="stroke:#181818;stroke-width:0.5;"/><path d="M58.6549,21.5 L58.6549,48.5 M45.6549,29.5 L71.6549,29.5 M58.6549,48.5 L45.6549,63.5 M58.6549,48.5 L71.6549,63.5" fill="none" style="stroke:#181818;stroke-width:0.5;"/></g><g class="participant participant-tail" data-participant="Usuario"><text fill="#000000" font-family="sans-serif" font-size="14" lengthAdjust="spacing" textLength="51.3098" x="30" y="712.7059">Usuario</text><ellipse cx="58.6549" cy="725.3079" fill="#E2E2F0" rx="8" ry="8" style="stroke:#181818;stroke-width:0.5;"/><path d="M58.6549,733.3079 L58.6549,760.3079 M45.6549,741.3079 L71.6549,741.3079 M58.6549,760.3079 L45.6549,775.3079 M58.6549,760.3079 L71.6549,775.3079" fill="none" style="stroke:#181818;stroke-width:0.5;"/></g><g class="participant participant-head" data-participant="FE"><rect fill="#E2E2F0" height="33.0679" rx="2.5" ry="2.5" style="stroke:#181818;stroke-width:0.5;" width="74.3818" x="202.5691" y="50"/><text fill="#000000" font-family="sans-serif" font-size="14" lengthAdjust="spacing" textLength="60.3818" x="209.5691" y="71.9659">Frontend</text></g><g class="participant participant-tail" data-participant="FE"><rect fill="#E2E2F0" height="33.0679" rx="2.5" ry="2.5" style="stroke:#181818;stroke-width:0.5;" width="74.3818" x="202.5691" y="697.74"/><text fill="#000000" font-family="sans-serif" font-size="14" lengthAdjust="spacing" textLength="60.3818" x="209.5691" y="719.7059">Frontend</text></g><g class="participant participant-head" data-participant="Perfil"><rect fill="#E2E2F0" height="33.0679" rx="2.5" ry="2.5" style="stroke:#181818;stroke-width:0.5;" width="122.8636" x="431.7914" y="50"/><text fill="#000000" font-family="sans-serif" font-size="14" lengthAdjust="spacing" textLength="108.8636" x="438.7914" y="71.9659">Servicio de Perfil</text></g><g class="participant participant-tail" data-participant="Perfil"><rect fill="#E2E2F0" height="33.0679" rx="2.5" ry="2.5" style="stroke:#181818;stroke-width:0.5;" width="122.8636" x="431.7914" y="697.74"/><text fill="#000000" font-family="sans-serif" font-size="14" lengthAdjust="spacing" textLength="108.8636" x="438.7914" y="719.7059">Servicio de Perfil</text></g><g class="participant participant-head" data-participant="Auth"><rect fill="#E2E2F0" height="33.0679" rx="2.5" ry="2.5" style="stroke:#181818;stroke-width:0.5;" width="178.5694" x="591.1407" y="50"/><text fill="#000000" font-family="sans-serif" font-size="14" lengthAdjust="spacing" textLength="164.5694" x="598.1407" y="71.9659">Servicio de Autenticaci&#243;n</text></g><g class="participant participant-tail" data-participant="Auth"><rect fill="#E2E2F0" height="33.0679" rx="2.5" ry="2.5" style="stroke:#181818;stroke-width:0.5;" width="178.5694" x="591.1407" y="697.74"/><text fill="#000000" font-family="sans-serif" font-size="14" lengthAdjust="spacing" textLength="164.5694" x="598.1407" y="719.7059">Servicio de Autenticaci&#243;n</text></g><g class="participant participant-head" data-participant="DB"><text fill="#000000" font-family="sans-serif" font-size="14" lengthAdjust="spacing" textLength="93.6456" x="779.7101" y="79.9659">Base de Datos</text><path d="M811.5329,29 C811.5329,19 829.5329,19 829.5329,19 C829.5329,19 847.5329,19 847.5329,29 L847.5329,55 C847.5329,65 829.5329,65 829.5329,65 C829.5329,65 811.5329,65 811.5329,55 L811.5329,29" fill="#E2E2F0" style="stroke:#181818;stroke-width:0.5;"/><path d="M811.5329,29 C811.5329,39 829.5329,39 829.5329,39 C829.5329,39 847.5329,39 847.5329,29" fill="none" style="stroke:#181818;stroke-width:0.5;"/></g><g class="participant participant-tail" data-participant="DB"><text fill="#000000" font-family="sans-serif" font-size="14" lengthAdjust="spacing" textLength="93.6456" x="779.7101" y="712.7059">Base de Datos</text><path d="M811.5329,726.8079 C811.5329,716.8079 829.5329,716.8079 829.5329,716.8079 C829.5329,716.8079 847.5329,716.8079 847.5329,726.8079 L847.5329,752.8079 C847.5329,762.8079 829.5329,762.8079 829.5329,762.8079 C829.5329,762.8079 811.5329,762.8079 811.5329,752.8079 L811.5329,726.8079" fill="#E2E2F0" style="stroke:#181818;stroke-width:0.5;"/><path d="M811.5329,726.8079 C811.5329,736.8079 829.5329,736.8079 829.5329,736.8079 C829.5329,736.8079 847.5329,736.8079 847.5329,726.8079" fill="none" style="stroke:#181818;stroke-width:0.5;"/></g><g class="message" data-participant-1="Usuario" data-participant-2="FE"><polygon fill="#181818" points="227.76,113.7739,237.76,117.7739,227.76,121.7739,231.76,117.7739" style="stroke:#181818;stroke-width:1;"/><line style="stroke:#181818;stroke-width:1;" x1="58.6549" x2="233.76" y1="117.7739" y2="117.7739"/><text fill="#000000" font-family="sans-serif" font-size="13" lengthAdjust="spacing" textLength="137.2931" x="65.6549" y="111.9649">Solicitar "Ver mi perfil"</text></g><g class="message" data-participant-1="FE" data-participant-2="Perfil"><polygon fill="#181818" points="481.2232,163.186,491.2232,167.186,481.2232,171.186,485.2232,167.186" style="stroke:#181818;stroke-width:1;"/><line style="stroke:#181818;stroke-width:1;" x1="239.76" x2="487.2232" y1="167.186" y2="167.186"/><text fill="#000000" font-family="sans-serif" font-size="13" lengthAdjust="spacing" textLength="64.0121" x="246.76" y="143.6709">GET /perfil</text><text fill="#000000" font-family="sans-serif" font-size="13" lengthAdjust="spacing" textLength="229.4632" x="246.76" y="161.377">Authorization: Bearer &lt;access_token&gt;</text></g><g class="message" data-participant-1="Perfil" data-participant-2="Auth"><polygon fill="#181818" points="668.4254,194.892,678.4254,198.892,668.4254,202.892,672.4254,198.892" style="stroke:#181818;stroke-width:1;"/><line style="stroke:#181818;stroke-width:1;" x1="493.2232" x2="674.4254" y1="198.892" y2="198.892"/><text fill="#000000" font-family="sans-serif" font-size="13" lengthAdjust="spacing" textLength="140.9071" x="500.2232" y="193.083">Validar &lt;access_token&gt;</text></g><path d="M10,213.892 L72.459,213.892 L72.459,223.598 L62.459,233.598 L10,233.598 L10,213.892" fill="#EEEEEE" style="stroke:#000000;stroke-width:1.5;"/><rect fill="none" height="467.848" style="stroke:#000000;stroke-width:1.5;" width="889.3557" x="10" y="213.892"/><text fill="#000000" font-family="sans-serif" font-size="13" font-weight="bold" lengthAdjust="spacing" textLength="17.459" x="25" y="228.789">alt</text><text fill="#000000" font-family="sans-serif" font-size="11" font-weight="bold" lengthAdjust="spacing" textLength="77.2524" x="87.459" y="227.6509">[Token v&#225;lido]</text><g class="message" data-participant-1="Auth" data-participant-2="Perfil"><polygon fill="#181818" points="504.2232,253.304,494.2232,257.304,504.2232,261.304,500.2232,257.304" style="stroke:#181818;stroke-width:1;"/><line style="stroke:#181818;stroke-width:1;stroke-dasharray:2,2;" x1="498.2232" x2="679.4254" y1="257.304" y2="257.304"/><text fill="#000000" font-family="sans-serif" font-size="13" lengthAdjust="spacing" textLength="163.2022" x="510.2232" y="251.495">OK (claims: sub, roles, exp)</text></g><path d="M20,272.304 L82.459,272.304 L82.459,282.01 L72.459,292.01 L20,292.01 L20,272.304" fill="#EEEEEE" style="stroke:#000000;stroke-width:1.5;"/><rect fill="none" height="290.336" style="stroke:#000000;stroke-width:1.5;" width="869.3557" x="20" y="272.304"/><text fill="#000000" font-family="sans-serif" font-size="13" font-weight="bold" lengthAdjust="spacing" textLength="17.459" x="35" y="287.201">alt</text><text fill="#000000" font-family="sans-serif" font-size="11" font-weight="bold" lengthAdjust="spacing" textLength="126.4551" x="97.459" y="286.0629">[Consulta exitosa a BD]</text><g class="message" data-participant-1="Perfil" data-participant-2="DB"><polygon fill="#181818" points="817.5329,311.716,827.5329,315.716,817.5329,319.716,821.5329,315.716" style="stroke:#181818;stroke-width:1;"/><line style="stroke:#181818;stroke-width:1;" x1="493.2232" x2="823.5329" y1="315.716" y2="315.716"/><text fill="#000000" font-family="sans-serif" font-size="13" lengthAdjust="spacing" textLength="124.3971" x="500.2232" y="309.907">Consultar perfil(sub)</text></g><g class="message" data-participant-1="DB" data-participant-2="Perfil"><polygon fill="#181818" points="504.2232,343.4221,494.2232,347.4221,504.2232,351.4221,500.2232,347.4221" style="stroke:#181818;stroke-width:1;"/><line style="stroke:#181818;stroke-width:1;stroke-dasharray:2,2;" x1="498.2232" x2="828.5329" y1="347.4221" y2="347.4221"/><text fill="#000000" font-family="sans-serif" font-size="13" lengthAdjust="spacing" textLength="89.5311" x="510.2232" y="341.6131">Datos de perfil</text></g><g class="message" data-participant-1="Perfil" data-participant-2="FE"><polygon fill="#181818" points="250.76,375.1281,240.76,379.1281,250.76,383.1281,246.76,379.1281" style="stroke:#181818;stroke-width:1;"/><line style="stroke:#181818;stroke-width:1;stroke-dasharray:2,2;" x1="244.76" x2="492.2232" y1="379.1281" y2="379.1281"/><text fill="#000000" font-family="sans-serif" font-size="13" lengthAdjust="spacing" textLength="123.9291" x="256.76" y="373.3191">200 OK + Perfil JSON</text></g><g class="message" data-participant-1="FE" data-participant-2="Usuario"><polygon fill="#181818" points="69.6549,406.8341,59.6549,410.8341,69.6549,414.8341,65.6549,410.8341" style="stroke:#181818;stroke-width:1;"/><line style="stroke:#181818;stroke-width:1;stroke-dasharray:2,2;" x1="63.6549" x2="238.76" y1="410.8341" y2="410.8341"/><text fill="#000000" font-family="sans-serif" font-size="13" lengthAdjust="spacing" textLength="83.8631" x="75.6549" y="405.0251">Mostrar perfil</text></g><line style="stroke:#000000;stroke-width:1;stroke-dasharray:2,2;" x1="20" x2="889.3557" y1="419.8341" y2="419.8341"/><text fill="#000000" font-family="sans-serif" font-size="11" font-weight="bold" lengthAdjust="spacing" textLength="70.2125" x="25" y="431.593">[Error en BD]</text><g class="message" data-participant-1="Perfil" data-participant-2="DB"><polygon fill="#181818" points="817.5329,455.522,827.5329,459.522,817.5329,463.522,821.5329,459.522" style="stroke:#181818;stroke-width:1;"/><line style="stroke:#181818;stroke-width:1;" x1="493.2232" x2="823.5329" y1="459.522" y2="459.522"/><text fill="#000000" font-family="sans-serif" font-size="13" lengthAdjust="spacing" textLength="124.3971" x="500.2232" y="453.713">Consultar perfil(sub)</text></g><g class="message" data-participant-1="DB" data-participant-2="Perfil"><polygon fill="#181818" points="504.2232,487.228,494.2232,491.228,504.2232,495.228,500.2232,491.228" style="stroke:#181818;stroke-width:1;"/><line style="stroke:#181818;stroke-width:1;stroke-dasharray:2,2;" x1="498.2232" x2="828.5329" y1="491.228" y2="491.228"/><text fill="#000000" font-family="sans-serif" font-size="13" lengthAdjust="spacing" textLength="31.2" x="510.2232" y="485.419">Error</text></g><g class="message" data-participant-1="Perfil" data-participant-2="FE"><polygon fill="#181818" points="250.76,518.934,240.76,522.934,250.76,526.934,246.76,522.934" style="stroke:#181818;stroke-width:1;"/><line style="stroke:#181818;stroke-width:1;stroke-dasharray:2,2;" x1="244.76" x2="492.2232" y1="522.934" y2="522.934"/><text fill="#000000" font-family="sans-serif" font-size="13" lengthAdjust="spacing" textLength="151.3071" x="256.76" y="517.125">500 Internal Server Error</text></g><g class="message" data-participant-1="FE" data-participant-2="Usuario"><polygon fill="#181818" points="69.6549,550.6401,59.6549,554.6401,69.6549,558.6401,65.6549,554.6401" style="stroke:#181818;stroke-width:1;"/><line style="stroke:#181818;stroke-width:1;stroke-dasharray:2,2;" x1="63.6549" x2="238.76" y1="554.6401" y2="554.6401"/><text fill="#000000" font-family="sans-serif" font-size="13" lengthAdjust="spacing" textLength="157.1051" x="75.6549" y="548.831">Mostrar mensaje de error</text></g><line style="stroke:#000000;stroke-width:1;stroke-dasharray:2,2;" x1="10" x2="899.3557" y1="570.6401" y2="570.6401"/><text fill="#000000" font-family="sans-serif" font-size="11" font-weight="bold" lengthAdjust="spacing" textLength="148.9499" x="15" y="582.399">[Token inv&#225;lido o expirado]</text><g class="message" data-participant-1="Auth" data-participant-2="Perfil"><polygon fill="#181818" points="504.2232,606.328,494.2232,610.328,504.2232,614.328,500.2232,610.328" style="stroke:#181818;stroke-width:1;"/><line style="stroke:#181818;stroke-width:1;stroke-dasharray:2,2;" x1="498.2232" x2="679.4254" y1="610.328" y2="610.328"/><text fill="#000000" font-family="sans-serif" font-size="13" lengthAdjust="spacing" textLength="104.9751" x="510.2232" y="604.519">401 Invalid token</text></g><g class="message" data-participant-1="Perfil" data-participant-2="FE"><polygon fill="#181818" points="250.76,638.034,240.76,642.034,250.76,646.034,246.76,642.034" style="stroke:#181818;stroke-width:1;"/><line style="stroke:#181818;stroke-width:1;stroke-dasharray:2,2;" x1="244.76" x2="492.2232" y1="642.034" y2="642.034"/><text fill="#000000" font-family="sans-serif" font-size="13" lengthAdjust="spacing" textLength="109.3041" x="256.76" y="636.225">401 Unauthorized</text></g><g class="message" data-participant-1="FE" data-participant-2="Usuario"><polygon fill="#181818" points="69.6549,669.74,59.6549,673.74,69.6549,677.74,65.6549,673.74" style="stroke:#181818;stroke-width:1;"/><line style="stroke:#181818;stroke-width:1;stroke-dasharray:2,2;" x1="63.6549" x2="238.76" y1="673.74" y2="673.74"/><text fill="#000000" font-family="sans-serif" font-size="13" lengthAdjust="spacing" textLength="99.5281" x="75.6549" y="667.931">Solicitar re-login</text></g><!--SRC=[fP9DJiCm48NtFiMegrPGKH1iAbI9a1O1WYBrPuM4fea1WsjNOwT2t8OpS8HUZB6JKAgsApPHaldc-NdcOUOjmSGLICgA1P9NcLgWyT0Oa3LUchm1w63GtooE92tvmq8kuK7Iiz8HAr_tenS5At89CxNwDh65VxsA73tEq4be9E79P8hUkWYaYH2LGMZts0bqOMGrIteaQ4mbmLp1eZGXkCnGwOF1g_uOZihQemb7MLAVw9KrNKWa4ZUVOvP9vvwyVPUc9wfM5WauIqnHgnotE87QmpYymtBrnOWLKBQq_neOta8pqwZchWkkc1q2MItT8SYFHKjmHr2vjCOLsYF_L7nh18GavHh0saoQi5WDKdNT9Yks8iZbZMFZ-C8SIt13h1xYIQSJx1tKXPlHy3w2OOOCrKFlmfrrddvFPKPgtbAVYBF3z_-lsIYqq-8PMxpc59913I58lAyrlTVdN1g7Rp57ig8vo494s-NEbAcs1ZRiGX7kMU1fvvWjB4C88AvURDiCpCHW5I-PYntUrf4bsTRsHHd1ddu0]--></g></svg>