<svg xmlns="http://www.w3.org/2000/svg" xmlns:xlink="http://www.w3.org/1999/xlink" contentStyleType="text/css" data-diagram-type="SEQUENCE" height="446px" preserveAspectRatio="none" style="width:740px;height:446px;background:#FFFFFF;" version="1.1" viewBox="0 0 740 446" width="740px" zoomAndPan="magnify"><defs/><g><rect fill="none" height="83.118" style="stroke:#000000;stroke-width:1.5;" width="545.3821" x="189.6172" y="213.892"/><g><title>Usuario</title><rect fill="#000000" fill-opacity="0.00000" height="279.3541" width="8" x="29.6549" y="84.0679"/><line style="stroke:#181818;stroke-width:0.5;stroke-dasharray:5,5;" x1="33" x2="33" y1="84.0679" y2="363.4221"/></g><g><title>Frontend</title><rect fill="#000000" fill-opacity="0.00000" height="279.3541" width="8" x="232.8081" y="84.0679"/><line style="stroke:#181818;stroke-width:0.5;stroke-dasharray:5,5;" x1="236.6172" x2="236.6172" y1="84.0679" y2="363.4221"/></g><g><title>Servicio de Perfil</title><rect fill="#000000" fill-opacity="0.00000" height="279.3541" width="8" x="440.9402" y="84.0679"/><line style="stroke:#181818;stroke-width:0.5;stroke-dasharray:5,5;" x1="444.5084" x2="444.5084" y1="84.0679" y2="363.4221"/></g><g><title>Servicio de Recomendaciones</title><rect fill="#000000" fill-opacity="0.00000" height="279.3541" width="8" x="616.6856" y="84.0679"/><line style="stroke:#181818;stroke-width:0.5;stroke-dasharray:5,5;" x1="620.372" x2="620.372" y1="84.0679" y2="363.4221"/></g><g class="participant participant-head" data-participant="Usuario"><text fill="#000000" font-family="sans-serif" font-size="14" lengthAdjust="spacing" textLength="51.3098" x="5" y="79.9659">Usuario</text><ellipse cx="33.6549" cy="13.5" fill="#E2E2F0" rx="8" ry="8" style="stroke:#181818;stroke-width:0.5;"/><path d="M33.6549,21.5 L33.6549,48.5 M20.6549,29.5 L46.6549,29.5 M33.6549,48.5 L20.6549,63.5 M33.6549,48.5 L46.6549,63.5" fill="none" style="stroke:#181818;stroke-width:0.5;"/></g><g class="participant participant-tail" data-participant="Usuario"><text fill="#000000" font-family="sans-serif" font-size="14" lengthAdjust="spacing" textLength="51.3098" x="5" y="377.388">Usuario</text><ellipse cx="33.6549" cy="389.99" fill="#E2E2F0" rx="8" ry="8" style="stroke:#181818;stroke-width:0.5;"/><path d="M33.6549,397.99 L33.6549,424.99 M20.6549,405.99 L46.6549,405.99 M33.6549,424.99 L20.6549,439.99 M33.6549,424.99 L46.6549,439.99" fill="none" style="stroke:#181818;stroke-width:0.5;"/></g><g class="participant participant-head" data-participant="FE"><rect fill="#E2E2F0" height="33.0679" rx="2.5" ry="2.5" style="stroke:#181818;stroke-width:0.5;" width="74.3818" x="199.6172" y="50"/><text fill="#000000" font-family="sans-serif" font-size="14" lengthAdjust="spacing" textLength="60.3818" x="206.6172" y="71.9659">Frontend</text></g><g class="participant participant-tail" data-participant="FE"><rect fill="#E2E2F0" height="33.0679" rx="2.5" ry="2.5" style="stroke:#181818;stroke-width:0.5;" width="74.3818" x="199.6172" y="362.4221"/><text fill="#000000" font-family="sans-serif" font-size="14" lengthAdjust="spacing" textLength="60.3818" x="206.6172" y="384.388">Frontend</text></g><g class="participant participant-head" data-participant="Perfil"><rect fill="#E2E2F0" height="33.0679" rx="2.5" ry="2.5" style="stroke:#181818;stroke-width:0.5;" width="122.8636" x="383.5084" y="50"/><text fill="#000000" font-family="sans-serif" font-size="14" lengthAdjust="spacing" textLength="108.8636" x="390.5084" y="71.9659">Servicio de Perfil</text></g><g class="participant participant-tail" data-participant="Perfil"><rect fill="#E2E2F0" height="33.0679" rx="2.5" ry="2.5" style="stroke:#181818;stroke-width:0.5;" width="122.8636" x="383.5084" y="362.4221"/><text fill="#000000" font-family="sans-serif" font-size="14" lengthAdjust="spacing" textLength="108.8636" x="390.5084" y="384.388">Servicio de Perfil</text></g><g class="participant participant-head" data-participant="Recs"><rect fill="#E2E2F0" height="33.0679" rx="2.5" ry="2.5" style="stroke:#181818;stroke-width:0.5;" width="208.6272" x="516.372" y="50"/><text fill="#000000" font-family="sans-serif" font-size="14" lengthAdjust="spacing" textLength="194.6272" x="523.372" y="71.9659">Servicio de Recomendaciones</text></g><g class="participant participant-tail" data-participant="Recs"><rect fill="#E2E2F0" height="33.0679" rx="2.5" ry="2.5" style="stroke:#181818;stroke-width:0.5;" width="208.6272" x="516.372" y="362.4221"/><text fill="#000000" font-family="sans-serif" font-size="14" lengthAdjust="spacing" textLength="194.6272" x="523.372" y="384.388">Servicio de Recomendaciones</text></g><g class="message" data-participant-1="Usuario" data-participant-2="FE"><polygon fill="#181818" points="224.8081,113.7739,234.8081,117.7739,224.8081,121.7739,228.8081,117.7739" style="stroke:#181818;stroke-width:1;"/><line style="stroke:#181818;stroke-width:1;" x1="33.6549" x2="230.8081" y1="117.7739" y2="117.7739"/><text fill="#000000" font-family="sans-serif" font-size="13" lengthAdjust="spacing" textLength="124.1501" x="40.6549" y="111.9649">Abrir panel principal</text></g><g class="message" data-participant-1="FE" data-participant-2="Perfil"><polygon fill="#181818" points="432.9402,163.186,442.9402,167.186,432.9402,171.186,436.9402,167.186" style="stroke:#181818;stroke-width:1;"/><line style="stroke:#181818;stroke-width:1;" x1="236.8081" x2="438.9402" y1="167.186" y2="167.186"/><text fill="#000000" font-family="sans-serif" font-size="13" lengthAdjust="spacing" textLength="64.0121" x="243.8081" y="143.6709">GET /perfil</text><text fill="#000000" font-family="sans-serif" font-size="13" lengthAdjust="spacing" textLength="184.1322" x="243.8081" y="161.377">Authorization: Bearer &lt;token&gt;</text></g><g class="message" data-participant-1="Perfil" data-participant-2="FE"><polygon fill="#181818" points="247.8081,194.892,237.8081,198.892,247.8081,202.892,243.8081,198.892" style="stroke:#181818;stroke-width:1;"/><line style="stroke:#181818;stroke-width:1;stroke-dasharray:2,2;" x1="241.8081" x2="443.9402" y1="198.892" y2="198.892"/><text fill="#000000" font-family="sans-serif" font-size="13" lengthAdjust="spacing" textLength="141.7131" x="253.8081" y="193.083">200 OK + datos usuario</text></g><path d="M189.6172,213.892 L256.5352,213.892 L256.5352,223.598 L246.5352,233.598 L189.6172,233.598 L189.6172,213.892" fill="#EEEEEE" style="stroke:#000000;stroke-width:1.5;"/><rect fill="none" height="83.118" style="stroke:#000000;stroke-width:1.5;" width="545.3821" x="189.6172" y="213.892"/><text fill="#000000" font-family="sans-serif" font-size="13" font-weight="bold" lengthAdjust="spacing" textLength="21.918" x="204.6172" y="228.789">opt</text><text fill="#000000" font-family="sans-serif" font-size="11" font-weight="bold" lengthAdjust="spacing" textLength="104.2242" x="271.5352" y="227.6509">[Usuario logueado]</text><g class="message" data-participant-1="FE" data-participant-2="Recs"><polygon fill="#181818" points="608.6856,253.304,618.6856,257.304,608.6856,261.304,612.6856,257.304" style="stroke:#181818;stroke-width:1;"/><line style="stroke:#181818;stroke-width:1;" x1="236.8081" x2="614.6856" y1="257.304" y2="257.304"/><text fill="#000000" font-family="sans-serif" font-size="13" lengthAdjust="spacing" textLength="203.0992" x="243.8081" y="251.495">GET /recomendaciones?user=sub</text></g><g class="message" data-participant-1="Recs" data-participant-2="FE"><polygon fill="#181818" points="247.8081,285.01,237.8081,289.01,247.8081,293.01,243.8081,289.01" style="stroke:#181818;stroke-width:1;"/><line style="stroke:#181818;stroke-width:1;stroke-dasharray:2,2;" x1="241.8081" x2="619.6856" y1="289.01" y2="289.01"/><text fill="#000000" font-family="sans-serif" font-size="13" lengthAdjust="spacing" textLength="159.1331" x="253.8081" y="283.201">Lista de recomendaciones</text></g><g class="message" data-participant-1="FE" data-participant-2="Usuario"><polygon fill="#181818" points="44.6549,341.4221,34.6549,345.4221,44.6549,349.4221,40.6549,345.4221" style="stroke:#181818;stroke-width:1;"/><line style="stroke:#181818;stroke-width:1;stroke-dasharray:2,2;" x1="38.6549" x2="235.8081" y1="345.4221" y2="345.4221"/><text fill="#000000" font-family="sans-serif" font-size="13" lengthAdjust="spacing" textLength="148.9671" x="50.6549" y="321.907">Mostrar panel con datos</text><text fill="#000000" font-family="sans-serif" font-size="13" lengthAdjust="spacing" textLength="179.1532" x="50.6549" y="339.6131">(+ recomendaciones si aplica)</text></g><!--SRC=[TP1BJmCn38Jl-HMZda1LHSLn1KL5QZa00l6uzUBk6eXOuiX9EF3hyRwGMebR77-UyPZgB8hNL4Yzk4YQVUqZXOpPLYLa3iqCbB3T73QVMR-j43ICHzOtt_ROyFmVVU9QlaoJh0wS-XdxIywDAs2nCYzKME_LAqo1MqJreLDhdRKC65mCkjcyu2psrIwiI_uGzJ-KJRl2DPEouYBB9uUL6sSMa_xvSec7MypHK9Q4Cbx0ISpJET3AUs5gn063SRVgPAk7KQvAOhrCPMzmZ_qvtVcKgGj_DE7iwVf4HawM5UubPQKfUYrXs70NJkR72aWU55jVq-al]--></g></svg>