<svg xmlns="http://www.w3.org/2000/svg" xmlns:xlink="http://www.w3.org/1999/xlink" contentStyleType="text/css" data-diagram-type="SEQUENCE" height="570px" preserveAspectRatio="none" style="width:783px;height:570px;background:#FFFFFF;" version="1.1" viewBox="0 0 783 570" width="783px" zoomAndPan="magnify"><defs/><g><rect fill="none" height="114.8241" style="stroke:#000000;stroke-width:1.5;" width="586.1965" x="10" y="196.186"/><g><title>Usuario</title><rect fill="#000000" fill-opacity="0.00000" height="402.4722" width="8" x="44.6549" y="84.0679"/><line style="stroke:#181818;stroke-width:0.5;stroke-dasharray:5,5;" x1="48" x2="48" y1="84.0679" y2="486.5401"/></g><g><title>Frontend</title><rect fill="#000000" fill-opacity="0.00000" height="402.4722" width="8" x="205.181" y="84.0679"/><line style="stroke:#181818;stroke-width:0.5;stroke-dasharray:5,5;" x1="208.9901" x2="208.9901" y1="84.0679" y2="486.5401"/></g><g><title>Servicio de Pedidos</title><rect fill="#000000" fill-opacity="0.00000" height="402.4722" width="8" x="367.7481" y="84.0679"/><line style="stroke:#181818;stroke-width:0.5;stroke-dasharray:5,5;" x1="371.2234" x2="371.2234" y1="84.0679" y2="486.5401"/></g><g><title>Pasarela de Pagos</title><rect fill="#000000" fill-opacity="0.00000" height="402.4722" width="8" x="515.2347" y="84.0679"/><line style="stroke:#181818;stroke-width:0.5;stroke-dasharray:5,5;" x1="518.2729" x2="518.2729" y1="84.0679" y2="486.5401"/></g><g><title>Servicio de Notificaciones</title><rect fill="#000000" fill-opacity="0.00000" height="402.4722" width="8" x="682.9511" y="84.0679"/><line style="stroke:#181818;stroke-width:0.5;stroke-dasharray:5,5;" x1="686.1965" x2="686.1965" y1="84.0679" y2="486.5401"/></g><g class="participant participant-head" data-participant="Usuario"><text fill="#000000" font-family="sans-serif" font-size="14" lengthAdjust="spacing" textLength="51.3098" x="20" y="79.9659">Usuario</text><ellipse cx="48.6549" cy="13.5" fill="#E2E2F0" rx="8" ry="8" style="stroke:#181818;stroke-width:0.5;"/><path d="M48.6549,21.5 L48.6549,48.5 M35.6549,29.5 L61.6549,29.5 M48.6549,48.5 L35.6549,63.5 M48.6549,48.5 L61.6549,63.5" fill="none" style="stroke:#181818;stroke-width:0.5;"/></g><g class="participant participant-tail" data-participant="Usuario"><text fill="#000000" font-family="sans-serif" font-size="14" lengthAdjust="spacing" textLength="51.3098" x="20" y="500.5061">Usuario</text><ellipse cx="48.6549" cy="513.108" fill="#E2E2F0" rx="8" ry="8" style="stroke:#181818;stroke-width:0.5;"/><path d="M48.6549,521.108 L48.6549,548.108 M35.6549,529.108 L61.6549,529.108 M48.6549,548.108 L35.6549,563.108 M48.6549,548.108 L61.6549,563.108" fill="none" style="stroke:#181818;stroke-width:0.5;"/></g><g class="participant participant-head" data-participant="FE"><rect fill="#E2E2F0" height="33.0679" rx="2.5" ry="2.5" style="stroke:#181818;stroke-width:0.5;" width="74.3818" x="171.9901" y="50"/><text fill="#000000" font-family="sans-serif" font-size="14" lengthAdjust="spacing" textLength="60.3818" x="178.9901" y="71.9659">Frontend</text></g><g class="participant participant-tail" data-participant="FE"><rect fill="#E2E2F0" height="33.0679" rx="2.5" ry="2.5" style="stroke:#181818;stroke-width:0.5;" width="74.3818" x="171.9901" y="485.5401"/><text fill="#000000" font-family="sans-serif" font-size="14" lengthAdjust="spacing" textLength="60.3818" x="178.9901" y="507.5061">Frontend</text></g><g class="participant participant-head" data-participant="Pedidos"><rect fill="#E2E2F0" height="33.0679" rx="2.5" ry="2.5" style="stroke:#181818;stroke-width:0.5;" width="141.0495" x="301.2234" y="50"/><text fill="#000000" font-family="sans-serif" font-size="14" lengthAdjust="spacing" textLength="127.0495" x="308.2234" y="71.9659">Servicio de Pedidos</text></g><g class="participant participant-tail" data-participant="Pedidos"><rect fill="#E2E2F0" height="33.0679" rx="2.5" ry="2.5" style="stroke:#181818;stroke-width:0.5;" width="141.0495" x="301.2234" y="485.5401"/><text fill="#000000" font-family="sans-serif" font-size="14" lengthAdjust="spacing" textLength="127.0495" x="308.2234" y="507.5061">Servicio de Pedidos</text></g><g class="participant participant-head" data-participant="Pago"><rect fill="#E2E2F0" height="33.0679" rx="2.5" ry="2.5" style="stroke:#181818;stroke-width:0.5;" width="133.9236" x="452.2729" y="50"/><text fill="#000000" font-family="sans-serif" font-size="14" lengthAdjust="spacing" textLength="119.9236" x="459.2729" y="71.9659">Pasarela de Pagos</text></g><g class="participant participant-tail" data-participant="Pago"><rect fill="#E2E2F0" height="33.0679" rx="2.5" ry="2.5" style="stroke:#181818;stroke-width:0.5;" width="133.9236" x="452.2729" y="485.5401"/><text fill="#000000" font-family="sans-serif" font-size="14" lengthAdjust="spacing" textLength="119.9236" x="459.2729" y="507.5061">Pasarela de Pagos</text></g><g class="participant participant-head" data-participant="Notif"><rect fill="#E2E2F0" height="33.0679" rx="2.5" ry="2.5" style="stroke:#181818;stroke-width:0.5;" width="181.5093" x="596.1965" y="50"/><text fill="#000000" font-family="sans-serif" font-size="14" lengthAdjust="spacing" textLength="167.5093" x="603.1965" y="71.9659">Servicio de Notificaciones</text></g><g class="participant participant-tail" data-participant="Notif"><rect fill="#E2E2F0" height="33.0679" rx="2.5" ry="2.5" style="stroke:#181818;stroke-width:0.5;" width="181.5093" x="596.1965" y="485.5401"/><text fill="#000000" font-family="sans-serif" font-size="14" lengthAdjust="spacing" textLength="167.5093" x="603.1965" y="507.5061">Servicio de Notificaciones</text></g><g class="message" data-participant-1="Usuario" data-participant-2="FE"><polygon fill="#181818" points="197.181,113.7739,207.181,117.7739,197.181,121.7739,201.181,117.7739" style="stroke:#181818;stroke-width:1;"/><line style="stroke:#181818;stroke-width:1;" x1="48.6549" x2="203.181" y1="117.7739" y2="117.7739"/><text fill="#000000" font-family="sans-serif" font-size="13" lengthAdjust="spacing" textLength="108.0431" x="55.6549" y="111.9649">Confirmar pedido</text></g><g class="message" data-participant-1="FE" data-participant-2="Pedidos"><polygon fill="#181818" points="359.7481,145.4799,369.7481,149.4799,359.7481,153.4799,363.7481,149.4799" style="stroke:#181818;stroke-width:1;"/><line style="stroke:#181818;stroke-width:1;" x1="209.181" x2="365.7481" y1="149.4799" y2="149.4799"/><text fill="#000000" font-family="sans-serif" font-size="13" lengthAdjust="spacing" textLength="114.6081" x="216.181" y="143.6709">POST /crearPedido</text></g><g class="message" data-participant-1="Pedidos" data-participant-2="Pago"><polygon fill="#181818" points="507.2347,177.186,517.2347,181.186,507.2347,185.186,511.2347,181.186" style="stroke:#181818;stroke-width:1;"/><line style="stroke:#181818;stroke-width:1;" x1="371.7481" x2="513.2347" y1="181.186" y2="181.186"/><text fill="#000000" font-family="sans-serif" font-size="13" lengthAdjust="spacing" textLength="88.0881" x="378.7481" y="175.377">Procesar pago</text></g><path d="M10,196.186 L92.726,196.186 L92.726,205.892 L82.726,215.892 L10,215.892 L10,196.186" fill="#EEEEEE" style="stroke:#000000;stroke-width:1.5;"/><rect fill="none" height="114.8241" style="stroke:#000000;stroke-width:1.5;" width="586.1965" x="10" y="196.186"/><text fill="#000000" font-family="sans-serif" font-size="13" font-weight="bold" lengthAdjust="spacing" textLength="37.726" x="25" y="211.083">break</text><text fill="#000000" font-family="sans-serif" font-size="11" font-weight="bold" lengthAdjust="spacing" textLength="94.2693" x="107.726" y="209.9449">[Pago rechazado]</text><g class="message" data-participant-1="Pago" data-participant-2="Pedidos"><polygon fill="#181818" points="382.7481,235.598,372.7481,239.598,382.7481,243.598,378.7481,239.598" style="stroke:#181818;stroke-width:1;"/><line style="stroke:#181818;stroke-width:1;stroke-dasharray:2,2;" x1="376.7481" x2="518.2347" y1="239.598" y2="239.598"/><text fill="#000000" font-family="sans-serif" font-size="13" lengthAdjust="spacing" textLength="84.4351" x="388.7481" y="233.789">Error de pago</text></g><g class="message" data-participant-1="Pedidos" data-participant-2="FE"><polygon fill="#181818" points="220.181,267.304,210.181,271.304,220.181,275.304,216.181,271.304" style="stroke:#181818;stroke-width:1;"/><line style="stroke:#181818;stroke-width:1;stroke-dasharray:2,2;" x1="214.181" x2="370.7481" y1="271.304" y2="271.304"/><text fill="#000000" font-family="sans-serif" font-size="13" lengthAdjust="spacing" textLength="138.5671" x="226.181" y="265.495">402 Payment Required</text></g><g class="message" data-participant-1="FE" data-participant-2="Usuario"><polygon fill="#181818" points="59.6549,299.01,49.6549,303.01,59.6549,307.01,55.6549,303.01" style="stroke:#181818;stroke-width:1;"/><line style="stroke:#181818;stroke-width:1;stroke-dasharray:2,2;" x1="53.6549" x2="208.181" y1="303.01" y2="303.01"/><text fill="#000000" font-family="sans-serif" font-size="13" lengthAdjust="spacing" textLength="136.5261" x="65.6549" y="297.201">Mostrar error de pago</text></g><g class="message" data-participant-1="Pago" data-participant-2="Pedidos"><polygon fill="#181818" points="382.7481,337.716,372.7481,341.716,382.7481,345.716,378.7481,341.716" style="stroke:#181818;stroke-width:1;"/><line style="stroke:#181818;stroke-width:1;stroke-dasharray:2,2;" x1="376.7481" x2="518.2347" y1="341.716" y2="341.716"/><text fill="#000000" font-family="sans-serif" font-size="13" lengthAdjust="spacing" textLength="91.1041" x="388.7481" y="335.907">Pago aceptado</text></g><g class="message" data-participant-1="Pedidos" data-participant-2="Notif"><polygon fill="#181818" points="674.9511,369.4221,684.9511,373.4221,674.9511,377.4221,678.9511,373.4221" style="stroke:#181818;stroke-width:1;"/><line style="stroke:#181818;stroke-width:1;stroke-dasharray:2,2;" x1="371.7481" x2="680.9511" y1="373.4221" y2="373.4221"/><text fill="#000000" font-family="sans-serif" font-size="13" lengthAdjust="spacing" textLength="158.4051" x="378.7481" y="367.6131">Enviar email confirmaci&#243;n</text></g><g class="message" data-participant-1="Notif" data-participant-2="Pedidos"><polygon fill="#181818" points="382.7481,401.1281,372.7481,405.1281,382.7481,409.1281,378.7481,405.1281" style="stroke:#181818;stroke-width:1;"/><line style="stroke:#181818;stroke-width:1;stroke-dasharray:2,2;" x1="376.7481" x2="685.9511" y1="405.1281" y2="405.1281"/><text fill="#000000" font-family="sans-serif" font-size="13" lengthAdjust="spacing" textLength="18.2" x="388.7481" y="399.3191">OK</text></g><g class="message" data-participant-1="Pedidos" data-participant-2="FE"><polygon fill="#181818" points="220.181,432.8341,210.181,436.8341,220.181,440.8341,216.181,436.8341" style="stroke:#181818;stroke-width:1;"/><line style="stroke:#181818;stroke-width:1;stroke-dasharray:2,2;" x1="214.181" x2="370.7481" y1="436.8341" y2="436.8341"/><text fill="#000000" font-family="sans-serif" font-size="13" lengthAdjust="spacing" textLength="116.4281" x="226.181" y="431.0251">Pedido confirmado</text></g><g class="message" data-participant-1="FE" data-participant-2="Usuario"><polygon fill="#181818" points="59.6549,464.5401,49.6549,468.5401,59.6549,472.5401,55.6549,468.5401" style="stroke:#181818;stroke-width:1;"/><line style="stroke:#181818;stroke-width:1;stroke-dasharray:2,2;" x1="53.6549" x2="208.181" y1="468.5401" y2="468.5401"/><text fill="#000000" font-family="sans-serif" font-size="13" lengthAdjust="spacing" textLength="132.2621" x="65.6549" y="462.7311">Mostrar confirmaci&#243;n</text></g><!--SRC=[TP51JiGm34NtEOKr6rOL2B6Q1HiqtI2OYe43cDI5G9iK9nq9hiKHk1XEqWv43Bla_s_dsK4T7CE3dv2DKoDoCDgCQ0EiQdOsa6rNW1xgJMdkYFToST0IDDIQrlcKcyzbk46FJ3scC3ujKJdzt_JM1TCPZNArb0kIfDGC2zMbKC4Qhfpj30_8CAR7bQZYpIGIQBQxUpZLJCXPL8iNOq8HC-mq-TWZKgb72RzcZqa_umTA5MIXAfflc6M10fmAuU1K2zx5sRdKlGya4zxHssIOMib5I8aimwpXnld00a15Gzc_KYTGzzEB0-jap1wy0UgJ3Tr4W9h64FcEq2Nf9_2BBIqpyjkzYQyEQ7hGyogr-VgqAaVAXjjhzMV2B1oAvnyuEbpnm3S0]--></g></svg>