<svg xmlns="http://www.w3.org/2000/svg" xmlns:xlink="http://www.w3.org/1999/xlink" contentStyleType="text/css" data-diagram-type="SEQUENCE" height="474px" preserveAspectRatio="none" style="width:689px;height:474px;background:#FFFFFF;" version="1.1" viewBox="0 0 689 474" width="689px" zoomAndPan="magnify"><defs/><g><rect fill="none" height="146.5301" style="stroke:#000000;stroke-width:1.5;" width="430.2286" x="253.3064" y="164.4799"/><g><title>Usuario</title><rect fill="#000000" fill-opacity="0.00000" height="307.3541" width="8" x="29.6549" y="84.0679"/><line style="stroke:#181818;stroke-width:0.5;stroke-dasharray:5,5;" x1="33" x2="33" y1="84.0679" y2="391.4221"/></g><g><title>Frontend</title><rect fill="#000000" fill-opacity="0.00000" height="307.3541" width="8" x="185.917" y="84.0679"/><line style="stroke:#181818;stroke-width:0.5;stroke-dasharray:5,5;" x1="189.7261" x2="189.7261" y1="84.0679" y2="391.4221"/></g><g><title>Servicio de Carrito</title><rect fill="#000000" fill-opacity="0.00000" height="307.3541" width="8" x="326.3451" y="84.0679"/><line style="stroke:#181818;stroke-width:0.5;stroke-dasharray:5,5;" x1="330.3064" x2="330.3064" y1="84.0679" y2="391.4221"/></g><g><title>Servicio de Inventario</title><rect fill="#000000" fill-opacity="0.00000" height="307.3541" width="8" x="481.6366" y="84.0679"/><line style="stroke:#181818;stroke-width:0.5;stroke-dasharray:5,5;" x1="485.3839" x2="485.3839" y1="84.0679" y2="391.4221"/></g><g><title>Base de Datos</title><rect fill="#000000" fill-opacity="0.00000" height="307.3541" width="8" x="619.7122" y="84.0679"/><line style="stroke:#181818;stroke-width:0.5;stroke-dasharray:5,5;" x1="622.8893" x2="622.8893" y1="84.0679" y2="391.4221"/></g><g class="participant participant-head" data-participant="Usuario"><text fill="#000000" font-family="sans-serif" font-size="14" lengthAdjust="spacing" textLength="51.3098" x="5" y="79.9659">Usuario</text><ellipse cx="33.6549" cy="13.5" fill="#E2E2F0" rx="8" ry="8" style="stroke:#181818;stroke-width:0.5;"/><path d="M33.6549,21.5 L33.6549,48.5 M20.6549,29.5 L46.6549,29.5 M33.6549,48.5 L20.6549,63.5 M33.6549,48.5 L46.6549,63.5" fill="none" style="stroke:#181818;stroke-width:0.5;"/></g><g class="participant participant-tail" data-participant="Usuario"><text fill="#000000" font-family="sans-serif" font-size="14" lengthAdjust="spacing" textLength="51.3098" x="5" y="405.388">Usuario</text><ellipse cx="33.6549" cy="417.99" fill="#E2E2F0" rx="8" ry="8" style="stroke:#181818;stroke-width:0.5;"/><path d="M33.6549,425.99 L33.6549,452.99 M20.6549,433.99 L46.6549,433.99 M33.6549,452.99 L20.6549,467.99 M33.6549,452.99 L46.6549,467.99" fill="none" style="stroke:#181818;stroke-width:0.5;"/></g><g class="participant participant-head" data-participant="FE"><rect fill="#E2E2F0" height="33.0679" rx="2.5" ry="2.5" style="stroke:#181818;stroke-width:0.5;" width="74.3818" x="152.7261" y="50"/><text fill="#000000" font-family="sans-serif" font-size="14" lengthAdjust="spacing" textLength="60.3818" x="159.7261" y="71.9659">Frontend</text></g><g class="participant participant-tail" data-participant="FE"><rect fill="#E2E2F0" height="33.0679" rx="2.5" ry="2.5" style="stroke:#181818;stroke-width:0.5;" width="74.3818" x="152.7261" y="390.4221"/><text fill="#000000" font-family="sans-serif" font-size="14" lengthAdjust="spacing" textLength="60.3818" x="159.7261" y="412.388">Frontend</text></g><g class="participant participant-head" data-participant="Cart"><rect fill="#E2E2F0" height="33.0679" rx="2.5" ry="2.5" style="stroke:#181818;stroke-width:0.5;" width="134.0775" x="263.3064" y="50"/><text fill="#000000" font-family="sans-serif" font-size="14" lengthAdjust="spacing" textLength="120.0775" x="270.3064" y="71.9659">Servicio de Carrito</text></g><g class="participant participant-tail" data-participant="Cart"><rect fill="#E2E2F0" height="33.0679" rx="2.5" ry="2.5" style="stroke:#181818;stroke-width:0.5;" width="134.0775" x="263.3064" y="390.4221"/><text fill="#000000" font-family="sans-serif" font-size="14" lengthAdjust="spacing" textLength="120.0775" x="270.3064" y="412.388">Servicio de Carrito</text></g><g class="participant participant-head" data-participant="Inv"><rect fill="#E2E2F0" height="33.0679" rx="2.5" ry="2.5" style="stroke:#181818;stroke-width:0.5;" width="156.5054" x="407.3839" y="50"/><text fill="#000000" font-family="sans-serif" font-size="14" lengthAdjust="spacing" textLength="142.5054" x="414.3839" y="71.9659">Servicio de Inventario</text></g><g class="participant participant-tail" data-participant="Inv"><rect fill="#E2E2F0" height="33.0679" rx="2.5" ry="2.5" style="stroke:#181818;stroke-width:0.5;" width="156.5054" x="407.3839" y="390.4221"/><text fill="#000000" font-family="sans-serif" font-size="14" lengthAdjust="spacing" textLength="142.5054" x="414.3839" y="412.388">Servicio de Inventario</text></g><g class="participant participant-head" data-participant="DB"><text fill="#000000" font-family="sans-serif" font-size="14" lengthAdjust="spacing" textLength="93.6456" x="573.8893" y="79.9659">Base de Datos</text><path d="M605.7122,29 C605.7122,19 623.7122,19 623.7122,19 C623.7122,19 641.7122,19 641.7122,29 L641.7122,55 C641.7122,65 623.7122,65 623.7122,65 C623.7122,65 605.7122,65 605.7122,55 L605.7122,29" fill="#E2E2F0" style="stroke:#181818;stroke-width:0.5;"/><path d="M605.7122,29 C605.7122,39 623.7122,39 623.7122,39 C623.7122,39 641.7122,39 641.7122,29" fill="none" style="stroke:#181818;stroke-width:0.5;"/></g><g class="participant participant-tail" data-participant="DB"><text fill="#000000" font-family="sans-serif" font-size="14" lengthAdjust="spacing" textLength="93.6456" x="573.8893" y="405.388">Base de Datos</text><path d="M605.7122,419.49 C605.7122,409.49 623.7122,409.49 623.7122,409.49 C623.7122,409.49 641.7122,409.49 641.7122,419.49 L641.7122,445.49 C641.7122,455.49 623.7122,455.49 623.7122,455.49 C623.7122,455.49 605.7122,455.49 605.7122,445.49 L605.7122,419.49" fill="#E2E2F0" style="stroke:#181818;stroke-width:0.5;"/><path d="M605.7122,419.49 C605.7122,429.49 623.7122,429.49 623.7122,429.49 C623.7122,429.49 641.7122,429.49 641.7122,419.49" fill="none" style="stroke:#181818;stroke-width:0.5;"/></g><g class="message" data-participant-1="Usuario" data-participant-2="FE"><polygon fill="#181818" points="177.917,113.7739,187.917,117.7739,177.917,121.7739,181.917,117.7739" style="stroke:#181818;stroke-width:1;"/><line style="stroke:#181818;stroke-width:1;" x1="33.6549" x2="183.917" y1="117.7739" y2="117.7739"/><text fill="#000000" font-family="sans-serif" font-size="13" lengthAdjust="spacing" textLength="112.4241" x="40.6549" y="111.9649">Confirmar compra</text></g><g class="message" data-participant-1="FE" data-participant-2="Cart"><polygon fill="#181818" points="318.3451,145.4799,328.3451,149.4799,318.3451,153.4799,322.3451,149.4799" style="stroke:#181818;stroke-width:1;"/><line style="stroke:#181818;stroke-width:1;" x1="189.917" x2="324.3451" y1="149.4799" y2="149.4799"/><text fill="#000000" font-family="sans-serif" font-size="13" lengthAdjust="spacing" textLength="95.9791" x="196.917" y="143.6709">POST /checkout</text></g><path d="M253.3064,164.4799 L581.3295,164.4799 L581.3295,174.186 L571.3295,184.186 L253.3064,184.186 L253.3064,164.4799" fill="#EEEEEE" style="stroke:#000000;stroke-width:1.5;"/><rect fill="none" height="146.5301" style="stroke:#000000;stroke-width:1.5;" width="430.2286" x="253.3064" y="164.4799"/><text fill="#000000" font-family="sans-serif" font-size="13" font-weight="bold" lengthAdjust="spacing" textLength="283.0232" x="268.3064" y="179.377">Transacci&#243;n at&#243;mica: verificaci&#243;n y registro</text><g class="message" data-participant-1="Cart" data-participant-2="Inv"><polygon fill="#181818" points="473.6366,203.892,483.6366,207.892,473.6366,211.892,477.6366,207.892" style="stroke:#181818;stroke-width:1;"/><line style="stroke:#181818;stroke-width:1;" x1="330.3451" x2="479.6366" y1="207.892" y2="207.892"/><text fill="#000000" font-family="sans-serif" font-size="13" lengthAdjust="spacing" textLength="85.9301" x="337.3451" y="202.083">Verificar stock</text></g><g class="message" data-participant-1="Inv" data-participant-2="Cart"><polygon fill="#181818" points="341.3451,235.598,331.3451,239.598,341.3451,243.598,337.3451,239.598" style="stroke:#181818;stroke-width:1;"/><line style="stroke:#181818;stroke-width:1;stroke-dasharray:2,2;" x1="335.3451" x2="484.6366" y1="239.598" y2="239.598"/><text fill="#000000" font-family="sans-serif" font-size="13" lengthAdjust="spacing" textLength="99.7621" x="347.3451" y="233.789">Stock disponible</text></g><g class="message" data-participant-1="Cart" data-participant-2="DB"><polygon fill="#181818" points="611.7122,267.304,621.7122,271.304,611.7122,275.304,615.7122,271.304" style="stroke:#181818;stroke-width:1;"/><line style="stroke:#181818;stroke-width:1;" x1="330.3451" x2="617.7122" y1="271.304" y2="271.304"/><text fill="#000000" font-family="sans-serif" font-size="13" lengthAdjust="spacing" textLength="210.1972" x="337.3451" y="265.495">Descontar stock y registrar pedido</text></g><g class="message" data-participant-1="DB" data-participant-2="Cart"><polygon fill="#181818" points="341.3451,299.01,331.3451,303.01,341.3451,307.01,337.3451,303.01" style="stroke:#181818;stroke-width:1;"/><line style="stroke:#181818;stroke-width:1;stroke-dasharray:2,2;" x1="335.3451" x2="622.7122" y1="303.01" y2="303.01"/><text fill="#000000" font-family="sans-serif" font-size="13" lengthAdjust="spacing" textLength="18.2" x="347.3451" y="297.201">OK</text></g><g class="message" data-participant-1="Cart" data-participant-2="FE"><polygon fill="#181818" points="200.917,337.716,190.917,341.716,200.917,345.716,196.917,341.716" style="stroke:#181818;stroke-width:1;"/><line style="stroke:#181818;stroke-width:1;stroke-dasharray:2,2;" x1="194.917" x2="329.3451" y1="341.716" y2="341.716"/><text fill="#000000" font-family="sans-serif" font-size="13" lengthAdjust="spacing" textLength="116.4281" x="206.917" y="335.907">Pedido confirmado</text></g><g class="message" data-participant-1="FE" data-participant-2="Usuario"><polygon fill="#181818" points="44.6549,369.4221,34.6549,373.4221,44.6549,377.4221,40.6549,373.4221" style="stroke:#181818;stroke-width:1;"/><line style="stroke:#181818;stroke-width:1;stroke-dasharray:2,2;" x1="38.6549" x2="188.917" y1="373.4221" y2="373.4221"/><text fill="#000000" font-family="sans-serif" font-size="13" lengthAdjust="spacing" textLength="132.2621" x="50.6549" y="367.6131">Mostrar confirmaci&#243;n</text></g><!--SRC=[TL0nRiCm3Dpr2i9xqDr31ySDK1H50ZZjpaXAAgGM1Oesq7Vb2VbOAJj6qg6B8DsTxdX4AyJmaGVaG2OXIx0XOHIeDanHV7GLO8RDor-oyppgWy1vM2Dp49fqUfV_bQznz55Ar2JMft4eUC3ieMhAgQ8MXVB4juqnjz5WzQmpG0rhYiV0FJ9OwXEZKLIvagliRjljuSb-UNkcGOmvCGq9zemnexNXUec0ShtqmM8De-TmrDkC_m3xKyZ2P62sKrkTK5q_RqA6B6JFoXTyTO_j2Wmkv4Gn7BxzWqFRAD_wRAaKdmtkMOeaxu8hcQfyiDo-6TszCRFFqdutYRNwl0JzL-ehkwofXdUQVHVDrEuN]--></g></svg>