<svg xmlns="http://www.w3.org/2000/svg" xmlns:xlink="http://www.w3.org/1999/xlink" contentStyleType="text/css" data-diagram-type="SEQUENCE" height="570px" preserveAspectRatio="none" style="width:1120px;height:570px;background:#FFFFFF;" version="1.1" viewBox="0 0 1120 570" width="1120px" zoomAndPan="magnify"><defs/><g><rect fill="none" height="178.2361" style="stroke:#000000;stroke-width:1.5;" width="611.9594" x="502.8353" y="227.892"/><g><title>Usuario1</title><rect fill="#000000" fill-opacity="0.00000" height="402.4722" width="8" x="33.6589" y="84.0679"/><line style="stroke:#181818;stroke-width:0.5;stroke-dasharray:5,5;" x1="37" x2="37" y1="84.0679" y2="486.5401"/></g><g><title>Usuario2</title><rect fill="#000000" fill-opacity="0.00000" height="402.4722" width="8" x="108.9767" y="84.0679"/><line style="stroke:#181818;stroke-width:0.5;stroke-dasharray:5,5;" x1="112.3178" x2="112.3178" y1="84.0679" y2="486.5401"/></g><g><title>Frontend</title><rect fill="#000000" fill-opacity="0.00000" height="402.4722" width="8" x="257.6728" y="84.0679"/><line style="stroke:#181818;stroke-width:0.5;stroke-dasharray:5,5;" x1="261.4819" x2="261.4819" y1="84.0679" y2="486.5401"/></g><g><title>Servicio de Pedidos</title><rect fill="#000000" fill-opacity="0.00000" height="402.4722" width="8" x="579.36" y="84.0679"/><line style="stroke:#181818;stroke-width:0.5;stroke-dasharray:5,5;" x1="582.8353" x2="582.8353" y1="84.0679" y2="486.5401"/></g><g><title>Servicio de Inventario</title><rect fill="#000000" fill-opacity="0.00000" height="402.4722" width="8" x="738.1375" y="84.0679"/><line style="stroke:#181818;stroke-width:0.5;stroke-dasharray:5,5;" x1="741.8848" x2="741.8848" y1="84.0679" y2="486.5401"/></g><g><title>Base de Datos</title><rect fill="#000000" fill-opacity="0.00000" height="402.4722" width="8" x="1050.9718" y="84.0679"/><line style="stroke:#181818;stroke-width:0.5;stroke-dasharray:5,5;" x1="1054.149" x2="1054.149" y1="84.0679" y2="486.5401"/></g><g class="participant participant-head" data-participant="Usuario1"><text fill="#000000" font-family="sans-serif" font-size="14" lengthAdjust="spacing" textLength="59.3178" x="5" y="79.9659">Usuario1</text><ellipse cx="37.6589" cy="13.5" fill="#E2E2F0" rx="8" ry="8" style="stroke:#181818;stroke-width:0.5;"/><path d="M37.6589,21.5 L37.6589,48.5 M24.6589,29.5 L50.6589,29.5 M37.6589,48.5 L24.6589,63.5 M37.6589,48.5 L50.6589,63.5" fill="none" style="stroke:#181818;stroke-width:0.5;"/></g><g class="participant participant-tail" data-participant="Usuario1"><text fill="#000000" font-family="sans-serif" font-size="14" lengthAdjust="spacing" textLength="59.3178" x="5" y="500.5061">Usuario1</text><ellipse cx="37.6589" cy="513.108" fill="#E2E2F0" rx="8" ry="8" style="stroke:#181818;stroke-width:0.5;"/><path d="M37.6589,521.108 L37.6589,548.108 M24.6589,529.108 L50.6589,529.108 M37.6589,548.108 L24.6589,563.108 M37.6589,548.108 L50.6589,563.108" fill="none" style="stroke:#181818;stroke-width:0.5;"/></g><g class="participant participant-head" data-participant="Usuario2"><text fill="#000000" font-family="sans-serif" font-size="14" lengthAdjust="spacing" textLength="59.3178" x="80.3178" y="79.9659">Usuario2</text><ellipse cx="112.9767" cy="13.5" fill="#E2E2F0" rx="8" ry="8" style="stroke:#181818;stroke-width:0.5;"/><path d="M112.9767,21.5 L112.9767,48.5 M99.9767,29.5 L125.9767,29.5 M112.9767,48.5 L99.9767,63.5 M112.9767,48.5 L125.9767,63.5" fill="none" style="stroke:#181818;stroke-width:0.5;"/></g><g class="participant participant-tail" data-participant="Usuario2"><text fill="#000000" font-family="sans-serif" font-size="14" lengthAdjust="spacing" textLength="59.3178" x="80.3178" y="500.5061">Usuario2</text><ellipse cx="112.9767" cy="513.108" fill="#E2E2F0" rx="8" ry="8" style="stroke:#181818;stroke-width:0.5;"/><path d="M112.9767,521.108 L112.9767,548.108 M99.9767,529.108 L125.9767,529.108 M112.9767,548.108 L99.9767,563.108 M112.9767,548.108 L125.9767,563.108" fill="none" style="stroke:#181818;stroke-width:0.5;"/></g><g class="participant participant-head" data-participant="FE"><rect fill="#E2E2F0" height="33.0679" rx="2.5" ry="2.5" style="stroke:#181818;stroke-width:0.5;" width="74.3818" x="224.4819" y="50"/><text fill="#000000" font-family="sans-serif" font-size="14" lengthAdjust="spacing" textLength="60.3818" x="231.4819" y="71.9659">Frontend</text></g><g class="participant participant-tail" data-participant="FE"><rect fill="#E2E2F0" height="33.0679" rx="2.5" ry="2.5" style="stroke:#181818;stroke-width:0.5;" width="74.3818" x="224.4819" y="485.5401"/><text fill="#000000" font-family="sans-serif" font-size="14" lengthAdjust="spacing" textLength="60.3818" x="231.4819" y="507.5061">Frontend</text></g><g class="participant participant-head" data-participant="Pedidos"><rect fill="#E2E2F0" height="33.0679" rx="2.5" ry="2.5" style="stroke:#181818;stroke-width:0.5;" width="141.0495" x="512.8353" y="50"/><text fill="#000000" font-family="sans-serif" font-size="14" lengthAdjust="spacing" textLength="127.0495" x="519.8353" y="71.9659">Servicio de Pedidos</text></g><g class="participant participant-tail" data-participant="Pedidos"><rect fill="#E2E2F0" height="33.0679" rx="2.5" ry="2.5" style="stroke:#181818;stroke-width:0.5;" width="141.0495" x="512.8353" y="485.5401"/><text fill="#000000" font-family="sans-serif" font-size="14" lengthAdjust="spacing" textLength="127.0495" x="519.8353" y="507.5061">Servicio de Pedidos</text></g><g class="participant participant-head" data-participant="Inv"><rect fill="#E2E2F0" height="33.0679" rx="2.5" ry="2.5" style="stroke:#181818;stroke-width:0.5;" width="156.5054" x="663.8848" y="50"/><text fill="#000000" font-family="sans-serif" font-size="14" lengthAdjust="spacing" textLength="142.5054" x="670.8848" y="71.9659">Servicio de Inventario</text></g><g class="participant participant-tail" data-participant="Inv"><rect fill="#E2E2F0" height="33.0679" rx="2.5" ry="2.5" style="stroke:#181818;stroke-width:0.5;" width="156.5054" x="663.8848" y="485.5401"/><text fill="#000000" font-family="sans-serif" font-size="14" lengthAdjust="spacing" textLength="142.5054" x="670.8848" y="507.5061">Servicio de Inventario</text></g><g class="participant participant-head" data-participant="DB"><text fill="#000000" font-family="sans-serif" font-size="14" lengthAdjust="spacing" textLength="93.6456" x="1005.149" y="79.9659">Base de Datos</text><path d="M1036.9718,29 C1036.9718,19 1054.9718,19 1054.9718,19 C1054.9718,19 1072.9718,19 1072.9718,29 L1072.9718,55 C1072.9718,65 1054.9718,65 1054.9718,65 C1054.9718,65 1036.9718,65 1036.9718,55 L1036.9718,29" fill="#E2E2F0" style="stroke:#181818;stroke-width:0.5;"/><path d="M1036.9718,29 C1036.9718,39 1054.9718,39 1054.9718,39 C1054.9718,39 1072.9718,39 1072.9718,29" fill="none" style="stroke:#181818;stroke-width:0.5;"/></g><g class="participant participant-tail" data-participant="DB"><text fill="#000000" font-family="sans-serif" font-size="14" lengthAdjust="spacing" textLength="93.6456" x="1005.149" y="500.5061">Base de Datos</text><path d="M1036.9718,514.608 C1036.9718,504.608 1054.9718,504.608 1054.9718,504.608 C1054.9718,504.608 1072.9718,504.608 1072.9718,514.608 L1072.9718,540.608 C1072.9718,550.608 1054.9718,550.608 1054.9718,550.608 C1054.9718,550.608 1036.9718,550.608 1036.9718,540.608 L1036.9718,514.608" fill="#E2E2F0" style="stroke:#181818;stroke-width:0.5;"/><path d="M1036.9718,514.608 C1036.9718,524.608 1054.9718,524.608 1054.9718,524.608 C1054.9718,524.608 1072.9718,524.608 1072.9718,514.608" fill="none" style="stroke:#181818;stroke-width:0.5;"/></g><g class="message" data-participant-1="Usuario1" data-participant-2="FE"><polygon fill="#181818" points="249.6728,113.7739,259.6728,117.7739,249.6728,121.7739,253.6728,117.7739" style="stroke:#181818;stroke-width:1;"/><line style="stroke:#181818;stroke-width:1;" x1="37.6589" x2="255.6728" y1="117.7739" y2="117.7739"/><text fill="#000000" font-family="sans-serif" font-size="13" lengthAdjust="spacing" textLength="124.6961" x="44.6589" y="111.9649">Comprar producto X</text></g><g class="message" data-participant-1="Usuario2" data-participant-2="FE"><polygon fill="#181818" points="249.6728,145.4799,259.6728,149.4799,249.6728,153.4799,253.6728,149.4799" style="stroke:#181818;stroke-width:1;"/><line style="stroke:#181818;stroke-width:1;" x1="112.9767" x2="255.6728" y1="149.4799" y2="149.4799"/><text fill="#000000" font-family="sans-serif" font-size="13" lengthAdjust="spacing" textLength="124.6961" x="119.9767" y="143.6709">Comprar producto X</text></g><g class="message" data-participant-1="FE" data-participant-2="Pedidos"><polygon fill="#181818" points="571.36,177.186,581.36,181.186,571.36,185.186,575.36,181.186" style="stroke:#181818;stroke-width:1;"/><line style="stroke:#181818;stroke-width:1;" x1="261.6728" x2="577.36" y1="181.186" y2="181.186"/><text fill="#000000" font-family="sans-serif" font-size="13" lengthAdjust="spacing" textLength="168.5842" x="268.6728" y="175.377">Solicitud compra (Usuario1)</text></g><g class="message" data-participant-1="FE" data-participant-2="Pedidos"><polygon fill="#181818" points="571.36,208.892,581.36,212.892,571.36,216.892,575.36,212.892" style="stroke:#181818;stroke-width:1;"/><line style="stroke:#181818;stroke-width:1;" x1="261.6728" x2="577.36" y1="212.892" y2="212.892"/><text fill="#000000" font-family="sans-serif" font-size="13" lengthAdjust="spacing" textLength="168.5842" x="268.6728" y="207.083">Solicitud compra (Usuario2)</text></g><path d="M502.8353,227.892 L592.4903,227.892 L592.4903,237.598 L582.4903,247.598 L502.8353,247.598 L502.8353,227.892" fill="#EEEEEE" style="stroke:#000000;stroke-width:1.5;"/><rect fill="none" height="178.2361" style="stroke:#000000;stroke-width:1.5;" width="611.9594" x="502.8353" y="227.892"/><text fill="#000000" font-family="sans-serif" font-size="13" font-weight="bold" lengthAdjust="spacing" textLength="44.655" x="517.8353" y="242.789">critical</text><text fill="#000000" font-family="sans-serif" font-size="11" font-weight="bold" lengthAdjust="spacing" textLength="129.6451" x="607.4903" y="241.6509">[Actualizaci&#243;n de stock]</text><g class="message" data-participant-1="Pedidos" data-participant-2="Inv"><polygon fill="#181818" points="730.1375,267.304,740.1375,271.304,730.1375,275.304,734.1375,271.304" style="stroke:#181818;stroke-width:1;"/><line style="stroke:#181818;stroke-width:1;" x1="583.36" x2="736.1375" y1="271.304" y2="271.304"/><text fill="#000000" font-family="sans-serif" font-size="13" lengthAdjust="spacing" textLength="85.9301" x="590.36" y="265.495">Verificar stock</text></g><g class="message" data-participant-1="Inv" data-participant-2="DB"><polygon fill="#181818" points="1042.9718,299.01,1052.9718,303.01,1042.9718,307.01,1046.9718,303.01" style="stroke:#181818;stroke-width:1;"/><line style="stroke:#181818;stroke-width:1;" x1="742.1375" x2="1048.9718" y1="303.01" y2="303.01"/><text fill="#000000" font-family="sans-serif" font-size="13" lengthAdjust="spacing" textLength="283.3743" x="749.1375" y="297.201">SELECT cantidad FROM productos WHERE id=X</text></g><g class="message" data-participant-1="DB" data-participant-2="Inv"><polygon fill="#181818" points="753.1375,330.716,743.1375,334.716,753.1375,338.716,749.1375,334.716" style="stroke:#181818;stroke-width:1;"/><line style="stroke:#181818;stroke-width:1;stroke-dasharray:2,2;" x1="747.1375" x2="1053.9718" y1="334.716" y2="334.716"/><text fill="#000000" font-family="sans-serif" font-size="13" lengthAdjust="spacing" textLength="67.7691" x="759.1375" y="328.907">cantidad=1</text></g><g class="message" data-participant-1="Inv" data-participant-2="DB"><polygon fill="#181818" points="1042.9718,362.4221,1052.9718,366.4221,1042.9718,370.4221,1046.9718,366.4221" style="stroke:#181818;stroke-width:1;"/><line style="stroke:#181818;stroke-width:1;" x1="742.1375" x2="1048.9718" y1="366.4221" y2="366.4221"/><text fill="#000000" font-family="sans-serif" font-size="13" lengthAdjust="spacing" textLength="288.8343" x="749.1375" y="360.6131">UPDATE productos SET cantidad=0 WHERE id=X</text></g><g class="message" data-participant-1="DB" data-participant-2="Inv"><polygon fill="#181818" points="753.1375,394.1281,743.1375,398.1281,753.1375,402.1281,749.1375,398.1281" style="stroke:#181818;stroke-width:1;"/><line style="stroke:#181818;stroke-width:1;stroke-dasharray:2,2;" x1="747.1375" x2="1053.9718" y1="398.1281" y2="398.1281"/><text fill="#000000" font-family="sans-serif" font-size="13" lengthAdjust="spacing" textLength="18.2" x="759.1375" y="392.3191">OK</text></g><g class="message" data-participant-1="Pedidos" data-participant-2="FE"><polygon fill="#181818" points="272.6728,432.8341,262.6728,436.8341,272.6728,440.8341,268.6728,436.8341" style="stroke:#181818;stroke-width:1;"/><line style="stroke:#181818;stroke-width:1;stroke-dasharray:2,2;" x1="266.6728" x2="582.36" y1="436.8341" y2="436.8341"/><text fill="#000000" font-family="sans-serif" font-size="13" lengthAdjust="spacing" textLength="257.3092" x="278.6728" y="431.0251">Confirmaci&#243;n (Usuario que entr&#243; primero)</text></g><g class="message" data-participant-1="Pedidos" data-participant-2="FE"><polygon fill="#181818" points="272.6728,464.5401,262.6728,468.5401,272.6728,472.5401,268.6728,468.5401" style="stroke:#181818;stroke-width:1;"/><line style="stroke:#181818;stroke-width:1;stroke-dasharray:2,2;" x1="266.6728" x2="582.36" y1="468.5401" y2="468.5401"/><text fill="#000000" font-family="sans-serif" font-size="13" lengthAdjust="spacing" textLength="297.6873" x="278.6728" y="462.7311">Error stock agotado (Usuario que entr&#243; despu&#233;s)</text></g><!--SRC=[ZPBDRi8m3CVlUGgBqtf06XmdCGbeqAPj0l6nSVMIC4Lhayv9EUoDTkOHUB6vg2ti2-rInV7FV_ll55Nq1AjG8bdV4tWQzaM15Aso1Re8dGbv5utJ7S004_arkJ2qvS23DZ0psceV3bnz_Xk-TLlZOjNkm7CeD4Pync2WCwg-3AKOQxrq94GpBNIlUGwuWh7F2qA2WhmksG6i6wP_ZX6Su7Gz8ZCBd_5OiTIW3ZHSDAsI_xFzH0X5bjrY1aCLIypiEogxtxdAIeXUlGfebLYKFRFWeo6xuI9gaUgUq-ceQYVlvNW9YlTdDMgOpASFhPS0JpToBi7gmPhhkA3RoZOLWzutnTKi7IxbYSP27lK7bsSaftU2VmCXMWl77RkDfRmssom4tae3_CQqtt4tcnlooSzQIUHhwu0lFgBslofe4ufo_n6IJm00]--></g></svg>