<svg xmlns="http://www.w3.org/2000/svg" xmlns:xlink="http://www.w3.org/1999/xlink" contentStyleType="text/css" data-diagram-type="SEQUENCE" height="426px" preserveAspectRatio="none" style="width:553px;height:426px;background:#FFFFFF;" version="1.1" viewBox="0 0 553 426" width="553px" zoomAndPan="magnify"><defs/><g><g><title>Usuario</title><rect fill="#000000" fill-opacity="0.00000" height="259.2862" width="8" x="29.6549" y="84.0679"/><line style="stroke:#181818;stroke-width:0.5;stroke-dasharray:5,5;" x1="33" x2="33" y1="84.0679" y2="343.3541"/></g><g><title>Frontend</title><rect fill="#000000" fill-opacity="0.00000" height="259.2862" width="8" x="185.917" y="84.0679"/><line style="stroke:#181818;stroke-width:0.5;stroke-dasharray:5,5;" x1="189.7261" x2="189.7261" y1="84.0679" y2="343.3541"/></g><g><title>Servicio de Pedidos</title><rect fill="#000000" fill-opacity="0.00000" height="259.2862" width="8" x="326.3451" y="84.0679"/><line style="stroke:#181818;stroke-width:0.5;stroke-dasharray:5,5;" x1="329.8204" x2="329.8204" y1="84.0679" y2="343.3541"/></g><g><title>Pasarela de Pagos</title><rect fill="#000000" fill-opacity="0.00000" height="259.2862" width="8" x="473.8317" y="84.0679"/><line style="stroke:#181818;stroke-width:0.5;stroke-dasharray:5,5;" x1="476.8699" x2="476.8699" y1="84.0679" y2="343.3541"/></g><g class="participant participant-head" data-participant="Usuario"><text fill="#000000" font-family="sans-serif" font-size="14" lengthAdjust="spacing" textLength="51.3098" x="5" y="79.9659">Usuario</text><ellipse cx="33.6549" cy="13.5" fill="#E2E2F0" rx="8" ry="8" style="stroke:#181818;stroke-width:0.5;"/><path d="M33.6549,21.5 L33.6549,48.5 M20.6549,29.5 L46.6549,29.5 M33.6549,48.5 L20.6549,63.5 M33.6549,48.5 L46.6549,63.5" fill="none" style="stroke:#181818;stroke-width:0.5;"/></g><g class="participant participant-tail" data-participant="Usuario"><text fill="#000000" font-family="sans-serif" font-size="14" lengthAdjust="spacing" textLength="51.3098" x="5" y="357.3201">Usuario</text><ellipse cx="33.6549" cy="369.9221" fill="#E2E2F0" rx="8" ry="8" style="stroke:#181818;stroke-width:0.5;"/><path d="M33.6549,377.9221 L33.6549,404.9221 M20.6549,385.9221 L46.6549,385.9221 M33.6549,404.9221 L20.6549,419.9221 M33.6549,404.9221 L46.6549,419.9221" fill="none" style="stroke:#181818;stroke-width:0.5;"/></g><g class="participant participant-head" data-participant="FE"><rect fill="#E2E2F0" height="33.0679" rx="2.5" ry="2.5" style="stroke:#181818;stroke-width:0.5;" width="74.3818" x="152.7261" y="50"/><text fill="#000000" font-family="sans-serif" font-size="14" lengthAdjust="spacing" textLength="60.3818" x="159.7261" y="71.9659">Frontend</text></g><g class="participant participant-tail" data-participant="FE"><rect fill="#E2E2F0" height="33.0679" rx="2.5" ry="2.5" style="stroke:#181818;stroke-width:0.5;" width="74.3818" x="152.7261" y="342.3541"/><text fill="#000000" font-family="sans-serif" font-size="14" lengthAdjust="spacing" textLength="60.3818" x="159.7261" y="364.3201">Frontend</text></g><g class="participant participant-head" data-participant="Pedidos"><rect fill="#E2E2F0" height="33.0679" rx="2.5" ry="2.5" style="stroke:#181818;stroke-width:0.5;" width="141.0495" x="259.8204" y="50"/><text fill="#000000" font-family="sans-serif" font-size="14" lengthAdjust="spacing" textLength="127.0495" x="266.8204" y="71.9659">Servicio de Pedidos</text></g><g class="participant participant-tail" data-participant="Pedidos"><rect fill="#E2E2F0" height="33.0679" rx="2.5" ry="2.5" style="stroke:#181818;stroke-width:0.5;" width="141.0495" x="259.8204" y="342.3541"/><text fill="#000000" font-family="sans-serif" font-size="14" lengthAdjust="spacing" textLength="127.0495" x="266.8204" y="364.3201">Servicio de Pedidos</text></g><g class="participant participant-head" data-participant="Pago"><rect fill="#E2E2F0" height="33.0679" rx="2.5" ry="2.5" style="stroke:#181818;stroke-width:0.5;" width="133.9236" x="410.8699" y="50"/><text fill="#000000" font-family="sans-serif" font-size="14" lengthAdjust="spacing" textLength="119.9236" x="417.8699" y="71.9659">Pasarela de Pagos</text></g><g class="participant participant-tail" data-participant="Pago"><rect fill="#E2E2F0" height="33.0679" rx="2.5" ry="2.5" style="stroke:#181818;stroke-width:0.5;" width="133.9236" x="410.8699" y="342.3541"/><text fill="#000000" font-family="sans-serif" font-size="14" lengthAdjust="spacing" textLength="119.9236" x="417.8699" y="364.3201">Pasarela de Pagos</text></g><g class="message" data-participant-1="Usuario" data-participant-2="FE"><polygon fill="#181818" points="177.917,113.7739,187.917,117.7739,177.917,121.7739,181.917,117.7739" style="stroke:#181818;stroke-width:1;"/><line style="stroke:#181818;stroke-width:1;" x1="33.6549" x2="183.917" y1="117.7739" y2="117.7739"/><text fill="#000000" font-family="sans-serif" font-size="13" lengthAdjust="spacing" textLength="112.4241" x="40.6549" y="111.9649">Confirmar compra</text></g><g class="message" data-participant-1="FE" data-participant-2="Pedidos"><polygon fill="#181818" points="318.3451,145.4799,328.3451,149.4799,318.3451,153.4799,322.3451,149.4799" style="stroke:#181818;stroke-width:1;"/><line style="stroke:#181818;stroke-width:1;" x1="189.917" x2="324.3451" y1="149.4799" y2="149.4799"/><text fill="#000000" font-family="sans-serif" font-size="13" lengthAdjust="spacing" textLength="114.6081" x="196.917" y="143.6709">POST /crearPedido</text></g><g class="message" data-participant-1="Pedidos" data-participant-2="Pago"><polygon fill="#181818" points="465.8317,177.186,475.8317,181.186,465.8317,185.186,469.8317,181.186" style="stroke:#181818;stroke-width:1;"/><line style="stroke:#181818;stroke-width:1;" x1="330.3451" x2="471.8317" y1="181.186" y2="181.186"/><text fill="#000000" font-family="sans-serif" font-size="13" lengthAdjust="spacing" textLength="88.0881" x="337.3451" y="175.377">Procesar pago</text></g><rect fill="none" height="44.0501" style="stroke:#000000;stroke-width:1.5;" width="290.9731" x="256.8204" y="189.186"/><path d="M256.8204,189.186 L319.8204,189.186 L319.8204,198.186 L309.8204,208.186 L256.8204,208.186 L256.8204,189.186" fill="#EEEEEE" style="stroke:#000000;stroke-width:2;"/><text fill="#000000" font-family="sans-serif" font-size="13" font-weight="bold" lengthAdjust="spacing" textLength="18.616" x="269.8204" y="205.083">ref</text><text fill="#000000" font-family="sans-serif" font-size="12" lengthAdjust="spacing" textLength="186.4334" x="309.0902" y="225.0141">Ver diagrama: "Proceso de Pago"</text><g class="message" data-participant-1="Pago" data-participant-2="Pedidos"><polygon fill="#181818" points="341.3451,257.9421,331.3451,261.9421,341.3451,265.9421,337.3451,261.9421" style="stroke:#181818;stroke-width:1;"/><line style="stroke:#181818;stroke-width:1;stroke-dasharray:2,2;" x1="335.3451" x2="476.8317" y1="261.9421" y2="261.9421"/><text fill="#000000" font-family="sans-serif" font-size="13" lengthAdjust="spacing" textLength="95.4071" x="347.3451" y="256.1331">Resultado pago</text></g><g class="message" data-participant-1="Pedidos" data-participant-2="FE"><polygon fill="#181818" points="200.917,289.6481,190.917,293.6481,200.917,297.6481,196.917,293.6481" style="stroke:#181818;stroke-width:1;"/><line style="stroke:#181818;stroke-width:1;stroke-dasharray:2,2;" x1="194.917" x2="329.3451" y1="293.6481" y2="293.6481"/><text fill="#000000" font-family="sans-serif" font-size="13" lengthAdjust="spacing" textLength="116.4281" x="206.917" y="287.8391">Pedido confirmado</text></g><g class="message" data-participant-1="FE" data-participant-2="Usuario"><polygon fill="#181818" points="44.6549,321.3541,34.6549,325.3541,44.6549,329.3541,40.6549,325.3541" style="stroke:#181818;stroke-width:1;"/><line style="stroke:#181818;stroke-width:1;stroke-dasharray:2,2;" x1="38.6549" x2="188.917" y1="325.3541" y2="325.3541"/><text fill="#000000" font-family="sans-serif" font-size="13" lengthAdjust="spacing" textLength="132.2621" x="50.6549" y="319.5451">Mostrar confirmaci&#243;n</text></g><!--SRC=[LKyx3i8m3Drp2gipYBq32u8DKL5WjnA38j6uSW8NumXS33TfaBevxxsy3zh40jVuGl5iHfJahHyn96WEmY5HS0rWXCD-IVOaRtqmE8AEd7SSisw-b-8E8mezCOlnKQLw6JD7mtgh6T32ZiFTou02beTHq2YgtEohWkxKNs1ZXL0AQ2etoTHpqWXRqamOSuRG7VXDKbrM9HlWffZp-10SiDMU-HlNcetHzSPap_MYmvdYwvdGSGdu5wWZ2g0BoXRjEArGjgvjuSWnILvPDDP_F-47]--></g></svg>