<svg xmlns="http://www.w3.org/2000/svg" xmlns:xlink="http://www.w3.org/1999/xlink" contentStyleType="text/css" data-diagram-type="CLASS" height="221px" preserveAspectRatio="none" style="width:191px;height:221px;background:#FFFFFF;" version="1.1" viewBox="0 0 191 221" width="191px" zoomAndPan="magnify"><defs/><g><!--class Persona--><g class="entity" data-entity="Persona" data-source-line="1" data-uid="ent0002" id="entity_Persona"><rect fill="#F1F1F1" height="200.5433" rx="2.5" ry="2.5" style="stroke:#181818;stroke-width:0.5;" width="170.1435" x="7" y="7"/><ellipse cx="62.5798" cy="23" fill="#A9DCDF" rx="11" ry="11" style="stroke:#181818;stroke-width:1;"/><path d="M62.6892,18.3438 L61.533,23.4219 L63.8611,23.4219 L62.6892,18.3438 Z M61.2048,16.1094 L64.1892,16.1094 L67.5486,28.5 L65.0955,28.5 L64.3298,25.4375 L61.0486,25.4375 L60.2986,28.5 L57.8611,28.5 L61.2048,16.1094 Z " fill="#000000"/><text fill="#000000" font-family="sans-serif" font-size="14" font-style="italic" lengthAdjust="spacing" textLength="50.4838" x="83.0798" y="28.432">Persona</text><line style="stroke:#181818;stroke-width:0.5;" x1="8" x2="176.1435" y1="39" y2="39"/><rect fill="none" height="6" style="stroke:#C82930;stroke-width:1;" width="6" x="15" y="51.034"/><text fill="#000000" font-family="sans-serif" font-size="14" lengthAdjust="spacing" textLength="36.9319" x="27" y="57.9659">id: int</text><ellipse cx="18" cy="73.1019" fill="none" rx="3" ry="3" style="stroke:#038048;stroke-width:1;"/><text fill="#000000" font-family="sans-serif" font-size="14" lengthAdjust="spacing" textLength="67.6617" x="27" y="77.0339">dni: String</text><polygon fill="none" points="18,87.1698,22,91.1698,18,95.1698,14,91.1698" style="stroke:#B38D22;stroke-width:1;"/><text fill="#000000" font-family="sans-serif" font-size="14" lengthAdjust="spacing" textLength="99.2876" x="27" y="96.1018">nombre: String</text><polygon fill="none" points="18,107.2377,14,113.2377,22,113.2377" style="stroke:#1963A0;stroke-width:1;"/><text fill="#000000" font-family="sans-serif" font-size="14" lengthAdjust="spacing" textLength="57.6798" x="27" y="115.1697">edad: int</text><text fill="#000000" font-family="sans-serif" font-size="14" lengthAdjust="spacing" text-decoration="underline" textLength="84.3217" x="27" y="134.2376">contador: int</text><line style="stroke:#181818;stroke-width:0.5;" x1="8" x2="176.1435" y1="142.3396" y2="142.3396"/><ellipse cx="18" cy="157.3735" fill="#84BE84" rx="3" ry="3" style="stroke:#038048;stroke-width:1;"/><text fill="#000000" font-family="sans-serif" font-size="14" lengthAdjust="spacing" textLength="68.0257" x="27" y="161.3055">getId(): int</text><ellipse cx="18" cy="176.4415" fill="#84BE84" rx="3" ry="3" style="stroke:#038048;stroke-width:1;"/><text fill="#000000" font-family="sans-serif" font-size="14" lengthAdjust="spacing" textLength="113.5396" x="27" y="180.3734">setId(id: int): void</text><text fill="#000000" font-family="sans-serif" font-size="14" font-style="italic" lengthAdjust="spacing" textLength="144.1435" x="27" y="199.4414">getDescripcion(): String</text></g><!--SRC=[PO-n3i8m34JtVCL9B2343tHcOKFY2zmagYo1WsABfGhVtYJjKl1uptS-qwYMoHlyarHnZrcJ46O7NC1X08jXDvMS4OG7F2opJ3joWAJNcECFhEIB6EW_hv9PZOnzWKzY559Ubrm_D4MxXUEfIrtGBcpDglv975e8RO-KPhb6zPdVdfCqxzh5bGK0]--></g></svg>