<svg xmlns="http://www.w3.org/2000/svg" xmlns:xlink="http://www.w3.org/1999/xlink" contentStyleType="text/css" data-diagram-type="CLASS" height="544px" preserveAspectRatio="none" style="width:533px;height:544px;background:#FFFFFF;" version="1.1" viewBox="0 0 533 544" width="533px" zoomAndPan="magnify"><defs/><g><!--class Persona--><g class="entity" data-entity="Persona" data-source-line="1" data-uid="ent0002" id="entity_Persona"><rect fill="#F1F1F1" height="308.75" rx="2.5" ry="2.5" style="stroke:#181818;stroke-width:0.5;" width="400.2061" x="66.46" y="7"/><ellipse cx="234.2515" cy="23" fill="#ADD1B2" rx="11" ry="11" style="stroke:#181818;stroke-width:1;"/><path d="M237.2203,28.6406 Q236.6421,28.9375 236.0015,29.0781 Q235.3609,29.2344 234.6578,29.2344 Q232.1578,29.2344 230.8296,27.5938 Q229.5171,25.9375 229.5171,22.8125 Q229.5171,19.6875 230.8296,18.0313 Q232.1578,16.375 234.6578,16.375 Q235.3609,16.375 236.0015,16.5313 Q236.6578,16.6875 237.2203,16.9844 L237.2203,19.7031 Q236.5953,19.125 236.0015,18.8594 Q235.4078,18.5781 234.7828,18.5781 Q233.439,18.5781 232.7515,19.6563 Q232.064,20.7188 232.064,22.8125 Q232.064,24.9063 232.7515,25.9844 Q233.439,27.0469 234.7828,27.0469 Q235.4078,27.0469 236.0015,26.7813 Q236.5953,26.5 237.2203,25.9219 L237.2203,28.6406 Z " fill="#000000"/><text fill="#000000" font-family="sans-serif" font-size="14" lengthAdjust="spacing" textLength="56.123" x="254.7515" y="27.8467">Persona</text><line style="stroke:#181818;stroke-width:0.5;" x1="67.46" x2="465.6661" y1="39" y2="39"/><rect fill="none" height="6" style="stroke:#C82930;stroke-width:1;" width="6" x="74.46" y="49.6484"/><text fill="#000000" font-family="sans-serif" font-size="14" lengthAdjust="spacing" textLength="40.1953" x="86.46" y="55.9951">id: int</text><rect fill="none" height="6" style="stroke:#C82930;stroke-width:1;" width="6" x="74.46" y="65.9453"/><text fill="#000000" font-family="sans-serif" font-size="14" lengthAdjust="spacing" textLength="72.5977" x="86.46" y="72.292">dni: String</text><rect fill="none" height="6" style="stroke:#C82930;stroke-width:1;" width="6" x="74.46" y="82.2422"/><text fill="#000000" font-family="sans-serif" font-size="14" lengthAdjust="spacing" textLength="105.2803" x="86.46" y="88.5889">nombre: String</text><rect fill="none" height="6" style="stroke:#C82930;stroke-width:1;" width="6" x="74.46" y="98.5391"/><text fill="#000000" font-family="sans-serif" font-size="14" lengthAdjust="spacing" textLength="62.3848" x="86.46" y="104.8857">edad: int</text><line style="stroke:#181818;stroke-width:0.5;" x1="67.46" x2="465.6661" y1="112.1875" y2="112.1875"/><ellipse cx="77.46" cy="125.8359" fill="#84BE84" rx="3" ry="3" style="stroke:#038048;stroke-width:1;"/><text fill="#000000" font-family="sans-serif" font-size="14" lengthAdjust="spacing" textLength="374.2061" x="86.46" y="129.1826">Persona(id: int, dni: String, nombre: String, edad: int)</text><text fill="#000000" font-family="sans-serif" font-size="14" lengthAdjust="spacing" textLength="4.4502" x="86.46" y="145.4795">&#160;</text><ellipse cx="77.46" cy="158.4297" fill="#84BE84" rx="3" ry="3" style="stroke:#038048;stroke-width:1;"/><text fill="#000000" font-family="sans-serif" font-size="14" lengthAdjust="spacing" textLength="74.3477" x="86.46" y="161.7764">getId(): int</text><ellipse cx="77.46" cy="174.7266" fill="#84BE84" rx="3" ry="3" style="stroke:#038048;stroke-width:1;"/><text fill="#000000" font-family="sans-serif" font-size="14" lengthAdjust="spacing" textLength="124.3252" x="86.46" y="178.0732">setId(id: int): void</text><ellipse cx="77.46" cy="191.0234" fill="#84BE84" rx="3" ry="3" style="stroke:#038048;stroke-width:1;"/><text fill="#000000" font-family="sans-serif" font-size="14" lengthAdjust="spacing" textLength="108.4043" x="86.46" y="194.3701">getDni(): String</text><ellipse cx="77.46" cy="207.3203" fill="#84BE84" rx="3" ry="3" style="stroke:#038048;stroke-width:1;"/><text fill="#000000" font-family="sans-serif" font-size="14" lengthAdjust="spacing" textLength="167.2549" x="86.46" y="210.667">setDni(dni: String): void</text><ellipse cx="77.46" cy="223.6172" fill="#84BE84" rx="3" ry="3" style="stroke:#038048;stroke-width:1;"/><text fill="#000000" font-family="sans-serif" font-size="14" lengthAdjust="spacing" textLength="140.793" x="86.46" y="226.9639">getNombre(): String</text><ellipse cx="77.46" cy="239.9141" fill="#84BE84" rx="3" ry="3" style="stroke:#038048;stroke-width:1;"/><text fill="#000000" font-family="sans-serif" font-size="14" lengthAdjust="spacing" textLength="232.3262" x="86.46" y="243.2607">setNombre(nombre: String): void</text><ellipse cx="77.46" cy="256.2109" fill="#84BE84" rx="3" ry="3" style="stroke:#038048;stroke-width:1;"/><text fill="#000000" font-family="sans-serif" font-size="14" lengthAdjust="spacing" textLength="96.5303" x="86.46" y="259.5576">getEdad(): int</text><ellipse cx="77.46" cy="272.5078" fill="#84BE84" rx="3" ry="3" style="stroke:#038048;stroke-width:1;"/><text fill="#000000" font-family="sans-serif" font-size="14" lengthAdjust="spacing" textLength="168.6973" x="86.46" y="275.8545">setEdad(edad: int): void</text><ellipse cx="77.46" cy="288.8047" fill="#84BE84" rx="3" ry="3" style="stroke:#038048;stroke-width:1;"/><text fill="#000000" font-family="sans-serif" font-size="14" lengthAdjust="spacing" textLength="255.0283" x="86.46" y="292.1514">setDescripcion(descrip: String): void</text><ellipse cx="77.46" cy="305.1016" fill="#84BE84" rx="3" ry="3" style="stroke:#038048;stroke-width:1;"/><text fill="#000000" font-family="sans-serif" font-size="14" lengthAdjust="spacing" textLength="166.8037" x="86.46" y="308.4482">getDescripcion(): String</text></g><!--class Cliente--><g class="entity" data-entity="Cliente" data-source-line="24" data-uid="ent0003" id="entity_Cliente"><rect fill="#F1F1F1" height="162.0781" rx="2.5" ry="2.5" style="stroke:#181818;stroke-width:0.5;" width="519.1309" x="7" y="375.75"/><ellipse cx="237.7437" cy="391.75" fill="#ADD1B2" rx="11" ry="11" style="stroke:#181818;stroke-width:1;"/><path d="M240.7124,397.3906 Q240.1343,397.6875 239.4937,397.8281 Q238.853,397.9844 238.1499,397.9844 Q235.6499,397.9844 234.3218,396.3438 Q233.0093,394.6875 233.0093,391.5625 Q233.0093,388.4375 234.3218,386.7813 Q235.6499,385.125 238.1499,385.125 Q238.853,385.125 239.4937,385.2813 Q240.1499,385.4375 240.7124,385.7344 L240.7124,388.4531 Q240.0874,387.875 239.4937,387.6094 Q238.8999,387.3281 238.2749,387.3281 Q236.9312,387.3281 236.2437,388.4063 Q235.5562,389.4688 235.5562,391.5625 Q235.5562,393.6563 236.2437,394.7344 Q236.9312,395.7969 238.2749,395.7969 Q238.8999,395.7969 239.4937,395.5313 Q240.0874,395.25 240.7124,394.6719 L240.7124,397.3906 Z " fill="#000000"/><text fill="#000000" font-family="sans-serif" font-size="14" lengthAdjust="spacing" textLength="49.1436" x="258.2437" y="396.5967">Cliente</text><line style="stroke:#181818;stroke-width:0.5;" x1="8" x2="525.1309" y1="407.75" y2="407.75"/><rect fill="none" height="6" style="stroke:#C82930;stroke-width:1;" width="6" x="15" y="418.3984"/><text fill="#000000" font-family="sans-serif" font-size="14" lengthAdjust="spacing" textLength="117.0039" x="27" y="424.7451">categoria: String</text><line style="stroke:#181818;stroke-width:0.5;" x1="8" x2="525.1309" y1="432.0469" y2="432.0469"/><ellipse cx="18" cy="445.6953" fill="#84BE84" rx="3" ry="3" style="stroke:#038048;stroke-width:1;"/><text fill="#000000" font-family="sans-serif" font-size="14" lengthAdjust="spacing" textLength="493.1309" x="27" y="449.042">Cliente(id: int, dni: String, nombre: String, edad: int, categoria: String)</text><text fill="#000000" font-family="sans-serif" font-size="14" lengthAdjust="spacing" textLength="4.4502" x="27" y="465.3389">&#160;</text><ellipse cx="18" cy="478.2891" fill="#84BE84" rx="3" ry="3" style="stroke:#038048;stroke-width:1;"/><text fill="#000000" font-family="sans-serif" font-size="14" lengthAdjust="spacing" textLength="152.9951" x="27" y="481.6357">getCategoria(): String</text><ellipse cx="18" cy="494.5859" fill="#84BE84" rx="3" ry="3" style="stroke:#038048;stroke-width:1;"/><text fill="#000000" font-family="sans-serif" font-size="14" lengthAdjust="spacing" textLength="256.252" x="27" y="497.9326">setCategoria(categoria: String): void</text><text fill="#000000" font-family="sans-serif" font-size="14" lengthAdjust="spacing" textLength="4.4502" x="27" y="514.2295">&#160;</text><ellipse cx="18" cy="527.1797" fill="#84BE84" rx="3" ry="3" style="stroke:#038048;stroke-width:1;"/><text fill="#000000" font-family="sans-serif" font-size="14" lengthAdjust="spacing" textLength="166.8037" x="27" y="530.5264">getDescripcion(): String</text></g><!--reverse link Persona to Cliente--><g class="link" data-entity-1="Persona" data-entity-2="Cliente" data-source-line="38" data-uid="lnk4" id="link_Persona_Cliente"><path codeLine="38" d="M266.57,333.96 C266.57,354.48 266.57,356.82 266.57,375.37" fill="none" id="Persona-backto-Cliente" style="stroke:#181818;stroke-width:1;"/><polygon fill="none" points="266.57,315.96,260.57,333.96,272.57,333.96,266.57,315.96" style="stroke:#181818;stroke-width:1;"/></g><!--SRC=[bL8nRiCm3Dpz2cvr4Fi3GJUtGuSM0V82MI8C0evOI4gNj0_AE_Anoh9KELPJe9j8tnsFHyjHM0jxD9QrW7C5q0Af7P1suQqqxU3W3EaXr9gFlS6R5YeH2RvyW8wrTUOa7HjVRvDs7LMRfMIpqckos6PMUxrU72kse124b6WP10WFxa-ERHWme7jHzIPvte8DZJZFzp-OL48-QPgWF_O3UcekNAqeRy5YoOhzsmrMt6U_pifQQEKr5_Z92Lffw5qIwrhDxplAIsIsLdrLbGmdxKP2xJ2UL0g70niI6VdRhIBflxTgIlsxvql-kyGeWysVIjaOGX0_iBSpfT0Zu0Z7ULOHpj-9-S3It__usROfWcy0]--></g></svg>