<svg xmlns="http://www.w3.org/2000/svg" xmlns:xlink="http://www.w3.org/1999/xlink" contentStyleType="text/css" data-diagram-type="CLASS" height="495px" preserveAspectRatio="none" style="width:1089px;height:495px;background:#FFFFFF;" version="1.1" viewBox="0 0 1089 495" width="1089px" zoomAndPan="magnify"><defs/><g><!--class Persona--><g class="entity" data-entity="Persona" data-source-line="2" data-uid="ent0002" id="entity_Persona"><rect fill="#F1F1F1" height="292.4531" rx="2.5" ry="2.5" style="stroke:#181818;stroke-width:0.5;" width="400.2061" x="343.46" y="7"/><ellipse cx="511.2515" cy="23" fill="#ADD1B2" rx="11" ry="11" style="stroke:#181818;stroke-width:1;"/><path d="M514.2203,28.6406 Q513.6421,28.9375 513.0015,29.0781 Q512.3609,29.2344 511.6578,29.2344 Q509.1578,29.2344 507.8296,27.5938 Q506.5171,25.9375 506.5171,22.8125 Q506.5171,19.6875 507.8296,18.0313 Q509.1578,16.375 511.6578,16.375 Q512.3609,16.375 513.0015,16.5313 Q513.6578,16.6875 514.2203,16.9844 L514.2203,19.7031 Q513.5953,19.125 513.0015,18.8594 Q512.4078,18.5781 511.7828,18.5781 Q510.439,18.5781 509.7515,19.6563 Q509.064,20.7188 509.064,22.8125 Q509.064,24.9063 509.7515,25.9844 Q510.439,27.0469 511.7828,27.0469 Q512.4078,27.0469 513.0015,26.7813 Q513.5953,26.5 514.2203,25.9219 L514.2203,28.6406 Z " fill="#000000"/><text fill="#000000" font-family="sans-serif" font-size="14" lengthAdjust="spacing" textLength="56.123" x="531.7515" y="27.8467">Persona</text><line style="stroke:#181818;stroke-width:0.5;" x1="344.46" x2="742.6661" y1="39" y2="39"/><rect fill="none" height="6" style="stroke:#C82930;stroke-width:1;" width="6" x="351.46" y="49.6484"/><text fill="#000000" font-family="sans-serif" font-size="14" lengthAdjust="spacing" textLength="40.1953" x="363.46" y="55.9951">id: int</text><rect fill="none" height="6" style="stroke:#C82930;stroke-width:1;" width="6" x="351.46" y="65.9453"/><text fill="#000000" font-family="sans-serif" font-size="14" lengthAdjust="spacing" textLength="72.5977" x="363.46" y="72.292">dni: String</text><rect fill="none" height="6" style="stroke:#C82930;stroke-width:1;" width="6" x="351.46" y="82.2422"/><text fill="#000000" font-family="sans-serif" font-size="14" lengthAdjust="spacing" textLength="105.2803" x="363.46" y="88.5889">nombre: String</text><rect fill="none" height="6" style="stroke:#C82930;stroke-width:1;" width="6" x="351.46" y="98.5391"/><text fill="#000000" font-family="sans-serif" font-size="14" lengthAdjust="spacing" textLength="62.3848" x="363.46" y="104.8857">edad: int</text><line style="stroke:#181818;stroke-width:0.5;" x1="344.46" x2="742.6661" y1="112.1875" y2="112.1875"/><ellipse cx="354.46" cy="125.8359" fill="#84BE84" rx="3" ry="3" style="stroke:#038048;stroke-width:1;"/><text fill="#000000" font-family="sans-serif" font-size="14" lengthAdjust="spacing" textLength="374.2061" x="363.46" y="129.1826">Persona(id: int, dni: String, nombre: String, edad: int)</text><ellipse cx="354.46" cy="142.1328" fill="#84BE84" rx="3" ry="3" style="stroke:#038048;stroke-width:1;"/><text fill="#000000" font-family="sans-serif" font-size="14" lengthAdjust="spacing" textLength="74.3477" x="363.46" y="145.4795">getId(): int</text><ellipse cx="354.46" cy="158.4297" fill="#84BE84" rx="3" ry="3" style="stroke:#038048;stroke-width:1;"/><text fill="#000000" font-family="sans-serif" font-size="14" lengthAdjust="spacing" textLength="124.3252" x="363.46" y="161.7764">setId(id: int): void</text><ellipse cx="354.46" cy="174.7266" fill="#84BE84" rx="3" ry="3" style="stroke:#038048;stroke-width:1;"/><text fill="#000000" font-family="sans-serif" font-size="14" lengthAdjust="spacing" textLength="108.4043" x="363.46" y="178.0732">getDni(): String</text><ellipse cx="354.46" cy="191.0234" fill="#84BE84" rx="3" ry="3" style="stroke:#038048;stroke-width:1;"/><text fill="#000000" font-family="sans-serif" font-size="14" lengthAdjust="spacing" textLength="167.2549" x="363.46" y="194.3701">setDni(dni: String): void</text><ellipse cx="354.46" cy="207.3203" fill="#84BE84" rx="3" ry="3" style="stroke:#038048;stroke-width:1;"/><text fill="#000000" font-family="sans-serif" font-size="14" lengthAdjust="spacing" textLength="140.793" x="363.46" y="210.667">getNombre(): String</text><ellipse cx="354.46" cy="223.6172" fill="#84BE84" rx="3" ry="3" style="stroke:#038048;stroke-width:1;"/><text fill="#000000" font-family="sans-serif" font-size="14" lengthAdjust="spacing" textLength="232.3262" x="363.46" y="226.9639">setNombre(nombre: String): void</text><ellipse cx="354.46" cy="239.9141" fill="#84BE84" rx="3" ry="3" style="stroke:#038048;stroke-width:1;"/><text fill="#000000" font-family="sans-serif" font-size="14" lengthAdjust="spacing" textLength="96.5303" x="363.46" y="243.2607">getEdad(): int</text><ellipse cx="354.46" cy="256.2109" fill="#84BE84" rx="3" ry="3" style="stroke:#038048;stroke-width:1;"/><text fill="#000000" font-family="sans-serif" font-size="14" lengthAdjust="spacing" textLength="168.6973" x="363.46" y="259.5576">setEdad(edad: int): void</text><text fill="#000000" font-family="sans-serif" font-size="14" lengthAdjust="spacing" textLength="4.4502" x="363.46" y="275.8545">&#160;</text><ellipse cx="354.46" cy="288.8047" fill="#84BE84" rx="3" ry="3" style="stroke:#038048;stroke-width:1;"/><text fill="#000000" font-family="sans-serif" font-size="14" lengthAdjust="spacing" textLength="166.8037" x="363.46" y="292.1514">getDescripcion(): String</text></g><!--class Cliente--><g class="entity" data-entity="Cliente" data-source-line="22" data-uid="ent0003" id="entity_Cliente"><rect fill="#F1F1F1" height="129.4844" rx="2.5" ry="2.5" style="stroke:#181818;stroke-width:0.5;" width="519.1309" x="7" y="359.46"/><ellipse cx="237.7437" cy="375.46" fill="#ADD1B2" rx="11" ry="11" style="stroke:#181818;stroke-width:1;"/><path d="M240.7124,381.1006 Q240.1343,381.3975 239.4937,381.5381 Q238.853,381.6944 238.1499,381.6944 Q235.6499,381.6944 234.3218,380.0538 Q233.0093,378.3975 233.0093,375.2725 Q233.0093,372.1475 234.3218,370.4913 Q235.6499,368.835 238.1499,368.835 Q238.853,368.835 239.4937,368.9913 Q240.1499,369.1475 240.7124,369.4444 L240.7124,372.1631 Q240.0874,371.585 239.4937,371.3194 Q238.8999,371.0381 238.2749,371.0381 Q236.9312,371.0381 236.2437,372.1163 Q235.5562,373.1788 235.5562,375.2725 Q235.5562,377.3663 236.2437,378.4444 Q236.9312,379.5069 238.2749,379.5069 Q238.8999,379.5069 239.4937,379.2413 Q240.0874,378.96 240.7124,378.3819 L240.7124,381.1006 Z " fill="#000000"/><text fill="#000000" font-family="sans-serif" font-size="14" lengthAdjust="spacing" textLength="49.1436" x="258.2437" y="380.3067">Cliente</text><line style="stroke:#181818;stroke-width:0.5;" x1="8" x2="525.1309" y1="391.46" y2="391.46"/><rect fill="none" height="6" style="stroke:#C82930;stroke-width:1;" width="6" x="15" y="402.1084"/><text fill="#000000" font-family="sans-serif" font-size="14" lengthAdjust="spacing" textLength="117.0039" x="27" y="408.4551">categoria: String</text><line style="stroke:#181818;stroke-width:0.5;" x1="8" x2="525.1309" y1="415.7569" y2="415.7569"/><ellipse cx="18" cy="429.4053" fill="#84BE84" rx="3" ry="3" style="stroke:#038048;stroke-width:1;"/><text fill="#000000" font-family="sans-serif" font-size="14" lengthAdjust="spacing" textLength="493.1309" x="27" y="432.752">Cliente(id: int, dni: String, nombre: String, edad: int, categoria: String)</text><ellipse cx="18" cy="445.7022" fill="#84BE84" rx="3" ry="3" style="stroke:#038048;stroke-width:1;"/><text fill="#000000" font-family="sans-serif" font-size="14" lengthAdjust="spacing" textLength="152.9951" x="27" y="449.0489">getCategoria(): String</text><ellipse cx="18" cy="461.9991" fill="#84BE84" rx="3" ry="3" style="stroke:#038048;stroke-width:1;"/><text fill="#000000" font-family="sans-serif" font-size="14" lengthAdjust="spacing" textLength="256.252" x="27" y="465.3457">setCategoria(categoria: String): void</text><ellipse cx="18" cy="478.2959" fill="#84BE84" rx="3" ry="3" style="stroke:#038048;stroke-width:1;"/><text fill="#000000" font-family="sans-serif" font-size="14" lengthAdjust="spacing" textLength="166.8037" x="27" y="481.6426">getDescripcion(): String</text></g><!--class Empleado--><g class="entity" data-entity="Empleado" data-source-line="31" data-uid="ent0004" id="entity_Empleado"><rect fill="#F1F1F1" height="129.4844" rx="2.5" ry="2.5" style="stroke:#181818;stroke-width:0.5;" width="521.5576" x="560.79" y="359.46"/><ellipse cx="782.3667" cy="375.46" fill="#ADD1B2" rx="11" ry="11" style="stroke:#181818;stroke-width:1;"/><path d="M785.3354,381.1006 Q784.7573,381.3975 784.1167,381.5381 Q783.476,381.6944 782.7729,381.6944 Q780.2729,381.6944 778.9448,380.0538 Q777.6323,378.3975 777.6323,375.2725 Q777.6323,372.1475 778.9448,370.4913 Q780.2729,368.835 782.7729,368.835 Q783.476,368.835 784.1167,368.9913 Q784.7729,369.1475 785.3354,369.4444 L785.3354,372.1631 Q784.7104,371.585 784.1167,371.3194 Q783.5229,371.0381 782.8979,371.0381 Q781.5542,371.0381 780.8667,372.1163 Q780.1792,373.1788 780.1792,375.2725 Q780.1792,377.3663 780.8667,378.4444 Q781.5542,379.5069 782.8979,379.5069 Q783.5229,379.5069 784.1167,379.2413 Q784.7104,378.96 785.3354,378.3819 L785.3354,381.1006 Z " fill="#000000"/><text fill="#000000" font-family="sans-serif" font-size="14" lengthAdjust="spacing" textLength="69.9043" x="802.8667" y="380.3067">Empleado</text><line style="stroke:#181818;stroke-width:0.5;" x1="561.79" x2="1081.3476" y1="391.46" y2="391.46"/><rect fill="none" height="6" style="stroke:#C82930;stroke-width:1;" width="6" x="568.79" y="402.1084"/><text fill="#000000" font-family="sans-serif" font-size="14" lengthAdjust="spacing" textLength="98.6699" x="580.79" y="408.4551">puesto: String</text><line style="stroke:#181818;stroke-width:0.5;" x1="561.79" x2="1081.3476" y1="415.7569" y2="415.7569"/><ellipse cx="571.79" cy="429.4053" fill="#84BE84" rx="3" ry="3" style="stroke:#038048;stroke-width:1;"/><text fill="#000000" font-family="sans-serif" font-size="14" lengthAdjust="spacing" textLength="495.5576" x="580.79" y="432.752">Empleado(id: int, dni: String, nombre: String, edad: int, puesto: String)</text><ellipse cx="571.79" cy="445.7022" fill="#84BE84" rx="3" ry="3" style="stroke:#038048;stroke-width:1;"/><text fill="#000000" font-family="sans-serif" font-size="14" lengthAdjust="spacing" textLength="132.1387" x="580.79" y="449.0489">getPuesto(): String</text><ellipse cx="571.79" cy="461.9991" fill="#84BE84" rx="3" ry="3" style="stroke:#038048;stroke-width:1;"/><text fill="#000000" font-family="sans-serif" font-size="14" lengthAdjust="spacing" textLength="217.0615" x="580.79" y="465.3457">setPuesto(puesto: String): void</text><ellipse cx="571.79" cy="478.2959" fill="#84BE84" rx="3" ry="3" style="stroke:#038048;stroke-width:1;"/><text fill="#000000" font-family="sans-serif" font-size="14" lengthAdjust="spacing" textLength="166.8037" x="580.79" y="481.6426">getDescripcion(): String</text></g><g class="entity" data-entity="GMN7" data-source-line="43" data-uid="ent0008" id="entity_GMN7"><path d="M778.83,110.4 L778.83,149.23 L744.05,153.23 L778.83,157.23 L778.83,196.0641 A0,0 0 0 0 778.83,196.0641 L1060.2934,196.0641 A0,0 0 0 0 1060.2934,196.0641 L1060.2934,120.4 L1050.2934,110.4 L778.83,110.4 A0,0 0 0 0 778.83,110.4" fill="#FEFFDD" style="stroke:#181818;stroke-width:0.5;"/><path d="M1050.2934,110.4 L1050.2934,120.4 L1060.2934,120.4 L1050.2934,110.4" fill="#FEFFDD" style="stroke:#181818;stroke-width:0.5;"/><text fill="#000000" font-family="sans-serif" font-size="13" lengthAdjust="spacing" textLength="208.1143" x="784.83" y="127.4669">El polimorfismo permite invocar</text><text fill="#000000" font-family="sans-serif" font-size="13" lengthAdjust="spacing" textLength="225.1641" x="784.83" y="142.5997">getDescripcion() sobre referencias</text><text fill="#000000" font-family="sans-serif" font-size="13" lengthAdjust="spacing" textLength="216.2012" x="784.83" y="157.7325">de tipo Persona y que, en tiempo</text><text fill="#000000" font-family="sans-serif" font-size="13" lengthAdjust="spacing" textLength="173.2974" x="784.83" y="172.8653">de ejecuci&#243;n, se ejecute la</text><text fill="#000000" font-family="sans-serif" font-size="13" lengthAdjust="spacing" textLength="260.4634" x="784.83" y="187.9981">implementaci&#243;n de Cliente o Empleado.</text></g><!--reverse link Persona to Cliente--><g class="link" data-entity-1="Persona" data-entity-2="Cliente" data-source-line="39" data-uid="lnk5" id="link_Persona_Cliente"><path codeLine="39" d="M380.8066,312.2697 C359.3866,333.0697 351.25,340.97 332.63,359.05" fill="none" id="Persona-backto-Cliente" style="stroke:#181818;stroke-width:1;"/><polygon fill="none" points="393.72,299.73,376.6267,307.9652,384.9864,316.5741,393.72,299.73" style="stroke:#181818;stroke-width:1;"/></g><!--reverse link Persona to Empleado--><g class="link" data-entity-1="Persona" data-entity-2="Empleado" data-source-line="40" data-uid="lnk6" id="link_Persona_Empleado"><path codeLine="40" d="M706.8939,312.2486 C728.3839,333.0486 736.58,340.97 755.26,359.05" fill="none" id="Persona-backto-Empleado" style="stroke:#181818;stroke-width:1;"/><polygon fill="none" points="693.96,299.73,702.721,316.5599,711.0667,307.9373,693.96,299.73" style="stroke:#181818;stroke-width:1;"/></g><!--SRC=[bLD1Ri8m4Bpx5Ni3HAZK7b5lb4Cl5H8lCFQIRfLuKzj1gjg-ga_en-guTY391Iue7i_ipkpY6MmgwH0EtOzYeonwALJ07EpGEZOIFWN02aYlWOoFtzhG6lRUaYdZsN1zi3Y0KCia2CTbhZLFLOhB4iL8Nvp5YoWkqJ_h-IBtNuABGAeLy1EJpimdGnsrjnBP7NZHSIHvYUsdgeGFtOsqss1rP2r2vmY9t_j3fomrYjXSTFmMOWRxzg3YDkxJ1ZOLeV6ODg2anv8joO7FnBbriiMqN3_iJRwPZkHyDPMFzd15peUKSrit5KhDAMZJelCyQ9qPjySS5kipxY8y3PZmaUhAQFd5F7wjLdanGp3d4C9mMAobyjK37_Fx4DiA6gwePdiaLpCqQ6iAH38dLjAASNTm78A3nIDQD8ga4nh1KyFzy_s0znR3I4o0iMwu8-0RgbRHxuyfGkZ_O-XIIK6TmJeOb_4Q0Zd_2xbtVoVGQEWI_040]--></g></svg>