<svg xmlns="http://www.w3.org/2000/svg" xmlns:xlink="http://www.w3.org/1999/xlink" contentStyleType="text/css" data-diagram-type="CLASS" height="437px" preserveAspectRatio="none" style="width:529px;height:437px;background:#FFFFFF;" version="1.1" viewBox="0 0 529 437" width="529px" zoomAndPan="magnify"><defs/><g><!--class Cliente--><g class="entity" data-entity="Cliente" data-source-line="1" data-uid="ent0002" id="entity_Cliente"><rect fill="#F1F1F1" height="48" rx="2.5" ry="2.5" style="stroke:#181818;stroke-width:0.5;" width="81.1436" x="31" y="7"/><ellipse cx="46" cy="23" fill="#ADD1B2" rx="11" ry="11" style="stroke:#181818;stroke-width:1;"/><path d="M48.9688,28.6406 Q48.3906,28.9375 47.75,29.0781 Q47.1094,29.2344 46.4063,29.2344 Q43.9063,29.2344 42.5781,27.5938 Q41.2656,25.9375 41.2656,22.8125 Q41.2656,19.6875 42.5781,18.0313 Q43.9063,16.375 46.4063,16.375 Q47.1094,16.375 47.75,16.5313 Q48.4063,16.6875 48.9688,16.9844 L48.9688,19.7031 Q48.3438,19.125 47.75,18.8594 Q47.1563,18.5781 46.5313,18.5781 Q45.1875,18.5781 44.5,19.6563 Q43.8125,20.7188 43.8125,22.8125 Q43.8125,24.9063 44.5,25.9844 Q45.1875,27.0469 46.5313,27.0469 Q47.1563,27.0469 47.75,26.7813 Q48.3438,26.5 48.9688,25.9219 L48.9688,28.6406 Z " fill="#000000"/><text fill="#000000" font-family="sans-serif" font-size="14" lengthAdjust="spacing" textLength="49.1436" x="60" y="27.8467">Cliente</text><line style="stroke:#181818;stroke-width:0.5;" x1="32" x2="111.1436" y1="39" y2="39"/><line style="stroke:#181818;stroke-width:0.5;" x1="32" x2="111.1436" y1="47" y2="47"/></g><!--class Pedido--><g class="entity" data-entity="Pedido" data-source-line="2" data-uid="ent0003" id="entity_Pedido"><rect fill="#F1F1F1" height="48" rx="2.5" ry="2.5" style="stroke:#181818;stroke-width:0.5;" width="79.2842" x="31.93" y="132"/><ellipse cx="46.93" cy="148" fill="#ADD1B2" rx="11" ry="11" style="stroke:#181818;stroke-width:1;"/><path d="M49.8988,153.6406 Q49.3206,153.9375 48.68,154.0781 Q48.0394,154.2344 47.3363,154.2344 Q44.8363,154.2344 43.5081,152.5938 Q42.1956,150.9375 42.1956,147.8125 Q42.1956,144.6875 43.5081,143.0313 Q44.8363,141.375 47.3363,141.375 Q48.0394,141.375 48.68,141.5313 Q49.3363,141.6875 49.8988,141.9844 L49.8988,144.7031 Q49.2738,144.125 48.68,143.8594 Q48.0863,143.5781 47.4613,143.5781 Q46.1175,143.5781 45.43,144.6563 Q44.7425,145.7188 44.7425,147.8125 Q44.7425,149.9063 45.43,150.9844 Q46.1175,152.0469 47.4613,152.0469 Q48.0863,152.0469 48.68,151.7813 Q49.2738,151.5 49.8988,150.9219 L49.8988,153.6406 Z " fill="#000000"/><text fill="#000000" font-family="sans-serif" font-size="14" lengthAdjust="spacing" textLength="47.2842" x="60.93" y="152.8467">Pedido</text><line style="stroke:#181818;stroke-width:0.5;" x1="32.93" x2="110.2142" y1="164" y2="164"/><line style="stroke:#181818;stroke-width:0.5;" x1="32.93" x2="110.2142" y1="172" y2="172"/></g><!--class DetallePedido--><g class="entity" data-entity="DetallePedido" data-source-line="3" data-uid="ent0004" id="entity_DetallePedido"><rect fill="#F1F1F1" height="48" rx="2.5" ry="2.5" style="stroke:#181818;stroke-width:0.5;" width="129.1387" x="7" y="257"/><ellipse cx="22" cy="273" fill="#ADD1B2" rx="11" ry="11" style="stroke:#181818;stroke-width:1;"/><path d="M24.9688,278.6406 Q24.3906,278.9375 23.75,279.0781 Q23.1094,279.2344 22.4063,279.2344 Q19.9063,279.2344 18.5781,277.5938 Q17.2656,275.9375 17.2656,272.8125 Q17.2656,269.6875 18.5781,268.0313 Q19.9063,266.375 22.4063,266.375 Q23.1094,266.375 23.75,266.5313 Q24.4063,266.6875 24.9688,266.9844 L24.9688,269.7031 Q24.3438,269.125 23.75,268.8594 Q23.1563,268.5781 22.5313,268.5781 Q21.1875,268.5781 20.5,269.6563 Q19.8125,270.7188 19.8125,272.8125 Q19.8125,274.9063 20.5,275.9844 Q21.1875,277.0469 22.5313,277.0469 Q23.1563,277.0469 23.75,276.7813 Q24.3438,276.5 24.9688,275.9219 L24.9688,278.6406 Z " fill="#000000"/><text fill="#000000" font-family="sans-serif" font-size="14" lengthAdjust="spacing" textLength="97.1387" x="36" y="277.8467">DetallePedido</text><line style="stroke:#181818;stroke-width:0.5;" x1="8" x2="135.1387" y1="289" y2="289"/><line style="stroke:#181818;stroke-width:0.5;" x1="8" x2="135.1387" y1="297" y2="297"/></g><!--class Producto--><g class="entity" data-entity="Producto" data-source-line="4" data-uid="ent0005" id="entity_Producto"><rect fill="#F1F1F1" height="48" rx="2.5" ry="2.5" style="stroke:#181818;stroke-width:0.5;" width="94.2754" x="24.43" y="382"/><ellipse cx="39.43" cy="398" fill="#ADD1B2" rx="11" ry="11" style="stroke:#181818;stroke-width:1;"/><path d="M42.3988,403.6406 Q41.8206,403.9375 41.18,404.0781 Q40.5394,404.2344 39.8363,404.2344 Q37.3363,404.2344 36.0081,402.5938 Q34.6956,400.9375 34.6956,397.8125 Q34.6956,394.6875 36.0081,393.0313 Q37.3363,391.375 39.8363,391.375 Q40.5394,391.375 41.18,391.5313 Q41.8363,391.6875 42.3988,391.9844 L42.3988,394.7031 Q41.7738,394.125 41.18,393.8594 Q40.5863,393.5781 39.9613,393.5781 Q38.6175,393.5781 37.93,394.6563 Q37.2425,395.7188 37.2425,397.8125 Q37.2425,399.9063 37.93,400.9844 Q38.6175,402.0469 39.9613,402.0469 Q40.5863,402.0469 41.18,401.7813 Q41.7738,401.5 42.3988,400.9219 L42.3988,403.6406 Z " fill="#000000"/><text fill="#000000" font-family="sans-serif" font-size="14" lengthAdjust="spacing" textLength="62.2754" x="53.43" y="402.8467">Producto</text><line style="stroke:#181818;stroke-width:0.5;" x1="25.43" x2="117.7054" y1="414" y2="414"/><line style="stroke:#181818;stroke-width:0.5;" x1="25.43" x2="117.7054" y1="422" y2="422"/></g><!--class Curso--><g class="entity" data-entity="Curso" data-source-line="5" data-uid="ent0006" id="entity_Curso"><rect fill="#F1F1F1" height="48" rx="2.5" ry="2.5" style="stroke:#181818;stroke-width:0.5;" width="72.2637" x="152.44" y="7"/><ellipse cx="167.44" cy="23" fill="#ADD1B2" rx="11" ry="11" style="stroke:#181818;stroke-width:1;"/><path d="M170.4088,28.6406 Q169.8306,28.9375 169.19,29.0781 Q168.5494,29.2344 167.8463,29.2344 Q165.3463,29.2344 164.0181,27.5938 Q162.7056,25.9375 162.7056,22.8125 Q162.7056,19.6875 164.0181,18.0313 Q165.3463,16.375 167.8463,16.375 Q168.5494,16.375 169.19,16.5313 Q169.8463,16.6875 170.4088,16.9844 L170.4088,19.7031 Q169.7838,19.125 169.19,18.8594 Q168.5963,18.5781 167.9713,18.5781 Q166.6275,18.5781 165.94,19.6563 Q165.2525,20.7188 165.2525,22.8125 Q165.2525,24.9063 165.94,25.9844 Q166.6275,27.0469 167.9713,27.0469 Q168.5963,27.0469 169.19,26.7813 Q169.7838,26.5 170.4088,25.9219 L170.4088,28.6406 Z " fill="#000000"/><text fill="#000000" font-family="sans-serif" font-size="14" lengthAdjust="spacing" textLength="40.2637" x="181.44" y="27.8467">Curso</text><line style="stroke:#181818;stroke-width:0.5;" x1="153.44" x2="223.7037" y1="39" y2="39"/><line style="stroke:#181818;stroke-width:0.5;" x1="153.44" x2="223.7037" y1="47" y2="47"/></g><!--class Alumno--><g class="entity" data-entity="Alumno" data-source-line="6" data-uid="ent0007" id="entity_Alumno"><rect fill="#F1F1F1" height="48" rx="2.5" ry="2.5" style="stroke:#181818;stroke-width:0.5;" width="85.416" x="145.86" y="132"/><ellipse cx="160.86" cy="148" fill="#ADD1B2" rx="11" ry="11" style="stroke:#181818;stroke-width:1;"/><path d="M163.8288,153.6406 Q163.2506,153.9375 162.61,154.0781 Q161.9694,154.2344 161.2663,154.2344 Q158.7663,154.2344 157.4381,152.5938 Q156.1256,150.9375 156.1256,147.8125 Q156.1256,144.6875 157.4381,143.0313 Q158.7663,141.375 161.2663,141.375 Q161.9694,141.375 162.61,141.5313 Q163.2663,141.6875 163.8288,141.9844 L163.8288,144.7031 Q163.2038,144.125 162.61,143.8594 Q162.0163,143.5781 161.3913,143.5781 Q160.0475,143.5781 159.36,144.6563 Q158.6725,145.7188 158.6725,147.8125 Q158.6725,149.9063 159.36,150.9844 Q160.0475,152.0469 161.3913,152.0469 Q162.0163,152.0469 162.61,151.7813 Q163.2038,151.5 163.8288,150.9219 L163.8288,153.6406 Z " fill="#000000"/><text fill="#000000" font-family="sans-serif" font-size="14" lengthAdjust="spacing" textLength="53.416" x="174.86" y="152.8467">Alumno</text><line style="stroke:#181818;stroke-width:0.5;" x1="146.86" x2="230.276" y1="164" y2="164"/><line style="stroke:#181818;stroke-width:0.5;" x1="146.86" x2="230.276" y1="172" y2="172"/></g><!--class Persona--><g class="entity" data-entity="Persona" data-source-line="7" data-uid="ent0008" id="entity_Persona"><rect fill="#F1F1F1" height="48" rx="2.5" ry="2.5" style="stroke:#181818;stroke-width:0.5;" width="88.123" x="273.51" y="7"/><ellipse cx="288.51" cy="23" fill="#ADD1B2" rx="11" ry="11" style="stroke:#181818;stroke-width:1;"/><path d="M291.4788,28.6406 Q290.9006,28.9375 290.26,29.0781 Q289.6194,29.2344 288.9163,29.2344 Q286.4163,29.2344 285.0881,27.5938 Q283.7756,25.9375 283.7756,22.8125 Q283.7756,19.6875 285.0881,18.0313 Q286.4163,16.375 288.9163,16.375 Q289.6194,16.375 290.26,16.5313 Q290.9163,16.6875 291.4788,16.9844 L291.4788,19.7031 Q290.8538,19.125 290.26,18.8594 Q289.6663,18.5781 289.0413,18.5781 Q287.6975,18.5781 287.01,19.6563 Q286.3225,20.7188 286.3225,22.8125 Q286.3225,24.9063 287.01,25.9844 Q287.6975,27.0469 289.0413,27.0469 Q289.6663,27.0469 290.26,26.7813 Q290.8538,26.5 291.4788,25.9219 L291.4788,28.6406 Z " fill="#000000"/><text fill="#000000" font-family="sans-serif" font-size="14" lengthAdjust="spacing" textLength="56.123" x="302.51" y="27.8467">Persona</text><line style="stroke:#181818;stroke-width:0.5;" x1="274.51" x2="360.633" y1="39" y2="39"/><line style="stroke:#181818;stroke-width:0.5;" x1="274.51" x2="360.633" y1="47" y2="47"/></g><!--class Empleado--><g class="entity" data-entity="Empleado" data-source-line="8" data-uid="ent0009" id="entity_Empleado"><rect fill="#F1F1F1" height="48" rx="2.5" ry="2.5" style="stroke:#181818;stroke-width:0.5;" width="101.9043" x="266.62" y="132"/><ellipse cx="281.62" cy="148" fill="#ADD1B2" rx="11" ry="11" style="stroke:#181818;stroke-width:1;"/><path d="M284.5888,153.6406 Q284.0106,153.9375 283.37,154.0781 Q282.7294,154.2344 282.0263,154.2344 Q279.5263,154.2344 278.1981,152.5938 Q276.8856,150.9375 276.8856,147.8125 Q276.8856,144.6875 278.1981,143.0313 Q279.5263,141.375 282.0263,141.375 Q282.7294,141.375 283.37,141.5313 Q284.0263,141.6875 284.5888,141.9844 L284.5888,144.7031 Q283.9638,144.125 283.37,143.8594 Q282.7763,143.5781 282.1513,143.5781 Q280.8075,143.5781 280.12,144.6563 Q279.4325,145.7188 279.4325,147.8125 Q279.4325,149.9063 280.12,150.9844 Q280.8075,152.0469 282.1513,152.0469 Q282.7763,152.0469 283.37,151.7813 Q283.9638,151.5 284.5888,150.9219 L284.5888,153.6406 Z " fill="#000000"/><text fill="#000000" font-family="sans-serif" font-size="14" lengthAdjust="spacing" textLength="69.9043" x="295.62" y="152.8467">Empleado</text><line style="stroke:#181818;stroke-width:0.5;" x1="267.62" x2="367.5243" y1="164" y2="164"/><line style="stroke:#181818;stroke-width:0.5;" x1="267.62" x2="367.5243" y1="172" y2="172"/></g><!--class ServicioEmail--><g class="entity" data-entity="ServicioEmail" data-source-line="9" data-uid="ent0010" id="entity_ServicioEmail"><rect fill="#F1F1F1" height="48" rx="2.5" ry="2.5" style="stroke:#181818;stroke-width:0.5;" width="126.4248" x="396.36" y="7"/><ellipse cx="411.36" cy="23" fill="#ADD1B2" rx="11" ry="11" style="stroke:#181818;stroke-width:1;"/><path d="M414.3288,28.6406 Q413.7506,28.9375 413.11,29.0781 Q412.4694,29.2344 411.7663,29.2344 Q409.2663,29.2344 407.9381,27.5938 Q406.6256,25.9375 406.6256,22.8125 Q406.6256,19.6875 407.9381,18.0313 Q409.2663,16.375 411.7663,16.375 Q412.4694,16.375 413.11,16.5313 Q413.7663,16.6875 414.3288,16.9844 L414.3288,19.7031 Q413.7038,19.125 413.11,18.8594 Q412.5163,18.5781 411.8913,18.5781 Q410.5475,18.5781 409.86,19.6563 Q409.1725,20.7188 409.1725,22.8125 Q409.1725,24.9063 409.86,25.9844 Q410.5475,27.0469 411.8913,27.0469 Q412.5163,27.0469 413.11,26.7813 Q413.7038,26.5 414.3288,25.9219 L414.3288,28.6406 Z " fill="#000000"/><text fill="#000000" font-family="sans-serif" font-size="14" lengthAdjust="spacing" textLength="94.4248" x="425.36" y="27.8467">ServicioEmail</text><line style="stroke:#181818;stroke-width:0.5;" x1="397.36" x2="521.7848" y1="39" y2="39"/><line style="stroke:#181818;stroke-width:0.5;" x1="397.36" x2="521.7848" y1="47" y2="47"/></g><!--class SMTPClient--><g class="entity" data-entity="SMTPClient" data-source-line="10" data-uid="ent0011" id="entity_SMTPClient"><rect fill="#F1F1F1" height="48" rx="2.5" ry="2.5" style="stroke:#181818;stroke-width:0.5;" width="110.4902" x="404.32" y="132"/><ellipse cx="419.32" cy="148" fill="#ADD1B2" rx="11" ry="11" style="stroke:#181818;stroke-width:1;"/><path d="M422.2888,153.6406 Q421.7106,153.9375 421.07,154.0781 Q420.4294,154.2344 419.7263,154.2344 Q417.2263,154.2344 415.8981,152.5938 Q414.5856,150.9375 414.5856,147.8125 Q414.5856,144.6875 415.8981,143.0313 Q417.2263,141.375 419.7263,141.375 Q420.4294,141.375 421.07,141.5313 Q421.7263,141.6875 422.2888,141.9844 L422.2888,144.7031 Q421.6638,144.125 421.07,143.8594 Q420.4763,143.5781 419.8513,143.5781 Q418.5075,143.5781 417.82,144.6563 Q417.1325,145.7188 417.1325,147.8125 Q417.1325,149.9063 417.82,150.9844 Q418.5075,152.0469 419.8513,152.0469 Q420.4763,152.0469 421.07,151.7813 Q421.6638,151.5 422.2888,150.9219 L422.2888,153.6406 Z " fill="#000000"/><text fill="#000000" font-family="sans-serif" font-size="14" lengthAdjust="spacing" textLength="78.4902" x="433.32" y="152.8467">SMTPClient</text><line style="stroke:#181818;stroke-width:0.5;" x1="405.32" x2="513.8102" y1="164" y2="164"/><line style="stroke:#181818;stroke-width:0.5;" x1="405.32" x2="513.8102" y1="172" y2="172"/></g><!--link Cliente to Pedido--><g class="link" data-entity-1="Cliente" data-entity-2="Pedido" data-source-line="13" data-uid="lnk12" id="link_Cliente_Pedido"><path codeLine="13" d="M71.57,55.42 C71.57,77.31 71.57,109.8 71.57,131.66" fill="none" id="Cliente-Pedido" style="stroke:#181818;stroke-width:1;"/><text fill="#000000" font-family="sans-serif" font-size="13" lengthAdjust="spacing" textLength="43.3228" x="72.57" y="98.0669">realiza</text><text fill="#000000" font-family="sans-serif" font-size="13" lengthAdjust="spacing" textLength="8.271" x="62.6759" y="74.8838">1</text><text fill="#000000" font-family="sans-serif" font-size="13" lengthAdjust="spacing" textLength="23.0356" x="45.7707" y="120.9821">0..*</text></g><!--reverse link Pedido to DetallePedido--><g class="link" data-entity-1="Pedido" data-entity-2="DetallePedido" data-source-line="16" data-uid="lnk13" id="link_Pedido_DetallePedido"><path codeLine="16" d="M71.57,192.42 C71.57,214.31 71.57,234.8 71.57,256.66" fill="none" id="Pedido-backto-DetallePedido" style="stroke:#181818;stroke-width:1;"/><polygon fill="#181818" points="71.57,180.42,67.57,186.42,71.57,192.42,75.57,186.42,71.57,180.42" style="stroke:#181818;stroke-width:1;"/><text fill="#000000" font-family="sans-serif" font-size="13" lengthAdjust="spacing" textLength="56.2847" x="72.57" y="223.0669">contiene</text><text fill="#000000" font-family="sans-serif" font-size="13" lengthAdjust="spacing" textLength="23.0356" x="45.7714" y="245.9821">1..*</text></g><!--link DetallePedido to Producto--><g class="link" data-entity-1="DetallePedido" data-entity-2="Producto" data-source-line="19" data-uid="lnk14" id="link_DetallePedido_Producto"><path codeLine="19" d="M71.57,305.42 C71.57,327.31 71.57,353.8 71.57,375.66" fill="none" id="DetallePedido-to-Producto" style="stroke:#181818;stroke-width:1;"/><polygon fill="#181818" points="71.57,381.66,75.57,372.66,71.57,376.66,67.57,372.66,71.57,381.66" style="stroke:#181818;stroke-width:1;"/><text fill="#000000" font-family="sans-serif" font-size="13" lengthAdjust="spacing" textLength="66.2251" x="72.57" y="348.0669">referencia</text></g><!--reverse link Curso to Alumno--><g class="link" data-entity-1="Curso" data-entity-2="Alumno" data-source-line="22" data-uid="lnk15" id="link_Curso_Alumno"><path codeLine="22" d="M188.57,67.42 C188.57,89.31 188.57,109.8 188.57,131.66" fill="none" id="Curso-backto-Alumno" style="stroke:#181818;stroke-width:1;"/><polygon fill="none" points="188.57,55.42,184.57,61.42,188.57,67.42,192.57,61.42,188.57,55.42" style="stroke:#181818;stroke-width:1;"/><text fill="#000000" font-family="sans-serif" font-size="13" lengthAdjust="spacing" textLength="46.541" x="189.57" y="98.0669">incluye</text><text fill="#000000" font-family="sans-serif" font-size="13" lengthAdjust="spacing" textLength="23.0356" x="162.7717" y="120.9821">0..*</text></g><!--reverse link Persona to Empleado--><g class="link" data-entity-1="Persona" data-entity-2="Empleado" data-source-line="25" data-uid="lnk16" id="link_Persona_Empleado"><path codeLine="25" d="M317.57,73.42 C317.57,95.31 317.57,109.8 317.57,131.66" fill="none" id="Persona-backto-Empleado" style="stroke:#181818;stroke-width:1;"/><polygon fill="none" points="317.57,55.42,311.57,73.42,323.57,73.42,317.57,55.42" style="stroke:#181818;stroke-width:1;"/></g><!--link ServicioEmail to SMTPClient--><g class="link" data-entity-1="ServicioEmail" data-entity-2="SMTPClient" data-source-line="28" data-uid="lnk17" id="link_ServicioEmail_SMTPClient"><path codeLine="28" d="M459.57,55.42 C459.57,77.31 459.57,103.8 459.57,125.66" fill="none" id="ServicioEmail-to-SMTPClient" style="stroke:#181818;stroke-width:1;stroke-dasharray:7,7;"/><polygon fill="#181818" points="459.57,131.66,463.57,122.66,459.57,126.66,455.57,122.66,459.57,131.66" style="stroke:#181818;stroke-width:1;"/><text fill="#000000" font-family="sans-serif" font-size="13" lengthAdjust="spacing" textLength="22.9785" x="460.57" y="98.0669">usa</text></g><!--SRC=[NP31IiGm48RlVOgX5tMXnRsAB2pT1Iz2GLzWcepBm2GfIRkW-5O-WYzccgRLUijCvl_cdry9XW2DCDc12fMgbZHhbuiJ3IX2crxhdHxLi9JDwCFoFifex3f7ySDYhiwc5y8LyaB-oehTsI3Bqdj-RMSlHN43n-0Ke-BlBmk19pKePy6CCd0lKQjH5zawbFiIgWhA-xhUbVa4U01FAFo14wvnfdU1PzwjTwPpOEdYtLsHntSJO9y0cxCZ9ouUuYBwxsioPF5A5-nOag6jigeEQrp9pXjvib6UG1SVXHj3dQ1LqL7A5DplHNEm4S5MoVYUZ3mjh1mqF7v6mPfpd3XHJrRFGvl0eQuFV-AEt37W3m00]--></g></svg>