<svg xmlns="http://www.w3.org/2000/svg" xmlns:xlink="http://www.w3.org/1999/xlink" contentStyleType="text/css" data-diagram-type="CLASS" height="665px" preserveAspectRatio="none" style="width:1244px;height:665px;background:#FFFFFF;" version="1.1" viewBox="0 0 1244 665" width="1244px" zoomAndPan="magnify"><defs/><g><!--class Cliente--><g class="entity" data-entity="Cliente" data-source-line="2" data-uid="ent0002" id="entity_Cliente"><rect fill="#F1F1F1" height="96.8906" rx="2.5" ry="2.5" style="stroke:#181818;stroke-width:0.5;" width="131.2803" x="596" y="7"/><ellipse cx="633.5615" cy="23" fill="#ADD1B2" rx="11" ry="11" style="stroke:#181818;stroke-width:1;"/><path d="M636.5303,28.6406 Q635.9521,28.9375 635.3115,29.0781 Q634.6709,29.2344 633.9678,29.2344 Q631.4678,29.2344 630.1396,27.5938 Q628.8271,25.9375 628.8271,22.8125 Q628.8271,19.6875 630.1396,18.0313 Q631.4678,16.375 633.9678,16.375 Q634.6709,16.375 635.3115,16.5313 Q635.9678,16.6875 636.5303,16.9844 L636.5303,19.7031 Q635.9053,19.125 635.3115,18.8594 Q634.7178,18.5781 634.0928,18.5781 Q632.749,18.5781 632.0615,19.6563 Q631.374,20.7188 631.374,22.8125 Q631.374,24.9063 632.0615,25.9844 Q632.749,27.0469 634.0928,27.0469 Q634.7178,27.0469 635.3115,26.7813 Q635.9053,26.5 636.5303,25.9219 L636.5303,28.6406 Z " fill="#000000"/><text fill="#000000" font-family="sans-serif" font-size="14" lengthAdjust="spacing" textLength="49.1436" x="652.5752" y="27.8467">Cliente</text><line style="stroke:#181818;stroke-width:0.5;" x1="597" x2="726.2803" y1="39" y2="39"/><rect fill="none" height="6" style="stroke:#C82930;stroke-width:1;" width="6" x="604" y="49.6484"/><text fill="#000000" font-family="sans-serif" font-size="14" lengthAdjust="spacing" textLength="40.1953" x="616" y="55.9951">id: int</text><rect fill="none" height="6" style="stroke:#C82930;stroke-width:1;" width="6" x="604" y="65.9453"/><text fill="#000000" font-family="sans-serif" font-size="14" lengthAdjust="spacing" textLength="105.2803" x="616" y="72.292">nombre: String</text><rect fill="none" height="6" style="stroke:#C82930;stroke-width:1;" width="6" x="604" y="82.2422"/><text fill="#000000" font-family="sans-serif" font-size="14" lengthAdjust="spacing" textLength="89.5576" x="616" y="88.5889">email: String</text><line style="stroke:#181818;stroke-width:0.5;" x1="597" x2="726.2803" y1="95.8906" y2="95.8906"/></g><!--class Pedido--><g class="entity" data-entity="Pedido" data-source-line="8" data-uid="ent0003" id="entity_Pedido"><rect fill="#F1F1F1" height="96.8906" rx="2.5" ry="2.5" style="stroke:#181818;stroke-width:0.5;" width="124.376" x="725.45" y="180.89"/><ellipse cx="760.7413" cy="196.89" fill="#ADD1B2" rx="11" ry="11" style="stroke:#181818;stroke-width:1;"/><path d="M763.7101,202.5306 Q763.1319,202.8275 762.4913,202.9681 Q761.8507,203.1244 761.1476,203.1244 Q758.6476,203.1244 757.3194,201.4838 Q756.0069,199.8275 756.0069,196.7025 Q756.0069,193.5775 757.3194,191.9213 Q758.6476,190.265 761.1476,190.265 Q761.8507,190.265 762.4913,190.4213 Q763.1476,190.5775 763.7101,190.8744 L763.7101,193.5931 Q763.0851,193.015 762.4913,192.7494 Q761.8976,192.4681 761.2726,192.4681 Q759.9288,192.4681 759.2413,193.5463 Q758.5538,194.6088 758.5538,196.7025 Q758.5538,198.7963 759.2413,199.8744 Q759.9288,200.9369 761.2726,200.9369 Q761.8976,200.9369 762.4913,200.6713 Q763.0851,200.39 763.7101,199.8119 L763.7101,202.5306 Z " fill="#000000"/><text fill="#000000" font-family="sans-serif" font-size="14" lengthAdjust="spacing" textLength="47.2842" x="779.2505" y="201.7367">Pedido</text><line style="stroke:#181818;stroke-width:0.5;" x1="726.45" x2="848.826" y1="212.89" y2="212.89"/><rect fill="none" height="6" style="stroke:#C82930;stroke-width:1;" width="6" x="733.45" y="223.5384"/><text fill="#000000" font-family="sans-serif" font-size="14" lengthAdjust="spacing" textLength="40.1953" x="745.45" y="229.8851">id: int</text><rect fill="none" height="6" style="stroke:#C82930;stroke-width:1;" width="6" x="733.45" y="239.8353"/><text fill="#000000" font-family="sans-serif" font-size="14" lengthAdjust="spacing" textLength="81.3203" x="745.45" y="246.182">fecha: Date</text><rect fill="none" height="6" style="stroke:#C82930;stroke-width:1;" width="6" x="733.45" y="256.1322"/><text fill="#000000" font-family="sans-serif" font-size="14" lengthAdjust="spacing" textLength="98.376" x="745.45" y="262.4789">estado: String</text><line style="stroke:#181818;stroke-width:0.5;" x1="726.45" x2="848.826" y1="269.7806" y2="269.7806"/></g><!--class DetallePedido--><g class="entity" data-entity="DetallePedido" data-source-line="14" data-uid="ent0004" id="entity_DetallePedido"><rect fill="#F1F1F1" height="96.8906" rx="2.5" ry="2.5" style="stroke:#181818;stroke-width:0.5;" width="189.0576" x="471.11" y="362.93"/><ellipse cx="513.0735" cy="378.93" fill="#ADD1B2" rx="11" ry="11" style="stroke:#181818;stroke-width:1;"/><path d="M516.0423,384.5706 Q515.4642,384.8675 514.8235,385.0081 Q514.1829,385.1644 513.4798,385.1644 Q510.9798,385.1644 509.6517,383.5237 Q508.3392,381.8675 508.3392,378.7425 Q508.3392,375.6175 509.6517,373.9612 Q510.9798,372.305 513.4798,372.305 Q514.1829,372.305 514.8235,372.4612 Q515.4798,372.6175 516.0423,372.9144 L516.0423,375.6331 Q515.4173,375.055 514.8235,374.7894 Q514.2298,374.5081 513.6048,374.5081 Q512.261,374.5081 511.5735,375.5862 Q510.886,376.6487 510.886,378.7425 Q510.886,380.8362 511.5735,381.9144 Q512.261,382.9769 513.6048,382.9769 Q514.2298,382.9769 514.8235,382.7112 Q515.4173,382.43 516.0423,381.8519 L516.0423,384.5706 Z " fill="#000000"/><text fill="#000000" font-family="sans-serif" font-size="14" lengthAdjust="spacing" textLength="97.1387" x="533.0654" y="383.7767">DetallePedido</text><line style="stroke:#181818;stroke-width:0.5;" x1="472.11" x2="659.1676" y1="394.93" y2="394.93"/><rect fill="none" height="6" style="stroke:#C82930;stroke-width:1;" width="6" x="479.11" y="405.5784"/><text fill="#000000" font-family="sans-serif" font-size="14" lengthAdjust="spacing" textLength="88.2998" x="491.11" y="411.9251">cantidad: int</text><rect fill="none" height="6" style="stroke:#C82930;stroke-width:1;" width="6" x="479.11" y="421.8753"/><text fill="#000000" font-family="sans-serif" font-size="14" lengthAdjust="spacing" textLength="163.0576" x="491.11" y="428.222">precioUnitario: decimal</text><line style="stroke:#181818;stroke-width:0.5;" x1="472.11" x2="659.1676" y1="435.5237" y2="435.5237"/><ellipse cx="482.11" cy="449.1722" fill="#84BE84" rx="3" ry="3" style="stroke:#038048;stroke-width:1;"/><text fill="#000000" font-family="sans-serif" font-size="14" lengthAdjust="spacing" textLength="132.3506" x="491.11" y="452.5189">subtotal(): decimal</text></g><!--class Producto--><g class="entity" data-entity="Producto" data-source-line="20" data-uid="ent0005" id="entity_Producto"><rect fill="#F1F1F1" height="113.1875" rx="2.5" ry="2.5" style="stroke:#181818;stroke-width:0.5;" width="167.2373" x="235.02" y="544.97"/><ellipse cx="283.251" cy="560.97" fill="#ADD1B2" rx="11" ry="11" style="stroke:#181818;stroke-width:1;"/><path d="M286.2197,566.6106 Q285.6416,566.9075 285.001,567.0481 Q284.3603,567.2044 283.6572,567.2044 Q281.1572,567.2044 279.8291,565.5637 Q278.5166,563.9075 278.5166,560.7825 Q278.5166,557.6575 279.8291,556.0012 Q281.1572,554.345 283.6572,554.345 Q284.3603,554.345 285.001,554.5012 Q285.6572,554.6575 286.2197,554.9544 L286.2197,557.6731 Q285.5947,557.095 285.001,556.8294 Q284.4072,556.5481 283.7822,556.5481 Q282.4385,556.5481 281.751,557.6262 Q281.0635,558.6887 281.0635,560.7825 Q281.0635,562.8762 281.751,563.9544 Q282.4385,565.0169 283.7822,565.0169 Q284.4072,565.0169 285.001,564.7512 Q285.5947,564.47 286.2197,563.8919 L286.2197,566.6106 Z " fill="#000000"/><text fill="#000000" font-family="sans-serif" font-size="14" lengthAdjust="spacing" textLength="62.2754" x="303.751" y="565.8167">Producto</text><line style="stroke:#181818;stroke-width:0.5;" x1="236.02" x2="401.2573" y1="576.97" y2="576.97"/><rect fill="none" height="6" style="stroke:#C82930;stroke-width:1;" width="6" x="243.02" y="587.6184"/><text fill="#000000" font-family="sans-serif" font-size="14" lengthAdjust="spacing" textLength="75.2227" x="255.02" y="593.9651">sku: String</text><rect fill="none" height="6" style="stroke:#C82930;stroke-width:1;" width="6" x="243.02" y="603.9153"/><text fill="#000000" font-family="sans-serif" font-size="14" lengthAdjust="spacing" textLength="105.2803" x="255.02" y="610.262">nombre: String</text><rect fill="none" height="6" style="stroke:#C82930;stroke-width:1;" width="6" x="243.02" y="620.2122"/><text fill="#000000" font-family="sans-serif" font-size="14" lengthAdjust="spacing" textLength="107.7686" x="255.02" y="626.5589">precio: decimal</text><line style="stroke:#181818;stroke-width:0.5;" x1="236.02" x2="401.2573" y1="633.8606" y2="633.8606"/><ellipse cx="246.02" cy="647.5091" fill="#84BE84" rx="3" ry="3" style="stroke:#038048;stroke-width:1;"/><text fill="#000000" font-family="sans-serif" font-size="14" lengthAdjust="spacing" textLength="141.2373" x="255.02" y="650.8557">getPrecio(): decimal</text></g><!--class Categoria--><g class="entity" data-entity="Categoria" data-source-line="27" data-uid="ent0006" id="entity_Categoria"><rect fill="#F1F1F1" height="80.5938" rx="2.5" ry="2.5" style="stroke:#181818;stroke-width:0.5;" width="131.2803" x="7" y="371.08"/><ellipse cx="36.0159" cy="387.08" fill="#ADD1B2" rx="11" ry="11" style="stroke:#181818;stroke-width:1;"/><path d="M38.9847,392.7206 Q38.4065,393.0175 37.7659,393.1581 Q37.1253,393.3144 36.4222,393.3144 Q33.9222,393.3144 32.594,391.6738 Q31.2815,390.0175 31.2815,386.8925 Q31.2815,383.7675 32.594,382.1113 Q33.9222,380.455 36.4222,380.455 Q37.1253,380.455 37.7659,380.6113 Q38.4222,380.7675 38.9847,381.0644 L38.9847,383.7831 Q38.3597,383.205 37.7659,382.9394 Q37.1722,382.6581 36.5472,382.6581 Q35.2034,382.6581 34.5159,383.7363 Q33.8284,384.7988 33.8284,386.8925 Q33.8284,388.9863 34.5159,390.0644 Q35.2034,391.1269 36.5472,391.1269 Q37.1722,391.1269 37.7659,390.8613 Q38.3597,390.58 38.9847,390.0019 L38.9847,392.7206 Z " fill="#000000"/><text fill="#000000" font-family="sans-serif" font-size="14" lengthAdjust="spacing" textLength="68.1338" x="53.1306" y="391.9267">Categoria</text><line style="stroke:#181818;stroke-width:0.5;" x1="8" x2="137.2803" y1="403.08" y2="403.08"/><rect fill="none" height="6" style="stroke:#C82930;stroke-width:1;" width="6" x="15" y="413.7284"/><text fill="#000000" font-family="sans-serif" font-size="14" lengthAdjust="spacing" textLength="40.1953" x="27" y="420.0751">id: int</text><rect fill="none" height="6" style="stroke:#C82930;stroke-width:1;" width="6" x="15" y="430.0253"/><text fill="#000000" font-family="sans-serif" font-size="14" lengthAdjust="spacing" textLength="105.2803" x="27" y="436.372">nombre: String</text><line style="stroke:#181818;stroke-width:0.5;" x1="8" x2="137.2803" y1="443.6738" y2="443.6738"/></g><!--class Pago--><g class="entity" data-entity="Pago" data-source-line="32" data-uid="ent0007" id="entity_Pago"><rect fill="#F1F1F1" height="113.1875" rx="2.5" ry="2.5" style="stroke:#181818;stroke-width:0.5;" width="170.5186" x="702.38" y="354.78"/><ellipse cx="766.1525" cy="370.78" fill="#ADD1B2" rx="11" ry="11" style="stroke:#181818;stroke-width:1;"/><path d="M769.1212,376.4206 Q768.5431,376.7175 767.9025,376.8581 Q767.2618,377.0144 766.5587,377.0144 Q764.0587,377.0144 762.7306,375.3738 Q761.4181,373.7175 761.4181,370.5925 Q761.4181,367.4675 762.7306,365.8113 Q764.0587,364.155 766.5587,364.155 Q767.2618,364.155 767.9025,364.3113 Q768.5587,364.4675 769.1212,364.7644 L769.1212,367.4831 Q768.4962,366.905 767.9025,366.6394 Q767.3087,366.3581 766.6837,366.3581 Q765.34,366.3581 764.6525,367.4363 Q763.965,368.4988 763.965,370.5925 Q763.965,372.6863 764.6525,373.7644 Q765.34,374.8269 766.6837,374.8269 Q767.3087,374.8269 767.9025,374.5613 Q768.4962,374.28 769.1212,373.7019 L769.1212,376.4206 Z " fill="#000000"/><text fill="#000000" font-family="sans-serif" font-size="14" lengthAdjust="spacing" textLength="34.4736" x="786.6525" y="375.6267">Pago</text><line style="stroke:#181818;stroke-width:0.5;" x1="703.38" x2="871.8986" y1="386.78" y2="386.78"/><rect fill="none" height="6" style="stroke:#C82930;stroke-width:1;" width="6" x="710.38" y="397.4284"/><text fill="#000000" font-family="sans-serif" font-size="14" lengthAdjust="spacing" textLength="40.1953" x="722.38" y="403.7751">id: int</text><rect fill="none" height="6" style="stroke:#C82930;stroke-width:1;" width="6" x="710.38" y="413.7253"/><text fill="#000000" font-family="sans-serif" font-size="14" lengthAdjust="spacing" textLength="119.1982" x="722.38" y="420.072">importe: decimal</text><rect fill="none" height="6" style="stroke:#C82930;stroke-width:1;" width="6" x="710.38" y="430.0222"/><text fill="#000000" font-family="sans-serif" font-size="14" lengthAdjust="spacing" textLength="104.7061" x="722.38" y="436.3689">metodo: String</text><rect fill="none" height="6" style="stroke:#C82930;stroke-width:1;" width="6" x="710.38" y="446.3191"/><text fill="#000000" font-family="sans-serif" font-size="14" lengthAdjust="spacing" textLength="144.5186" x="722.38" y="452.6657">confirmado: boolean</text><line style="stroke:#181818;stroke-width:0.5;" x1="703.38" x2="871.8986" y1="459.9675" y2="459.9675"/></g><g class="entity" data-entity="GMN13" data-source-line="58" data-uid="ent0014" id="entity_GMN13"><path d="M762.35,27.75 L762.35,83.1484 L1064.9257,83.1484 L1064.9257,37.75 L1054.9257,27.75 L762.35,27.75" fill="#FEFFDD" style="stroke:#181818;stroke-width:0.5;"/><path d="M1054.9257,27.75 L1054.9257,37.75 L1064.9257,37.75 L1054.9257,27.75" fill="#FEFFDD" style="stroke:#181818;stroke-width:1;"/><text fill="#000000" font-family="sans-serif" font-size="13" lengthAdjust="spacing" textLength="281.5757" x="768.35" y="44.8169">{ordered} en la relaci&#243;n con DetallePedido</text><text fill="#000000" font-family="sans-serif" font-size="13" lengthAdjust="spacing" textLength="279.3794" x="768.35" y="59.9497">indica que los detalles conservan un orden</text><text fill="#000000" font-family="sans-serif" font-size="13" lengthAdjust="spacing" textLength="186.9194" x="768.35" y="75.0825">(p.ej., posici&#243;n en el carrito).</text></g><g class="entity" data-entity="GMN16" data-source-line="64" data-uid="ent0017" id="entity_GMN16"><path d="M173.28,383.68 L173.28,407.38 L138.34,411.38 L173.28,415.38 L173.28,439.0784 A0,0 0 0 0 173.28,439.0784 L435.9988,439.0784 A0,0 0 0 0 435.9988,439.0784 L435.9988,393.68 L425.9988,383.68 L173.28,383.68 A0,0 0 0 0 173.28,383.68" fill="#FEFFDD" style="stroke:#181818;stroke-width:0.5;"/><path d="M425.9988,383.68 L425.9988,393.68 L435.9988,393.68 L425.9988,383.68" fill="#FEFFDD" style="stroke:#181818;stroke-width:0.5;"/><text fill="#000000" font-family="sans-serif" font-size="13" lengthAdjust="spacing" textLength="181.7842" x="179.28" y="400.7469">Agregaci&#243;n (rombo blanco):</text><text fill="#000000" font-family="sans-serif" font-size="13" lengthAdjust="spacing" textLength="241.7188" x="179.28" y="415.8797">la categor&#237;a puede existir aunque los</text><text fill="#000000" font-family="sans-serif" font-size="13" lengthAdjust="spacing" textLength="220.251" x="179.28" y="431.0125">productos se eliminen o cambien.</text></g><g class="entity" data-entity="GMN19" data-source-line="70" data-uid="ent0020" id="entity_GMN19"><path d="M907.83,391.25 L907.83,431.5156 A0,0 0 0 0 907.83,431.5156 L1237.4404,431.5156 A0,0 0 0 0 1237.4404,431.5156 L1237.4404,401.25 L1227.4404,391.25 L1045.82,391.25 L850.18,269.85 L1037.82,391.25 L907.83,391.25 A0,0 0 0 0 907.83,391.25" fill="#FEFFDD" style="stroke:#181818;stroke-width:0.5;"/><path d="M1227.4404,391.25 L1227.4404,401.25 L1237.4404,401.25 L1227.4404,391.25" fill="#FEFFDD" style="stroke:#181818;stroke-width:0.5;"/><text fill="#000000" font-family="sans-serif" font-size="13" lengthAdjust="spacing" textLength="307.7852" x="913.83" y="408.3169">Composici&#243;n (rombo negro) con DetallePedido:</text><text fill="#000000" font-family="sans-serif" font-size="13" lengthAdjust="spacing" textLength="308.6104" x="913.83" y="423.4497">si se elimina Pedido, sus Detalles desaparecen.</text></g><!--reverse link Cliente to Pedido--><g class="link" data-entity-1="Cliente" data-entity-2="Pedido" data-source-line="42" data-uid="lnk8" id="link_Cliente_Pedido"><path codeLine="42" d="M700.2869,109.1693 C717.6869,132.9093 735.1,156.67 752.51,180.42" fill="none" id="Cliente-backto-Pedido" style="stroke:#181818;stroke-width:1;"/><polygon fill="#181818" points="696.74,104.33,698.8342,113.9536,699.6958,108.3628,705.2866,109.2244,696.74,104.33" style="stroke:#181818;stroke-width:1;"/><text fill="#000000" font-family="sans-serif" font-size="13" lengthAdjust="spacing" textLength="107.4404" x="729.64" y="146.9569">cliente / pedidos</text><text fill="#000000" font-family="sans-serif" font-size="13" lengthAdjust="spacing" textLength="8.271" x="692.9373" y="123.9825">1</text><text fill="#000000" font-family="sans-serif" font-size="13" lengthAdjust="spacing" textLength="23.0356" x="723.2468" y="169.915">0..*</text></g><!--reverse link Pedido to DetallePedido--><g class="link" data-entity-1="Pedido" data-entity-2="DetallePedido" data-source-line="45" data-uid="lnk9" id="link_Pedido_DetallePedido"><path codeLine="45" d="M713.7611,244.2716 C672.2511,254.6916 631.02,271.45 597.64,307.78 C583.88,322.76 576.04,343.58 571.57,362.56" fill="none" id="Pedido-backto-DetallePedido" style="stroke:#181818;stroke-width:1;"/><polygon fill="#181818" points="725.4,241.35,718.6067,238.9312,713.7611,244.2716,720.5544,246.6905,725.4,241.35" style="stroke:#181818;stroke-width:1;"/><text fill="#000000" font-family="sans-serif" font-size="13" lengthAdjust="spacing" textLength="180.0894" x="598.64" y="320.8469">pedido / detalles {ordered}</text><text fill="#000000" font-family="sans-serif" font-size="13" lengthAdjust="spacing" textLength="8.271" x="709.3438" y="238.9752">1</text><text fill="#000000" font-family="sans-serif" font-size="13" lengthAdjust="spacing" textLength="23.0356" x="547.7894" y="351.7169">1..*</text></g><!--link DetallePedido to Producto--><g class="link" data-entity-1="DetallePedido" data-entity-2="Producto" data-source-line="48" data-uid="lnk10" id="link_DetallePedido_Producto"><path codeLine="48" d="M502.99,460.11 C469.26,485.81 432.2327,514.0239 396.9627,540.8939" fill="none" id="DetallePedido-to-Producto" style="stroke:#181818;stroke-width:1;"/><polygon fill="#181818" points="392.19,544.53,401.7732,542.2577,396.1673,541.5,396.9251,535.8941,392.19,544.53" style="stroke:#181818;stroke-width:1;"/><text fill="#000000" font-family="sans-serif" font-size="13" lengthAdjust="spacing" textLength="58.2397" x="450.64" y="511.0369">producto</text><text fill="#000000" font-family="sans-serif" font-size="13" lengthAdjust="spacing" textLength="6.5" x="488.202" y="479.7424">*</text><text fill="#000000" font-family="sans-serif" font-size="13" lengthAdjust="spacing" textLength="8.271" x="392.6831" y="533.7399">1</text></g><!--reverse link Categoria to Producto--><g class="link" data-entity-1="Categoria" data-entity-2="Producto" data-source-line="51" data-uid="lnk11" id="link_Categoria_Producto"><path codeLine="51" d="M134.0411,459.3509 C169.1411,486.2009 206.48,514.77 245.38,544.52" fill="none" id="Categoria-backto-Producto" style="stroke:#181818;stroke-width:1;"/><polygon fill="none" points="124.51,452.06,126.8453,458.8825,134.0411,459.3509,131.7059,452.5284,124.51,452.06" style="stroke:#181818;stroke-width:1;"/><text fill="#000000" font-family="sans-serif" font-size="13" lengthAdjust="spacing" textLength="138.9946" x="204.64" y="511.0369">categoria / productos</text><text fill="#000000" font-family="sans-serif" font-size="13" lengthAdjust="spacing" textLength="8.271" x="124.1609" y="471.8167">1</text><text fill="#000000" font-family="sans-serif" font-size="13" lengthAdjust="spacing" textLength="23.0356" x="212.0522" y="533.7287">0..*</text></g><!--link Pedido to Pago--><g class="link" data-entity-1="Pedido" data-entity-2="Pago" data-source-line="54" data-uid="lnk12" id="link_Pedido_Pago"><path codeLine="54" d="M787.64,278.11 C787.64,301.55 787.64,323.93 787.64,348.39" fill="none" id="Pedido-to-Pago" style="stroke:#181818;stroke-width:1;"/><polygon fill="#181818" points="787.64,354.39,791.64,345.39,787.64,349.39,783.64,345.39,787.64,354.39" style="stroke:#181818;stroke-width:1;"/><text fill="#000000" font-family="sans-serif" font-size="13" lengthAdjust="spacing" textLength="32.4238" x="788.64" y="320.8469">pago</text><text fill="#000000" font-family="sans-serif" font-size="13" lengthAdjust="spacing" textLength="24.8066" x="762.082" y="297.7477">0..1</text><text fill="#000000" font-family="sans-serif" font-size="13" lengthAdjust="spacing" textLength="8.271" x="779.1691" y="343.606">1</text></g><!--link GMN13 to Pedido--><g class="link" data-entity-1="GMN13" data-entity-2="Pedido" data-source-line="58" data-uid="lnk15" id="link_GMN13_Pedido"><path d="M894.43,83.41 C880.88,102.36 862.26,128.26 845.64,150.89 C838.58,160.51 830.98,170.75 823.67,180.52" fill="none" id="GMN13-Pedido" style="stroke:#181818;stroke-width:1;stroke-dasharray:7,7;"/></g><!--SRC=[XLJBRjim4BppAnQ-n4fjfxuAIO4YEHT1Ytp0YbpBR2bI9IaZHT0Fwg6dVa9-h4lgwSP0VP75NSuEPuQwWhkxExWt62Y08WFADTfgbvQ5vEN0HKqs4hm8W2reLOAsCV-thgaybV0bUcthl4GDQZEj_1G3nYCfhTm5Y0F98vRmW97w_I6YScy17YYYCNI68z56hN21rdgIsZrP7T5hHb7ysg3XsZi8NHKTWwoBUNtcvvtgP1oHmxVkx5GN3jgFEXzHKtpConTdtFCPQ-Sr_b_9cHVMbrJJJUjyfENqBJGKtKAwh92p1-sRh6Zbd26q2Vigc_wP339NoyPp7tWkXmqqdOcwDLecPRdqWxb533aFl74CmvhRGVOl1UnXopzulzjTzvKs-nIAmNWnRbljLt3BdQlKkXfZKOv8S3FkpBCS7pCmazS_jXnxcMhaNled4Mk3S6BAVORx4ZzRiehoMezRYA4_4RbEHFQPo3bOENGpdG4gm8lpYZofBDyzvadz54y7BbZ9nY9qTixIskA9QgoqILh24LFBM2t4-SmLizXkFsHY4m8J6VwcgHzhpt2379t5CL6lltboxRiMsJrvT7ES0xkHNUOjaDAnRP5p0-hr5xCgn1p9DDOjZ9aPoAddPcAJxNcoeoTjHwnoP5Tyoi2-Z-qQW-CJzyC3HzRGXcbhfVcEfE2XcUr8snO2fFryU7wCQVsKKqZFAPeOzMc898UJ9xiMt67CskGKa0MEnQn0YlcPwa9RnN3mlICmBinkSsSWVqAR34ruLgpR7NtTRM2AP8BdO4dqNhEVEy5PIvU5HC_Aw_eO4wz9PR5mCDsJfd9G6RJI5QLWfdBsivUKddM8sWDsTg0e9WiWSDre_bep3xuNs5HyBzwmg5oChbd8ixnL8mbBjNV5MtrA4VGy1mU83NzBfozo4YqWnuhaSlfV]--></g></svg>