<svg xmlns="http://www.w3.org/2000/svg" xmlns:xlink="http://www.w3.org/1999/xlink" contentStyleType="text/css" data-diagram-type="CLASS" height="458px" preserveAspectRatio="none" style="width:580px;height:458px;background:#FFFFFF;" version="1.1" viewBox="0 0 580 458" width="580px" zoomAndPan="magnify"><defs/><g><!--class Pedido--><g class="entity" data-entity="Pedido" data-source-line="2" data-uid="ent0002" id="entity_Pedido"><rect fill="#F1F1F1" height="96.8906" rx="2.5" ry="2.5" style="stroke:#181818;stroke-width:0.5;" width="124.376" x="71.74" y="7"/><ellipse cx="107.0313" cy="23" fill="#ADD1B2" rx="11" ry="11" style="stroke:#181818;stroke-width:1;"/><path d="M110.0001,28.6406 Q109.4219,28.9375 108.7813,29.0781 Q108.1407,29.2344 107.4376,29.2344 Q104.9376,29.2344 103.6094,27.5938 Q102.2969,25.9375 102.2969,22.8125 Q102.2969,19.6875 103.6094,18.0313 Q104.9376,16.375 107.4376,16.375 Q108.1407,16.375 108.7813,16.5313 Q109.4376,16.6875 110.0001,16.9844 L110.0001,19.7031 Q109.3751,19.125 108.7813,18.8594 Q108.1876,18.5781 107.5626,18.5781 Q106.2188,18.5781 105.5313,19.6563 Q104.8438,20.7188 104.8438,22.8125 Q104.8438,24.9063 105.5313,25.9844 Q106.2188,27.0469 107.5626,27.0469 Q108.1876,27.0469 108.7813,26.7813 Q109.3751,26.5 110.0001,25.9219 L110.0001,28.6406 Z " fill="#000000"/><text fill="#000000" font-family="sans-serif" font-size="14" lengthAdjust="spacing" textLength="47.2842" x="125.5405" y="27.8467">Pedido</text><line style="stroke:#181818;stroke-width:0.5;" x1="72.74" x2="195.116" y1="39" y2="39"/><rect fill="none" height="6" style="stroke:#C82930;stroke-width:1;" width="6" x="79.74" y="49.6484"/><text fill="#000000" font-family="sans-serif" font-size="14" lengthAdjust="spacing" textLength="40.1953" x="91.74" y="55.9951">id: int</text><rect fill="none" height="6" style="stroke:#C82930;stroke-width:1;" width="6" x="79.74" y="65.9453"/><text fill="#000000" font-family="sans-serif" font-size="14" lengthAdjust="spacing" textLength="81.3203" x="91.74" y="72.292">fecha: Date</text><rect fill="none" height="6" style="stroke:#C82930;stroke-width:1;" width="6" x="79.74" y="82.2422"/><text fill="#000000" font-family="sans-serif" font-size="14" lengthAdjust="spacing" textLength="98.376" x="91.74" y="88.5889">estado: String</text><line style="stroke:#181818;stroke-width:0.5;" x1="72.74" x2="195.116" y1="95.8906" y2="95.8906"/></g><!--class Producto--><g class="entity" data-entity="Producto" data-source-line="8" data-uid="ent0003" id="entity_Producto"><rect fill="#F1F1F1" height="96.8906" rx="2.5" ry="2.5" style="stroke:#181818;stroke-width:0.5;" width="167.8594" x="7" y="355.08"/><ellipse cx="55.542" cy="371.08" fill="#ADD1B2" rx="11" ry="11" style="stroke:#181818;stroke-width:1;"/><path d="M58.5107,376.7206 Q57.9326,377.0175 57.292,377.1581 Q56.6514,377.3144 55.9482,377.3144 Q53.4482,377.3144 52.1201,375.6738 Q50.8076,374.0175 50.8076,370.8925 Q50.8076,367.7675 52.1201,366.1113 Q53.4482,364.455 55.9482,364.455 Q56.6514,364.455 57.292,364.6113 Q57.9482,364.7675 58.5107,365.0644 L58.5107,367.7831 Q57.8857,367.205 57.292,366.9394 Q56.6982,366.6581 56.0732,366.6581 Q54.7295,366.6581 54.042,367.7363 Q53.3545,368.7988 53.3545,370.8925 Q53.3545,372.9863 54.042,374.0644 Q54.7295,375.1269 56.0732,375.1269 Q56.6982,375.1269 57.292,374.8613 Q57.8857,374.58 58.5107,374.0019 L58.5107,376.7206 Z " fill="#000000"/><text fill="#000000" font-family="sans-serif" font-size="14" lengthAdjust="spacing" textLength="62.2754" x="76.042" y="375.9267">Producto</text><line style="stroke:#181818;stroke-width:0.5;" x1="8" x2="173.8594" y1="387.08" y2="387.08"/><rect fill="none" height="6" style="stroke:#C82930;stroke-width:1;" width="6" x="15" y="397.7284"/><text fill="#000000" font-family="sans-serif" font-size="14" lengthAdjust="spacing" textLength="75.2227" x="27" y="404.0751">sku: String</text><rect fill="none" height="6" style="stroke:#C82930;stroke-width:1;" width="6" x="15" y="414.0253"/><text fill="#000000" font-family="sans-serif" font-size="14" lengthAdjust="spacing" textLength="105.2803" x="27" y="420.372">nombre: String</text><rect fill="none" height="6" style="stroke:#C82930;stroke-width:1;" width="6" x="15" y="430.3222"/><text fill="#000000" font-family="sans-serif" font-size="14" lengthAdjust="spacing" textLength="141.8594" x="27" y="436.6689">precioBase: decimal</text><line style="stroke:#181818;stroke-width:0.5;" x1="8" x2="173.8594" y1="443.9706" y2="443.9706"/></g><!--class DetallePedido--><g class="entity" data-entity="DetallePedido" data-source-line="15" data-uid="ent0004" id="entity_DetallePedido"><rect fill="#F1F1F1" height="113.1875" rx="2.5" ry="2.5" style="stroke:#181818;stroke-width:0.5;" width="189.0576" x="255.4" y="180.89"/><ellipse cx="297.3635" cy="196.89" fill="#ADD1B2" rx="11" ry="11" style="stroke:#181818;stroke-width:1;"/><path d="M300.3323,202.5306 Q299.7542,202.8275 299.1135,202.9681 Q298.4729,203.1244 297.7698,203.1244 Q295.2698,203.1244 293.9417,201.4838 Q292.6292,199.8275 292.6292,196.7025 Q292.6292,193.5775 293.9417,191.9213 Q295.2698,190.265 297.7698,190.265 Q298.4729,190.265 299.1135,190.4213 Q299.7698,190.5775 300.3323,190.8744 L300.3323,193.5931 Q299.7073,193.015 299.1135,192.7494 Q298.5198,192.4681 297.8948,192.4681 Q296.551,192.4681 295.8635,193.5463 Q295.176,194.6088 295.176,196.7025 Q295.176,198.7963 295.8635,199.8744 Q296.551,200.9369 297.8948,200.9369 Q298.5198,200.9369 299.1135,200.6713 Q299.7073,200.39 300.3323,199.8119 L300.3323,202.5306 Z " fill="#000000"/><text fill="#000000" font-family="sans-serif" font-size="14" lengthAdjust="spacing" textLength="97.1387" x="317.3554" y="201.7367">DetallePedido</text><line style="stroke:#181818;stroke-width:0.5;" x1="256.4" x2="443.4576" y1="212.89" y2="212.89"/><rect fill="none" height="6" style="stroke:#C82930;stroke-width:1;" width="6" x="263.4" y="223.5384"/><text fill="#000000" font-family="sans-serif" font-size="14" lengthAdjust="spacing" textLength="88.2998" x="275.4" y="229.8851">cantidad: int</text><rect fill="none" height="6" style="stroke:#C82930;stroke-width:1;" width="6" x="263.4" y="239.8353"/><text fill="#000000" font-family="sans-serif" font-size="14" lengthAdjust="spacing" textLength="163.0576" x="275.4" y="246.182">precioUnitario: decimal</text><rect fill="none" height="6" style="stroke:#C82930;stroke-width:1;" width="6" x="263.4" y="256.1322"/><text fill="#000000" font-family="sans-serif" font-size="14" lengthAdjust="spacing" textLength="137.2656" x="275.4" y="262.4789">descuento: decimal</text><line style="stroke:#181818;stroke-width:0.5;" x1="256.4" x2="443.4576" y1="269.7806" y2="269.7806"/><ellipse cx="266.4" cy="283.4291" fill="#84BE84" rx="3" ry="3" style="stroke:#038048;stroke-width:1;"/><text fill="#000000" font-family="sans-serif" font-size="14" lengthAdjust="spacing" textLength="132.3506" x="275.4" y="286.7757">subtotal(): decimal</text></g><ellipse cx="133.93" cy="237.49" fill="#181818" rx="2" ry="2" style="stroke:#181818;stroke-width:1;"/><g class="entity" data-entity="GMN11" data-source-line="29" data-uid="ent0012" id="entity_GMN11"><path d="M210.22,360.69 L210.22,446.3541 A0,0 0 0 0 210.22,446.3541 L573.6316,446.3541 A0,0 0 0 0 573.6316,446.3541 L573.6316,370.69 L563.6316,360.69 L385.11,360.69 L364.27,294.48 L377.11,360.69 L210.22,360.69 A0,0 0 0 0 210.22,360.69" fill="#FEFFDD" style="stroke:#181818;stroke-width:0.5;"/><path d="M563.6316,360.69 L563.6316,370.69 L573.6316,370.69 L563.6316,360.69" fill="#FEFFDD" style="stroke:#181818;stroke-width:0.5;"/><text fill="#000000" font-family="sans-serif" font-size="13" lengthAdjust="spacing" textLength="132.6914" x="216.22" y="377.7569">Clase de asociaci&#243;n:</text><text fill="#000000" font-family="sans-serif" font-size="13" lengthAdjust="spacing" textLength="342.4116" x="216.22" y="392.8897">- La relaci&#243;n Pedido-Producto tiene atributos propios</text><text fill="#000000" font-family="sans-serif" font-size="13" lengthAdjust="spacing" textLength="246.6826" x="224.4846" y="408.0225">(cantidad, precioUnitario, descuento).</text><text fill="#000000" font-family="sans-serif" font-size="13" lengthAdjust="spacing" textLength="224.8784" x="216.22" y="423.1553">- subtotal() suele calcularse como:</text><text fill="#000000" font-family="sans-serif" font-size="13" lengthAdjust="spacing" textLength="253.7412" x="224.4846" y="438.2881">cantidad * (precioUnitario - descuento)</text></g><!--link Pedido to apoint6--><g class="link" data-entity-1="Pedido" data-entity-2="apoint6" data-source-line="26" data-uid="lnk8" id="link_Pedido_apoint6"><path d="M133.93,104.22 C133.93,153.39 133.93,224.31 133.93,235.09" fill="none" id="Pedido-apoint6" style="stroke:#181818;stroke-width:1;"/><text fill="#000000" font-family="sans-serif" font-size="13" lengthAdjust="spacing" textLength="36.1436" x="134.93" y="146.9569">items</text><text fill="#000000" font-family="sans-serif" font-size="13" lengthAdjust="spacing" textLength="8.271" x="125.411" y="123.8577">1</text></g><!--link apoint6 to Producto--><g class="link" data-entity-1="apoint6" data-entity-2="Producto" data-source-line="26" data-uid="lnk9" id="link_apoint6_Producto"><path d="M133.56,239.9 C130.94,249.89 115.04,310.56 103.42,354.88" fill="none" id="apoint6-Producto" style="stroke:#181818;stroke-width:1;"/><text fill="#000000" font-family="sans-serif" font-size="13" lengthAdjust="spacing" textLength="23.0356" x="80.5618" y="344.0608">1..*</text></g><!--link apoint6 to DetallePedido--><g class="link" data-entity-1="apoint6" data-entity-2="DetallePedido" data-source-line="26" data-uid="lnk10" id="link_apoint6_DetallePedido"><path d="M136.04,237.49 C175.73,237.49 215.41,237.49 255.1,237.49" fill="none" id="apoint6-DetallePedido" style="stroke:#181818;stroke-width:1;stroke-dasharray:7,7;"/></g><!--SRC=[RLBDJiCm3BxdAQnTrewr4jVUW74R4XBQ0xY91n5fN3NfX8Hu94uymbuCTrtNjTgfZkD-_dwoX2U7WGBKZVNQrkWeA2sj0Azah67uLW0PM5E0zV5Kxqb_O04RZ7GwKuXek82tA1ZlwaSD00sRLiS18dosbvdkxBag6vgqweQqvKSXL82HiaBNmIrxaj823AmjQdlyymKq93y4yX411QHi8mSPSd0u_dhTEZvho0OcPs8RYkWSJGHgzD4Ql9BPazbv6x6nF1BgxWm5tShYIViEGbj65kmadV5_66cFJi_PGQBH8DGzBSr2Y3p1eLlV1THFXLITYI_k5v1byidprM9qMnH4gaAtzjaxr2VVz0q38GcY5R-iHEL4_kvbcwga1rzVy5B8ywbZIdcE12N7o1NmVdPxCokLmHObC7TUFPVUInrJ5BMrg1PNao6PzIoHzPX2cWl-QBwKv4GpEda4s0WRpHKN0ZPWmGgIATfrgAaYRw0J-Gy0]--></g></svg>