<svg xmlns="http://www.w3.org/2000/svg" xmlns:xlink="http://www.w3.org/1999/xlink" contentStyleType="text/css" data-diagram-type="CLASS" height="251px" preserveAspectRatio="none" style="width:674px;height:251px;background:#FFFFFF;" version="1.1" viewBox="0 0 674 251" width="674px" zoomAndPan="magnify"><defs/><g><!--class Notificable--><g class="entity" data-entity="Notificable" data-source-line="2" data-uid="ent0002" id="entity_Notificable"><rect fill="#F1F1F1" height="64.2969" rx="2.5" ry="2.5" style="stroke:#181818;stroke-width:0.5;" width="312.6992" x="181" y="180.18"/><ellipse cx="295.6489" cy="196.18" fill="#B4A7E5" rx="11" ry="11" style="stroke:#181818;stroke-width:1;"/><path d="M291.5708,191.9456 L291.5708,189.7894 L298.9614,189.7894 L298.9614,191.9456 L296.4927,191.9456 L296.4927,200.0237 L298.9614,200.0237 L298.9614,202.18 L291.5708,202.18 L291.5708,200.0237 L294.0396,200.0237 L294.0396,191.9456 L291.5708,191.9456 Z " fill="#000000"/><text fill="#000000" font-family="sans-serif" font-size="14" font-style="italic" lengthAdjust="spacing" textLength="74.9014" x="316.1489" y="201.0267">Notificable</text><line style="stroke:#181818;stroke-width:0.5;" x1="182" x2="492.6992" y1="212.18" y2="212.18"/><line style="stroke:#181818;stroke-width:0.5;" x1="182" x2="492.6992" y1="220.18" y2="220.18"/><ellipse cx="192" cy="233.8284" fill="#84BE84" rx="3" ry="3" style="stroke:#038048;stroke-width:1;"/><text fill="#000000" font-family="sans-serif" font-size="14" lengthAdjust="spacing" textLength="286.6992" x="201" y="237.1751">enviarNotificacion(mensaje: String): void</text></g><!--class Cliente--><g class="entity" data-entity="Cliente" data-source-line="7" data-uid="ent0003" id="entity_Cliente"><rect fill="#F1F1F1" height="113.1875" rx="2.5" ry="2.5" style="stroke:#181818;stroke-width:0.5;" width="312.6992" x="7" y="7"/><ellipse cx="134.5278" cy="23" fill="#ADD1B2" rx="11" ry="11" style="stroke:#181818;stroke-width:1;"/><path d="M137.4966,28.6406 Q136.9185,28.9375 136.2778,29.0781 Q135.6372,29.2344 134.9341,29.2344 Q132.4341,29.2344 131.106,27.5938 Q129.7935,25.9375 129.7935,22.8125 Q129.7935,19.6875 131.106,18.0313 Q132.4341,16.375 134.9341,16.375 Q135.6372,16.375 136.2778,16.5313 Q136.9341,16.6875 137.4966,16.9844 L137.4966,19.7031 Q136.8716,19.125 136.2778,18.8594 Q135.6841,18.5781 135.0591,18.5781 Q133.7153,18.5781 133.0278,19.6563 Q132.3403,20.7188 132.3403,22.8125 Q132.3403,24.9063 133.0278,25.9844 Q133.7153,27.0469 135.0591,27.0469 Q135.6841,27.0469 136.2778,26.7813 Q136.8716,26.5 137.4966,25.9219 L137.4966,28.6406 Z " fill="#000000"/><text fill="#000000" font-family="sans-serif" font-size="14" lengthAdjust="spacing" textLength="49.1436" x="155.0278" y="27.8467">Cliente</text><line style="stroke:#181818;stroke-width:0.5;" x1="8" x2="318.6992" y1="39" y2="39"/><rect fill="none" height="6" style="stroke:#C82930;stroke-width:1;" width="6" x="15" y="49.6484"/><text fill="#000000" font-family="sans-serif" font-size="14" lengthAdjust="spacing" textLength="40.1953" x="27" y="55.9951">id: int</text><rect fill="none" height="6" style="stroke:#C82930;stroke-width:1;" width="6" x="15" y="65.9453"/><text fill="#000000" font-family="sans-serif" font-size="14" lengthAdjust="spacing" textLength="105.2803" x="27" y="72.292">nombre: String</text><rect fill="none" height="6" style="stroke:#C82930;stroke-width:1;" width="6" x="15" y="82.2422"/><text fill="#000000" font-family="sans-serif" font-size="14" lengthAdjust="spacing" textLength="89.5576" x="27" y="88.5889">email: String</text><line style="stroke:#181818;stroke-width:0.5;" x1="8" x2="318.6992" y1="95.8906" y2="95.8906"/><ellipse cx="18" cy="109.5391" fill="#84BE84" rx="3" ry="3" style="stroke:#038048;stroke-width:1;"/><text fill="#000000" font-family="sans-serif" font-size="14" lengthAdjust="spacing" textLength="286.6992" x="27" y="112.8857">enviarNotificacion(mensaje: String): void</text></g><!--class Empleado--><g class="entity" data-entity="Empleado" data-source-line="15" data-uid="ent0004" id="entity_Empleado"><rect fill="#F1F1F1" height="113.1875" rx="2.5" ry="2.5" style="stroke:#181818;stroke-width:0.5;" width="312.6992" x="355" y="7"/><ellipse cx="472.1475" cy="23" fill="#ADD1B2" rx="11" ry="11" style="stroke:#181818;stroke-width:1;"/><path d="M475.1162,28.6406 Q474.5381,28.9375 473.8975,29.0781 Q473.2568,29.2344 472.5537,29.2344 Q470.0537,29.2344 468.7256,27.5938 Q467.4131,25.9375 467.4131,22.8125 Q467.4131,19.6875 468.7256,18.0313 Q470.0537,16.375 472.5537,16.375 Q473.2568,16.375 473.8975,16.5313 Q474.5537,16.6875 475.1162,16.9844 L475.1162,19.7031 Q474.4912,19.125 473.8975,18.8594 Q473.3037,18.5781 472.6787,18.5781 Q471.335,18.5781 470.6475,19.6563 Q469.96,20.7188 469.96,22.8125 Q469.96,24.9063 470.6475,25.9844 Q471.335,27.0469 472.6787,27.0469 Q473.3037,27.0469 473.8975,26.7813 Q474.4912,26.5 475.1162,25.9219 L475.1162,28.6406 Z " fill="#000000"/><text fill="#000000" font-family="sans-serif" font-size="14" lengthAdjust="spacing" textLength="69.9043" x="492.6475" y="27.8467">Empleado</text><line style="stroke:#181818;stroke-width:0.5;" x1="356" x2="666.6992" y1="39" y2="39"/><rect fill="none" height="6" style="stroke:#C82930;stroke-width:1;" width="6" x="363" y="49.6484"/><text fill="#000000" font-family="sans-serif" font-size="14" lengthAdjust="spacing" textLength="40.1953" x="375" y="55.9951">id: int</text><rect fill="none" height="6" style="stroke:#C82930;stroke-width:1;" width="6" x="363" y="65.9453"/><text fill="#000000" font-family="sans-serif" font-size="14" lengthAdjust="spacing" textLength="105.2803" x="375" y="72.292">nombre: String</text><rect fill="none" height="6" style="stroke:#C82930;stroke-width:1;" width="6" x="363" y="82.2422"/><text fill="#000000" font-family="sans-serif" font-size="14" lengthAdjust="spacing" textLength="108.4863" x="375" y="88.5889">telefono: String</text><line style="stroke:#181818;stroke-width:0.5;" x1="356" x2="666.6992" y1="95.8906" y2="95.8906"/><ellipse cx="366" cy="109.5391" fill="#84BE84" rx="3" ry="3" style="stroke:#038048;stroke-width:1;"/><text fill="#000000" font-family="sans-serif" font-size="14" lengthAdjust="spacing" textLength="286.6992" x="375" y="112.8857">enviarNotificacion(mensaje: String): void</text></g><!--link Cliente to Notificable--><g class="link" data-entity-1="Cliente" data-entity-2="Notificable" data-source-line="23" data-uid="lnk5" id="link_Cliente_Notificable"><path codeLine="23" d="M229.63,120.48 C253.45,140.57 265.7005,150.905 286.2005,168.195" fill="none" id="Cliente-to-Notificable" style="stroke:#181818;stroke-width:1;stroke-dasharray:7,7;"/><polygon fill="none" points="299.96,179.8,290.0688,163.6085,282.3322,172.7815,299.96,179.8" style="stroke:#181818;stroke-width:1;"/></g><!--link Empleado to Notificable--><g class="link" data-entity-1="Empleado" data-entity-2="Notificable" data-source-line="24" data-uid="lnk6" id="link_Empleado_Notificable"><path codeLine="24" d="M445.07,120.48 C421.25,140.57 408.9995,150.905 388.4995,168.195" fill="none" id="Empleado-to-Notificable" style="stroke:#181818;stroke-width:1;stroke-dasharray:7,7;"/><polygon fill="none" points="374.74,179.8,392.3678,172.7815,384.6312,163.6085,374.74,179.8" style="stroke:#181818;stroke-width:1;"/></g><!--SRC=[hL4nSW8n3Epz2dN0PC83haX3Q5CaBz3PCeYHvU3pKGHu44Kgdd0VmmVXO59aCfDqykxQkskDu9ayArlkZWgEW3LJylXXlWPBy18pUxPO2y7M03m0wOOnNN7BKSU1jC4LLV2M4-jYKi4ciZDxOqOm4sm8R5IRA2Eiss8JteNAdN8Kl9dQecoAdWjpCNi4TbKlECyQGvq6apD40LdkaFz8bp7Kt1tqvvZpdaGNVvSpav2F6lyIzPK4RviQibsWiNIVIWYEcr8cixROjm8lP9S8vJNKHIkO9kRwmTFfxkb-lMQez9qv0G00]--></g></svg>