<svg xmlns="http://www.w3.org/2000/svg" xmlns:xlink="http://www.w3.org/1999/xlink" contentStyleType="text/css" data-diagram-type="CLASS" height="251px" preserveAspectRatio="none" style="width:795px;height:251px;background:#FFFFFF;" version="1.1" viewBox="0 0 795 251" width="795px" zoomAndPan="magnify"><defs/><g><!--class Notificable--><g class="entity" data-entity="Notificable" data-source-line="2" data-uid="ent0002" id="entity_Notificable"><rect fill="#F1F1F1" height="64.2969" rx="2.5" ry="2.5" style="stroke:#181818;stroke-width:0.5;" width="312.6992" x="7" y="31.44"/><ellipse cx="121.6489" cy="47.44" fill="#B4A7E5" rx="11" ry="11" style="stroke:#181818;stroke-width:1;"/><path d="M117.5708,43.2056 L117.5708,41.0494 L124.9614,41.0494 L124.9614,43.2056 L122.4927,43.2056 L122.4927,51.2838 L124.9614,51.2838 L124.9614,53.44 L117.5708,53.44 L117.5708,51.2838 L120.0396,51.2838 L120.0396,43.2056 L117.5708,43.2056 Z " fill="#000000"/><text fill="#000000" font-family="sans-serif" font-size="14" font-style="italic" lengthAdjust="spacing" textLength="74.9014" x="142.1489" y="52.2867">Notificable</text><line style="stroke:#181818;stroke-width:0.5;" x1="8" x2="318.6992" y1="63.44" y2="63.44"/><line style="stroke:#181818;stroke-width:0.5;" x1="8" x2="318.6992" y1="71.44" y2="71.44"/><ellipse cx="18" cy="85.0884" fill="#84BE84" rx="3" ry="3" style="stroke:#038048;stroke-width:1;"/><text fill="#000000" font-family="sans-serif" font-size="14" lengthAdjust="spacing" textLength="286.6992" x="27" y="88.4351">enviarNotificacion(mensaje: String): void</text></g><!--class NotificableAvanzado--><g class="entity" data-entity="NotificableAvanzado" data-source-line="7" data-uid="ent0003" id="entity_NotificableAvanzado"><rect fill="#F1F1F1" height="64.2969" rx="2.5" ry="2.5" style="stroke:#181818;stroke-width:0.5;" width="433.3262" x="150.69" y="180.18"/><ellipse cx="291.3052" cy="196.18" fill="#B4A7E5" rx="11" ry="11" style="stroke:#181818;stroke-width:1;"/><path d="M287.2271,191.9456 L287.2271,189.7894 L294.6177,189.7894 L294.6177,191.9456 L292.149,191.9456 L292.149,200.0237 L294.6177,200.0237 L294.6177,202.18 L287.2271,202.18 L287.2271,200.0237 L289.6959,200.0237 L289.6959,191.9456 L287.2271,191.9456 Z " fill="#000000"/><text fill="#000000" font-family="sans-serif" font-size="14" font-style="italic" lengthAdjust="spacing" textLength="143.5957" x="311.8052" y="201.0267">NotificableAvanzado</text><line style="stroke:#181818;stroke-width:0.5;" x1="151.69" x2="583.0162" y1="212.18" y2="212.18"/><line style="stroke:#181818;stroke-width:0.5;" x1="151.69" x2="583.0162" y1="220.18" y2="220.18"/><ellipse cx="161.69" cy="233.8284" fill="#84BE84" rx="3" ry="3" style="stroke:#038048;stroke-width:1;"/><text fill="#000000" font-family="sans-serif" font-size="14" lengthAdjust="spacing" textLength="407.3262" x="170.69" y="237.1751">programarNotificacion(mensaje: String, fecha: Date): void</text></g><!--class ClientePremium--><g class="entity" data-entity="ClientePremium" data-source-line="15" data-uid="ent0005" id="entity_ClientePremium"><rect fill="#F1F1F1" height="113.1875" rx="2.5" ry="2.5" style="stroke:#181818;stroke-width:0.5;" width="433.3262" x="354.69" y="7"/><ellipse cx="511.1065" cy="23" fill="#ADD1B2" rx="11" ry="11" style="stroke:#181818;stroke-width:1;"/><path d="M514.0753,28.6406 Q513.4971,28.9375 512.8565,29.0781 Q512.2159,29.2344 511.5128,29.2344 Q509.0128,29.2344 507.6846,27.5938 Q506.3721,25.9375 506.3721,22.8125 Q506.3721,19.6875 507.6846,18.0313 Q509.0128,16.375 511.5128,16.375 Q512.2159,16.375 512.8565,16.5313 Q513.5128,16.6875 514.0753,16.9844 L514.0753,19.7031 Q513.4503,19.125 512.8565,18.8594 Q512.2628,18.5781 511.6378,18.5781 Q510.294,18.5781 509.6065,19.6563 Q508.919,20.7188 508.919,22.8125 Q508.919,24.9063 509.6065,25.9844 Q510.294,27.0469 511.6378,27.0469 Q512.2628,27.0469 512.8565,26.7813 Q513.4503,26.5 514.0753,25.9219 L514.0753,28.6406 Z " fill="#000000"/><text fill="#000000" font-family="sans-serif" font-size="14" lengthAdjust="spacing" textLength="111.9932" x="531.6065" y="27.8467">ClientePremium</text><line style="stroke:#181818;stroke-width:0.5;" x1="355.69" x2="787.0162" y1="39" y2="39"/><rect fill="none" height="6" style="stroke:#C82930;stroke-width:1;" width="6" x="362.69" y="49.6484"/><text fill="#000000" font-family="sans-serif" font-size="14" lengthAdjust="spacing" textLength="40.1953" x="374.69" y="55.9951">id: int</text><rect fill="none" height="6" style="stroke:#C82930;stroke-width:1;" width="6" x="362.69" y="65.9453"/><text fill="#000000" font-family="sans-serif" font-size="14" lengthAdjust="spacing" textLength="89.5576" x="374.69" y="72.292">email: String</text><line style="stroke:#181818;stroke-width:0.5;" x1="355.69" x2="787.0162" y1="79.5938" y2="79.5938"/><ellipse cx="365.69" cy="93.2422" fill="#84BE84" rx="3" ry="3" style="stroke:#038048;stroke-width:1;"/><text fill="#000000" font-family="sans-serif" font-size="14" lengthAdjust="spacing" textLength="286.6992" x="374.69" y="96.5889">enviarNotificacion(mensaje: String): void</text><ellipse cx="365.69" cy="109.5391" fill="#84BE84" rx="3" ry="3" style="stroke:#038048;stroke-width:1;"/><text fill="#000000" font-family="sans-serif" font-size="14" lengthAdjust="spacing" textLength="407.3262" x="374.69" y="112.8857">programarNotificacion(mensaje: String, fecha: Date): void</text></g><!--reverse link Notificable to NotificableAvanzado--><g class="link" data-entity-1="Notificable" data-entity-2="NotificableAvanzado" data-source-line="12" data-uid="lnk4" id="link_Notificable_NotificableAvanzado"><path codeLine="12" d="M221.7221,106.5812 C256.1421,131.3412 289.26,155.16 323.66,179.9" fill="none" id="Notificable-backto-NotificableAvanzado" style="stroke:#181818;stroke-width:1;"/><polygon fill="none" points="207.11,96.07,218.2184,111.4519,225.2259,101.7105,207.11,96.07" style="stroke:#181818;stroke-width:1;"/></g><!--link ClientePremium to NotificableAvanzado--><g class="link" data-entity-1="ClientePremium" data-entity-2="NotificableAvanzado" data-source-line="22" data-uid="lnk6" id="link_ClientePremium_NotificableAvanzado"><path codeLine="22" d="M493.64,120.48 C465.72,140.57 449.833,152 425.793,169.29" fill="none" id="ClientePremium-to-NotificableAvanzado" style="stroke:#181818;stroke-width:1;stroke-dasharray:7,7;"/><polygon fill="none" points="411.18,179.8,429.2964,174.1611,422.2897,164.419,411.18,179.8" style="stroke:#181818;stroke-width:1;"/></g><!--SRC=[fP1DRi8m48NtFiNR0Mh30I9KgMeNxQP2wWa6PmA3_4DjaqLA3zC3S0ekXWbD_nHLgjXvh7dpllT6U7I9Gqqj5XHPoNdIZ2UVf1PD2yDuLS0Ls3L2eV_NujtOiekqvXBFAOXRJaeqNYhrfjJew_1AreINBOFinXps13RGtgL0oGyRtZRaMghyX_4c-6KW-xVtDMhMAofnJub_W3nmOAU5K34-xQBw7d2sAueXW9FypkHYEdx9_9nj4y5GVwg5FRn7q5b1IkVrc4MIztWUsChMTZaAI5MULDsRBOdfsVzPxyMT_AARJdStG-cF]--></g></svg>