<svg xmlns="http://www.w3.org/2000/svg" xmlns:xlink="http://www.w3.org/1999/xlink" contentStyleType="text/css" data-diagram-type="CLASS" height="565px" preserveAspectRatio="none" style="width:401px;height:565px;background:#FFFFFF;" version="1.1" viewBox="0 0 401 565" width="401px" zoomAndPan="magnify"><title>Modelo Conceptual &#8212; Plataforma de Cursos Online</title><defs/><g><g class="title" data-source-line="3"><text fill="#000000" font-family="sans-serif" font-size="14" font-weight="bold" lengthAdjust="spacing" textLength="356.1307" x="15.824" y="24.9659">Modelo Conceptual &#8212; Plataforma de Cursos Online</text></g><!--class Usuario--><g class="entity" data-entity="Usuario" data-source-line="5" data-uid="ent0002" id="entity_Usuario"><rect fill="#F1F1F1" height="124.2717" rx="2.5" ry="2.5" style="stroke:#181818;stroke-width:0.5;" width="221.0612" x="7" y="47.0679"/><ellipse cx="87.6257" cy="63.0679" fill="#ADD1B2" rx="11" ry="11" style="stroke:#181818;stroke-width:1;"/><path d="M90.5944,68.7085 Q90.0163,69.0054 89.3757,69.146 Q88.7351,69.3023 88.0319,69.3023 Q85.5319,69.3023 84.2038,67.6617 Q82.8913,66.0054 82.8913,62.8804 Q82.8913,59.7554 84.2038,58.0992 Q85.5319,56.4429 88.0319,56.4429 Q88.7351,56.4429 89.3757,56.5992 Q90.0319,56.7554 90.5944,57.0523 L90.5944,59.771 Q89.9694,59.1929 89.3757,58.9273 Q88.7819,58.646 88.1569,58.646 Q86.8132,58.646 86.1257,59.7242 Q85.4382,60.7867 85.4382,62.8804 Q85.4382,64.9742 86.1257,66.0523 Q86.8132,67.1148 88.1569,67.1148 Q88.7819,67.1148 89.3757,66.8492 Q89.9694,66.5679 90.5944,65.9898 L90.5944,68.7085 Z " fill="#000000"/><text fill="#000000" font-family="sans-serif" font-size="14" lengthAdjust="spacing" textLength="51.3098" x="108.1257" y="68.4999">Usuario</text><line style="stroke:#181818;stroke-width:0.5;" x1="8" x2="227.0612" y1="79.0679" y2="79.0679"/><text fill="#000000" font-family="sans-serif" font-size="14" lengthAdjust="spacing" textLength="71.5397" x="13" y="98.0339">+idUsuario</text><text fill="#000000" font-family="sans-serif" font-size="14" lengthAdjust="spacing" textLength="60.5078" x="13" y="117.1018">+nombre</text><text fill="#000000" font-family="sans-serif" font-size="14" lengthAdjust="spacing" textLength="44.0718" x="13" y="136.1697">+email</text><text fill="#000000" font-family="sans-serif" font-size="14" lengthAdjust="spacing" textLength="209.0612" x="13" y="155.2376">+rol  ' "ALUMNO" | "PROFESOR"</text><line style="stroke:#181818;stroke-width:0.5;" x1="8" x2="227.0612" y1="163.3396" y2="163.3396"/></g><!--class Curso--><g class="entity" data-entity="Curso" data-source-line="12" data-uid="ent0003" id="entity_Curso"><rect fill="#F1F1F1" height="105.2038" rx="2.5" ry="2.5" style="stroke:#181818;stroke-width:0.5;" width="95.3977" x="263" y="56.5679"/><ellipse cx="289.2229" cy="72.5679" fill="#ADD1B2" rx="11" ry="11" style="stroke:#181818;stroke-width:1;"/><path d="M292.1917,78.2085 Q291.6135,78.5054 290.9729,78.646 Q290.3323,78.8023 289.6292,78.8023 Q287.1292,78.8023 285.801,77.1617 Q284.4885,75.5054 284.4885,72.3804 Q284.4885,69.2554 285.801,67.5992 Q287.1292,65.9429 289.6292,65.9429 Q290.3323,65.9429 290.9729,66.0992 Q291.6292,66.2554 292.1917,66.5523 L292.1917,69.271 Q291.5667,68.6929 290.9729,68.4273 Q290.3792,68.146 289.7542,68.146 Q288.4104,68.146 287.7229,69.2242 Q287.0354,70.2867 287.0354,72.3804 Q287.0354,74.4742 287.7229,75.5523 Q288.4104,76.6148 289.7542,76.6148 Q290.3792,76.6148 290.9729,76.3492 Q291.5667,76.0679 292.1917,75.4898 L292.1917,78.2085 Z " fill="#000000"/><text fill="#000000" font-family="sans-serif" font-size="14" lengthAdjust="spacing" textLength="38.4579" x="305.7169" y="77.9999">Curso</text><line style="stroke:#181818;stroke-width:0.5;" x1="264" x2="357.3977" y1="88.5679" y2="88.5679"/><text fill="#000000" font-family="sans-serif" font-size="14" lengthAdjust="spacing" textLength="58.6878" x="269" y="107.5339">+idCurso</text><text fill="#000000" font-family="sans-serif" font-size="14" lengthAdjust="spacing" textLength="42.4618" x="269" y="126.6018">+titulo</text><text fill="#000000" font-family="sans-serif" font-size="14" lengthAdjust="spacing" textLength="83.3977" x="269" y="145.6697">+descripcion</text><line style="stroke:#181818;stroke-width:0.5;" x1="264" x2="357.3977" y1="153.7717" y2="153.7717"/></g><!--class Matricula--><g class="entity" data-entity="Matricula" data-source-line="18" data-uid="ent0004" id="entity_Matricula"><rect fill="#F1F1F1" height="105.2038" rx="2.5" ry="2.5" style="stroke:#181818;stroke-width:0.5;" width="297.2629" x="65" y="250.0679"/><ellipse cx="178.4626" cy="266.0679" fill="#ADD1B2" rx="11" ry="11" style="stroke:#181818;stroke-width:1;"/><path d="M181.4313,271.7085 Q180.8532,272.0054 180.2126,272.146 Q179.5719,272.3023 178.8688,272.3023 Q176.3688,272.3023 175.0407,270.6617 Q173.7282,269.0054 173.7282,265.8804 Q173.7282,262.7554 175.0407,261.0992 Q176.3688,259.4429 178.8688,259.4429 Q179.5719,259.4429 180.2126,259.5992 Q180.8688,259.7554 181.4313,260.0523 L181.4313,262.771 Q180.8063,262.1929 180.2126,261.9273 Q179.6188,261.646 178.9938,261.646 Q177.6501,261.646 176.9626,262.7242 Q176.2751,263.7867 176.2751,265.8804 Q176.2751,267.9742 176.9626,269.0523 Q177.6501,270.1148 178.9938,270.1148 Q179.6188,270.1148 180.2126,269.8492 Q180.8063,269.5679 181.4313,268.9898 L181.4313,271.7085 Z " fill="#000000"/><text fill="#000000" font-family="sans-serif" font-size="14" lengthAdjust="spacing" textLength="61.8378" x="198.9626" y="271.4999">Matricula</text><line style="stroke:#181818;stroke-width:0.5;" x1="66" x2="361.2629" y1="282.0679" y2="282.0679"/><text fill="#000000" font-family="sans-serif" font-size="14" lengthAdjust="spacing" textLength="82.0677" x="71" y="301.0339">+idMatricula</text><text fill="#000000" font-family="sans-serif" font-size="14" lengthAdjust="spacing" textLength="69.4117" x="71" y="320.1018">+fechaAlta</text><text fill="#000000" font-family="sans-serif" font-size="14" lengthAdjust="spacing" textLength="285.2629" x="71" y="339.1697">+estado  ' "ACTIVA" | "PENDIENTE" | "BAJA"</text><line style="stroke:#181818;stroke-width:0.5;" x1="66" x2="361.2629" y1="347.2717" y2="347.2717"/></g><!--class Pago--><g class="entity" data-entity="Pago" data-source-line="24" data-uid="ent0005" id="entity_Pago"><rect fill="#F1F1F1" height="124.2717" rx="2.5" ry="2.5" style="stroke:#181818;stroke-width:0.5;" width="362.2786" x="32.5" y="434.0679"/><ellipse cx="192.6874" cy="450.0679" fill="#ADD1B2" rx="11" ry="11" style="stroke:#181818;stroke-width:1;"/><path d="M195.6561,455.7085 Q195.078,456.0054 194.4374,456.146 Q193.7967,456.3023 193.0936,456.3023 Q190.5936,456.3023 189.2655,454.6617 Q187.953,453.0054 187.953,449.8804 Q187.953,446.7554 189.2655,445.0992 Q190.5936,443.4429 193.0936,443.4429 Q193.7967,443.4429 194.4374,443.5992 Q195.0936,443.7554 195.6561,444.0523 L195.6561,446.771 Q195.0311,446.1929 194.4374,445.9273 Q193.8436,445.646 193.2186,445.646 Q191.8749,445.646 191.1874,446.7242 Q190.4999,447.7867 190.4999,449.8804 Q190.4999,451.9742 191.1874,453.0523 Q191.8749,454.1148 193.2186,454.1148 Q193.8436,454.1148 194.4374,453.8492 Q195.0311,453.5679 195.6561,452.9898 L195.6561,455.7085 Z " fill="#000000"/><text fill="#000000" font-family="sans-serif" font-size="14" lengthAdjust="spacing" textLength="33.4039" x="213.1874" y="455.4999">Pago</text><line style="stroke:#181818;stroke-width:0.5;" x1="33.5" x2="393.7786" y1="466.0679" y2="466.0679"/><text fill="#000000" font-family="sans-serif" font-size="14" lengthAdjust="spacing" textLength="53.6338" x="38.5" y="485.0339">+idPago</text><text fill="#000000" font-family="sans-serif" font-size="14" lengthAdjust="spacing" textLength="77.3497" x="38.5" y="504.1018">+fechaPago</text><text fill="#000000" font-family="sans-serif" font-size="14" lengthAdjust="spacing" textLength="60.5218" x="38.5" y="523.1697">+importe</text><text fill="#000000" font-family="sans-serif" font-size="14" lengthAdjust="spacing" textLength="350.2786" x="38.5" y="542.2376">+metodo  ' "TARJETA" | "TRANSFERENCIA" | "PAYPAL"</text><line style="stroke:#181818;stroke-width:0.5;" x1="33.5" x2="393.7786" y1="550.3396" y2="550.3396"/></g><!--link Usuario to Matricula--><g class="link" data-entity-1="Usuario" data-entity-2="Matricula" data-source-line="32" data-uid="lnk6" id="link_Usuario_Matricula"><path codeLine="32" d="M148.14,171.1879 C160.87,196.5779 175.48,225.7279 187.66,250.0179" fill="none" id="Usuario-Matricula" style="stroke:#181818;stroke-width:1;"/><polygon fill="#000000" points="178.7408,215.3907,177.3144,205.9877,172.0599,208.6219,178.7408,215.3907" style="stroke:#000000;stroke-width:1;"/><text fill="#000000" font-family="sans-serif" font-size="13" lengthAdjust="spacing" textLength="40.105" x="185.5" y="215.9649">realiza</text><text fill="#000000" font-family="sans-serif" font-size="13" lengthAdjust="spacing" textLength="7.436" x="144.2997" y="193.2755">1</text><text fill="#000000" font-family="sans-serif" font-size="13" lengthAdjust="spacing" textLength="21.567" x="161.5711" y="238.3651">0..*</text></g><!--link Curso to Matricula--><g class="link" data-entity-1="Curso" data-entity-2="Matricula" data-source-line="33" data-uid="lnk7" id="link_Curso_Matricula"><path codeLine="33" d="M284.38,161.6379 C270.52,188.9979 253.54,222.5279 239.67,249.9079" fill="none" id="Curso-Matricula" style="stroke:#181818;stroke-width:1;"/><polygon fill="#000000" points="264.2407,215.3814,270.9496,208.6403,265.706,205.9844,264.2407,215.3814" style="stroke:#000000;stroke-width:1;"/><text fill="#000000" font-family="sans-serif" font-size="13" lengthAdjust="spacing" textLength="88.2961" x="275.5" y="215.9649">corresponde a</text><text fill="#000000" font-family="sans-serif" font-size="13" lengthAdjust="spacing" textLength="7.436" x="273.4024" y="183.775">1</text><text fill="#000000" font-family="sans-serif" font-size="13" lengthAdjust="spacing" textLength="21.567" x="220.895" y="238.2396">0..*</text></g><!--link Matricula to Pago--><g class="link" data-entity-1="Matricula" data-entity-2="Pago" data-source-line="34" data-uid="lnk8" id="link_Matricula_Pago"><path codeLine="34" d="M213.5,355.1379 C213.5,379.3979 213.5,408.5079 213.5,433.8779" fill="none" id="Matricula-Pago" style="stroke:#181818;stroke-width:1;"/><polygon fill="#000000" points="218.5,399.9209,221.4389,390.8758,215.5611,390.8758,218.5,399.9209" style="stroke:#000000;stroke-width:1;"/><text fill="#000000" font-family="sans-serif" font-size="13" lengthAdjust="spacing" textLength="43.264" x="227.5" y="399.9649">origina</text><text fill="#000000" font-family="sans-serif" font-size="13" lengthAdjust="spacing" textLength="7.436" x="206.0413" y="377.275">1</text><text fill="#000000" font-family="sans-serif" font-size="13" lengthAdjust="spacing" textLength="21.567" x="191.2379" y="422.1861">0..*</text></g><!--SRC=[VL7DQeD04Bxx58ENG4j2UisXiBK638cACOKU9pf9bgwxihjII5leG_G9-oJLDPhsqjltkJFVpsXUkAnHOmM5G6EOjPhl6qjHeUIMdmdcdXb7p0bBzShb4Gue37cMMq6mKIK91O6I1TMsGG7Vdr-G2hHuKBf2A0c2HXjb8962I_8yvmKxqw3c2juyW5jUNcX7fAhscZf45NBH0Qq4m0HyjjvjuiI7T_3JB5c6soJplOz1qlaCWevqiCtP28TACeNcTS6Ll2vji2rTD0A7nV53HmzKd909wmWPsvwW3nBaqHFhWuJnOnJ6UUZO0rknNv5IF8w9EZng3eHNjTBMjQt8gejyph9LcFVwUSRYxJBCmZY8BexiEMLhvpA1Z0HsZSXumqdzEn-cK_3dizcD_wlW0ZIXu6U4Uw-_rJ-ZXTAQJAra-mExXUlRtntNS05AyoENxU0F]--></g></svg>