<svg xmlns="http://www.w3.org/2000/svg" xmlns:xlink="http://www.w3.org/1999/xlink" contentStyleType="text/css" data-diagram-type="CLASS" height="318px" preserveAspectRatio="none" style="width:828px;height:318px;background:#FFFFFF;" version="1.1" viewBox="0 0 828 318" width="828px" zoomAndPan="magnify"><title>Modelo L&#243;gico &#8212; Relacional</title><defs/><g><g class="title" data-source-line="3"><text fill="#000000" font-family="sans-serif" font-size="14" font-weight="bold" lengthAdjust="spacing" textLength="194.7253" x="309.7732" y="24.9659">Modelo L&#243;gico &#8212; Relacional</text></g><!--class Usuario--><g class="entity" data-entity="Usuario" data-source-line="5" data-uid="ent0002" id="entity_Usuario"><rect fill="#F1F1F1" height="124.2717" rx="2.5" ry="2.5" style="stroke:#181818;stroke-width:0.5;" width="106.9476" x="7" y="47.0679"/><ellipse cx="32.637" cy="63.0679" fill="#ADD1B2" rx="11" ry="11" style="stroke:#181818;stroke-width:1;"/><path d="M36.7464,69.0679 L29.0276,69.0679 L29.0276,56.6773 L36.7464,56.6773 L36.7464,58.8335 L31.4808,58.8335 L31.4808,61.5054 L36.2464,61.5054 L36.2464,63.6617 L31.4808,63.6617 L31.4808,66.9117 L36.7464,66.9117 L36.7464,69.0679 Z " fill="#000000"/><text fill="#000000" font-family="sans-serif" font-size="14" lengthAdjust="spacing" textLength="51.3098" x="49.0008" y="68.4999">Usuario</text><line style="stroke:#181818;stroke-width:0.5;" x1="8" x2="112.9476" y1="79.0679" y2="79.0679"/><text fill="#000000" font-family="sans-serif" font-size="14" lengthAdjust="spacing" textLength="94.9476" x="13" y="98.0339">{PK} idUsuario</text><text fill="#000000" font-family="sans-serif" font-size="14" lengthAdjust="spacing" textLength="52.4998" x="13" y="117.1018">nombre</text><text fill="#000000" font-family="sans-serif" font-size="14" lengthAdjust="spacing" textLength="36.0639" x="13" y="136.1697">email</text><text fill="#000000" font-family="sans-serif" font-size="14" lengthAdjust="spacing" textLength="17.8639" x="13" y="155.2376">rol</text><line style="stroke:#181818;stroke-width:0.5;" x1="8" x2="112.9476" y1="163.3396" y2="163.3396"/></g><!--class Curso--><g class="entity" data-entity="Curso" data-source-line="12" data-uid="ent0003" id="entity_Curso"><rect fill="#F1F1F1" height="105.2038" rx="2.5" ry="2.5" style="stroke:#181818;stroke-width:0.5;" width="94.0957" x="13.5" y="206.5679"/><ellipse cx="39.137" cy="222.5679" fill="#ADD1B2" rx="11" ry="11" style="stroke:#181818;stroke-width:1;"/><path d="M43.2464,228.5679 L35.5276,228.5679 L35.5276,216.1773 L43.2464,216.1773 L43.2464,218.3335 L37.9808,218.3335 L37.9808,221.0054 L42.7464,221.0054 L42.7464,223.1617 L37.9808,223.1617 L37.9808,226.4117 L43.2464,226.4117 L43.2464,228.5679 Z " fill="#000000"/><text fill="#000000" font-family="sans-serif" font-size="14" lengthAdjust="spacing" textLength="38.4579" x="55.5008" y="227.9999">Curso</text><line style="stroke:#181818;stroke-width:0.5;" x1="14.5" x2="106.5957" y1="238.5679" y2="238.5679"/><text fill="#000000" font-family="sans-serif" font-size="14" lengthAdjust="spacing" textLength="82.0957" x="19.5" y="257.5339">{PK} idCurso</text><text fill="#000000" font-family="sans-serif" font-size="14" lengthAdjust="spacing" textLength="34.4539" x="19.5" y="276.6018">titulo</text><text fill="#000000" font-family="sans-serif" font-size="14" lengthAdjust="spacing" textLength="75.3897" x="19.5" y="295.6697">descripcion</text><line style="stroke:#181818;stroke-width:0.5;" x1="14.5" x2="106.5957" y1="303.7717" y2="303.7717"/></g><!--class Matricula--><g class="entity" data-entity="Matricula" data-source-line="18" data-uid="ent0004" id="entity_Matricula"><rect fill="#F1F1F1" height="162.4075" rx="2.5" ry="2.5" style="stroke:#181818;stroke-width:0.5;" width="288.555" x="260" y="103.0679"/><ellipse cx="369.1086" cy="119.0679" fill="#ADD1B2" rx="11" ry="11" style="stroke:#181818;stroke-width:1;"/><path d="M373.218,125.0679 L365.4992,125.0679 L365.4992,112.6773 L373.218,112.6773 L373.218,114.8335 L367.9523,114.8335 L367.9523,117.5054 L372.718,117.5054 L372.718,119.6617 L367.9523,119.6617 L367.9523,122.9117 L373.218,122.9117 L373.218,125.0679 Z " fill="#000000"/><text fill="#000000" font-family="sans-serif" font-size="14" lengthAdjust="spacing" textLength="61.8378" x="389.6086" y="124.4999">Matricula</text><line style="stroke:#181818;stroke-width:0.5;" x1="261" x2="547.555" y1="135.0679" y2="135.0679"/><text fill="#000000" font-family="sans-serif" font-size="14" lengthAdjust="spacing" textLength="105.4756" x="266" y="154.0339">{PK} idMatricula</text><text fill="#000000" font-family="sans-serif" font-size="14" lengthAdjust="spacing" textLength="61.4038" x="266" y="173.1018">fechaAlta</text><text fill="#000000" font-family="sans-serif" font-size="14" lengthAdjust="spacing" textLength="44.5898" x="266" y="192.1697">estado</text><text fill="#000000" font-family="sans-serif" font-size="14" lengthAdjust="spacing" textLength="93.7437" x="266" y="211.2376">{FK} idUsuario</text><text fill="#000000" font-family="sans-serif" font-size="14" lengthAdjust="spacing" textLength="80.8917" x="266" y="230.3055">{FK} idCurso</text><line style="stroke:#181818;stroke-width:0.5;" x1="261" x2="547.555" y1="238.4075" y2="238.4075"/><text fill="#000000" font-family="sans-serif" font-size="14" lengthAdjust="spacing" textLength="276.555" x="266" y="257.3734">-- Restricci&#243;n: UNIQUE(idUsuario, idCurso)</text></g><!--class Pago--><g class="entity" data-entity="Pago" data-source-line="27" data-uid="ent0005" id="entity_Pago"><rect fill="#F1F1F1" height="143.3396" rx="2.5" ry="2.5" style="stroke:#181818;stroke-width:0.5;" width="116.2716" x="705" y="112.5679"/><ellipse cx="742.8905" cy="128.5679" fill="#ADD1B2" rx="11" ry="11" style="stroke:#181818;stroke-width:1;"/><path d="M746.9998,134.5679 L739.2811,134.5679 L739.2811,122.1773 L746.9998,122.1773 L746.9998,124.3335 L741.7342,124.3335 L741.7342,127.0054 L746.4998,127.0054 L746.4998,129.1617 L741.7342,129.1617 L741.7342,132.4117 L746.9998,132.4117 L746.9998,134.5679 Z " fill="#000000"/><text fill="#000000" font-family="sans-serif" font-size="14" lengthAdjust="spacing" textLength="33.4039" x="761.9772" y="133.9999">Pago</text><line style="stroke:#181818;stroke-width:0.5;" x1="706" x2="820.2716" y1="144.5679" y2="144.5679"/><text fill="#000000" font-family="sans-serif" font-size="14" lengthAdjust="spacing" textLength="77.0417" x="711" y="163.5339">{PK} idPago</text><text fill="#000000" font-family="sans-serif" font-size="14" lengthAdjust="spacing" textLength="69.3417" x="711" y="182.6018">fechaPago</text><text fill="#000000" font-family="sans-serif" font-size="14" lengthAdjust="spacing" textLength="52.5138" x="711" y="201.6697">importe</text><text fill="#000000" font-family="sans-serif" font-size="14" lengthAdjust="spacing" textLength="51.5898" x="711" y="220.7376">metodo</text><text fill="#000000" font-family="sans-serif" font-size="14" lengthAdjust="spacing" textLength="104.2716" x="711" y="239.8055">{FK} idMatricula</text><line style="stroke:#181818;stroke-width:0.5;" x1="706" x2="820.2716" y1="247.9075" y2="247.9075"/></g><!--link Usuario to Matricula--><g class="link" data-entity-1="Usuario" data-entity-2="Matricula" data-source-line="35" data-uid="lnk6" id="link_Usuario_Matricula"><path codeLine="35" d="M122.0041,122.3323 C160.9741,130.8823 190.6384,137.3797 242.2684,148.7097" fill="none" id="Usuario-Matricula" style="stroke:#181818;stroke-width:1;"/><line style="stroke:#181818;stroke-width:1;" x1="117.2399" x2="118.9543" y1="125.3822" y2="117.5681"/><line style="stroke:#181818;stroke-width:1;" x1="120.1702" x2="121.8846" y1="126.0251" y2="118.211"/><line style="stroke:#181818;stroke-width:1;" x1="122.0041" x2="114.19" y1="122.3323" y2="120.6179"/><line style="stroke:#181818;stroke-width:1;" x1="252.0359" x2="261.1361" y1="150.8532" y2="146.7074"/><line style="stroke:#181818;stroke-width:1;" x1="252.0359" x2="258.5639" y1="150.8532" y2="158.4285"/><line style="stroke:#181818;stroke-width:1;" x1="252.0359" x2="259.85" y1="150.8532" y2="152.5679"/><ellipse cx="246.1754" cy="149.5671" fill="none" rx="4" ry="4" style="stroke:#181818;stroke-width:1;"/><text fill="#000000" font-family="sans-serif" font-size="13" lengthAdjust="spacing" textLength="84.9681" x="145" y="123.9649">idUsuario (FK)</text></g><!--link Curso to Matricula--><g class="link" data-entity-1="Curso" data-entity-2="Matricula" data-source-line="36" data-uid="lnk7" id="link_Curso_Matricula"><path codeLine="36" d="M115.4342,247.2436 C154.6342,238.6436 187.6979,231.3943 242.3179,219.4143" fill="none" id="Curso-Matricula" style="stroke:#181818;stroke-width:1;"/><line style="stroke:#181818;stroke-width:1;" x1="112.3842" x2="110.6699" y1="252.0078" y2="244.1937"/><line style="stroke:#181818;stroke-width:1;" x1="115.3146" x2="113.6002" y1="251.365" y2="243.5508"/><line style="stroke:#181818;stroke-width:1;" x1="115.4342" x2="107.62" y1="247.2436" y2="248.9579"/><line style="stroke:#181818;stroke-width:1;" x1="252.0858" x2="258.6146" y1="217.2718" y2="209.6972"/><line style="stroke:#181818;stroke-width:1;" x1="252.0858" x2="261.1854" y1="217.2718" y2="221.4186"/><line style="stroke:#181818;stroke-width:1;" x1="252.0858" x2="259.9" y1="217.2718" y2="215.5579"/><ellipse cx="246.2251" cy="218.5573" fill="none" rx="4" ry="4" style="stroke:#181818;stroke-width:1;"/><text fill="#000000" font-family="sans-serif" font-size="13" lengthAdjust="spacing" textLength="73.0341" x="150.5" y="218.9649">idCurso (FK)</text></g><!--link Matricula to Pago--><g class="link" data-entity-1="Matricula" data-entity-2="Pago" data-source-line="37" data-uid="lnk8" id="link_Matricula_Pago"><path codeLine="37" d="M557.22,184.0679 C611.75,184.0679 644.76,184.0679 686.77,184.0679" fill="none" id="Matricula-Pago" style="stroke:#181818;stroke-width:1;"/><line style="stroke:#181818;stroke-width:1;" x1="553.22" x2="553.22" y1="188.0679" y2="180.0679"/><line style="stroke:#181818;stroke-width:1;" x1="556.22" x2="556.22" y1="188.0679" y2="180.0679"/><line style="stroke:#181818;stroke-width:1;" x1="557.22" x2="549.22" y1="184.0679" y2="184.0679"/><line style="stroke:#181818;stroke-width:1;" x1="696.77" x2="704.77" y1="184.0679" y2="178.0679"/><line style="stroke:#181818;stroke-width:1;" x1="696.77" x2="704.77" y1="184.0679" y2="190.0679"/><line style="stroke:#181818;stroke-width:1;" x1="696.77" x2="704.77" y1="184.0679" y2="184.0679"/><ellipse cx="690.77" cy="184.0679" fill="none" rx="4" ry="4" style="stroke:#181818;stroke-width:1;"/><text fill="#000000" font-family="sans-serif" font-size="13" lengthAdjust="spacing" textLength="94.7441" x="580" y="179.9649">idMatricula (FK)</text></g><!--SRC=[RL1RJiCm4FptAVQpbSW5yeSGbL1fLP1oWCNP92iSEx8T8PHMuX3Sf4VeJJW9TffN4LyUpyxipgvxPzsWnHfSXRdvO5r2WSgHK5Huy0OibvM7d2r9pqOBpruHx4nEoi3pvLooDF3pzGslf5061IeXI0VP9sIkHSi6EW7G7ROdu7oW0g5D_MOf0AgHLNYjKU8qUHzQwswSFH6-eTgg279oqd8JPovyE_IMPQjmwPt8G1KaAxnNFc9oFcmTTPi_wGPY79eaOJyNcqY-d7KAsVxf9NjSJPQxKRnUP3bWURD2_8y91inrOwoFPwZ9csMMENDeE5xoU4mIqosMJEVKiDfir-9wD_XVUItskhamAFkmwN9mB_m5]--></g></svg>