<svg xmlns="http://www.w3.org/2000/svg" xmlns:xlink="http://www.w3.org/1999/xlink" contentStyleType="text/css" data-diagram-type="SEQUENCE" height="554px" preserveAspectRatio="none" style="width:639px;height:554px;background:#FFFFFF;" version="1.1" viewBox="0 0 639 554" width="639px" zoomAndPan="magnify"><defs/><g><rect fill="none" height="225.924" style="stroke:#000000;stroke-width:1.5;" width="505.8602" x="10" y="227.892"/><g><title>Usuario</title><rect fill="#000000" fill-opacity="0.00000" height="386.7481" width="8" x="44.6549" y="84.0679"/><line style="stroke:#181818;stroke-width:0.5;stroke-dasharray:5,5;" x1="48" x2="48" y1="84.0679" y2="470.816"/></g><g><title>Frontend</title><rect fill="#000000" fill-opacity="0.00000" height="386.7481" width="8" x="210.628" y="84.0679"/><line style="stroke:#181818;stroke-width:0.5;stroke-dasharray:5,5;" x1="214.4371" x2="214.4371" y1="84.0679" y2="470.816"/></g><g><title>Servicio de Autenticaci.n</title><rect fill="#000000" fill-opacity="0.00000" height="386.7481" width="8" x="370.3741" y="84.0679"/><line style="stroke:#181818;stroke-width:0.5;stroke-dasharray:5,5;" x1="374.0895" x2="374.0895" y1="84.0679" y2="470.816"/></g><g><title>Base de Datos</title><rect fill="#000000" fill-opacity="0.00000" height="386.7481" width="8" x="584.7853" y="84.0679"/><line style="stroke:#181818;stroke-width:0.5;stroke-dasharray:5,5;" x1="587.9625" x2="587.9625" y1="84.0679" y2="470.816"/></g><g class="participant participant-head" data-participant="Usuario"><text fill="#000000" font-family="sans-serif" font-size="14" lengthAdjust="spacing" textLength="51.3098" x="20" y="79.9659">Usuario</text><ellipse cx="48.6549" cy="13.5" fill="#E2E2F0" rx="8" ry="8" style="stroke:#181818;stroke-width:0.5;"/><path d="M48.6549,21.5 L48.6549,48.5 M35.6549,29.5 L61.6549,29.5 M48.6549,48.5 L35.6549,63.5 M48.6549,48.5 L61.6549,63.5" fill="none" style="stroke:#181818;stroke-width:0.5;"/></g><g class="participant participant-tail" data-participant="Usuario"><text fill="#000000" font-family="sans-serif" font-size="14" lengthAdjust="spacing" textLength="51.3098" x="20" y="484.7819">Usuario</text><ellipse cx="48.6549" cy="497.3839" fill="#E2E2F0" rx="8" ry="8" style="stroke:#181818;stroke-width:0.5;"/><path d="M48.6549,505.3839 L48.6549,532.3839 M35.6549,513.3839 L61.6549,513.3839 M48.6549,532.3839 L35.6549,547.3839 M48.6549,532.3839 L61.6549,547.3839" fill="none" style="stroke:#181818;stroke-width:0.5;"/></g><g class="participant participant-head" data-participant="FE"><rect fill="#E2E2F0" height="33.0679" rx="2.5" ry="2.5" style="stroke:#181818;stroke-width:0.5;" width="74.3818" x="177.4371" y="50"/><text fill="#000000" font-family="sans-serif" font-size="14" lengthAdjust="spacing" textLength="60.3818" x="184.4371" y="71.9659">Frontend</text></g><g class="participant participant-tail" data-participant="FE"><rect fill="#E2E2F0" height="33.0679" rx="2.5" ry="2.5" style="stroke:#181818;stroke-width:0.5;" width="74.3818" x="177.4371" y="469.816"/><text fill="#000000" font-family="sans-serif" font-size="14" lengthAdjust="spacing" textLength="60.3818" x="184.4371" y="491.7819">Frontend</text></g><g class="participant participant-head" data-participant="Auth"><rect fill="#E2E2F0" height="33.0679" rx="2.5" ry="2.5" style="stroke:#181818;stroke-width:0.5;" width="178.5694" x="285.0895" y="50"/><text fill="#000000" font-family="sans-serif" font-size="14" lengthAdjust="spacing" textLength="164.5694" x="292.0895" y="71.9659">Servicio de Autenticaci&#243;n</text></g><g class="participant participant-tail" data-participant="Auth"><rect fill="#E2E2F0" height="33.0679" rx="2.5" ry="2.5" style="stroke:#181818;stroke-width:0.5;" width="178.5694" x="285.0895" y="469.816"/><text fill="#000000" font-family="sans-serif" font-size="14" lengthAdjust="spacing" textLength="164.5694" x="292.0895" y="491.7819">Servicio de Autenticaci&#243;n</text></g><g class="participant participant-head" data-participant="DB"><text fill="#000000" font-family="sans-serif" font-size="14" lengthAdjust="spacing" textLength="93.6456" x="538.9625" y="79.9659">Base de Datos</text><path d="M570.7853,29 C570.7853,19 588.7853,19 588.7853,19 C588.7853,19 606.7853,19 606.7853,29 L606.7853,55 C606.7853,65 588.7853,65 588.7853,65 C588.7853,65 570.7853,65 570.7853,55 L570.7853,29" fill="#E2E2F0" style="stroke:#181818;stroke-width:0.5;"/><path d="M570.7853,29 C570.7853,39 588.7853,39 588.7853,39 C588.7853,39 606.7853,39 606.7853,29" fill="none" style="stroke:#181818;stroke-width:0.5;"/></g><g class="participant participant-tail" data-participant="DB"><text fill="#000000" font-family="sans-serif" font-size="14" lengthAdjust="spacing" textLength="93.6456" x="538.9625" y="484.7819">Base de Datos</text><path d="M570.7853,498.8839 C570.7853,488.8839 588.7853,488.8839 588.7853,488.8839 C588.7853,488.8839 606.7853,488.8839 606.7853,498.8839 L606.7853,524.8839 C606.7853,534.8839 588.7853,534.8839 588.7853,534.8839 C588.7853,534.8839 570.7853,534.8839 570.7853,524.8839 L570.7853,498.8839" fill="#E2E2F0" style="stroke:#181818;stroke-width:0.5;"/><path d="M570.7853,498.8839 C570.7853,508.8839 588.7853,508.8839 588.7853,508.8839 C588.7853,508.8839 606.7853,508.8839 606.7853,498.8839" fill="none" style="stroke:#181818;stroke-width:0.5;"/></g><g class="message" data-participant-1="Usuario" data-participant-2="FE"><polygon fill="#181818" points="202.628,113.7739,212.628,117.7739,202.628,121.7739,206.628,117.7739" style="stroke:#181818;stroke-width:1;"/><line style="stroke:#181818;stroke-width:1;" x1="48.6549" x2="208.628" y1="117.7739" y2="117.7739"/><text fill="#000000" font-family="sans-serif" font-size="13" lengthAdjust="spacing" textLength="139.4511" x="55.6549" y="111.9649">Introduce credenciales</text></g><g class="message" data-participant-1="FE" data-participant-2="Auth"><polygon fill="#181818" points="362.3741,145.4799,372.3741,149.4799,362.3741,153.4799,366.3741,149.4799" style="stroke:#181818;stroke-width:1;"/><line style="stroke:#181818;stroke-width:1;" x1="214.628" x2="368.3741" y1="149.4799" y2="149.4799"/><text fill="#000000" font-family="sans-serif" font-size="13" lengthAdjust="spacing" textLength="117.3641" x="221.628" y="143.6709">Enviar credenciales</text></g><g class="message" data-participant-1="Auth" data-participant-2="DB"><polygon fill="#181818" points="576.7853,177.186,586.7853,181.186,576.7853,185.186,580.7853,181.186" style="stroke:#181818;stroke-width:1;"/><line style="stroke:#181818;stroke-width:1;" x1="374.3741" x2="582.7853" y1="181.186" y2="181.186"/><text fill="#000000" font-family="sans-serif" font-size="13" lengthAdjust="spacing" textLength="190.4112" x="381.3741" y="175.377">Consultar usuario y contrase&#241;a</text></g><g class="message" data-participant-1="DB" data-participant-2="Auth"><polygon fill="#181818" points="385.3741,208.892,375.3741,212.892,385.3741,216.892,381.3741,212.892" style="stroke:#181818;stroke-width:1;"/><line style="stroke:#181818;stroke-width:1;stroke-dasharray:2,2;" x1="379.3741" x2="587.7853" y1="212.892" y2="212.892"/><text fill="#000000" font-family="sans-serif" font-size="13" lengthAdjust="spacing" textLength="148.7331" x="391.3741" y="207.083">Resultado de la consulta</text></g><path d="M10,227.892 L72.459,227.892 L72.459,237.598 L62.459,247.598 L10,247.598 L10,227.892" fill="#EEEEEE" style="stroke:#000000;stroke-width:1.5;"/><rect fill="none" height="225.924" style="stroke:#000000;stroke-width:1.5;" width="505.8602" x="10" y="227.892"/><text fill="#000000" font-family="sans-serif" font-size="13" font-weight="bold" lengthAdjust="spacing" textLength="17.459" x="25" y="242.789">alt</text><text fill="#000000" font-family="sans-serif" font-size="11" font-weight="bold" lengthAdjust="spacing" textLength="118.9971" x="87.459" y="241.6509">[Credenciales v&#225;lidas]</text><g class="message" data-participant-1="Auth" data-participant-2="Auth"><line style="stroke:#181818;stroke-width:1;" x1="374.3741" x2="416.3741" y1="271.304" y2="271.304"/><line style="stroke:#181818;stroke-width:1;" x1="416.3741" x2="416.3741" y1="271.304" y2="284.304"/><line style="stroke:#181818;stroke-width:1;" x1="375.3741" x2="416.3741" y1="284.304" y2="284.304"/><polygon fill="#181818" points="385.3741,280.304,375.3741,284.304,385.3741,288.304,381.3741,284.304" style="stroke:#181818;stroke-width:1;"/><text fill="#000000" font-family="sans-serif" font-size="13" lengthAdjust="spacing" textLength="122.4861" x="381.3741" y="265.495">Generar token (JWT)</text></g><g class="message" data-participant-1="Auth" data-participant-2="FE"><polygon fill="#181818" points="225.628,312.01,215.628,316.01,225.628,320.01,221.628,316.01" style="stroke:#181818;stroke-width:1;"/><line style="stroke:#181818;stroke-width:1;stroke-dasharray:2,2;" x1="219.628" x2="373.3741" y1="316.01" y2="316.01"/><text fill="#000000" font-family="sans-serif" font-size="13" lengthAdjust="spacing" textLength="98.5271" x="231.628" y="310.201">Token de sesi&#243;n</text></g><g class="message" data-participant-1="FE" data-participant-2="Usuario"><polygon fill="#181818" points="59.6549,361.4221,49.6549,365.4221,59.6549,369.4221,55.6549,365.4221" style="stroke:#181818;stroke-width:1;"/><line style="stroke:#181818;stroke-width:1;stroke-dasharray:2,2;" x1="53.6549" x2="213.628" y1="365.4221" y2="365.4221"/><text fill="#000000" font-family="sans-serif" font-size="13" lengthAdjust="spacing" textLength="141.9731" x="65.6549" y="341.907">Inicio de sesi&#243;n exitoso</text><text fill="#000000" font-family="sans-serif" font-size="13" lengthAdjust="spacing" textLength="121.0301" x="65.6549" y="359.6131">(se guarda el token)</text></g><line style="stroke:#000000;stroke-width:1;stroke-dasharray:2,2;" x1="10" x2="515.8602" y1="374.4221" y2="374.4221"/><text fill="#000000" font-family="sans-serif" font-size="11" font-weight="bold" lengthAdjust="spacing" textLength="129.5791" x="15" y="386.181">[Credenciales inv&#225;lidas]</text><g class="message" data-participant-1="Auth" data-participant-2="FE"><polygon fill="#181818" points="225.628,410.11,215.628,414.11,225.628,418.11,221.628,414.11" style="stroke:#181818;stroke-width:1;"/><line style="stroke:#181818;stroke-width:1;stroke-dasharray:2,2;" x1="219.628" x2="373.3741" y1="414.11" y2="414.11"/><text fill="#000000" font-family="sans-serif" font-size="13" lengthAdjust="spacing" textLength="135.7461" x="231.628" y="408.301">Error de autenticaci&#243;n</text></g><g class="message" data-participant-1="FE" data-participant-2="Usuario"><polygon fill="#181818" points="59.6549,441.816,49.6549,445.816,59.6549,449.816,55.6549,445.816" style="stroke:#181818;stroke-width:1;"/><line style="stroke:#181818;stroke-width:1;stroke-dasharray:2,2;" x1="53.6549" x2="213.628" y1="445.816" y2="445.816"/><text fill="#000000" font-family="sans-serif" font-size="13" lengthAdjust="spacing" textLength="83.2911" x="65.6549" y="440.007">Mostrar error</text></g><!--SRC=[RP91JiCm44NtFiMegtRH2x108asAG683HMpO3FO8B2oxifq8ZiCH44V8nVWsYMYaPc4fCo__pto7TGwH7bFFqGPrv9YjjaVscLRx67mMRrR4YVRTilaWSS1B82DqrGD3YxKTVtp5KNfJXZE_S19QDUK4sN8EgG9jezJaIjjBoDC5tVWSW-cra8vYn6lBJf923qHH1DFvmN9S0hK5f6q0x89FlSjW-ad-apGMYHXX_6O5QFilToyLDdKFnuMi1QNOPTgTkD0mVZbhE2d2CrjECjVY9S8oXtVnjBvzEcnEi7c_G-t2A4agILMaR0TWpgAaCESwOIGV5h65Pxz6Yg_W39EuFxED4eVgObBhpymw3z75Y0k7EYzkxVmiTo7bifUKZnJ-XLy0]--></g></svg>