<svg xmlns="http://www.w3.org/2000/svg" xmlns:xlink="http://www.w3.org/1999/xlink" contentStyleType="text/css" data-diagram-type="SEQUENCE" height="607px" preserveAspectRatio="none" style="width:927px;height:607px;background:#FFFFFF;" version="1.1" viewBox="0 0 927 607" width="927px" zoomAndPan="magnify"><defs/><g><rect fill="none" height="243.9059" style="stroke:#000000;stroke-width:1.5;" width="606.9746" x="313.5654" y="182.186"/><g><title>Usuario</title><rect fill="#000000" fill-opacity="0.00000" height="440.142" width="8" x="29.6549" y="84.0679"/><line style="stroke:#181818;stroke-width:0.5;stroke-dasharray:5,5;" x1="33" x2="33" y1="84.0679" y2="524.2099"/></g><g><title>Frontend</title><rect fill="#000000" fill-opacity="0.00000" height="440.142" width="8" x="168.393" y="84.0679"/><line style="stroke:#181818;stroke-width:0.5;stroke-dasharray:5,5;" x1="172.2021" x2="172.2021" y1="84.0679" y2="524.2099"/></g><g><title>Servicio de Perfil</title><rect fill="#000000" fill-opacity="0.00000" height="440.142" width="8" x="380.9972" y="84.0679"/><line style="stroke:#181818;stroke-width:0.5;stroke-dasharray:5,5;" x1="384.5654" x2="384.5654" y1="84.0679" y2="524.2099"/></g><g><title>Base de Datos</title><rect fill="#000000" fill-opacity="0.00000" height="440.142" width="8" x="514.1583" y="84.0679"/><line style="stroke:#181818;stroke-width:0.5;stroke-dasharray:5,5;" x1="517.3355" x2="517.3355" y1="84.0679" y2="524.2099"/></g><g><title>Servicio de Notificaciones</title><rect fill="#000000" fill-opacity="0.00000" height="440.142" width="8" x="664.7358" y="84.0679"/><line style="stroke:#181818;stroke-width:0.5;stroke-dasharray:5,5;" x1="667.9811" x2="667.9811" y1="84.0679" y2="524.2099"/></g><g><title>Servicio de Pedidos</title><rect fill="#000000" fill-opacity="0.00000" height="440.142" width="8" x="836.0152" y="84.0679"/><line style="stroke:#181818;stroke-width:0.5;stroke-dasharray:5,5;" x1="839.4905" x2="839.4905" y1="84.0679" y2="524.2099"/></g><g class="participant participant-head" data-participant="Usuario"><text fill="#000000" font-family="sans-serif" font-size="14" lengthAdjust="spacing" textLength="51.3098" x="5" y="79.9659">Usuario</text><ellipse cx="33.6549" cy="13.5" fill="#E2E2F0" rx="8" ry="8" style="stroke:#181818;stroke-width:0.5;"/><path d="M33.6549,21.5 L33.6549,48.5 M20.6549,29.5 L46.6549,29.5 M33.6549,48.5 L20.6549,63.5 M33.6549,48.5 L46.6549,63.5" fill="none" style="stroke:#181818;stroke-width:0.5;"/></g><g class="participant participant-tail" data-participant="Usuario"><text fill="#000000" font-family="sans-serif" font-size="14" lengthAdjust="spacing" textLength="51.3098" x="5" y="538.1758">Usuario</text><ellipse cx="33.6549" cy="550.7778" fill="#E2E2F0" rx="8" ry="8" style="stroke:#181818;stroke-width:0.5;"/><path d="M33.6549,558.7778 L33.6549,585.7778 M20.6549,566.7778 L46.6549,566.7778 M33.6549,585.7778 L20.6549,600.7778 M33.6549,585.7778 L46.6549,600.7778" fill="none" style="stroke:#181818;stroke-width:0.5;"/></g><g class="participant participant-head" data-participant="FE"><rect fill="#E2E2F0" height="33.0679" rx="2.5" ry="2.5" style="stroke:#181818;stroke-width:0.5;" width="74.3818" x="135.2021" y="50"/><text fill="#000000" font-family="sans-serif" font-size="14" lengthAdjust="spacing" textLength="60.3818" x="142.2021" y="71.9659">Frontend</text></g><g class="participant participant-tail" data-participant="FE"><rect fill="#E2E2F0" height="33.0679" rx="2.5" ry="2.5" style="stroke:#181818;stroke-width:0.5;" width="74.3818" x="135.2021" y="523.2099"/><text fill="#000000" font-family="sans-serif" font-size="14" lengthAdjust="spacing" textLength="60.3818" x="142.2021" y="545.1758">Frontend</text></g><g class="participant participant-head" data-participant="Perfil"><rect fill="#E2E2F0" height="33.0679" rx="2.5" ry="2.5" style="stroke:#181818;stroke-width:0.5;" width="122.8636" x="323.5654" y="50"/><text fill="#000000" font-family="sans-serif" font-size="14" lengthAdjust="spacing" textLength="108.8636" x="330.5654" y="71.9659">Servicio de Perfil</text></g><g class="participant participant-tail" data-participant="Perfil"><rect fill="#E2E2F0" height="33.0679" rx="2.5" ry="2.5" style="stroke:#181818;stroke-width:0.5;" width="122.8636" x="323.5654" y="523.2099"/><text fill="#000000" font-family="sans-serif" font-size="14" lengthAdjust="spacing" textLength="108.8636" x="330.5654" y="545.1758">Servicio de Perfil</text></g><g class="participant participant-head" data-participant="DB"><text fill="#000000" font-family="sans-serif" font-size="14" lengthAdjust="spacing" textLength="93.6456" x="468.3355" y="79.9659">Base de Datos</text><path d="M500.1583,29 C500.1583,19 518.1583,19 518.1583,19 C518.1583,19 536.1583,19 536.1583,29 L536.1583,55 C536.1583,65 518.1583,65 518.1583,65 C518.1583,65 500.1583,65 500.1583,55 L500.1583,29" fill="#E2E2F0" style="stroke:#181818;stroke-width:0.5;"/><path d="M500.1583,29 C500.1583,39 518.1583,39 518.1583,39 C518.1583,39 536.1583,39 536.1583,29" fill="none" style="stroke:#181818;stroke-width:0.5;"/></g><g class="participant participant-tail" data-participant="DB"><text fill="#000000" font-family="sans-serif" font-size="14" lengthAdjust="spacing" textLength="93.6456" x="468.3355" y="538.1758">Base de Datos</text><path d="M500.1583,552.2778 C500.1583,542.2778 518.1583,542.2778 518.1583,542.2778 C518.1583,542.2778 536.1583,542.2778 536.1583,552.2778 L536.1583,578.2778 C536.1583,588.2778 518.1583,588.2778 518.1583,588.2778 C518.1583,588.2778 500.1583,588.2778 500.1583,578.2778 L500.1583,552.2778" fill="#E2E2F0" style="stroke:#181818;stroke-width:0.5;"/><path d="M500.1583,552.2778 C500.1583,562.2778 518.1583,562.2778 518.1583,562.2778 C518.1583,562.2778 536.1583,562.2778 536.1583,552.2778" fill="none" style="stroke:#181818;stroke-width:0.5;"/></g><g class="participant participant-head" data-participant="Notif"><rect fill="#E2E2F0" height="33.0679" rx="2.5" ry="2.5" style="stroke:#181818;stroke-width:0.5;" width="181.5093" x="577.9811" y="50"/><text fill="#000000" font-family="sans-serif" font-size="14" lengthAdjust="spacing" textLength="167.5093" x="584.9811" y="71.9659">Servicio de Notificaciones</text></g><g class="participant participant-tail" data-participant="Notif"><rect fill="#E2E2F0" height="33.0679" rx="2.5" ry="2.5" style="stroke:#181818;stroke-width:0.5;" width="181.5093" x="577.9811" y="523.2099"/><text fill="#000000" font-family="sans-serif" font-size="14" lengthAdjust="spacing" textLength="167.5093" x="584.9811" y="545.1758">Servicio de Notificaciones</text></g><g class="participant participant-head" data-participant="Orders"><rect fill="#E2E2F0" height="33.0679" rx="2.5" ry="2.5" style="stroke:#181818;stroke-width:0.5;" width="141.0495" x="769.4905" y="50"/><text fill="#000000" font-family="sans-serif" font-size="14" lengthAdjust="spacing" textLength="127.0495" x="776.4905" y="71.9659">Servicio de Pedidos</text></g><g class="participant participant-tail" data-participant="Orders"><rect fill="#E2E2F0" height="33.0679" rx="2.5" ry="2.5" style="stroke:#181818;stroke-width:0.5;" width="141.0495" x="769.4905" y="523.2099"/><text fill="#000000" font-family="sans-serif" font-size="14" lengthAdjust="spacing" textLength="127.0495" x="776.4905" y="545.1758">Servicio de Pedidos</text></g><g class="message" data-participant-1="Usuario" data-participant-2="FE"><polygon fill="#181818" points="160.393,113.7739,170.393,117.7739,160.393,121.7739,164.393,117.7739" style="stroke:#181818;stroke-width:1;"/><line style="stroke:#181818;stroke-width:1;" x1="33.6549" x2="166.393" y1="117.7739" y2="117.7739"/><text fill="#000000" font-family="sans-serif" font-size="13" lengthAdjust="spacing" textLength="114.7381" x="40.6549" y="111.9649">Ver panel personal</text></g><g class="message" data-participant-1="FE" data-participant-2="Perfil"><polygon fill="#181818" points="372.9972,163.186,382.9972,167.186,372.9972,171.186,376.9972,167.186" style="stroke:#181818;stroke-width:1;"/><line style="stroke:#181818;stroke-width:1;" x1="172.393" x2="378.9972" y1="167.186" y2="167.186"/><text fill="#000000" font-family="sans-serif" font-size="13" lengthAdjust="spacing" textLength="66.1441" x="179.393" y="143.6709">GET /panel</text><text fill="#000000" font-family="sans-serif" font-size="13" lengthAdjust="spacing" textLength="184.1322" x="179.393" y="161.377">Authorization: Bearer &lt;token&gt;</text></g><path d="M313.5654,182.186 L380.5484,182.186 L380.5484,191.892 L370.5484,201.892 L313.5654,201.892 L313.5654,182.186" fill="#EEEEEE" style="stroke:#000000;stroke-width:1.5;"/><rect fill="none" height="243.9059" style="stroke:#000000;stroke-width:1.5;" width="606.9746" x="313.5654" y="182.186"/><text fill="#000000" font-family="sans-serif" font-size="13" font-weight="bold" lengthAdjust="spacing" textLength="21.983" x="328.5654" y="197.083">par</text><text fill="#000000" font-family="sans-serif" font-size="11" font-weight="bold" lengthAdjust="spacing" textLength="87.7244" x="395.5484" y="195.9449">[Datos de perfil]</text><g class="message" data-participant-1="Perfil" data-participant-2="DB"><polygon fill="#181818" points="506.1583,221.598,516.1583,225.598,506.1583,229.598,510.1583,225.598" style="stroke:#181818;stroke-width:1;"/><line style="stroke:#181818;stroke-width:1;" x1="384.9972" x2="512.1583" y1="225.598" y2="225.598"/><text fill="#000000" font-family="sans-serif" font-size="13" lengthAdjust="spacing" textLength="109.1611" x="391.9972" y="219.789">SELECT perfil(sub)</text></g><g class="message" data-participant-1="DB" data-participant-2="Perfil"><polygon fill="#181818" points="395.9972,253.304,385.9972,257.304,395.9972,261.304,391.9972,257.304" style="stroke:#181818;stroke-width:1;"/><line style="stroke:#181818;stroke-width:1;stroke-dasharray:2,2;" x1="389.9972" x2="517.1583" y1="257.304" y2="257.304"/><text fill="#000000" font-family="sans-serif" font-size="13" lengthAdjust="spacing" textLength="31.746" x="401.9972" y="251.495">Perfil</text></g><line style="stroke:#000000;stroke-width:1;stroke-dasharray:2,2;" x1="313.5654" x2="920.54" y1="266.304" y2="266.304"/><text fill="#000000" font-family="sans-serif" font-size="11" font-weight="bold" lengthAdjust="spacing" textLength="86.0854" x="318.5654" y="278.0629">[Notificaciones]</text><g class="message" data-participant-1="Perfil" data-participant-2="Notif"><polygon fill="#181818" points="656.7358,301.9919,666.7358,305.9919,656.7358,309.9919,660.7358,305.9919" style="stroke:#181818;stroke-width:1;"/><line style="stroke:#181818;stroke-width:1;" x1="384.9972" x2="662.7358" y1="305.9919" y2="305.9919"/><text fill="#000000" font-family="sans-serif" font-size="13" lengthAdjust="spacing" textLength="116.4931" x="391.9972" y="300.1829">GET /notificaciones</text></g><g class="message" data-participant-1="Notif" data-participant-2="Perfil"><polygon fill="#181818" points="395.9972,333.6979,385.9972,337.6979,395.9972,341.6979,391.9972,337.6979" style="stroke:#181818;stroke-width:1;"/><line style="stroke:#181818;stroke-width:1;stroke-dasharray:2,2;" x1="389.9972" x2="667.7358" y1="337.6979" y2="337.6979"/><text fill="#000000" font-family="sans-serif" font-size="13" lengthAdjust="spacing" textLength="116.1161" x="401.9972" y="331.8889">Lista notificaciones</text></g><line style="stroke:#000000;stroke-width:1;stroke-dasharray:2,2;" x1="313.5654" x2="920.54" y1="346.6979" y2="346.6979"/><text fill="#000000" font-family="sans-serif" font-size="11" font-weight="bold" lengthAdjust="spacing" textLength="50.2476" x="318.5654" y="358.4568">[Pedidos]</text><g class="message" data-participant-1="Perfil" data-participant-2="Orders"><polygon fill="#181818" points="828.0152,382.3858,838.0152,386.3858,828.0152,390.3858,832.0152,386.3858" style="stroke:#181818;stroke-width:1;"/><line style="stroke:#181818;stroke-width:1;" x1="384.9972" x2="834.0152" y1="386.3858" y2="386.3858"/><text fill="#000000" font-family="sans-serif" font-size="13" lengthAdjust="spacing" textLength="140.1921" x="391.9972" y="380.5768">GET /pedidos recientes</text></g><g class="message" data-participant-1="Orders" data-participant-2="Perfil"><polygon fill="#181818" points="395.9972,414.0919,385.9972,418.0919,395.9972,422.0919,391.9972,418.0919" style="stroke:#181818;stroke-width:1;"/><line style="stroke:#181818;stroke-width:1;stroke-dasharray:2,2;" x1="389.9972" x2="839.0152" y1="418.0919" y2="418.0919"/><text fill="#000000" font-family="sans-serif" font-size="13" lengthAdjust="spacing" textLength="99.2941" x="401.9972" y="412.2829">&#218;ltimos pedidos</text></g><g class="message" data-participant-1="Perfil" data-participant-2="FE"><polygon fill="#181818" points="183.393,470.5039,173.393,474.5039,183.393,478.5039,179.393,474.5039" style="stroke:#181818;stroke-width:1;"/><line style="stroke:#181818;stroke-width:1;stroke-dasharray:2,2;" x1="177.393" x2="383.9972" y1="474.5039" y2="474.5039"/><text fill="#000000" font-family="sans-serif" font-size="13" lengthAdjust="spacing" textLength="43.888" x="189.393" y="450.9889">200 OK</text><text fill="#000000" font-family="sans-serif" font-size="13" lengthAdjust="spacing" textLength="188.6042" x="189.393" y="468.6949">{perfil, notificaciones, pedidos}</text></g><g class="message" data-participant-1="FE" data-participant-2="Usuario"><polygon fill="#181818" points="44.6549,502.2099,34.6549,506.2099,44.6549,510.2099,40.6549,506.2099" style="stroke:#181818;stroke-width:1;"/><line style="stroke:#181818;stroke-width:1;stroke-dasharray:2,2;" x1="38.6549" x2="171.393" y1="506.2099" y2="506.2099"/><text fill="#000000" font-family="sans-serif" font-size="13" lengthAdjust="spacing" textLength="85.9951" x="50.6549" y="500.4009">Mostrar panel</text></g><!--SRC=[VP9DJiCm48NtFiKeAv1QKR6CK2L2KnOKYjJ2gfjfCXKMmOxiAGiG5-4wN8o9xI0I2JQHxVVDcxzWnTR1Wp-YqrQrw5XNkaN3a2sTDKocpW0zBCkXk27tAXSBDS4zkODk0XQFgaR6FNg2hEY-mYoGhG_8elZRwSwoFkWAvMeeuk7flzorhfFpsjNal5Af6vZEfMp8uP4SI2Grq8fk3JPAtaMDrGfnNMxXB20xStda9-lq6x8KaKD1w2J-WkqpcRdgAedDTDdRs2xqJkAvACHlKwxAgssIJ_nnVogCADFVITEigF7ZnWU6GUfhD6CkgWFVbVQCC293bZIiWNqSsiyC8W6EAaso_OvDn237rsV3-aN05A3aFr6gT-q7VpwRmVfcPzxZ82QZeYPzz4VOXqJrcylXrdfscFRs3G00]--></g></svg>