<svg xmlns="http://www.w3.org/2000/svg" xmlns:xlink="http://www.w3.org/1999/xlink" contentStyleType="text/css" data-diagram-type="SEQUENCE" height="365px" preserveAspectRatio="none" style="width:549px;height:365px;background:#FFFFFF;" version="1.1" viewBox="0 0 549 365" width="549px" zoomAndPan="magnify"><defs/><g><rect fill="none" height="83.118" style="stroke:#000000;stroke-width:1.5;" width="291.9078" x="251.7962" y="132.7739"/><g><title>Usuario</title><rect fill="#000000" fill-opacity="0.00000" height="198.2361" width="8" x="29.6549" y="84.0679"/><line style="stroke:#181818;stroke-width:0.5;stroke-dasharray:5,5;" x1="33" x2="33" y1="84.0679" y2="282.304"/></g><g><title>Frontend</title><rect fill="#000000" fill-opacity="0.00000" height="198.2361" width="8" x="294.9871" y="84.0679"/><line style="stroke:#181818;stroke-width:0.5;stroke-dasharray:5,5;" x1="298.7962" x2="298.7962" y1="84.0679" y2="282.304"/></g><g><title>Servicio de Pedidos</title><rect fill="#000000" fill-opacity="0.00000" height="198.2361" width="8" x="459.1792" y="84.0679"/><line style="stroke:#181818;stroke-width:0.5;stroke-dasharray:5,5;" x1="462.6545" x2="462.6545" y1="84.0679" y2="282.304"/></g><g class="participant participant-head" data-participant="Usuario"><text fill="#000000" font-family="sans-serif" font-size="14" lengthAdjust="spacing" textLength="51.3098" x="5" y="79.9659">Usuario</text><ellipse cx="33.6549" cy="13.5" fill="#E2E2F0" rx="8" ry="8" style="stroke:#181818;stroke-width:0.5;"/><path d="M33.6549,21.5 L33.6549,48.5 M20.6549,29.5 L46.6549,29.5 M33.6549,48.5 L20.6549,63.5 M33.6549,48.5 L46.6549,63.5" fill="none" style="stroke:#181818;stroke-width:0.5;"/></g><g class="participant participant-tail" data-participant="Usuario"><text fill="#000000" font-family="sans-serif" font-size="14" lengthAdjust="spacing" textLength="51.3098" x="5" y="296.27">Usuario</text><ellipse cx="33.6549" cy="308.8719" fill="#E2E2F0" rx="8" ry="8" style="stroke:#181818;stroke-width:0.5;"/><path d="M33.6549,316.8719 L33.6549,343.8719 M20.6549,324.8719 L46.6549,324.8719 M33.6549,343.8719 L20.6549,358.8719 M33.6549,343.8719 L46.6549,358.8719" fill="none" style="stroke:#181818;stroke-width:0.5;"/></g><g class="participant participant-head" data-participant="FE"><rect fill="#E2E2F0" height="33.0679" rx="2.5" ry="2.5" style="stroke:#181818;stroke-width:0.5;" width="74.3818" x="261.7962" y="50"/><text fill="#000000" font-family="sans-serif" font-size="14" lengthAdjust="spacing" textLength="60.3818" x="268.7962" y="71.9659">Frontend</text></g><g class="participant participant-tail" data-participant="FE"><rect fill="#E2E2F0" height="33.0679" rx="2.5" ry="2.5" style="stroke:#181818;stroke-width:0.5;" width="74.3818" x="261.7962" y="281.304"/><text fill="#000000" font-family="sans-serif" font-size="14" lengthAdjust="spacing" textLength="60.3818" x="268.7962" y="303.27">Frontend</text></g><g class="participant participant-head" data-participant="Orders"><rect fill="#E2E2F0" height="33.0679" rx="2.5" ry="2.5" style="stroke:#181818;stroke-width:0.5;" width="141.0495" x="392.6545" y="50"/><text fill="#000000" font-family="sans-serif" font-size="14" lengthAdjust="spacing" textLength="127.0495" x="399.6545" y="71.9659">Servicio de Pedidos</text></g><g class="participant participant-tail" data-participant="Orders"><rect fill="#E2E2F0" height="33.0679" rx="2.5" ry="2.5" style="stroke:#181818;stroke-width:0.5;" width="141.0495" x="392.6545" y="281.304"/><text fill="#000000" font-family="sans-serif" font-size="14" lengthAdjust="spacing" textLength="127.0495" x="399.6545" y="303.27">Servicio de Pedidos</text></g><g class="message" data-participant-1="Usuario" data-participant-2="FE"><polygon fill="#181818" points="286.9871,113.7739,296.9871,117.7739,286.9871,121.7739,290.9871,117.7739" style="stroke:#181818;stroke-width:1;"/><line style="stroke:#181818;stroke-width:1;" x1="33.6549" x2="292.9871" y1="117.7739" y2="117.7739"/><text fill="#000000" font-family="sans-serif" font-size="13" lengthAdjust="spacing" textLength="170.5211" x="40.6549" y="111.9649">Consultar pedidos recientes</text></g><path d="M251.7962,132.7739 L325.0842,132.7739 L325.0842,142.4799 L315.0842,152.4799 L251.7962,152.4799 L251.7962,132.7739" fill="#EEEEEE" style="stroke:#000000;stroke-width:1.5;"/><rect fill="none" height="83.118" style="stroke:#000000;stroke-width:1.5;" width="291.9078" x="251.7962" y="132.7739"/><text fill="#000000" font-family="sans-serif" font-size="13" font-weight="bold" lengthAdjust="spacing" textLength="28.288" x="266.7962" y="147.6709">loop</text><text fill="#000000" font-family="sans-serif" font-size="11" font-weight="bold" lengthAdjust="spacing" textLength="97.3713" x="340.0842" y="146.5328">[Hasta 3 intentos]</text><g class="message" data-participant-1="FE" data-participant-2="Orders"><polygon fill="#181818" points="451.1792,172.186,461.1792,176.186,451.1792,180.186,455.1792,176.186" style="stroke:#181818;stroke-width:1;"/><line style="stroke:#181818;stroke-width:1;" x1="298.9871" x2="457.1792" y1="176.186" y2="176.186"/><text fill="#000000" font-family="sans-serif" font-size="13" lengthAdjust="spacing" textLength="140.1921" x="305.9871" y="170.377">GET /pedidos recientes</text></g><g class="message" data-participant-1="Orders" data-participant-2="FE"><polygon fill="#181818" points="309.9871,203.892,299.9871,207.892,309.9871,211.892,305.9871,207.892" style="stroke:#181818;stroke-width:1;"/><line style="stroke:#181818;stroke-width:1;stroke-dasharray:2,2;" x1="303.9871" x2="462.1792" y1="207.892" y2="207.892"/><text fill="#000000" font-family="sans-serif" font-size="13" lengthAdjust="spacing" textLength="124.1241" x="315.9871" y="202.083">Error temporal (503)</text></g><g class="message" data-participant-1="FE" data-participant-2="Usuario"><polygon fill="#181818" points="44.6549,260.304,34.6549,264.304,44.6549,268.304,40.6549,264.304" style="stroke:#181818;stroke-width:1;"/><line style="stroke:#181818;stroke-width:1;stroke-dasharray:2,2;" x1="38.6549" x2="297.9871" y1="264.304" y2="264.304"/><text fill="#000000" font-family="sans-serif" font-size="13" lengthAdjust="spacing" textLength="83.2911" x="50.6549" y="240.789">Mostrar error</text><text fill="#000000" font-family="sans-serif" font-size="13" lengthAdjust="spacing" textLength="241.3322" x="50.6549" y="258.495">"No se pudieron recuperar los pedidos"</text></g><!--SRC=[PO-nJWD134Jx_OhHLL1484LfKj2W2pIGI417OzswMEcoNja-lXzlaYiGvMhVpFFGvABuieMqI6gaNgRIg3g6Wqfrhda06GxZtyyFrfzu23BZnBbaiGjtrCngATqQiNcAAFPubchBxAHeLnhAK-4G13oBDBoIEM6BqgKkbj2JaRzMHiVB-8c7_t6in6QLZQenoldSH6d6tUvnUvzYIKgzCQZrkZtUn5pZAkwHxpgy2upHbbmuvdVBqhW3SpXlxk4N]--></g></svg>