<svg xmlns="http://www.w3.org/2000/svg" xmlns:xlink="http://www.w3.org/1999/xlink" contentStyleType="text/css" data-diagram-type="SEQUENCE" height="365px" preserveAspectRatio="none" style="width:664px;height:365px;background:#FFFFFF;" version="1.1" viewBox="0 0 664 365" width="664px" zoomAndPan="magnify"><defs/><g><rect fill="none" height="83.118" style="stroke:#000000;stroke-width:1.5;" width="648.895" x="10" y="182.186"/><g><title>Usuario</title><rect fill="#000000" fill-opacity="0.00000" height="198.2361" width="8" x="44.6549" y="84.0679"/><line style="stroke:#181818;stroke-width:0.5;stroke-dasharray:5,5;" x1="48" x2="48" y1="84.0679" y2="282.304"/></g><g><title>Frontend</title><rect fill="#000000" fill-opacity="0.00000" height="198.2361" width="8" x="341.1741" y="84.0679"/><line style="stroke:#181818;stroke-width:0.5;stroke-dasharray:5,5;" x1="344.9832" x2="344.9832" y1="84.0679" y2="282.304"/></g><g><title>Servicio de Pedidos</title><rect fill="#000000" fill-opacity="0.00000" height="198.2361" width="8" x="574.3703" y="84.0679"/><line style="stroke:#181818;stroke-width:0.5;stroke-dasharray:5,5;" x1="577.8455" x2="577.8455" y1="84.0679" y2="282.304"/></g><g class="participant participant-head" data-participant="Usuario"><text fill="#000000" font-family="sans-serif" font-size="14" lengthAdjust="spacing" textLength="51.3098" x="20" y="79.9659">Usuario</text><ellipse cx="48.6549" cy="13.5" fill="#E2E2F0" rx="8" ry="8" style="stroke:#181818;stroke-width:0.5;"/><path d="M48.6549,21.5 L48.6549,48.5 M35.6549,29.5 L61.6549,29.5 M48.6549,48.5 L35.6549,63.5 M48.6549,48.5 L61.6549,63.5" fill="none" style="stroke:#181818;stroke-width:0.5;"/></g><g class="participant participant-tail" data-participant="Usuario"><text fill="#000000" font-family="sans-serif" font-size="14" lengthAdjust="spacing" textLength="51.3098" x="20" y="296.27">Usuario</text><ellipse cx="48.6549" cy="308.8719" fill="#E2E2F0" rx="8" ry="8" style="stroke:#181818;stroke-width:0.5;"/><path d="M48.6549,316.8719 L48.6549,343.8719 M35.6549,324.8719 L61.6549,324.8719 M48.6549,343.8719 L35.6549,358.8719 M48.6549,343.8719 L61.6549,358.8719" fill="none" style="stroke:#181818;stroke-width:0.5;"/></g><g class="participant participant-head" data-participant="FE"><rect fill="#E2E2F0" height="33.0679" rx="2.5" ry="2.5" style="stroke:#181818;stroke-width:0.5;" width="74.3818" x="307.9832" y="50"/><text fill="#000000" font-family="sans-serif" font-size="14" lengthAdjust="spacing" textLength="60.3818" x="314.9832" y="71.9659">Frontend</text></g><g class="participant participant-tail" data-participant="FE"><rect fill="#E2E2F0" height="33.0679" rx="2.5" ry="2.5" style="stroke:#181818;stroke-width:0.5;" width="74.3818" x="307.9832" y="281.304"/><text fill="#000000" font-family="sans-serif" font-size="14" lengthAdjust="spacing" textLength="60.3818" x="314.9832" y="303.27">Frontend</text></g><g class="participant participant-head" data-participant="Pedidos"><rect fill="#E2E2F0" height="33.0679" rx="2.5" ry="2.5" style="stroke:#181818;stroke-width:0.5;" width="141.0495" x="507.8455" y="50"/><text fill="#000000" font-family="sans-serif" font-size="14" lengthAdjust="spacing" textLength="127.0495" x="514.8455" y="71.9659">Servicio de Pedidos</text></g><g class="participant participant-tail" data-participant="Pedidos"><rect fill="#E2E2F0" height="33.0679" rx="2.5" ry="2.5" style="stroke:#181818;stroke-width:0.5;" width="141.0495" x="507.8455" y="281.304"/><text fill="#000000" font-family="sans-serif" font-size="14" lengthAdjust="spacing" textLength="127.0495" x="514.8455" y="303.27">Servicio de Pedidos</text></g><g class="message" data-participant-1="Usuario" data-participant-2="FE"><polygon fill="#181818" points="333.1741,113.7739,343.1741,117.7739,333.1741,121.7739,337.1741,117.7739" style="stroke:#181818;stroke-width:1;"/><line style="stroke:#181818;stroke-width:1;" x1="48.6549" x2="339.1741" y1="117.7739" y2="117.7739"/><text fill="#000000" font-family="sans-serif" font-size="13" lengthAdjust="spacing" textLength="140.5691" x="55.6549" y="111.9649">Cancelar pedido #1234</text></g><g class="message" data-participant-1="FE" data-participant-2="Pedidos"><polygon fill="#181818" points="566.3703,163.186,576.3703,167.186,566.3703,171.186,570.3703,167.186" style="stroke:#181818;stroke-width:1;"/><line style="stroke:#181818;stroke-width:1;" x1="345.1741" x2="572.3703" y1="167.186" y2="167.186"/><text fill="#000000" font-family="sans-serif" font-size="13" lengthAdjust="spacing" textLength="136.7731" x="352.1741" y="143.6709">DELETE /pedidos/1234</text><text fill="#000000" font-family="sans-serif" font-size="13" lengthAdjust="spacing" textLength="209.1962" x="352.1741" y="161.377">Authorization: &lt;token user=U001&gt;</text></g><path d="M10,182.186 L429.8162,182.186 L429.8162,191.892 L419.8162,201.892 L10,201.892 L10,182.186" fill="#EEEEEE" style="stroke:#000000;stroke-width:1.5;"/><rect fill="none" height="83.118" style="stroke:#000000;stroke-width:1.5;" width="648.895" x="10" y="182.186"/><text fill="#000000" font-family="sans-serif" font-size="13" font-weight="bold" lengthAdjust="spacing" textLength="374.8162" x="25" y="197.083">neg: Interacci&#243;n inv&#225;lida (pedido no pertenece al usuario)</text><g class="message" data-participant-1="Pedidos" data-participant-2="FE"><polygon fill="#181818" points="356.1741,221.598,346.1741,225.598,356.1741,229.598,352.1741,225.598" style="stroke:#181818;stroke-width:1;"/><line style="stroke:#181818;stroke-width:1;stroke-dasharray:2,2;" x1="350.1741" x2="577.3703" y1="225.598" y2="225.598"/><text fill="#000000" font-family="sans-serif" font-size="13" lengthAdjust="spacing" textLength="88.3741" x="362.1741" y="219.789">403 Forbidden</text></g><g class="message" data-participant-1="FE" data-participant-2="Usuario"><polygon fill="#181818" points="59.6549,253.304,49.6549,257.304,59.6549,261.304,55.6549,257.304" style="stroke:#181818;stroke-width:1;"/><line style="stroke:#181818;stroke-width:1;stroke-dasharray:2,2;" x1="53.6549" x2="344.1741" y1="257.304" y2="257.304"/><text fill="#000000" font-family="sans-serif" font-size="13" lengthAdjust="spacing" textLength="272.5192" x="65.6549" y="251.495">No tiene permisos para cancelar este pedido</text></g><!--SRC=[LP31IWD138RlynIXNlHGsjgU5Ys8xe8W8cXlNjAPK8CrMJApFVWsFeEFq1SpMtS5RnF-B__yVp0MDTZa3eqrj6Y58xSe1IQDgHIID07CqDJ_nMUoWmyAYU294YVD9svuXp1OmdJjkr31BKgaFHgq9mBE5fVBLN39WM79gRlweNwfOVOBvLaFlSfDLzxK-1CBgrHmLVIT1BfCThsPpnVh47QcNGj2kmhkFRHXZ7py5c0v7B_sd13EXtz5FO5vBue4k7UNKywB07ynfcFcrNm9ZTgMKo9ne4_hsbYjWaU5mcxLMtvmzbq_4a8Skr8kD1GEViaV]--></g></svg>