<svg xmlns="http://www.w3.org/2000/svg" xmlns:xlink="http://www.w3.org/1999/xlink" contentStyleType="text/css" data-diagram-type="STATE" height="502px" preserveAspectRatio="none" style="width:117px;height:502px;background:#FFFFFF;" version="1.1" viewBox="0 0 117 502" width="117px" zoomAndPan="magnify"><defs/><g><ellipse cx="38" cy="16" fill="#222222" rx="10" ry="10" style="stroke:#222222;stroke-width:1;"/><g id="State1"><rect fill="#F1F1F1" height="50" rx="12.5" ry="12.5" style="stroke:#181818;stroke-width:0.5;" width="61.5518" x="7" y="87"/><line style="stroke:#181818;stroke-width:0.5;" x1="7" x2="68.5518" y1="116.0679" y2="116.0679"/><text fill="#000000" font-family="sans-serif" font-size="14" lengthAdjust="spacing" textLength="41.5518" x="17" y="106.9659">State1</text></g><g id="State2"><rect fill="#F1F1F1" height="50" rx="12.5" ry="12.5" style="stroke:#181818;stroke-width:0.5;" width="61.5518" x="7" y="216"/><line style="stroke:#181818;stroke-width:0.5;" x1="7" x2="68.5518" y1="245.0679" y2="245.0679"/><text fill="#000000" font-family="sans-serif" font-size="14" lengthAdjust="spacing" textLength="41.5518" x="17" y="235.9659">State2</text></g><g id="State3"><rect fill="#F1F1F1" height="50" rx="12.5" ry="12.5" style="stroke:#181818;stroke-width:0.5;" width="61.5518" x="7" y="345"/><line style="stroke:#181818;stroke-width:0.5;" x1="7" x2="68.5518" y1="374.0679" y2="374.0679"/><text fill="#000000" font-family="sans-serif" font-size="14" lengthAdjust="spacing" textLength="41.5518" x="17" y="364.9659">State3</text></g><ellipse cx="38" cy="485" fill="none" rx="11" ry="11" style="stroke:#222222;stroke-width:1;"/><ellipse cx="38" cy="485" fill="#222222" rx="6" ry="6" style="stroke:#222222;stroke-width:1;"/><!--link *start* to State1--><g class="link" data-entity-1=".start." data-entity-2="State1" data-source-line="1" data-uid="lnk4" id="link_.start._State1"><path d="M38,26.01 C38,39.89 38,60.97 38,80.84" fill="none" id="*start*-to-State1" style="stroke:#181818;stroke-width:1;"/><polygon fill="#181818" points="38,86.84,42,77.84,38,81.84,34,77.84,38,86.84" style="stroke:#181818;stroke-width:1;"/></g><!--link State1 to State2--><g class="link" data-entity-1="State1" data-entity-2="State2" data-source-line="2" data-uid="lnk6" id="link_State1_State2"><path d="M38,137.19 C38,159.78 38,187.33 38,209.9" fill="none" id="State1-to-State2" style="stroke:#181818;stroke-width:1;"/><polygon fill="#181818" points="38,215.9,42,206.9,38,210.9,34,206.9,38,215.9" style="stroke:#181818;stroke-width:1;"/><text fill="#000000" font-family="sans-serif" font-size="13" lengthAdjust="spacing" textLength="49.296" x="39" y="181.897">evento1</text></g><!--link State2 to State3--><g class="link" data-entity-1="State2" data-entity-2="State3" data-source-line="3" data-uid="lnk8" id="link_State2_State3"><path d="M38,266.19 C38,288.78 38,316.33 38,338.9" fill="none" id="State2-to-State3" style="stroke:#181818;stroke-width:1;"/><polygon fill="#181818" points="38,344.9,42,335.9,38,339.9,34,335.9,38,344.9" style="stroke:#181818;stroke-width:1;"/><text fill="#000000" font-family="sans-serif" font-size="13" lengthAdjust="spacing" textLength="49.296" x="39" y="310.897">evento2</text></g><!--link State3 to *end*--><g class="link" data-entity-1="State3" data-entity-2=".end." data-source-line="4" data-uid="lnk10" id="link_State3_.end."><path d="M38,395.24 C38,419.75 38,450.45 38,467.98" fill="none" id="State3-to-*end*" style="stroke:#181818;stroke-width:1;"/><polygon fill="#181818" points="38,473.98,42,464.98,38,468.98,34,464.98,38,473.98" style="stroke:#181818;stroke-width:1;"/><text fill="#000000" font-family="sans-serif" font-size="13" lengthAdjust="spacing" textLength="70.6421" x="39" y="439.897">eventoFinal</text></g><!--SRC=[YzQALT3LjLC8BaaiIJNaWb084IC5AuNKijIyadoed152pXWkPyG55G39HGDDX4cuPUObvW00]--></g></svg>