<svg xmlns="http://www.w3.org/2000/svg" xmlns:xlink="http://www.w3.org/1999/xlink" contentStyleType="text/css" data-diagram-type="STATE" height="373px" preserveAspectRatio="none" style="width:361px;height:373px;background:#FFFFFF;" version="1.1" viewBox="0 0 361 373" width="361px" zoomAndPan="magnify"><defs/><g><ellipse cx="159.5" cy="16" fill="#222222" rx="10" ry="10" style="stroke:#222222;stroke-width:1;"/><g id="PedidoPendiente"><rect fill="#F1F1F1" height="50" rx="12.5" ry="12.5" style="stroke:#181818;stroke-width:0.5;" width="132.4056" x="93.5" y="87"/><line style="stroke:#181818;stroke-width:0.5;" x1="93.5" x2="225.9056" y1="116.0679" y2="116.0679"/><text fill="#000000" font-family="sans-serif" font-size="14" lengthAdjust="spacing" textLength="112.4056" x="103.5" y="106.9659">PedidoPendiente</text></g><g id="PedidoAprobado"><rect fill="#F1F1F1" height="50" rx="12.5" ry="12.5" style="stroke:#181818;stroke-width:0.5;" width="131.0196" x="7" y="216"/><line style="stroke:#181818;stroke-width:0.5;" x1="7" x2="138.0196" y1="245.0679" y2="245.0679"/><text fill="#000000" font-family="sans-serif" font-size="14" lengthAdjust="spacing" textLength="111.0196" x="17" y="235.9659">PedidoAprobado</text></g><g id="PedidoRechazado"><rect fill="#F1F1F1" height="50" rx="12.5" ry="12.5" style="stroke:#181818;stroke-width:0.5;" width="137.0116" x="178" y="216"/><line style="stroke:#181818;stroke-width:0.5;" x1="178" x2="315.0116" y1="245.0679" y2="245.0679"/><text fill="#000000" font-family="sans-serif" font-size="14" lengthAdjust="spacing" textLength="117.0116" x="188" y="235.9659">PedidoRechazado</text></g><ellipse cx="159.5" cy="356" fill="none" rx="11" ry="11" style="stroke:#222222;stroke-width:1;"/><ellipse cx="159.5" cy="356" fill="#222222" rx="6" ry="6" style="stroke:#222222;stroke-width:1;"/><!--link *start* to PedidoPendiente--><g class="link" data-entity-1=".start." data-entity-2="PedidoPendiente" data-source-line="1" data-uid="lnk4" id="link_.start._PedidoPendiente"><path d="M159.5,26.01 C159.5,39.89 159.5,60.97 159.5,80.84" fill="none" id="*start*-to-PedidoPendiente" style="stroke:#181818;stroke-width:1;"/><polygon fill="#181818" points="159.5,86.84,163.5,77.84,159.5,81.84,155.5,77.84,159.5,86.84" style="stroke:#181818;stroke-width:1;"/></g><!--link PedidoPendiente to PedidoAprobado--><g class="link" data-entity-1="PedidoPendiente" data-entity-2="PedidoAprobado" data-source-line="3" data-uid="lnk6" id="link_PedidoPendiente_PedidoAprobado"><path d="M97.86,137.13 C85.73,144.81 74.59,154.62 67.5,167 C59.1,181.66 59.3982,194.9513 62.9482,209.9513" fill="none" id="PedidoPendiente-to-PedidoAprobado" style="stroke:#181818;stroke-width:1;"/><polygon fill="#181818" points="64.33,215.79,66.1497,206.1107,63.1785,210.9244,58.3648,207.9532,64.33,215.79" style="stroke:#181818;stroke-width:1;"/><text fill="#000000" font-family="sans-serif" font-size="13" lengthAdjust="spacing" textLength="137.9431" x="68.5" y="181.897">pagar() [saldo &gt;= total]</text></g><!--link PedidoPendiente to PedidoRechazado--><g class="link" data-entity-1="PedidoPendiente" data-entity-2="PedidoRechazado" data-source-line="4" data-uid="lnk8" id="link_PedidoPendiente_PedidoRechazado"><path d="M185.3,137.19 C193.93,146.07 203.21,156.52 210.5,167 C221.15,182.32 227.9847,195.7532 234.4347,210.4932" fill="none" id="PedidoPendiente-to-PedidoRechazado" style="stroke:#181818;stroke-width:1;"/><polygon fill="#181818" points="236.84,215.99,236.8966,206.1413,234.8356,211.4094,229.5675,209.3484,236.84,215.99" style="stroke:#181818;stroke-width:1;"/><text fill="#000000" font-family="sans-serif" font-size="13" lengthAdjust="spacing" textLength="130.5071" x="222.5" y="181.897">pagar() [saldo &lt; total]</text></g><!--link PedidoAprobado to *end*--><g class="link" data-entity-1="PedidoAprobado" data-entity-2=".end." data-source-line="6" data-uid="lnk10" id="link_PedidoAprobado_.end."><path d="M91.16,266.24 C110.74,291.66 136.7409,325.4349 149.5609,342.0949" fill="none" id="PedidoAprobado-to-*end*" style="stroke:#181818;stroke-width:1;"/><polygon fill="#181818" points="153.22,346.85,150.9014,337.2779,150.1708,342.8874,144.5613,342.1567,153.22,346.85" style="stroke:#181818;stroke-width:1;"/><text fill="#000000" font-family="sans-serif" font-size="13" lengthAdjust="spacing" textLength="45.786" x="126.5" y="310.897">enviar()</text></g><!--link PedidoRechazado to *end*--><g class="link" data-entity-1="PedidoRechazado" data-entity-2=".end." data-source-line="7" data-uid="lnk11" id="link_PedidoRechazado_.end."><path d="M227.84,266.24 C208.26,291.66 182.2591,325.4349 169.4391,342.0949" fill="none" id="PedidoRechazado-to-*end*" style="stroke:#181818;stroke-width:1;"/><polygon fill="#181818" points="165.78,346.85,174.4387,342.1567,168.8292,342.8874,168.0986,337.2779,165.78,346.85" style="stroke:#181818;stroke-width:1;"/></g><!--SRC=[YzQALT3LjLC8I4t9JCaFICrBoKpDAqdbua8JG5BaM52KdvIOagzWfL2Gc9vOfA6f45sSc0CKiBDLACalISo9nQCxA3Kv8x4AgtORc6ukD8j0kgE13hLIICqhomHfuK8t3Ae40000]--></g></svg>