<svg xmlns="http://www.w3.org/2000/svg" xmlns:xlink="http://www.w3.org/1999/xlink" contentStyleType="text/css" data-diagram-type="STATE" height="484px" preserveAspectRatio="none" style="width:252px;height:484px;background:#FFFFFF;" version="1.1" viewBox="0 0 252 484" width="252px" zoomAndPan="magnify"><defs/><g><ellipse cx="56" cy="16" fill="#222222" rx="10" ry="10" style="stroke:#222222;stroke-width:1;"/><g id="Pendiente"><rect fill="#F1F1F1" height="50" rx="12.5" ry="12.5" style="stroke:#181818;stroke-width:0.5;" width="86.7377" x="12.5" y="87"/><line style="stroke:#181818;stroke-width:0.5;" x1="12.5" x2="99.2377" y1="116.0679" y2="116.0679"/><text fill="#000000" font-family="sans-serif" font-size="14" lengthAdjust="spacing" textLength="66.7377" x="22.5" y="106.9659">Pendiente</text></g><g id="Procesando"><rect fill="#F1F1F1" height="50" rx="12.5" ry="12.5" style="stroke:#181818;stroke-width:0.5;" width="97.6297" x="7" y="216"/><line style="stroke:#181818;stroke-width:0.5;" x1="7" x2="104.6297" y1="245.0679" y2="245.0679"/><text fill="#000000" font-family="sans-serif" font-size="14" lengthAdjust="spacing" textLength="77.6297" x="17" y="235.9659">Procesando</text></g><g id="Enviado"><rect fill="#F1F1F1" height="50" rx="12.5" ry="12.5" style="stroke:#181818;stroke-width:0.5;" width="72.0938" x="20" y="345"/><line style="stroke:#181818;stroke-width:0.5;" x1="20" x2="92.0938" y1="374.0679" y2="374.0679"/><text fill="#000000" font-family="sans-serif" font-size="14" lengthAdjust="spacing" textLength="52.0938" x="30" y="364.9659">Enviado</text></g><ellipse cx="56" cy="467" fill="none" rx="11" ry="11" style="stroke:#222222;stroke-width:1;"/><ellipse cx="56" cy="467" fill="#222222" rx="6" ry="6" style="stroke:#222222;stroke-width:1;"/><!--link *start* to Pendiente--><g class="link" data-entity-1=".start." data-entity-2="Pendiente" data-source-line="1" data-uid="lnk4" id="link_.start._Pendiente"><path d="M56,26.01 C56,39.89 56,60.97 56,80.84" fill="none" id="*start*-to-Pendiente" style="stroke:#181818;stroke-width:1;"/><polygon fill="#181818" points="56,86.84,60,77.84,56,81.84,52,77.84,56,86.84" style="stroke:#181818;stroke-width:1;"/></g><!--link Pendiente to Procesando--><g class="link" data-entity-1="Pendiente" data-entity-2="Procesando" data-source-line="3" data-uid="lnk6" id="link_Pendiente_Procesando"><path d="M56,137.19 C56,159.78 56,187.33 56,209.9" fill="none" id="Pendiente-to-Procesando" style="stroke:#181818;stroke-width:1;"/><polygon fill="#181818" points="56,215.9,60,206.9,56,210.9,52,206.9,56,215.9" style="stroke:#181818;stroke-width:1;"/><text fill="#000000" font-family="sans-serif" font-size="13" lengthAdjust="spacing" textLength="187.2912" x="57" y="181.897">iniciar() / log("Pedido iniciado")</text></g><!--link Procesando to Enviado--><g class="link" data-entity-1="Procesando" data-entity-2="Enviado" data-source-line="4" data-uid="lnk8" id="link_Procesando_Enviado"><path d="M56,266.19 C56,288.78 56,316.33 56,338.9" fill="none" id="Procesando-to-Enviado" style="stroke:#181818;stroke-width:1;"/><polygon fill="#181818" points="56,344.9,60,335.9,56,339.9,52,335.9,56,344.9" style="stroke:#181818;stroke-width:1;"/><text fill="#000000" font-family="sans-serif" font-size="13" lengthAdjust="spacing" textLength="160.4721" x="57" y="310.897">enviar()  / actualizarStock()</text></g><!--link Enviado to *end*--><g class="link" data-entity-1="Enviado" data-entity-2=".end." data-source-line="5" data-uid="lnk10" id="link_Enviado_.end."><path d="M56,395.46 C56,415.04 56,435.49 56,449.8" fill="none" id="Enviado-to-*end*" style="stroke:#181818;stroke-width:1;"/><polygon fill="#181818" points="56,455.8,60,446.8,56,450.8,52,446.8,56,455.8" style="stroke:#181818;stroke-width:1;"/></g><!--SRC=[YzQALT3LjLC8ICrBoKpDAqdbue8p8H95-ScfnObvAVaALWgPUPd9cOb56feA-Wev-UaQIW6fAPb06OXuIhwI9XUIUf1srxmoa8I20b1tAeWDqWpKdPXSKfgOarcLM1HSaf-ShQ791LC9qXMj5Gi0]--></g></svg>