<svg xmlns="http://www.w3.org/2000/svg" xmlns:xlink="http://www.w3.org/1999/xlink" contentStyleType="text/css" data-diagram-type="STATE" height="620px" preserveAspectRatio="none" style="width:162px;height:620px;background:#FFFFFF;" version="1.1" viewBox="0 0 162 620" width="162px" zoomAndPan="magnify"><defs/><g><path d="M19.5,87 L136.6356,87 A12.5,12.5 0 0 1 149.1356,99.5 L149.1356,116.0679 L7,116.0679 L7,99.5 A12.5,12.5 0 0 1 19.5,87" fill="#F1F1F1"/><rect fill="none" height="426.0679" rx="12.5" ry="12.5" style="stroke:#181818;stroke-width:0.5;" width="142.1356" x="7" y="87"/><line style="stroke:#181818;stroke-width:0.5;" x1="7" x2="149.1356" y1="116.0679" y2="116.0679"/><text fill="#000000" font-family="sans-serif" font-size="14" lengthAdjust="spacing" textLength="45.6678" x="55.2339" y="106.9659">Pedido</text><ellipse cx="79.5" cy="137.0679" fill="#222222" rx="10" ry="10" style="stroke:#222222;stroke-width:1;"/><g id="Pedido.Preparando"><rect fill="#F1F1F1" height="50" rx="12.5" ry="12.5" style="stroke:#181818;stroke-width:0.5;" width="97.9797" x="30.5" y="184.0679"/><line style="stroke:#181818;stroke-width:0.5;" x1="30.5" x2="128.4797" y1="213.1358" y2="213.1358"/><text fill="#000000" font-family="sans-serif" font-size="14" lengthAdjust="spacing" textLength="77.9797" x="40.5" y="204.0339">Preparando</text></g><g id="Pedido.Empaquetando"><rect fill="#F1F1F1" height="50" rx="12.5" ry="12.5" style="stroke:#181818;stroke-width:0.5;" width="121.1356" x="19" y="289.0679"/><line style="stroke:#181818;stroke-width:0.5;" x1="19" x2="140.1356" y1="318.1358" y2="318.1358"/><text fill="#000000" font-family="sans-serif" font-size="14" lengthAdjust="spacing" textLength="101.1356" x="29" y="309.0339">Empaquetando</text></g><g id="Pedido.Enviado"><rect fill="#F1F1F1" height="50" rx="12.5" ry="12.5" style="stroke:#181818;stroke-width:0.5;" width="72.0938" x="43.5" y="394.0679"/><line style="stroke:#181818;stroke-width:0.5;" x1="43.5" x2="115.5938" y1="423.1358" y2="423.1358"/><text fill="#000000" font-family="sans-serif" font-size="14" lengthAdjust="spacing" textLength="52.0938" x="53.5" y="414.0339">Enviado</text></g><ellipse cx="79.5" cy="492.0679" fill="none" rx="11" ry="11" style="stroke:#222222;stroke-width:1;"/><ellipse cx="79.5" cy="492.0679" fill="#222222" rx="6" ry="6" style="stroke:#222222;stroke-width:1;"/><!--link *start*Pedido to Preparando--><g class="link" data-entity-1=".start.Pedido" data-entity-2="Preparando" data-source-line="4" data-uid="lnk6" id="link_.start.Pedido_Preparando"><path d="M79.5,147.2179 C79.5,156.4879 79.5,165.2079 79.5,177.8479" fill="none" id="*start*Pedido-to-Preparando" style="stroke:#181818;stroke-width:1;"/><polygon fill="#181818" points="79.5,183.8479,83.5,174.8479,79.5,178.8479,75.5,174.8479,79.5,183.8479" style="stroke:#181818;stroke-width:1;"/></g><!--link Preparando to Empaquetando--><g class="link" data-entity-1="Preparando" data-entity-2="Empaquetando" data-source-line="5" data-uid="lnk8" id="link_Preparando_Empaquetando"><path d="M79.5,234.2179 C79.5,250.6279 79.5,266.2579 79.5,282.7179" fill="none" id="Preparando-to-Empaquetando" style="stroke:#181818;stroke-width:1;"/><polygon fill="#181818" points="79.5,288.7179,83.5,279.7179,79.5,283.7179,75.5,279.7179,79.5,288.7179" style="stroke:#181818;stroke-width:1;"/><text fill="#000000" font-family="sans-serif" font-size="13" lengthAdjust="spacing" textLength="33.293" x="80.5" y="266.9649">listo()</text></g><!--link Empaquetando to Enviado--><g class="link" data-entity-1="Empaquetando" data-entity-2="Enviado" data-source-line="6" data-uid="lnk10" id="link_Empaquetando_Enviado"><path d="M79.5,339.2179 C79.5,355.6279 79.5,371.2579 79.5,387.7179" fill="none" id="Empaquetando-to-Enviado" style="stroke:#181818;stroke-width:1;"/><polygon fill="#181818" points="79.5,393.7179,83.5,384.7179,79.5,388.7179,75.5,384.7179,79.5,393.7179" style="stroke:#181818;stroke-width:1;"/><text fill="#000000" font-family="sans-serif" font-size="13" lengthAdjust="spacing" textLength="45.786" x="80.5" y="371.9649">enviar()</text></g><!--link Enviado to *end*Pedido--><g class="link" data-entity-1="Enviado" data-entity-2=".end.Pedido" data-source-line="7" data-uid="lnk12" id="link_Enviado_.end.Pedido"><path d="M79.5,444.1079 C79.5,456.6579 79.5,465.3479 79.5,474.9179" fill="none" id="Enviado-to-*end*Pedido" style="stroke:#181818;stroke-width:1;"/><polygon fill="#181818" points="79.5,480.9179,83.5,471.9179,79.5,475.9179,75.5,471.9179,79.5,480.9179" style="stroke:#181818;stroke-width:1;"/></g><ellipse cx="78" cy="16" fill="#222222" rx="10" ry="10" style="stroke:#222222;stroke-width:1;"/><ellipse cx="78" cy="603" fill="none" rx="11" ry="11" style="stroke:#222222;stroke-width:1;"/><ellipse cx="78" cy="603" fill="#222222" rx="6" ry="6" style="stroke:#222222;stroke-width:1;"/><!--link *start* to Pedido--><g class="link" data-entity-1=".start." data-entity-2="Pedido" data-source-line="1" data-uid="lnk3" id="link_.start._Pedido"><path d="M78,26.06 C78,37.8 78,53.97 78,80.8" fill="none" id="*start*-to-Pedido" style="stroke:#181818;stroke-width:1;"/><polygon fill="#181818" points="78,86.8,82,77.8,78,81.8,74,77.8,78,86.8" style="stroke:#181818;stroke-width:1;"/></g><!--link Pedido to *end*--><g class="link" data-entity-1="Pedido" data-entity-2=".end." data-source-line="10" data-uid="lnk14" id="link_Pedido_.end."><path d="M78,513.32 C78,547.95 78,571.3 78,585.96" fill="none" id="Pedido-to-*end*" style="stroke:#181818;stroke-width:1;"/><polygon fill="#181818" points="78,591.96,82,582.96,78,586.96,74,582.96,78,591.96" style="stroke:#181818;stroke-width:1;"/><text fill="#000000" font-family="sans-serif" font-size="13" lengthAdjust="spacing" textLength="61.2171" x="79" y="557.897">entregar()</text></g><!--SRC=[YzQALT3LjLC8I4t9JCdduYekIIn9XV8KghaK5A9X2efI2nAB4lE0YXIGE60vrzo2nCBIr1AmW9L2JcPnIRw69b0TYWHOPLvPPYAG3GHM2gaWJX548LGSf0Pe8rSj5nVK3L0HiFAIejHqa0O0]--></g></svg>