<svg xmlns="http://www.w3.org/2000/svg" xmlns:xlink="http://www.w3.org/1999/xlink" contentStyleType="text/css" data-diagram-type="STATE" height="793px" preserveAspectRatio="none" style="width:182px;height:793px;background:#FFFFFF;" version="1.1" viewBox="0 0 182 793" width="182px" zoomAndPan="magnify"><defs/><g><path d="M19.5,87 L156.6416,87 A12.5,12.5 0 0 1 169.1416,99.5 L169.1416,116.0679 L7,116.0679 L7,99.5 A12.5,12.5 0 0 1 19.5,87" fill="#F1F1F1"/><rect fill="none" height="599.2038" rx="12.5" ry="12.5" style="stroke:#181818;stroke-width:0.5;" width="162.1416" x="7" y="87"/><line style="stroke:#181818;stroke-width:0.5;" x1="7" x2="169.1416" y1="116.0679" y2="116.0679"/><text fill="#000000" font-family="sans-serif" font-size="14" lengthAdjust="spacing" textLength="45.6678" x="65.2369" y="106.9659">Pedido</text><line style="stroke:#181818;stroke-width:1.5;stroke-dasharray:8,10;" x1="12" x2="162.1416" y1="133.0679" y2="133.0679"/><path d="M31.5,140.0679 L147.6416,140.0679 A12.5,12.5 0 0 1 160.1416,152.5679 L160.1416,169.1358 L19,169.1358 L19,152.5679 A12.5,12.5 0 0 1 31.5,140.0679" fill="#F1F1F1"/><rect fill="none" height="262.0679" rx="12.5" ry="12.5" style="stroke:#181818;stroke-width:0.5;" width="141.1416" x="19" y="140.0679"/><line style="stroke:#181818;stroke-width:0.5;" x1="19" x2="160.1416" y1="169.1358" y2="169.1358"/><text fill="#000000" font-family="sans-serif" font-size="14" lengthAdjust="spacing" textLength="33.4039" x="72.8689" y="160.0339">Pago</text><ellipse cx="91" cy="190.1358" fill="#222222" rx="10" ry="10" style="stroke:#222222;stroke-width:1;"/><g id="Pedido.CONC2.Pago.PendientePago"><rect fill="#F1F1F1" height="50" rx="12.5" ry="12.5" style="stroke:#181818;stroke-width:0.5;" width="120.1416" x="31" y="237.1358"/><line style="stroke:#181818;stroke-width:0.5;" x1="31" x2="151.1416" y1="266.2038" y2="266.2038"/><text fill="#000000" font-family="sans-serif" font-size="14" lengthAdjust="spacing" textLength="100.1416" x="41" y="257.1018">PendientePago</text></g><g id="Pedido.CONC2.Pago.Confirmado"><rect fill="#F1F1F1" height="50" rx="12.5" ry="12.5" style="stroke:#181818;stroke-width:0.5;" width="98.2037" x="42" y="342.1358"/><line style="stroke:#181818;stroke-width:0.5;" x1="42" x2="140.2037" y1="371.2038" y2="371.2038"/><text fill="#000000" font-family="sans-serif" font-size="14" lengthAdjust="spacing" textLength="78.2037" x="52" y="362.1018">Confirmado</text></g><!--link *start*Pago to PendientePago--><g class="link" data-entity-1=".start.Pago" data-entity-2="PendientePago" data-source-line="6" data-uid="lnk6" id="link_.start.Pago_PendientePago"><path d="M91,200.2858 C91,209.5558 91,218.2758 91,230.9158" fill="none" id="*start*Pago-to-PendientePago" style="stroke:#181818;stroke-width:1;"/><polygon fill="#181818" points="91,236.9158,95,227.9158,91,231.9158,87,227.9158,91,236.9158" style="stroke:#181818;stroke-width:1;"/></g><!--link PendientePago to Confirmado--><g class="link" data-entity-1="PendientePago" data-entity-2="Confirmado" data-source-line="7" data-uid="lnk8" id="link_PendientePago_Confirmado"><path d="M91,287.2858 C91,303.6958 91,319.3258 91,335.7858" fill="none" id="PendientePago-to-Confirmado" style="stroke:#181818;stroke-width:1;"/><polygon fill="#181818" points="91,341.7858,95,332.7858,91,336.7858,87,332.7858,91,341.7858" style="stroke:#181818;stroke-width:1;"/><text fill="#000000" font-family="sans-serif" font-size="13" lengthAdjust="spacing" textLength="43.745" x="92" y="320.0328">pagar()</text></g><line style="stroke:#181818;stroke-width:1.5;stroke-dasharray:8,10;" x1="12" x2="162.1416" y1="407.1358" y2="407.1358"/><path d="M31.5,414.1358 L125.4797,414.1358 A12.5,12.5 0 0 1 137.9797,426.6358 L137.9797,443.2038 L19,443.2038 L19,426.6358 A12.5,12.5 0 0 1 31.5,414.1358" fill="#F1F1F1"/><rect fill="none" height="262.0679" rx="12.5" ry="12.5" style="stroke:#181818;stroke-width:0.5;" width="118.9797" x="19" y="414.1358"/><line style="stroke:#181818;stroke-width:0.5;" x1="19" x2="137.9797" y1="443.2038" y2="443.2038"/><text fill="#000000" font-family="sans-serif" font-size="14" lengthAdjust="spacing" textLength="35.6299" x="60.6749" y="434.1018">Env&#237;o</text><ellipse cx="80" cy="464.2038" fill="#222222" rx="10" ry="10" style="stroke:#222222;stroke-width:1;"/><g id="Pedido.CONC3.Env.o.Preparando"><rect fill="#F1F1F1" height="50" rx="12.5" ry="12.5" style="stroke:#181818;stroke-width:0.5;" width="97.9797" x="31" y="511.2038"/><line style="stroke:#181818;stroke-width:0.5;" x1="31" x2="128.9797" y1="540.2717" y2="540.2717"/><text fill="#000000" font-family="sans-serif" font-size="14" lengthAdjust="spacing" textLength="77.9797" x="41" y="531.1697">Preparando</text></g><g id="Pedido.CONC3.Env.o.Enviado"><rect fill="#F1F1F1" height="50" rx="12.5" ry="12.5" style="stroke:#181818;stroke-width:0.5;" width="72.0938" x="44" y="616.2038"/><line style="stroke:#181818;stroke-width:0.5;" x1="44" x2="116.0938" y1="645.2717" y2="645.2717"/><text fill="#000000" font-family="sans-serif" font-size="14" lengthAdjust="spacing" textLength="52.0938" x="54" y="636.1697">Enviado</text></g><!--link *start*Env?o to Preparando--><g class="link" data-entity-1=".start.Env.o" data-entity-2="Preparando" data-source-line="11" data-uid="lnk11" id="link_.start.Env.o_Preparando"><path d="M80,474.3538 C80,483.6238 80,492.3438 80,504.9838" fill="none" id="*start*Env&#237;o-to-Preparando" style="stroke:#181818;stroke-width:1;"/><polygon fill="#181818" points="80,510.9838,84,501.9838,80,505.9838,76,501.9838,80,510.9838" style="stroke:#181818;stroke-width:1;"/></g><!--link Preparando to Enviado--><g class="link" data-entity-1="Preparando" data-entity-2="Enviado" data-source-line="12" data-uid="lnk13" id="link_Preparando_Enviado"><path d="M80,561.3538 C80,577.7638 80,593.3938 80,609.8538" fill="none" id="Preparando-to-Enviado" style="stroke:#181818;stroke-width:1;"/><polygon fill="#181818" points="80,615.8538,84,606.8538,80,610.8538,76,606.8538,80,615.8538" style="stroke:#181818;stroke-width:1;"/><text fill="#000000" font-family="sans-serif" font-size="13" lengthAdjust="spacing" textLength="45.786" x="81" y="594.1008">enviar()</text></g><ellipse cx="88" cy="16" fill="#222222" rx="10" ry="10" style="stroke:#222222;stroke-width:1;"/><ellipse cx="88" cy="776" fill="none" rx="11" ry="11" style="stroke:#222222;stroke-width:1;"/><ellipse cx="88" cy="776" fill="#222222" rx="6" ry="6" style="stroke:#222222;stroke-width:1;"/><!--link *start* to Pedido--><g class="link" data-entity-1=".start." data-entity-2="Pedido" data-source-line="1" data-uid="lnk3" id="link_.start._Pedido"><path d="M88,26.11 C88,37.69 88,53.52 88,80.92" fill="none" id="*start*-to-Pedido" style="stroke:#181818;stroke-width:1;"/><polygon fill="#181818" points="88,86.92,92,77.92,88,81.92,84,77.92,88,86.92" style="stroke:#181818;stroke-width:1;"/></g><!--link Pedido to *end*--><g class="link" data-entity-1="Pedido" data-entity-2=".end." data-source-line="16" data-uid="lnk15" id="link_Pedido_.end."><path d="M88,686.1 C88,721.53 88,744.26 88,758.76" fill="none" id="Pedido-to-*end*" style="stroke:#181818;stroke-width:1;"/><polygon fill="#181818" points="88,764.76,92,755.76,88,759.76,84,755.76,88,764.76" style="stroke:#181818;stroke-width:1;"/><text fill="#000000" font-family="sans-serif" font-size="13" lengthAdjust="spacing" textLength="56.433" x="89" y="730.897">finalizar()</text></g><!--SRC=[YzQALT3LjLC8I4t9JCdduYekIIn9XV8KghaKW9900YgQc0uHKr28XclBIybCpIj91Sc1PL14m6gSy_FICejo4u46MYaK9AOd5cbe0fNMeXhkcbTsU2s6yKMf1Ob5YNafKBFXNB0iK4icnDHK40jcR2qN5zJz84KWewmKqZBp4dCogq1g0000]--></g></svg>