<svg xmlns="http://www.w3.org/2000/svg" xmlns:xlink="http://www.w3.org/1999/xlink" contentStyleType="text/css" data-diagram-type="STATE" height="569px" preserveAspectRatio="none" style="width:433px;height:569px;background:#FFFFFF;" version="1.1" viewBox="0 0 433 569" width="433px" zoomAndPan="magnify"><defs/><g><g class="entity" data-entity="Decision" data-uid="ent0002" id="entity_Decision"><polygon fill="#F1F1F1" points="86.98,198,98.98,210,86.98,222,74.98,210,86.98,198" style="stroke:#181818;stroke-width:0.5;"/></g><ellipse cx="86.98" cy="16" fill="#222222" rx="10" ry="10" style="stroke:#222222;stroke-width:1;"/><g id="EvaluandoPedido"><rect fill="#F1F1F1" height="50" rx="12.5" ry="12.5" style="stroke:#181818;stroke-width:0.5;" width="134.2676" x="19.98" y="87"/><line style="stroke:#181818;stroke-width:0.5;" x1="19.98" x2="154.2476" y1="116.0679" y2="116.0679"/><text fill="#000000" font-family="sans-serif" font-size="14" lengthAdjust="spacing" textLength="114.2676" x="29.98" y="106.9659">EvaluandoPedido</text></g><g id="Aprobado"><rect fill="#F1F1F1" height="50" rx="12.5" ry="12.5" style="stroke:#181818;stroke-width:0.5;" width="85.3518" x="64.48" y="430"/><line style="stroke:#181818;stroke-width:0.5;" x1="64.48" x2="149.8318" y1="459.0679" y2="459.0679"/><text fill="#000000" font-family="sans-serif" font-size="14" lengthAdjust="spacing" textLength="65.3518" x="74.48" y="449.9659">Aprobado</text></g><g id="RevisionManual"><rect fill="#F1F1F1" height="50" rx="12.5" ry="12.5" style="stroke:#181818;stroke-width:0.5;" width="124.0896" x="132.98" y="301"/><line style="stroke:#181818;stroke-width:0.5;" x1="132.98" x2="257.0696" y1="330.0679" y2="330.0679"/><text fill="#000000" font-family="sans-serif" font-size="14" lengthAdjust="spacing" textLength="104.0896" x="142.98" y="320.9659">RevisionManual</text></g><g id="Rechazado"><rect fill="#F1F1F1" height="50" rx="12.5" ry="12.5" style="stroke:#181818;stroke-width:0.5;" width="91.3437" x="184.48" y="430"/><line style="stroke:#181818;stroke-width:0.5;" x1="184.48" x2="275.8237" y1="459.0679" y2="459.0679"/><text fill="#000000" font-family="sans-serif" font-size="14" lengthAdjust="spacing" textLength="71.3437" x="194.48" y="449.9659">Rechazado</text></g><ellipse cx="167.98" cy="552" fill="none" rx="11" ry="11" style="stroke:#222222;stroke-width:1;"/><ellipse cx="167.98" cy="552" fill="#222222" rx="6" ry="6" style="stroke:#222222;stroke-width:1;"/><!--link *start* to EvaluandoPedido--><g class="link" data-entity-1=".start." data-entity-2="EvaluandoPedido" data-source-line="1" data-uid="lnk4" id="link_.start._EvaluandoPedido"><path d="M86.98,26.01 C86.98,39.89 86.98,60.97 86.98,80.84" fill="none" id="*start*-to-EvaluandoPedido" style="stroke:#181818;stroke-width:1;"/><polygon fill="#181818" points="86.98,86.84,90.98,77.84,86.98,81.84,82.98,77.84,86.98,86.84" style="stroke:#181818;stroke-width:1;"/></g><!--link EvaluandoPedido to Decision--><g class="link" data-entity-1="EvaluandoPedido" data-entity-2="Decision" data-source-line="5" data-uid="lnk5" id="link_EvaluandoPedido_Decision"><path d="M86.98,137.22 C86.98,156.67 86.98,177.07 86.98,191.83" fill="none" id="EvaluandoPedido-to-Decision" style="stroke:#181818;stroke-width:1;"/><polygon fill="#181818" points="86.98,197.83,90.98,188.83,86.98,192.83,82.98,188.83,86.98,197.83" style="stroke:#181818;stroke-width:1;"/></g><!--link Decision to Aprobado--><g class="link" data-entity-1="Decision" data-entity-2="Aprobado" data-source-line="7" data-uid="lnk7" id="link_Decision_Aprobado"><path d="M80.41,216.21 C65.16,228.81 27.56,262.7 13.98,301 C6.55,321.94 6,330.26 13.98,351 C26.26,382.93 48.9798,407.2191 70.8298,425.9991" fill="none" id="Decision-to-Aprobado" style="stroke:#181818;stroke-width:1;"/><polygon fill="#181818" points="75.38,429.91,71.1619,421.0101,71.5881,426.6509,65.9474,427.0771,75.38,429.91" style="stroke:#181818;stroke-width:1;"/><text fill="#000000" font-family="sans-serif" font-size="13" lengthAdjust="spacing" textLength="100.5421" x="14.98" y="331.397">[monto &lt;= 1000]</text></g><!--link Decision to RevisionManual--><g class="link" data-entity-1="Decision" data-entity-2="RevisionManual" data-source-line="8" data-uid="lnk9" id="link_Decision_RevisionManual"><path d="M83.85,219.11 C79.67,231.37 73.91,254.91 83.98,271 C95.06,288.71 108.2856,298.4054 127.2456,306.5354" fill="none" id="Decision-to-RevisionManual" style="stroke:#181818;stroke-width:1;"/><polygon fill="#181818" points="132.76,308.9,126.0648,301.6769,128.1647,306.9295,122.912,309.0294,132.76,308.9" style="stroke:#181818;stroke-width:1;"/><text fill="#000000" font-family="sans-serif" font-size="13" lengthAdjust="spacing" textLength="215.1762" x="84.98" y="266.897">[monto &gt; 1000 and monto &lt;= 5000]</text></g><!--link Decision to Rechazado--><g class="link" data-entity-1="Decision" data-entity-2="Rechazado" data-source-line="9" data-uid="lnk11" id="link_Decision_Rechazado"><path d="M97.91,211.3 C138.3,212.64 278.12,219.62 304.98,252 C325.73,277.02 397.38,178.61 283.98,400 C278.29,411.09 273.8273,417.1638 264.9773,425.6638" fill="none" id="Decision-to-Rechazado" style="stroke:#181818;stroke-width:1;"/><polygon fill="#181818" points="260.65,429.82,269.9118,426.4706,264.2561,426.3565,264.3702,420.7008,260.65,429.82" style="stroke:#181818;stroke-width:1;"/><text fill="#000000" font-family="sans-serif" font-size="13" lengthAdjust="spacing" textLength="93.1061" x="331.98" y="331.397">[monto &gt; 5000]</text></g><!--link Aprobado to *end*--><g class="link" data-entity-1="Aprobado" data-entity-2=".end." data-source-line="11" data-uid="lnk13" id="link_Aprobado_.end."><path d="M122.68,480.46 C135.68,500.7 150.1477,523.2315 159.0877,537.1515" fill="none" id="Aprobado-to-*end*" style="stroke:#181818;stroke-width:1;"/><polygon fill="#181818" points="162.33,542.2,160.8321,532.4657,159.628,537.9929,154.1008,536.7888,162.33,542.2" style="stroke:#181818;stroke-width:1;"/></g><!--link RevisionManual to Aprobado--><g class="link" data-entity-1="RevisionManual" data-entity-2="Aprobado" data-source-line="12" data-uid="lnk14" id="link_RevisionManual_Aprobado"><path d="M169.24,351.24 C160.61,360.12 151.32,370.56 143.98,381 C133.27,396.22 126.3075,409.5154 119.6475,424.2054" fill="none" id="RevisionManual-to-Aprobado" style="stroke:#181818;stroke-width:1;"/><polygon fill="#181818" points="117.17,429.67,124.5293,423.1247,119.2346,425.1162,117.2432,419.8214,117.17,429.67" style="stroke:#181818;stroke-width:1;"/><text fill="#000000" font-family="sans-serif" font-size="13" lengthAdjust="spacing" textLength="56.979" x="144.98" y="395.897">aprobar()</text></g><!--link RevisionManual to Rechazado--><g class="link" data-entity-1="RevisionManual" data-entity-2="Rechazado" data-source-line="13" data-uid="lnk15" id="link_RevisionManual_Rechazado"><path d="M201.64,351.19 C207.87,373.78 215.5283,401.545 221.7383,424.115" fill="none" id="RevisionManual-to-Rechazado" style="stroke:#181818;stroke-width:1;"/><polygon fill="#181818" points="223.33,429.9,224.7991,420.1613,222.0036,425.0792,217.0858,422.2836,223.33,429.9" style="stroke:#181818;stroke-width:1;"/><text fill="#000000" font-family="sans-serif" font-size="13" lengthAdjust="spacing" textLength="60.84" x="214.98" y="395.897">rechazar()</text></g><!--link Rechazado to *end*--><g class="link" data-entity-1="Rechazado" data-entity-2=".end." data-source-line="14" data-uid="lnk16" id="link_Rechazado_.end."><path d="M214.01,480.46 C200.81,500.7 186.078,523.2546 176.998,537.1746" fill="none" id="Rechazado-to-*end*" style="stroke:#181818;stroke-width:1;"/><polygon fill="#181818" points="173.72,542.2,181.9873,536.8473,176.4517,538.0122,175.2868,532.4766,173.72,542.2" style="stroke:#181818;stroke-width:1;"/></g><!--SRC=[ROuz2y8m443t-nKtQg5G1vTI0uAEWhY636SQQA3cf5-3lzus_IxDT3dUuvqC58QXm7j3UKqkvQT9RSe0PKMLmPlHjhJiC4bqnbOR8G0shFT7461IklNrM_2RMcPuCSeFkuenkU0fYYArnb-cyPy7kPho1IuyZMqK9_-yv-kCVdDluVSqJ0Trk0mKR9BhesCaFnU7unuuvs8i-hadn_KG-GC0]--></g></svg>