<svg xmlns="http://www.w3.org/2000/svg" xmlns:xlink="http://www.w3.org/1999/xlink" contentStyleType="text/css" data-diagram-type="STATE" height="554px" preserveAspectRatio="none" style="width:168px;height:554px;background:#FFFFFF;" version="1.1" viewBox="0 0 168 554" width="168px" zoomAndPan="magnify"><defs/><g><g id="J"><rect fill="#F1F1F1" height="50" rx="12.5" ry="12.5" style="stroke:#181818;stroke-width:0.5;" width="50" x="59" y="306"/><line style="stroke:#181818;stroke-width:0.5;" x1="59" x2="109" y1="335.0679" y2="335.0679"/><text fill="#000000" font-family="sans-serif" font-size="14" lengthAdjust="spacing" textLength="3.822" x="82.089" y="325.9659">J</text></g><ellipse cx="84" cy="16" fill="#222222" rx="10" ry="10" style="stroke:#222222;stroke-width:1;"/><g id="Inicio"><rect fill="#F1F1F1" height="50" rx="12.5" ry="12.5" style="stroke:#181818;stroke-width:0.5;" width="55.8119" x="56" y="86"/><line style="stroke:#181818;stroke-width:0.5;" x1="56" x2="111.8119" y1="115.0679" y2="115.0679"/><text fill="#000000" font-family="sans-serif" font-size="14" lengthAdjust="spacing" textLength="35.8119" x="66" y="105.9659">Inicio</text></g><g id="Paso1"><rect fill="#F1F1F1" height="50" rx="12.5" ry="12.5" style="stroke:#181818;stroke-width:0.5;" width="59.5079" x="7" y="196"/><line style="stroke:#181818;stroke-width:0.5;" x1="7" x2="66.5079" y1="225.0679" y2="225.0679"/><text fill="#000000" font-family="sans-serif" font-size="14" lengthAdjust="spacing" textLength="39.5079" x="17" y="215.9659">Paso1</text></g><g id="Paso2"><rect fill="#F1F1F1" height="50" rx="12.5" ry="12.5" style="stroke:#181818;stroke-width:0.5;" width="59.5079" x="102" y="196"/><line style="stroke:#181818;stroke-width:0.5;" x1="102" x2="161.5079" y1="225.0679" y2="225.0679"/><text fill="#000000" font-family="sans-serif" font-size="14" lengthAdjust="spacing" textLength="39.5079" x="112" y="215.9659">Paso2</text></g><g id="Final"><rect fill="#F1F1F1" height="50" rx="12.5" ry="12.5" style="stroke:#181818;stroke-width:0.5;" width="50.9959" x="58.5" y="416"/><line style="stroke:#181818;stroke-width:0.5;" x1="58.5" x2="109.4959" y1="445.0679" y2="445.0679"/><text fill="#000000" font-family="sans-serif" font-size="14" lengthAdjust="spacing" textLength="30.9959" x="68.5" y="435.9659">Final</text></g><ellipse cx="84" cy="537" fill="none" rx="11" ry="11" style="stroke:#222222;stroke-width:1;"/><ellipse cx="84" cy="537" fill="#222222" rx="6" ry="6" style="stroke:#222222;stroke-width:1;"/><!--link *start* to Inicio--><g class="link" data-entity-1=".start." data-entity-2="Inicio" data-source-line="1" data-uid="lnk4" id="link_.start._Inicio"><path d="M84,26.26 C84,40.04 84,60.42 84,79.91" fill="none" id="*start*-to-Inicio" style="stroke:#181818;stroke-width:1;"/><polygon fill="#181818" points="84,85.91,88,76.91,84,80.91,80,76.91,84,85.91" style="stroke:#181818;stroke-width:1;"/></g><!--link Inicio to Paso1--><g class="link" data-entity-1="Inicio" data-entity-2="Paso1" data-source-line="3" data-uid="lnk6" id="link_Inicio_Paso1"><path d="M73.45,136.24 C65.71,154.02 57.6345,172.5785 49.9045,190.3385" fill="none" id="Inicio-to-Paso1" style="stroke:#181818;stroke-width:1;"/><polygon fill="#181818" points="47.51,195.84,54.7694,189.1841,49.5054,191.2554,47.4341,185.9914,47.51,195.84" style="stroke:#181818;stroke-width:1;"/></g><!--link Inicio to Paso2--><g class="link" data-entity-1="Inicio" data-entity-2="Paso2" data-source-line="4" data-uid="lnk8" id="link_Inicio_Paso2"><path d="M94.77,136.24 C102.68,154.02 110.934,172.5967 118.824,190.3567" fill="none" id="Inicio-to-Paso2" style="stroke:#181818;stroke-width:1;"/><polygon fill="#181818" points="121.26,195.84,121.2615,185.9911,119.23,191.2706,113.9505,189.2391,121.26,195.84" style="stroke:#181818;stroke-width:1;"/></g><!--link Paso1 to J--><g class="link" data-entity-1="Paso1" data-entity-2="J" data-source-line="8" data-uid="lnk9" id="link_Paso1_J"><path d="M47.55,246.24 C55.29,264.02 63.3655,282.5785 71.0955,300.3385" fill="none" id="Paso1-to-J" style="stroke:#181818;stroke-width:1;"/><polygon fill="#181818" points="73.49,305.84,73.5659,295.9914,71.4946,301.2554,66.2306,299.1841,73.49,305.84" style="stroke:#181818;stroke-width:1;"/></g><!--link Paso2 to J--><g class="link" data-entity-1="Paso2" data-entity-2="J" data-source-line="9" data-uid="lnk10" id="link_Paso2_J"><path d="M121.23,246.24 C113.32,264.02 105.066,282.5967 97.176,300.3567" fill="none" id="Paso2-to-J" style="stroke:#181818;stroke-width:1;"/><polygon fill="#181818" points="94.74,305.84,102.0495,299.2391,96.77,301.2706,94.7385,295.9911,94.74,305.84" style="stroke:#181818;stroke-width:1;"/></g><!--link J to Final--><g class="link" data-entity-1="J" data-entity-2="Final" data-source-line="11" data-uid="lnk12" id="link_J_Final"><path d="M84,356.24 C84,374.02 84,392.08 84,409.84" fill="none" id="J-to-Final" style="stroke:#181818;stroke-width:1;"/><polygon fill="#181818" points="84,415.84,88,406.84,84,410.84,80,406.84,84,415.84" style="stroke:#181818;stroke-width:1;"/></g><!--link Final to *end*--><g class="link" data-entity-1="Final" data-entity-2=".end." data-source-line="13" data-uid="lnk14" id="link_Final_.end."><path d="M84,466.21 C84,485.57 84,505.75 84,519.9" fill="none" id="Final-to-*end*" style="stroke:#181818;stroke-width:1;"/><polygon fill="#181818" points="84,525.9,88,516.9,84,520.9,80,516.9,84,525.9" style="stroke:#181818;stroke-width:1;"/></g><!--SRC=[YzQALT3LjLFmpCjCpipdueBGOA60nE9yGtG18owkufB4abG5BmKRcwpIlEIIpFmyEpikBh1gi38lCDi8okRo0ZFSClCISxYum1HO85eh5W00]--></g></svg>