<svg xmlns="http://www.w3.org/2000/svg" xmlns:xlink="http://www.w3.org/1999/xlink" contentStyleType="text/css" data-diagram-type="STATE" height="747px" preserveAspectRatio="none" style="width:259px;height:747px;background:#FFFFFF;" version="1.1" viewBox="0 0 259 747" width="259px" zoomAndPan="magnify"><defs/><g><g class="entity" data-entity="Decision" data-uid="ent0002" id="entity_Decision"><polygon fill="#F1F1F1" points="135.5,216,147.5,228,135.5,240,123.5,228,135.5,216" style="stroke:#181818;stroke-width:0.5;"/></g><path d="M19.5,319 L113.4797,319 A12.5,12.5 0 0 1 125.9797,331.5 L125.9797,348.0679 L7,348.0679 L7,331.5 A12.5,12.5 0 0 1 19.5,319" fill="#F1F1F1"/><rect fill="none" height="321.0679" rx="12.5" ry="12.5" style="stroke:#181818;stroke-width:0.5;" width="118.9797" x="7" y="319"/><line style="stroke:#181818;stroke-width:0.5;" x1="7" x2="125.9797" y1="348.0679" y2="348.0679"/><text fill="#000000" font-family="sans-serif" font-size="14" lengthAdjust="spacing" textLength="79.7017" x="26.639" y="338.9659">Preparacion</text><ellipse cx="68" cy="369.0679" fill="#222222" rx="10" ry="10" style="stroke:#222222;stroke-width:1;"/><g id="Preparacion.Preparando"><rect fill="#F1F1F1" height="50" rx="12.5" ry="12.5" style="stroke:#181818;stroke-width:0.5;" width="97.9797" x="19" y="416.0679"/><line style="stroke:#181818;stroke-width:0.5;" x1="19" x2="116.9797" y1="445.1358" y2="445.1358"/><text fill="#000000" font-family="sans-serif" font-size="14" lengthAdjust="spacing" textLength="77.9797" x="29" y="436.0339">Preparando</text></g><g id="Preparacion.Enviado"><rect fill="#F1F1F1" height="50" rx="12.5" ry="12.5" style="stroke:#181818;stroke-width:0.5;" width="72.0938" x="32" y="521.0679"/><line style="stroke:#181818;stroke-width:0.5;" x1="32" x2="104.0938" y1="550.1358" y2="550.1358"/><text fill="#000000" font-family="sans-serif" font-size="14" lengthAdjust="spacing" textLength="52.0938" x="42" y="541.0339">Enviado</text></g><ellipse cx="68" cy="619.0679" fill="none" rx="11" ry="11" style="stroke:#222222;stroke-width:1;"/><ellipse cx="68" cy="619.0679" fill="#222222" rx="6" ry="6" style="stroke:#222222;stroke-width:1;"/><!--link *start*Preparacion to Preparando--><g class="link" data-entity-1=".start.Preparacion" data-entity-2="Preparando" data-source-line="10" data-uid="lnk11" id="link_.start.Preparacion_Preparando"><path d="M68,379.2179 C68,388.4879 68,397.2079 68,409.8479" fill="none" id="*start*Preparacion-to-Preparando" style="stroke:#181818;stroke-width:1;"/><polygon fill="#181818" points="68,415.8479,72,406.8479,68,410.8479,64,406.8479,68,415.8479" style="stroke:#181818;stroke-width:1;"/></g><!--link Preparando to Enviado--><g class="link" data-entity-1="Preparando" data-entity-2="Enviado" data-source-line="11" data-uid="lnk13" id="link_Preparando_Enviado"><path d="M68,466.2179 C68,482.6279 68,498.2579 68,514.7179" fill="none" id="Preparando-to-Enviado" style="stroke:#181818;stroke-width:1;"/><polygon fill="#181818" points="68,520.7179,72,511.7179,68,515.7179,64,511.7179,68,520.7179" style="stroke:#181818;stroke-width:1;"/><text fill="#000000" font-family="sans-serif" font-size="13" lengthAdjust="spacing" textLength="45.786" x="69" y="498.9649">enviar()</text></g><!--link Enviado to *end*Preparacion--><g class="link" data-entity-1="Enviado" data-entity-2=".end.Preparacion" data-source-line="12" data-uid="lnk15" id="link_Enviado_.end.Preparacion"><path d="M68,571.1079 C68,583.6579 68,592.3479 68,601.9179" fill="none" id="Enviado-to-*end*Preparacion" style="stroke:#181818;stroke-width:1;"/><polygon fill="#181818" points="68,607.9179,72,598.9179,68,602.9179,64,598.9179,68,607.9179" style="stroke:#181818;stroke-width:1;"/></g><ellipse cx="135.5" cy="16" fill="#222222" rx="10" ry="10" style="stroke:#222222;stroke-width:1;"/><g id="Validacion"><rect fill="#F1F1F1" height="50" rx="12.5" ry="12.5" style="stroke:#181818;stroke-width:0.5;" width="87.3957" x="92" y="87"/><line style="stroke:#181818;stroke-width:0.5;" x1="92" x2="179.3957" y1="116.0679" y2="116.0679"/><text fill="#000000" font-family="sans-serif" font-size="14" lengthAdjust="spacing" textLength="67.3957" x="102" y="106.9659">Validacion</text></g><g id="Rechazado"><rect fill="#F1F1F1" height="50" rx="12.5" ry="12.5" style="stroke:#181818;stroke-width:0.5;" width="91.3437" x="161" y="454.5"/><line style="stroke:#181818;stroke-width:0.5;" x1="161" x2="252.3437" y1="483.5679" y2="483.5679"/><text fill="#000000" font-family="sans-serif" font-size="14" lengthAdjust="spacing" textLength="71.3437" x="171" y="474.4659">Rechazado</text></g><ellipse cx="136.5" cy="730" fill="none" rx="11" ry="11" style="stroke:#222222;stroke-width:1;"/><ellipse cx="136.5" cy="730" fill="#222222" rx="6" ry="6" style="stroke:#222222;stroke-width:1;"/><!--link *start* to Validacion--><g class="link" data-entity-1=".start." data-entity-2="Validacion" data-source-line="1" data-uid="lnk4" id="link_.start._Validacion"><path d="M135.5,26.01 C135.5,39.89 135.5,60.97 135.5,80.84" fill="none" id="*start*-to-Validacion" style="stroke:#181818;stroke-width:1;"/><polygon fill="#181818" points="135.5,86.84,139.5,77.84,135.5,81.84,131.5,77.84,135.5,86.84" style="stroke:#181818;stroke-width:1;"/></g><!--link Validacion to Decision--><g class="link" data-entity-1="Validacion" data-entity-2="Decision" data-source-line="5" data-uid="lnk5" id="link_Validacion_Decision"><path d="M135.5,137.18 C135.5,161.49 135.5,191.89 135.5,209.98" fill="none" id="Validacion-to-Decision" style="stroke:#181818;stroke-width:1;"/><polygon fill="#181818" points="135.5,215.98,139.5,206.98,135.5,210.98,131.5,206.98,135.5,215.98" style="stroke:#181818;stroke-width:1;"/><text fill="#000000" font-family="sans-serif" font-size="13" lengthAdjust="spacing" textLength="53.079" x="136.5" y="181.897">evaluar()</text></g><!--link Decision to Preparacion--><g class="link" data-entity-1="Decision" data-entity-2="Preparacion" data-source-line="6" data-uid="lnk6" id="link_Decision_Preparacion"><path d="M127.05,231.92 C113.41,237.14 86.9,249.49 75.5,270 C67.14,285.04 62.7777,295.8028 59.2577,312.9328" fill="none" id="Decision-to-Preparacion" style="stroke:#181818;stroke-width:1;"/><polygon fill="#181818" points="58.05,318.81,63.7797,310.7993,59.0564,313.9123,55.9434,309.1891,58.05,318.81" style="stroke:#181818;stroke-width:1;"/><text fill="#000000" font-family="sans-serif" font-size="13" lengthAdjust="spacing" textLength="81.5751" x="76.5" y="284.897">[score &gt;= 0.7]</text></g><!--link Decision to Rechazado--><g class="link" data-entity-1="Decision" data-entity-2="Rechazado" data-source-line="7" data-uid="lnk8" id="link_Decision_Rechazado"><path d="M140.71,235.24 C146.85,242.94 156.92,256.63 162.5,270 C188.92,333.34 199.5221,408.3929 203.7121,448.2129" fill="none" id="Decision-to-Rechazado" style="stroke:#181818;stroke-width:1;"/><polygon fill="#181818" points="204.34,454.18,207.3762,444.8108,203.8168,449.2075,199.4201,445.648,204.34,454.18" style="stroke:#181818;stroke-width:1;"/><text fill="#000000" font-family="sans-serif" font-size="13" lengthAdjust="spacing" textLength="74.1391" x="169.5" y="284.897">[score &lt; 0.7]</text></g><!--link Rechazado to *end*--><g class="link" data-entity-1="Rechazado" data-entity-2=".end." data-source-line="15" data-uid="lnk17" id="link_Rechazado_.end."><path d="M204.86,504.58 C201.46,544.41 191.55,625.87 164.5,689 C159.23,701.31 153.6676,709.0729 147.2176,716.7229" fill="none" id="Rechazado-to-*end*" style="stroke:#181818;stroke-width:1;"/><polygon fill="#181818" points="143.35,721.31,152.2095,717.0077,146.573,717.4874,146.0933,711.8509,143.35,721.31" style="stroke:#181818;stroke-width:1;"/></g><!--link Preparacion to *end*--><g class="link" data-entity-1="Preparacion" data-entity-2=".end." data-source-line="16" data-uid="lnk18" id="link_Preparacion_.end."><path d="M75.48,640.27 C79.84,657.24 85.69,673.83 93.5,689 C101.34,704.23 112.423,713.3638 122.543,720.1338" fill="none" id="Preparacion-to-*end*" style="stroke:#181818;stroke-width:1;"/><polygon fill="#181818" points="127.53,723.47,122.2736,715.1411,123.3742,720.6899,117.8254,721.7904,127.53,723.47" style="stroke:#181818;stroke-width:1;"/><text fill="#000000" font-family="sans-serif" font-size="13" lengthAdjust="spacing" textLength="61.2171" x="94.5" y="684.897">entregar()</text></g><!--SRC=[LOwn2i8m48RtUueRLQYu2ILcqhquk9GEHthOG6aagHqKtzqaZKtTSb- - - - -lTmqMXSGRzRebfSq0u4OQ6S-ijFCp2g4wenLB2P2rkBKu9V94_PFiPWiB34Pb-K5stYYnTifOHdd2m_xO_9jNLXszg3MOHJ5xgT4wwms8TUgU-D0Q3_CG_ox3f4EcBnXUeHykC0W-13u0-VeFhgyb5bD6o_UGymK0]--></g></svg>