<svg xmlns="http://www.w3.org/2000/svg" xmlns:xlink="http://www.w3.org/1999/xlink" contentStyleType="text/css" data-diagram-type="CLASS" height="584px" preserveAspectRatio="none" style="width:447px;height:584px;background:#FFFFFF;" version="1.1" viewBox="0 0 447 584" width="447px" zoomAndPan="magnify"><title>Sistema de Reservas de Biblioteca &#8212; Modelo de Datos (UML)</title><defs/><g><g class="title" data-source-line="5"><text fill="#000000" font-family="sans-serif" font-size="14" font-weight="bold" lengthAdjust="spacing" textLength="419.5364" x="10" y="24.9659">Sistema de Reservas de Biblioteca &#8212; Modelo de Datos (UML)</text></g><!--class Usuario--><g class="entity" data-entity="Usuario" data-source-line="7" data-uid="ent0002" id="entity_Usuario"><rect fill="#F1F1F1" height="105.2038" rx="2.5" ry="2.5" style="stroke:#181818;stroke-width:0.5;" width="126.3656" x="14.0556" y="47.0679"/><ellipse cx="48.4307" cy="63.0679" fill="#ADD1B2" rx="11" ry="11" style="stroke:#181818;stroke-width:1;"/><path d="M51.3994,68.7085 Q50.8213,69.0054 50.1807,69.146 Q49.5401,69.3023 48.8369,69.3023 Q46.3369,69.3023 45.0088,67.6617 Q43.6963,66.0054 43.6963,62.8804 Q43.6963,59.7554 45.0088,58.0992 Q46.3369,56.4429 48.8369,56.4429 Q49.5401,56.4429 50.1807,56.5992 Q50.8369,56.7554 51.3994,57.0523 L51.3994,59.771 Q50.7744,59.1929 50.1807,58.9273 Q49.5869,58.646 48.9619,58.646 Q47.6182,58.646 46.9307,59.7242 Q46.2432,60.7867 46.2432,62.8804 Q46.2432,64.9742 46.9307,66.0523 Q47.6182,67.1148 48.9619,67.1148 Q49.5869,67.1148 50.1807,66.8492 Q50.7744,66.5679 51.3994,65.9898 L51.3994,68.7085 Z " fill="#000000"/><text fill="#000000" font-family="sans-serif" font-size="14" lengthAdjust="spacing" textLength="51.3098" x="66.7363" y="68.4999">Usuario</text><line style="stroke:#181818;stroke-width:0.5;" x1="15.0556" x2="139.4212" y1="79.0679" y2="79.0679"/><text fill="#000000" font-family="sans-serif" font-size="14" lengthAdjust="spacing" textLength="114.3656" x="20.0556" y="98.0339">+idUsuario: UUID</text><text fill="#000000" font-family="sans-serif" font-size="14" lengthAdjust="spacing" textLength="107.2956" x="20.0556" y="117.1018">+nombre: String</text><text fill="#000000" font-family="sans-serif" font-size="14" lengthAdjust="spacing" textLength="90.8596" x="20.0556" y="136.1697">+email: String</text><line style="stroke:#181818;stroke-width:0.5;" x1="15.0556" x2="139.4212" y1="144.2717" y2="144.2717"/></g><!--class Libro--><g class="entity" data-entity="Libro" data-source-line="13" data-uid="ent0003" id="entity_Libro"><rect fill="#F1F1F1" height="124.2717" rx="2.5" ry="2.5" style="stroke:#181818;stroke-width:0.5;" width="149.8435" x="30.0556" y="453.0679"/><ellipse cx="83.8224" cy="469.0679" fill="#ADD1B2" rx="11" ry="11" style="stroke:#181818;stroke-width:1;"/><path d="M86.7911,474.7085 Q86.213,475.0054 85.5724,475.146 Q84.9318,475.3023 84.2286,475.3023 Q81.7286,475.3023 80.4005,473.6617 Q79.088,472.0054 79.088,468.8804 Q79.088,465.7554 80.4005,464.0992 Q81.7286,462.4429 84.2286,462.4429 Q84.9318,462.4429 85.5724,462.5992 Q86.2286,462.7554 86.7911,463.0523 L86.7911,465.771 Q86.1661,465.1929 85.5724,464.9273 Q84.9786,464.646 84.3536,464.646 Q83.0099,464.646 82.3224,465.7242 Q81.6349,466.7867 81.6349,468.8804 Q81.6349,470.9742 82.3224,472.0523 Q83.0099,473.1148 84.3536,473.1148 Q84.9786,473.1148 85.5724,472.8492 Q86.1661,472.5679 86.7911,471.9898 L86.7911,474.7085 Z " fill="#000000"/><text fill="#000000" font-family="sans-serif" font-size="14" lengthAdjust="spacing" textLength="33.8099" x="104.3224" y="474.4999">Libro</text><line style="stroke:#181818;stroke-width:0.5;" x1="31.0556" x2="178.8991" y1="485.0679" y2="485.0679"/><text fill="#000000" font-family="sans-serif" font-size="14" lengthAdjust="spacing" textLength="82.3757" x="36.0556" y="504.0339">+isbn: String</text><text fill="#000000" font-family="sans-serif" font-size="14" lengthAdjust="spacing" textLength="89.2497" x="36.0556" y="523.1018">+titulo: String</text><text fill="#000000" font-family="sans-serif" font-size="14" lengthAdjust="spacing" textLength="90.6077" x="36.0556" y="542.1697">+autor: String</text><text fill="#000000" font-family="sans-serif" font-size="14" lengthAdjust="spacing" textLength="137.8435" x="36.0556" y="561.2376">+disponible: Boolean</text><line style="stroke:#181818;stroke-width:0.5;" x1="31.0556" x2="178.8991" y1="569.3396" y2="569.3396"/></g><!--class Reserva--><g class="entity" data-entity="Reserva" data-source-line="20" data-uid="ent0004" id="entity_Reserva"><rect fill="#F1F1F1" height="143.3396" rx="2.5" ry="2.5" style="stroke:#181818;stroke-width:0.5;" width="168.4214" x="108.0556" y="231.0679"/><ellipse cx="162.0394" cy="247.0679" fill="#ADD1B2" rx="11" ry="11" style="stroke:#181818;stroke-width:1;"/><path d="M165.0082,252.7085 Q164.43,253.0054 163.7894,253.146 Q163.1488,253.3023 162.4457,253.3023 Q159.9457,253.3023 158.6175,251.6617 Q157.305,250.0054 157.305,246.8804 Q157.305,243.7554 158.6175,242.0992 Q159.9457,240.4429 162.4457,240.4429 Q163.1488,240.4429 163.7894,240.5992 Q164.4457,240.7554 165.0082,241.0523 L165.0082,243.771 Q164.3832,243.1929 163.7894,242.9273 Q163.1957,242.646 162.5707,242.646 Q161.2269,242.646 160.5394,243.7242 Q159.8519,244.7867 159.8519,246.8804 Q159.8519,248.9742 160.5394,250.0523 Q161.2269,251.1148 162.5707,251.1148 Q163.1957,251.1148 163.7894,250.8492 Q164.3832,250.5679 165.0082,249.9898 L165.0082,252.7085 Z " fill="#000000"/><text fill="#000000" font-family="sans-serif" font-size="14" lengthAdjust="spacing" textLength="51.9538" x="182.5394" y="252.4999">Reserva</text><line style="stroke:#181818;stroke-width:0.5;" x1="109.0556" x2="275.477" y1="263.0679" y2="263.0679"/><text fill="#000000" font-family="sans-serif" font-size="14" lengthAdjust="spacing" textLength="115.0096" x="114.0556" y="282.0339">+idReserva: UUID</text><text fill="#000000" font-family="sans-serif" font-size="14" lengthAdjust="spacing" textLength="114.7435" x="114.0556" y="301.1018">+fecha: DateTime</text><text fill="#000000" font-family="sans-serif" font-size="14" lengthAdjust="spacing" textLength="156.4214" x="114.0556" y="320.1697">+estado: EstadoReserva</text><text fill="#000000" font-family="sans-serif" font-size="14" lengthAdjust="spacing" textLength="114.3656" x="114.0556" y="339.2376">+idUsuario: UUID</text><text fill="#000000" font-family="sans-serif" font-size="14" lengthAdjust="spacing" textLength="116.1856" x="114.0556" y="358.3055">+isbnLibro: String</text><line style="stroke:#181818;stroke-width:0.5;" x1="109.0556" x2="275.477" y1="366.4075" y2="366.4075"/></g><!--class EstadoReserva--><g class="entity" data-entity="EstadoReserva" data-source-line="28" data-uid="ent0005" id="entity_EstadoReserva"><rect fill="#F1F1F1" height="105.2038" rx="2.5" ry="2.5" style="stroke:#181818;stroke-width:0.5;" width="128.4316" x="215.0556" y="462.5679"/><ellipse cx="230.0556" cy="478.5679" fill="#EB937F" rx="11" ry="11" style="stroke:#181818;stroke-width:1;"/><path d="M234.165,484.5679 L226.4462,484.5679 L226.4462,472.1773 L234.165,472.1773 L234.165,474.3335 L228.8994,474.3335 L228.8994,477.0054 L233.665,477.0054 L233.665,479.1617 L228.8994,479.1617 L228.8994,482.4117 L234.165,482.4117 L234.165,484.5679 Z " fill="#000000"/><text fill="#000000" font-family="sans-serif" font-size="14" lengthAdjust="spacing" textLength="96.4316" x="244.0556" y="483.9999">EstadoReserva</text><line style="stroke:#181818;stroke-width:0.5;" x1="216.0556" x2="342.4872" y1="494.5679" y2="494.5679"/><text fill="#000000" font-family="sans-serif" font-size="14" lengthAdjust="spacing" textLength="75.8517" x="221.0556" y="513.5339">PENDIENTE</text><text fill="#000000" font-family="sans-serif" font-size="14" lengthAdjust="spacing" textLength="36.4979" x="221.0556" y="532.6018">LISTA</text><text fill="#000000" font-family="sans-serif" font-size="14" lengthAdjust="spacing" textLength="80.5137" x="221.0556" y="551.6697">CANCELADA</text><line style="stroke:#181818;stroke-width:0.5;" x1="216.0556" x2="342.4872" y1="559.7717" y2="559.7717"/></g><g class="entity" data-entity="GMN9" data-source-line="39" data-uid="ent0010" id="entity_GMN9"><path d="M175.0556,68.0679 L175.0556,131.186 A0,0 0 0 0 175.0556,131.186 L285.5856,131.186 L232.6156,230.6679 L293.5856,131.186 L439.4808,131.186 A0,0 0 0 0 439.4808,131.186 L439.4808,78.0679 L429.4808,68.0679 L175.0556,68.0679 A0,0 0 0 0 175.0556,68.0679" fill="#FEFFDD" style="stroke:#181818;stroke-width:0.5;"/><path d="M429.4808,68.0679 L429.4808,78.0679 L439.4808,78.0679 L429.4808,68.0679" fill="#FEFFDD" style="stroke:#181818;stroke-width:0.5;"/><text fill="#000000" font-family="sans-serif" font-size="13" lengthAdjust="spacing" textLength="243.4252" x="181.0556" y="86.9649">La Reserva contiene las claves for&#225;neas:</text><text fill="#000000" font-family="sans-serif" font-size="13" lengthAdjust="spacing" textLength="197.2491" x="181.0556" y="104.6709">- idUsuario: referencia a Usuario</text><text fill="#000000" font-family="sans-serif" font-size="13" lengthAdjust="spacing" textLength="179.0102" x="181.0556" y="122.377">- isbnLibro: referencia a Libro</text></g><!--link Usuario to Reserva--><g class="link" data-entity-1="Usuario" data-entity-2="Reserva" data-source-line="34" data-uid="lnk6" id="link_Usuario_Reserva"><path codeLine="34" d="M106.5256,152.0679 C120.2356,176.0279 136.7556,204.9079 151.6056,230.8779" fill="none" id="Usuario-Reserva" style="stroke:#181818;stroke-width:1;"/><polygon fill="#000000" points="142.5382,196.2611,140.5982,186.9505,135.4961,189.8689,142.5382,196.2611" style="stroke:#000000;stroke-width:1;"/><text fill="#000000" font-family="sans-serif" font-size="13" lengthAdjust="spacing" textLength="40.105" x="149.0556" y="196.9649">realiza</text><text fill="#000000" font-family="sans-serif" font-size="13" lengthAdjust="spacing" textLength="7.436" x="103.0201" y="174.1956">1</text><text fill="#000000" font-family="sans-serif" font-size="13" lengthAdjust="spacing" textLength="21.567" x="125.0409" y="219.0242">0..*</text></g><!--link Reserva to Libro--><g class="link" data-entity-1="Reserva" data-entity-2="Libro" data-source-line="35" data-uid="lnk7" id="link_Reserva_Libro"><path codeLine="35" d="M162.8456,374.2479 C152.3256,399.6879 140.5656,428.1579 130.4056,452.7379" fill="none" id="Reserva-Libro" style="stroke:#181818;stroke-width:1;"/><polygon fill="#000000" points="152.1458,418.5418,158.3168,411.3051,152.8846,409.06,152.1458,418.5418" style="stroke:#000000;stroke-width:1;"/><text fill="#000000" font-family="sans-serif" font-size="13" lengthAdjust="spacing" textLength="42.978" x="163.0556" y="418.9649">incluye</text><text fill="#000000" font-family="sans-serif" font-size="13" lengthAdjust="spacing" textLength="7.163" x="152.4591" y="396.4324">*</text><text fill="#000000" font-family="sans-serif" font-size="13" lengthAdjust="spacing" textLength="7.163" x="125.9505" y="441.4703">*</text></g><!--link Reserva to EstadoReserva--><g class="link" data-entity-1="Reserva" data-entity-2="EstadoReserva" data-source-line="36" data-uid="lnk8" id="link_Reserva_EstadoReserva"><path codeLine="36" d="M221.2656,374.2479 C233.2156,403.1479 244.4841,430.4227 255.4641,456.9927" fill="none" id="Reserva-to-EstadoReserva" style="stroke:#181818;stroke-width:1;stroke-dasharray:7,7;"/><polygon fill="#181818" points="257.7556,462.5379,258.0151,452.6925,255.846,457.9169,250.6215,455.7479,257.7556,462.5379" style="stroke:#181818;stroke-width:1;"/><text fill="#000000" font-family="sans-serif" font-size="13" lengthAdjust="spacing" textLength="21.554" x="241.0556" y="418.9649">usa</text></g><!--SRC=[TL91Rjim4Bpp5GkTsXGsagiE0PHO1mEA4LJs0rRIobcKuXeabS8f2lGH_K3Vqf_q9Lt9bgqKw8daS9OxCzpmXTq1FNPGMmmXYz5prKTQr-9AVYEuDU522I_Oo5TsUsZH1fhVHF8ayNYWCXujWQSwejjRCYPoLA1afNG83S5d2kHVCGpx1wuiIwGQuS-Fd_0a3LaPBbOO9S27tLFnqPXH6kn2Zvu5lXc0JzoSZodiTklL03dfAayfb6h1xGT46xAz0D-dXmgk_FHCgDoyGiNsLkO8zb7y76Wu7CIfRctr8689tVNfixT9u_burTXI_Q97TKTRxcWK6QAcca8-hkUA_rWSv8xgvwR8zTtxwh7zSxvPhVFDDjTziIwtcQwFsUOnBx9LDjHDUIPt2ImMaDmkbpV9nK6gVuYMtn3kpOGbDoUcBgSCKs1Ns_v8Cz9oUV-FcXJwWCOu_MU8SW1fuMgpm4jB7Rd8v0Wqoc4SNob0A_xtBqSOKkKkO9Q9frPdpjMCWDDid3ZNaDvnHapJQc1GOlu2]--></g></svg>