<svg xmlns="http://www.w3.org/2000/svg" xmlns:xlink="http://www.w3.org/1999/xlink" contentStyleType="text/css" data-diagram-type="CLASS" height="546px" preserveAspectRatio="none" style="width:253px;height:546px;background:#FFFFFF;" version="1.1" viewBox="0 0 253 546" width="253px" zoomAndPan="magnify"><title>Modelo Conceptual &#8212; Biblioteca</title><defs/><g><g class="title" data-source-line="3"><text fill="#000000" font-family="sans-serif" font-size="14" font-weight="bold" lengthAdjust="spacing" textLength="225.7212" x="10" y="24.9659">Modelo Conceptual &#8212; Biblioteca</text></g><!--class Usuario--><g class="entity" data-entity="Usuario" data-source-line="5" data-uid="ent0002" id="entity_Usuario"><rect fill="#F1F1F1" height="105.2038" rx="2.5" ry="2.5" style="stroke:#181818;stroke-width:0.5;" width="83.5397" x="80.8716" y="47.0679"/><ellipse cx="95.975" cy="63.0679" fill="#ADD1B2" rx="11" ry="11" style="stroke:#181818;stroke-width:1;"/><path d="M98.9438,68.7085 Q98.3656,69.0054 97.725,69.146 Q97.0844,69.3023 96.3813,69.3023 Q93.8813,69.3023 92.5531,67.6617 Q91.2406,66.0054 91.2406,62.8804 Q91.2406,59.7554 92.5531,58.0992 Q93.8813,56.4429 96.3813,56.4429 Q97.0844,56.4429 97.725,56.5992 Q98.3813,56.7554 98.9438,57.0523 L98.9438,59.771 Q98.3188,59.1929 97.725,58.9273 Q97.1313,58.646 96.5063,58.646 Q95.1625,58.646 94.475,59.7242 Q93.7875,60.7867 93.7875,62.8804 Q93.7875,64.9742 94.475,66.0523 Q95.1625,67.1148 96.5063,67.1148 Q97.1313,67.1148 97.725,66.8492 Q98.3188,66.5679 98.9438,65.9898 L98.9438,68.7085 Z " fill="#000000"/><text fill="#000000" font-family="sans-serif" font-size="14" lengthAdjust="spacing" textLength="51.3098" x="109.998" y="68.4999">Usuario</text><line style="stroke:#181818;stroke-width:0.5;" x1="81.8716" x2="163.4113" y1="79.0679" y2="79.0679"/><text fill="#000000" font-family="sans-serif" font-size="14" lengthAdjust="spacing" textLength="71.5397" x="86.8716" y="98.0339">+idUsuario</text><text fill="#000000" font-family="sans-serif" font-size="14" lengthAdjust="spacing" textLength="60.5078" x="86.8716" y="117.1018">+nombre</text><text fill="#000000" font-family="sans-serif" font-size="14" lengthAdjust="spacing" textLength="44.0718" x="86.8716" y="136.1697">+email</text><line style="stroke:#181818;stroke-width:0.5;" x1="81.8716" x2="163.4113" y1="144.2717" y2="144.2717"/></g><!--class Libro--><g class="entity" data-entity="Libro" data-source-line="11" data-uid="ent0003" id="entity_Libro"><rect fill="#F1F1F1" height="124.2717" rx="2.5" ry="2.5" style="stroke:#181818;stroke-width:0.5;" width="88.3977" x="78.8716" y="415.0679"/><ellipse cx="104.0361" cy="431.0679" fill="#ADD1B2" rx="11" ry="11" style="stroke:#181818;stroke-width:1;"/><path d="M107.0048,436.7085 Q106.4267,437.0054 105.7861,437.146 Q105.1455,437.3023 104.4423,437.3023 Q101.9423,437.3023 100.6142,435.6617 Q99.3017,434.0054 99.3017,430.8804 Q99.3017,427.7554 100.6142,426.0992 Q101.9423,424.4429 104.4423,424.4429 Q105.1455,424.4429 105.7861,424.5992 Q106.4423,424.7554 107.0048,425.0523 L107.0048,427.771 Q106.3798,427.1929 105.7861,426.9273 Q105.1923,426.646 104.5673,426.646 Q103.2236,426.646 102.5361,427.7242 Q101.8486,428.7867 101.8486,430.8804 Q101.8486,432.9742 102.5361,434.0523 Q103.2236,435.1148 104.5673,435.1148 Q105.1923,435.1148 105.7861,434.8492 Q106.3798,434.5679 107.0048,433.9898 L107.0048,436.7085 Z " fill="#000000"/><text fill="#000000" font-family="sans-serif" font-size="14" lengthAdjust="spacing" textLength="33.8099" x="120.2949" y="436.4999">Libro</text><line style="stroke:#181818;stroke-width:0.5;" x1="79.8716" x2="166.2693" y1="447.0679" y2="447.0679"/><text fill="#000000" font-family="sans-serif" font-size="14" lengthAdjust="spacing" textLength="35.5879" x="84.8716" y="466.0339">+isbn</text><text fill="#000000" font-family="sans-serif" font-size="14" lengthAdjust="spacing" textLength="42.4618" x="84.8716" y="485.1018">+titulo</text><text fill="#000000" font-family="sans-serif" font-size="14" lengthAdjust="spacing" textLength="43.8198" x="84.8716" y="504.1697">+autor</text><text fill="#000000" font-family="sans-serif" font-size="14" lengthAdjust="spacing" textLength="76.3977" x="84.8716" y="523.2376">+disponible</text><line style="stroke:#181818;stroke-width:0.5;" x1="79.8716" x2="166.2693" y1="531.3396" y2="531.3396"/></g><!--class Reserva--><g class="entity" data-entity="Reserva" data-source-line="18" data-uid="ent0004" id="entity_Reserva"><rect fill="#F1F1F1" height="105.2038" rx="2.5" ry="2.5" style="stroke:#181818;stroke-width:0.5;" width="84.1837" x="80.8716" y="231.0679"/><ellipse cx="95.975" cy="247.0679" fill="#ADD1B2" rx="11" ry="11" style="stroke:#181818;stroke-width:1;"/><path d="M98.9438,252.7085 Q98.3656,253.0054 97.725,253.146 Q97.0844,253.3023 96.3813,253.3023 Q93.8813,253.3023 92.5531,251.6617 Q91.2406,250.0054 91.2406,246.8804 Q91.2406,243.7554 92.5531,242.0992 Q93.8813,240.4429 96.3813,240.4429 Q97.0844,240.4429 97.725,240.5992 Q98.3813,240.7554 98.9438,241.0523 L98.9438,243.771 Q98.3188,243.1929 97.725,242.9273 Q97.1313,242.646 96.5063,242.646 Q95.1625,242.646 94.475,243.7242 Q93.7875,244.7867 93.7875,246.8804 Q93.7875,248.9742 94.475,250.0523 Q95.1625,251.1148 96.5063,251.1148 Q97.1313,251.1148 97.725,250.8492 Q98.3188,250.5679 98.9438,249.9898 L98.9438,252.7085 Z " fill="#000000"/><text fill="#000000" font-family="sans-serif" font-size="14" lengthAdjust="spacing" textLength="51.9538" x="109.998" y="252.4999">Reserva</text><line style="stroke:#181818;stroke-width:0.5;" x1="81.8716" x2="164.0553" y1="263.0679" y2="263.0679"/><text fill="#000000" font-family="sans-serif" font-size="14" lengthAdjust="spacing" textLength="72.1837" x="86.8716" y="282.0339">+idReserva</text><text fill="#000000" font-family="sans-serif" font-size="14" lengthAdjust="spacing" textLength="43.9458" x="86.8716" y="301.1018">+fecha</text><text fill="#000000" font-family="sans-serif" font-size="14" lengthAdjust="spacing" textLength="52.5978" x="86.8716" y="320.1697">+estado</text><line style="stroke:#181818;stroke-width:0.5;" x1="81.8716" x2="164.0553" y1="328.2717" y2="328.2717"/></g><!--link Usuario to Reserva--><g class="link" data-entity-1="Usuario" data-entity-2="Reserva" data-source-line="24" data-uid="lnk5" id="link_Usuario_Reserva"><path codeLine="24" d="M122.8716,152.2379 C122.8716,176.8279 122.8716,206.1679 122.8716,230.7679" fill="none" id="Usuario-Reserva" style="stroke:#181818;stroke-width:1;"/><polygon fill="#000000" points="127.8716,196.9209,130.8105,187.8758,124.9326,187.8758,127.8716,196.9209" style="stroke:#000000;stroke-width:1;"/><text fill="#000000" font-family="sans-serif" font-size="13" lengthAdjust="spacing" textLength="40.105" x="136.8716" y="196.9649">realiza</text><text fill="#000000" font-family="sans-serif" font-size="13" lengthAdjust="spacing" textLength="7.436" x="115.4805" y="174.0045">1</text><text fill="#000000" font-family="sans-serif" font-size="13" lengthAdjust="spacing" textLength="21.567" x="100.4219" y="219.0799">0..*</text></g><!--link Reserva to Libro--><g class="link" data-entity-1="Reserva" data-entity-2="Libro" data-source-line="25" data-uid="lnk6" id="link_Reserva_Libro"><path codeLine="25" d="M122.8716,336.1379 C122.8716,360.3979 122.8716,389.5079 122.8716,414.8779" fill="none" id="Reserva-Libro" style="stroke:#181818;stroke-width:1;"/><polygon fill="#000000" points="127.8716,380.9209,130.8105,371.8758,124.9326,371.8758,127.8716,380.9209" style="stroke:#000000;stroke-width:1;"/><text fill="#000000" font-family="sans-serif" font-size="13" lengthAdjust="spacing" textLength="42.978" x="136.8716" y="380.9649">incluye</text><text fill="#000000" font-family="sans-serif" font-size="13" lengthAdjust="spacing" textLength="7.163" x="115.3999" y="358.275">*</text><text fill="#000000" font-family="sans-serif" font-size="13" lengthAdjust="spacing" textLength="7.163" x="115.4307" y="403.1861">*</text></g><!--SRC=[HOz1JWCn34NtEOKrow9MPTj59M25L3OW3k1aN6hXYKTn0g88YKDmGax2PDgKbV-F_VmTU-KuOi81x82zldDyWJsAaRDB9mYQtUISs9TCzq7Z4ny9rYvp5e87xKaKxZG66dD1WT_l7xXbBwoP0ZetBu1dAvXOuTC1N75_jjL47NoYgcX05lVLa1txr03piTOfiyXCOScQgkZPHerJ7lsJZsIKth25dMqrUmg7MP3bwSSLQPTrrnqibz2jLwj5TrcnWKGeV4JOklRMBKwJKpdTk06EGSe7mVOF]--></g></svg>