<svg xmlns="http://www.w3.org/2000/svg" xmlns:xlink="http://www.w3.org/1999/xlink" contentStyleType="text/css" data-diagram-type="CLASS" height="318px" preserveAspectRatio="none" style="width:374px;height:318px;background:#FFFFFF;" version="1.1" viewBox="0 0 374 318" width="374px" zoomAndPan="magnify"><title>Modelo L&#243;gico &#8212; Biblioteca (Relacional)</title><defs/><g><g class="title" data-source-line="3"><text fill="#000000" font-family="sans-serif" font-size="14" font-weight="bold" lengthAdjust="spacing" textLength="277.605" x="41.4933" y="24.9659">Modelo L&#243;gico &#8212; Biblioteca (Relacional)</text></g><!--class Usuario--><g class="entity" data-entity="Usuario" data-source-line="5" data-uid="ent0002" id="entity_Usuario"><rect fill="#F1F1F1" height="105.2038" rx="2.5" ry="2.5" style="stroke:#181818;stroke-width:0.5;" width="106.9476" x="7" y="47.0679"/><ellipse cx="32.637" cy="63.0679" fill="#ADD1B2" rx="11" ry="11" style="stroke:#181818;stroke-width:1;"/><path d="M36.7464,69.0679 L29.0276,69.0679 L29.0276,56.6773 L36.7464,56.6773 L36.7464,58.8335 L31.4808,58.8335 L31.4808,61.5054 L36.2464,61.5054 L36.2464,63.6617 L31.4808,63.6617 L31.4808,66.9117 L36.7464,66.9117 L36.7464,69.0679 Z " fill="#000000"/><text fill="#000000" font-family="sans-serif" font-size="14" lengthAdjust="spacing" textLength="51.3098" x="49.0008" y="68.4999">Usuario</text><line style="stroke:#181818;stroke-width:0.5;" x1="8" x2="112.9476" y1="79.0679" y2="79.0679"/><text fill="#000000" font-family="sans-serif" font-size="14" lengthAdjust="spacing" textLength="94.9476" x="13" y="98.0339">{PK} idUsuario</text><text fill="#000000" font-family="sans-serif" font-size="14" lengthAdjust="spacing" textLength="52.4998" x="13" y="117.1018">nombre</text><text fill="#000000" font-family="sans-serif" font-size="14" lengthAdjust="spacing" textLength="36.0639" x="13" y="136.1697">email</text><line style="stroke:#181818;stroke-width:0.5;" x1="8" x2="112.9476" y1="144.2717" y2="144.2717"/></g><!--class Libro--><g class="entity" data-entity="Libro" data-source-line="11" data-uid="ent0003" id="entity_Libro"><rect fill="#F1F1F1" height="124.2717" rx="2.5" ry="2.5" style="stroke:#181818;stroke-width:0.5;" width="80.3897" x="20.5" y="187.5679"/><ellipse cx="42.0609" cy="203.5679" fill="#ADD1B2" rx="11" ry="11" style="stroke:#181818;stroke-width:1;"/><path d="M46.1703,209.5679 L38.4516,209.5679 L38.4516,197.1773 L46.1703,197.1773 L46.1703,199.3335 L40.9047,199.3335 L40.9047,202.0054 L45.6703,202.0054 L45.6703,204.1617 L40.9047,204.1617 L40.9047,207.4117 L46.1703,207.4117 L46.1703,209.5679 Z " fill="#000000"/><text fill="#000000" font-family="sans-serif" font-size="14" lengthAdjust="spacing" textLength="33.8099" x="57.5189" y="208.9999">Libro</text><line style="stroke:#181818;stroke-width:0.5;" x1="21.5" x2="99.8897" y1="219.5679" y2="219.5679"/><text fill="#000000" font-family="sans-serif" font-size="14" lengthAdjust="spacing" textLength="58.9958" x="26.5" y="238.5339">{PK} isbn</text><text fill="#000000" font-family="sans-serif" font-size="14" lengthAdjust="spacing" textLength="34.4539" x="26.5" y="257.6018">titulo</text><text fill="#000000" font-family="sans-serif" font-size="14" lengthAdjust="spacing" textLength="35.8119" x="26.5" y="276.6697">autor</text><text fill="#000000" font-family="sans-serif" font-size="14" lengthAdjust="spacing" textLength="68.3897" x="26.5" y="295.7376">disponible</text><line style="stroke:#181818;stroke-width:0.5;" x1="21.5" x2="99.8897" y1="303.8396" y2="303.8396"/></g><!--class Reserva--><g class="entity" data-entity="Reserva" data-source-line="18" data-uid="ent0004" id="entity_Reserva"><rect fill="#F1F1F1" height="143.3396" rx="2.5" ry="2.5" style="stroke:#181818;stroke-width:0.5;" width="107.5916" x="260" y="103.0679"/><ellipse cx="285.637" cy="119.0679" fill="#ADD1B2" rx="11" ry="11" style="stroke:#181818;stroke-width:1;"/><path d="M289.7464,125.0679 L282.0276,125.0679 L282.0276,112.6773 L289.7464,112.6773 L289.7464,114.8335 L284.4808,114.8335 L284.4808,117.5054 L289.2464,117.5054 L289.2464,119.6617 L284.4808,119.6617 L284.4808,122.9117 L289.7464,122.9117 L289.7464,125.0679 Z " fill="#000000"/><text fill="#000000" font-family="sans-serif" font-size="14" lengthAdjust="spacing" textLength="51.9538" x="302.0008" y="124.4999">Reserva</text><line style="stroke:#181818;stroke-width:0.5;" x1="261" x2="366.5916" y1="135.0679" y2="135.0679"/><text fill="#000000" font-family="sans-serif" font-size="14" lengthAdjust="spacing" textLength="95.5916" x="266" y="154.0339">{PK} idReserva</text><text fill="#000000" font-family="sans-serif" font-size="14" lengthAdjust="spacing" textLength="35.9379" x="266" y="173.1018">fecha</text><text fill="#000000" font-family="sans-serif" font-size="14" lengthAdjust="spacing" textLength="44.5898" x="266" y="192.1697">estado</text><text fill="#000000" font-family="sans-serif" font-size="14" lengthAdjust="spacing" textLength="93.7437" x="266" y="211.2376">{FK} idUsuario</text><text fill="#000000" font-family="sans-serif" font-size="14" lengthAdjust="spacing" textLength="91.6017" x="266" y="230.3055">{FK} isbnLibro</text><line style="stroke:#181818;stroke-width:0.5;" x1="261" x2="366.5916" y1="238.4075" y2="238.4075"/></g><!--link Usuario to Reserva--><g class="link" data-entity-1="Usuario" data-entity-2="Reserva" data-source-line="26" data-uid="lnk5" id="link_Usuario_Reserva"><path codeLine="26" d="M121.8863,117.5745 C164.6663,130.3345 199.7913,140.8019 242.6613,153.5919" fill="none" id="Usuario-Reserva" style="stroke:#181818;stroke-width:1;"/><line style="stroke:#181818;stroke-width:1;" x1="116.9098" x2="119.1964" y1="120.2643" y2="112.5981"/><line style="stroke:#181818;stroke-width:1;" x1="119.7847" x2="122.0713" y1="121.1218" y2="113.4556"/><line style="stroke:#181818;stroke-width:1;" x1="121.8863" x2="114.22" y1="117.5745" y2="115.2879"/><line style="stroke:#181818;stroke-width:1;" x1="252.2439" x2="261.6253" y1="156.4508" y2="152.9883"/><line style="stroke:#181818;stroke-width:1;" x1="252.2439" x2="258.1947" y1="156.4508" y2="164.4875"/><line style="stroke:#181818;stroke-width:1;" x1="252.2439" x2="259.91" y1="156.4508" y2="158.7379"/><ellipse cx="246.4943" cy="154.7354" fill="none" rx="4" ry="4" style="stroke:#181818;stroke-width:1;"/><text fill="#000000" font-family="sans-serif" font-size="13" lengthAdjust="spacing" textLength="84.9681" x="145" y="122.4649">idUsuario (FK)</text></g><!--link Libro to Reserva--><g class="link" data-entity-1="Libro" data-entity-2="Reserva" data-source-line="27" data-uid="lnk6" id="link_Libro_Reserva"><path codeLine="27" d="M108.1866,235.6425 C150.9566,222.8925 194.9105,209.7813 242.6005,195.5613" fill="none" id="Libro-Reserva" style="stroke:#181818;stroke-width:1;"/><line style="stroke:#181818;stroke-width:1;" x1="105.496" x2="103.2106" y1="240.6185" y2="232.9519"/><line style="stroke:#181818;stroke-width:1;" x1="108.371" x2="106.0855" y1="239.7614" y2="232.0948"/><line style="stroke:#181818;stroke-width:1;" x1="108.1866" x2="100.52" y1="235.6425" y2="237.9279"/><line style="stroke:#181818;stroke-width:1;" x1="252.1836" x2="258.1355" y1="192.7039" y2="184.6681"/><line style="stroke:#181818;stroke-width:1;" x1="252.1836" x2="261.5645" y1="192.7039" y2="196.1678"/><line style="stroke:#181818;stroke-width:1;" x1="252.1836" x2="259.85" y1="192.7039" y2="190.4179"/><ellipse cx="246.4337" cy="194.4183" fill="none" rx="4" ry="4" style="stroke:#181818;stroke-width:1;"/><text fill="#000000" font-family="sans-serif" font-size="13" lengthAdjust="spacing" textLength="82.9791" x="146" y="196.4649">isbnLibro (FK)</text></g><!--SRC=[RO-zRSD038NxcuAbNNY1b2dSs0O20nc0kgCa8gUZSKSbC6G37YARP8HiaabC-Iz2a8h4u_l8n_B6QOSPEoWj1ldWr42DiP2BL2keGEQcLGYSoIjBSieQ2JOIA0gilxyQzW8_fqzuvYgoA7c4sPOYUdDZd3j7oPWzl9OUCmiC3c1uMHs1mqqo8KbNPRA6EkJeZWzgpLMUCgLArjkeZoE7lKgs6hZi95a2ch1RAfJVSNhn9fbGas_7IaNjyT6n_9FfAjZ1IuPnx_s5ms6naE6n_-aNWzboDNVNqF2FxxxjuZi3]--></g></svg>