<svg xmlns="http://www.w3.org/2000/svg" xmlns:xlink="http://www.w3.org/1999/xlink" contentStyleType="text/css" data-diagram-type="CLASS" height="318px" preserveAspectRatio="none" style="width:861px;height:318px;background:#FFFFFF;" version="1.1" viewBox="0 0 861 318" width="861px" zoomAndPan="magnify"><title>Modelo F&#237;sico &#8212; Biblioteca (PostgreSQL)</title><defs/><g><g class="title" data-source-line="3"><text fill="#000000" font-family="sans-serif" font-size="14" font-weight="bold" lengthAdjust="spacing" textLength="279.537" x="283.986" y="24.9659">Modelo F&#237;sico &#8212; Biblioteca (PostgreSQL)</text></g><!--class Usuario_p--><g class="entity" data-entity="Usuario_p" data-source-line="5" data-uid="ent0002" id="entity_Usuario_p"><rect fill="#F1F1F1" height="105.2038" rx="2.5" ry="2.5" style="stroke:#181818;stroke-width:0.5;" width="317.6047" x="7" y="47.0679"/><ellipse cx="128.4845" cy="63.0679" fill="#ADD1B2" rx="11" ry="11" style="stroke:#181818;stroke-width:1;"/><path d="M132.5939,69.0679 L124.8751,69.0679 L124.8751,56.6773 L132.5939,56.6773 L132.5939,58.8335 L127.3282,58.8335 L127.3282,61.5054 L132.0939,61.5054 L132.0939,63.6617 L127.3282,63.6617 L127.3282,66.9117 L132.5939,66.9117 L132.5939,69.0679 Z " fill="#000000"/><text fill="#000000" font-family="sans-serif" font-size="14" lengthAdjust="spacing" textLength="66.1358" x="148.9845" y="68.4999">Usuario_p</text><line style="stroke:#181818;stroke-width:0.5;" x1="8" x2="323.6047" y1="79.0679" y2="79.0679"/><text fill="#000000" font-family="sans-serif" font-size="14" lengthAdjust="spacing" textLength="141.4135" x="13" y="98.0339">{PK} idUsuario : UUID</text><line style="stroke:#181818;stroke-width:0.5;" x1="8" x2="323.6047" y1="106.1358" y2="106.1358"/><text fill="#000000" font-family="sans-serif" font-size="14" lengthAdjust="spacing" textLength="260.1889" x="13" y="125.1018">nombre         : VARCHAR(100) NOT NULL</text><text fill="#000000" font-family="sans-serif" font-size="14" lengthAdjust="spacing" textLength="305.6047" x="13" y="144.1697">email          : VARCHAR(150) UNIQUE NOT NULL</text></g><!--class Libro_p--><g class="entity" data-entity="Libro_p" data-source-line="11" data-uid="ent0003" id="entity_Libro_p"><rect fill="#F1F1F1" height="124.2717" rx="2.5" ry="2.5" style="stroke:#181818;stroke-width:0.5;" width="273.015" x="29.5" y="187.5679"/><ellipse cx="137.4396" cy="203.5679" fill="#ADD1B2" rx="11" ry="11" style="stroke:#181818;stroke-width:1;"/><path d="M141.5489,209.5679 L133.8302,209.5679 L133.8302,197.1773 L141.5489,197.1773 L141.5489,199.3335 L136.2833,199.3335 L136.2833,202.0054 L141.0489,202.0054 L141.0489,204.1617 L136.2833,204.1617 L136.2833,207.4117 L141.5489,207.4117 L141.5489,209.5679 Z " fill="#000000"/><text fill="#000000" font-family="sans-serif" font-size="14" lengthAdjust="spacing" textLength="48.6358" x="157.9396" y="208.9999">Libro_p</text><line style="stroke:#181818;stroke-width:0.5;" x1="30.5" x2="301.515" y1="219.5679" y2="219.5679"/><text fill="#000000" font-family="sans-serif" font-size="14" lengthAdjust="spacing" textLength="261.015" x="35.5" y="238.5339">disponible     : BOOLEAN DEFAULT TRUE</text><line style="stroke:#181818;stroke-width:0.5;" x1="30.5" x2="301.515" y1="246.6358" y2="246.6358"/><text fill="#000000" font-family="sans-serif" font-size="14" lengthAdjust="spacing" textLength="175.5733" x="35.5" y="265.6018">{PK} isbn      : VARCHAR(13)</text><text fill="#000000" font-family="sans-serif" font-size="14" lengthAdjust="spacing" textLength="242.143" x="35.5" y="284.6697">titulo         : VARCHAR(200) NOT NULL</text><text fill="#000000" font-family="sans-serif" font-size="14" lengthAdjust="spacing" textLength="174.9573" x="35.5" y="303.7376">autor          : VARCHAR(100)</text></g><!--class Reserva_p--><g class="entity" data-entity="Reserva_p" data-source-line="18" data-uid="ent0004" id="entity_Reserva_p"><rect fill="#F1F1F1" height="143.3396" rx="2.5" ry="2.5" style="stroke:#181818;stroke-width:0.5;" width="242.5091" x="612" y="103.0679"/><ellipse cx="695.6147" cy="119.0679" fill="#ADD1B2" rx="11" ry="11" style="stroke:#181818;stroke-width:1;"/><path d="M699.724,125.0679 L692.0053,125.0679 L692.0053,112.6773 L699.724,112.6773 L699.724,114.8335 L694.4584,114.8335 L694.4584,117.5054 L699.224,117.5054 L699.224,119.6617 L694.4584,119.6617 L694.4584,122.9117 L699.724,122.9117 L699.724,125.0679 Z " fill="#000000"/><text fill="#000000" font-family="sans-serif" font-size="14" lengthAdjust="spacing" textLength="66.7797" x="716.1147" y="124.4999">Reserva_p</text><line style="stroke:#181818;stroke-width:0.5;" x1="613" x2="853.5091" y1="135.0679" y2="135.0679"/><text fill="#000000" font-family="sans-serif" font-size="14" lengthAdjust="spacing" textLength="142.0574" x="618" y="154.0339">{PK} idReserva : UUID</text><text fill="#000000" font-family="sans-serif" font-size="14" lengthAdjust="spacing" textLength="230.5091" x="618" y="173.1018">fecha          : TIMESTAMP NOT NULL</text><text fill="#000000" font-family="sans-serif" font-size="14" lengthAdjust="spacing" textLength="140.2095" x="618" y="192.1697">{FK} idUsuario : UUID</text><line style="stroke:#181818;stroke-width:0.5;" x1="613" x2="853.5091" y1="200.2717" y2="200.2717"/><text fill="#000000" font-family="sans-serif" font-size="14" lengthAdjust="spacing" textLength="172.0873" x="618" y="219.2376">estado         : VARCHAR(20)</text><text fill="#000000" font-family="sans-serif" font-size="14" lengthAdjust="spacing" textLength="189.9792" x="618" y="238.3055">{FK} isbnLibro : VARCHAR(13)</text></g><!--link Usuario_p to Reserva_p--><g class="link" data-entity-1="Usuario_p" data-entity-2="Reserva_p" data-source-line="26" data-uid="lnk5" id="link_Usuario_p_Reserva_p"><path codeLine="26" d="M333.2105,121.61 C424.0405,133.66 510.5162,145.1317 594.1462,156.2217" fill="none" id="Usuario_p-Reserva_p" style="stroke:#181818;stroke-width:1;"/><line style="stroke:#181818;stroke-width:1;" x1="328.7192" x2="329.7713" y1="125.0492" y2="117.1187"/><line style="stroke:#181818;stroke-width:1;" x1="331.6931" x2="332.7453" y1="125.4438" y2="117.5133"/><line style="stroke:#181818;stroke-width:1;" x1="333.2105" x2="325.28" y1="121.61" y2="120.5579"/><line style="stroke:#181818;stroke-width:1;" x1="604.0594" x2="612.7787" y1="157.5363" y2="152.64"/><line style="stroke:#181818;stroke-width:1;" x1="604.0594" x2="611.2013" y1="157.5363" y2="164.5358"/><line style="stroke:#181818;stroke-width:1;" x1="604.0594" x2="611.99" y1="157.5363" y2="158.5879"/><ellipse cx="598.1115" cy="156.7475" fill="none" rx="4" ry="4" style="stroke:#181818;stroke-width:1;"/><text fill="#000000" font-family="sans-serif" font-size="13" lengthAdjust="spacing" textLength="225.9402" x="356" y="122.4649">FK (idUsuario &#8594; Usuario_p.idUsuario)</text></g><!--link Libro_p to Reserva_p--><g class="link" data-entity-1="Libro_p" data-entity-2="Reserva_p" data-source-line="27" data-uid="lnk6" id="link_Libro_p_Reserva_p"><path codeLine="27" d="M310.7406,230.5063 C404.8606,218.0263 503.2762,204.964 593.9262,192.944" fill="none" id="Libro_p-Reserva_p" style="stroke:#181818;stroke-width:1;"/><line style="stroke:#181818;stroke-width:1;" x1="307.3011" x2="306.2495" y1="234.9974" y2="227.0668"/><line style="stroke:#181818;stroke-width:1;" x1="310.275" x2="309.2235" y1="234.6031" y2="226.6725"/><line style="stroke:#181818;stroke-width:1;" x1="310.7406" x2="302.81" y1="230.5063" y2="231.5579"/><line style="stroke:#181818;stroke-width:1;" x1="603.8394" x2="610.9813" y1="191.6295" y2="184.63"/><line style="stroke:#181818;stroke-width:1;" x1="603.8394" x2="612.5587" y1="191.6295" y2="196.5259"/><line style="stroke:#181818;stroke-width:1;" x1="603.8394" x2="611.77" y1="191.6295" y2="190.5779"/><ellipse cx="597.8915" cy="192.4182" fill="none" rx="4" ry="4" style="stroke:#181818;stroke-width:1;"/><text fill="#000000" font-family="sans-serif" font-size="13" lengthAdjust="spacing" textLength="174.3172" x="381.5" y="190.4649">FK (isbnLibro &#8594; Libro_p.isbn)</text></g><!--SRC=[TL5BRi8m5Dpd56z95g1-r0sxK18L4GA4kDlAIHxmr10ZsxIg0b9NFK3LQ_GKlGadgMa3uUlblF6yUJFgcV8vbtm6QifJyKhv1COyKsXbEDQW1KYQJ3Ma937H979BayuGUYB5J83tywqe4R1-_u8MnHa9ZGc7sa0eFP4u6lgsPM5k_hm1KmikIJpDeR00Ya5t1PIM83I1iKxRuBcOnH9X-vhmw8Jt3qvOkxwwiY7eHn0mtpT4d77Au1pnpX1Pq1aoj-AlTZPyYkMX2HNd9ngtjXaR_i8SURhYviWBNsWXuO9fCqz9pKLkyi5otkhtVTS9eErw3lCZY4BcxdaCKQ5yuOTHbM0LrHYJAT_V6dLwxYXoUeE3d9GsnPuzOcEjyCxty8-RQFxoEeh6EAtQN2xhTL7iUMw2ruLQfRd- -ApAR-nmszfM0HSrTlit6YMziK7jNm00]--></g></svg>