<svg xmlns="http://www.w3.org/2000/svg" xmlns:xlink="http://www.w3.org/1999/xlink" contentStyleType="text/css" data-diagram-type="DESCRIPTION" height="463px" preserveAspectRatio="none" style="width:476px;height:463px;background:#FFFFFF;" version="1.1" viewBox="0 0 476 463" width="476px" zoomAndPan="magnify"><title>Sistema de Biblioteca - Generalizaci&#243;n de Actores y Casos de Uso</title><defs/><g><g class="title" data-source-line="1"><text fill="#000000" font-family="sans-serif" font-size="14" font-weight="bold" lengthAdjust="spacing" textLength="448.7263" x="10" y="24.9659">Sistema de Biblioteca - Generalizaci&#243;n de Actores y Casos de Uso</text></g><!--entity U--><g class="entity" data-entity="U" data-source-line="3" data-uid="ent0002" id="entity_U"><ellipse cx="199.6506" cy="54.0679" fill="#F1F1F1" rx="8" ry="8" style="stroke:#181818;stroke-width:0.5;"/><path d="M199.6506,62.0679 L199.6506,89.0679 M186.6506,70.0679 L212.6506,70.0679 M199.6506,89.0679 L186.6506,104.0679 M199.6506,89.0679 L212.6506,104.0679" fill="none" style="stroke:#181818;stroke-width:0.5;"/><text fill="#000000" font-family="sans-serif" font-size="14" lengthAdjust="spacing" textLength="51.3098" x="173.9957" y="120.5339">Usuario</text></g><!--entity E--><g class="entity" data-entity="E" data-source-line="4" data-uid="ent0003" id="entity_E"><ellipse cx="101.4326" cy="193.0679" fill="#F1F1F1" rx="8" ry="8" style="stroke:#181818;stroke-width:0.5;"/><path d="M101.4326,201.0679 L101.4326,228.0679 M88.4326,209.0679 L114.4326,209.0679 M101.4326,228.0679 L88.4326,243.0679 M101.4326,228.0679 L114.4326,243.0679" fill="none" style="stroke:#181818;stroke-width:0.5;"/><text fill="#000000" font-family="sans-serif" font-size="14" lengthAdjust="spacing" textLength="69.8737" x="66.4957" y="259.5339">Estudiante</text></g><!--entity P--><g class="entity" data-entity="P" data-source-line="5" data-uid="ent0004" id="entity_P"><ellipse cx="199.6916" cy="193.0679" fill="#F1F1F1" rx="8" ry="8" style="stroke:#181818;stroke-width:0.5;"/><path d="M199.6916,201.0679 L199.6916,228.0679 M186.6916,209.0679 L212.6916,209.0679 M199.6916,228.0679 L186.6916,243.0679 M199.6916,228.0679 L212.6916,243.0679" fill="none" style="stroke:#181818;stroke-width:0.5;"/><text fill="#000000" font-family="sans-serif" font-size="14" lengthAdjust="spacing" textLength="56.3918" x="171.4957" y="259.5339">Profesor</text></g><!--entity UC_Catalogo--><g class="entity" data-entity="UC_Catalogo" data-source-line="10" data-uid="ent0007" id="entity_UC_Catalogo"><ellipse cx="339.3631" cy="223.8414" fill="#F1F1F1" rx="76.8674" ry="17.7735" style="stroke:#181818;stroke-width:0.5;"/><text fill="#000000" font-family="sans-serif" font-size="14" lengthAdjust="spacing" textLength="112.8536" x="282.9363" y="229.8754">Acceder cat&#225;logo</text></g><!--entity UC_Prestamo--><g class="entity" data-entity="UC_Prestamo" data-source-line="11" data-uid="ent0008" id="entity_UC_Prestamo"><ellipse cx="150.4332" cy="341.8554" fill="#F1F1F1" rx="79.4375" ry="18.2875" style="stroke:#181818;stroke-width:0.5;"/><text fill="#000000" font-family="sans-serif" font-size="14" lengthAdjust="spacing" textLength="119.5036" x="90.6814" y="347.8894">Solicitar pr&#233;stamo</text></g><!--entity UC_Renovar--><g class="entity" data-entity="UC_Renovar" data-source-line="12" data-uid="ent0009" id="entity_UC_Renovar"><ellipse cx="150.2457" cy="439.0179" fill="#F1F1F1" rx="80.25" ry="18.45" style="stroke:#181818;stroke-width:0.5;"/><text fill="#000000" font-family="sans-serif" font-size="14" lengthAdjust="spacing" textLength="121.5755" x="89.458" y="445.0519">Renovar pr&#233;stamo</text></g><!--reverse link U to E--><g class="link" data-entity-1="U" data-entity-2="E" data-source-line="7" data-uid="lnk5" id="link_U_E"><path d="M163.2733,136.7079 C149.5533,155.8879 143.1357,164.8579 129.1357,184.4279" fill="none" id="U-backto-E" style="stroke:#181818;stroke-width:1;"/><polygon fill="none" points="173.7457,122.0679,158.3934,133.2171,168.1533,140.1987,173.7457,122.0679" style="stroke:#181818;stroke-width:1;"/></g><!--reverse link U to P--><g class="link" data-entity-1="U" data-entity-2="P" data-source-line="8" data-uid="lnk6" id="link_U_P"><path d="M199.4957,142.5979 C199.4957,161.2679 199.4957,165.6579 199.4957,184.3579" fill="none" id="U-backto-P" style="stroke:#181818;stroke-width:1;"/><polygon fill="none" points="199.4957,124.5979,193.4957,142.5979,205.4957,142.5979,199.4957,124.5979" style="stroke:#181818;stroke-width:1;"/></g><!--reverse link UC_Prestamo to UC_Renovar--><g class="link" data-entity-1="UC_Prestamo" data-entity-2="UC_Renovar" data-source-line="14" data-uid="lnk10" id="link_UC_Prestamo_UC_Renovar"><path d="M150.4957,378.9379 C150.4957,395.9179 150.4957,403.3179 150.4957,420.2779" fill="none" id="UC_Prestamo-backto-UC_Renovar" style="stroke:#181818;stroke-width:1;"/><polygon fill="none" points="150.4957,360.9379,144.4957,378.9379,156.4957,378.9379,150.4957,360.9379" style="stroke:#181818;stroke-width:1;"/></g><!--link U to UC_Catalogo--><g class="link" data-entity-1="U" data-entity-2="UC_Catalogo" data-source-line="16" data-uid="lnk11" id="link_U_UC_Catalogo"><path d="M225.1757,111.1979 C253.4357,138.8479 293.7774,178.3314 318.0674,202.1014" fill="none" id="U-to-UC_Catalogo" style="stroke:#181818;stroke-width:1;"/><polygon fill="#181818" points="322.3557,206.2979,318.721,197.1443,318.7822,202.8008,313.1256,202.862,322.3557,206.2979" style="stroke:#181818;stroke-width:1;"/></g><!--link E to UC_Prestamo--><g class="link" data-entity-1="E" data-entity-2="UC_Prestamo" data-source-line="17" data-uid="lnk12" id="link_E_UC_Prestamo"><path d="M117.8157,263.6979 C126.3357,283.8579 134.0135,302.0298 140.6835,317.8398" fill="none" id="E-to-UC_Prestamo" style="stroke:#181818;stroke-width:1;"/><polygon fill="#181818" points="143.0157,323.3679,143.2028,313.5208,141.0722,318.7611,135.8319,316.6305,143.0157,323.3679" style="stroke:#181818;stroke-width:1;"/></g><!--link P to UC_Prestamo--><g class="link" data-entity-1="P" data-entity-2="UC_Prestamo" data-source-line="18" data-uid="lnk13" id="link_P_UC_Prestamo"><path d="M183.1757,263.6979 C174.6557,283.8579 166.978,302.0298 160.308,317.8398" fill="none" id="P-to-UC_Prestamo" style="stroke:#181818;stroke-width:1;"/><polygon fill="#181818" points="157.9757,323.3679,165.1596,316.6305,159.9193,318.7611,157.7887,313.5208,157.9757,323.3679" style="stroke:#181818;stroke-width:1;"/></g><!--SRC=[ROv1QiD034NtFeNmVcvG0gansPe6huCoLeDWOeMH74Z9PRBCkaVmnJgJsZ4ftKdlVw5dR85WosfqHEW8tdaVM8myWeCDzHGny1Tw7h_xdA-zIII52rIeeXcrAaM1cKFPwe2HfGHKQ6TOgmqTOs_quFNCcoYVf18Vj2cA5jwkpgLy6X8QD9aeGRdsdZgAuD76Mv33zABQLMYOzwMwbS2U3IESudXNm-Ept2Jrl2_b3-hb_5zr2fBLSlQhzHA2SwiNZNecpr_DN_83]--></g></svg>