<svg xmlns="http://www.w3.org/2000/svg" xmlns:xlink="http://www.w3.org/1999/xlink" contentStyleType="text/css" data-diagram-type="DESCRIPTION" height="807px" preserveAspectRatio="none" style="width:520px;height:807px;background:#FFFFFF;" version="1.1" viewBox="0 0 520 807" width="520px" zoomAndPan="magnify"><defs/><g><!--cluster PK_PROV--><g class="cluster" data-entity="PK_PROV" data-source-line="13" data-uid="ent0002" id="cluster_PK_PROV"><path d="M68,7.774 L258.9169,7.774 A3.75,3.75 0 0 1 261.4169,10.274 L268.4169,38.2898 L476.5,38.2898 A2.5,2.5 0 0 1 479,40.7898 L479,250.274 A2.5,2.5 0 0 1 476.5,252.774 L68,252.774 A2.5,2.5 0 0 1 65.5,250.274 L65.5,10.274 A2.5,2.5 0 0 1 68,7.774" fill="none" style="stroke:#000000;stroke-width:1.5;"/><line style="stroke:#000000;stroke-width:1.5;" x1="65.5" x2="268.4169" y1="38.2898" y2="38.2898"/><text fill="#000000" font-family="sans-serif" font-size="18" font-weight="bold" lengthAdjust="spacing" textLength="189.9169" x="69.5" y="29.0158">Proveedor (Cat&#225;logo)</text></g><!--cluster PK_CONS--><g class="cluster" data-entity="PK_CONS" data-source-line="25" data-uid="ent0008" id="cluster_PK_CONS"><path d="M8.5,299.774 L138.1632,299.774 A3.75,3.75 0 0 1 140.6632,302.274 L147.6632,330.2898 L476.5,330.2898 A2.5,2.5 0 0 1 479,332.7898 L479,798.274 A2.5,2.5 0 0 1 476.5,800.774 L8.5,800.774 A2.5,2.5 0 0 1 6,798.274 L6,302.274 A2.5,2.5 0 0 1 8.5,299.774" fill="none" style="stroke:#000000;stroke-width:1.5;"/><line style="stroke:#000000;stroke-width:1.5;" x1="6" x2="147.6632" y1="330.2898" y2="330.2898"/><text fill="#000000" font-family="sans-serif" font-size="18" font-weight="bold" lengthAdjust="spacing" textLength="128.6632" x="10" y="321.0158">Consumidores</text></g><!--entity Catalogo--><g class="entity" data-entity="Catalogo" data-source-line="14" data-uid="ent0003" id="entity_Catalogo"><rect fill="#F1F1F1" height="47.24" rx="2.5" ry="2.5" style="stroke:#181818;stroke-width:0.5;" width="103.9599" x="81.5" y="99.274"/><text fill="#000000" font-family="sans-serif" font-size="20" lengthAdjust="spacing" textLength="83.9599" x="91.5" y="130.6539">Cat&#225;logo</text></g><!--entity ICatalogQuery_prov--><g class="entity" data-entity="ICatalogQuery_prov" data-source-line="17" data-uid="ent0004" id="entity_ICatalogQuery_prov"><ellipse cx="454" cy="227.774" fill="#F1F1F1" rx="8" ry="8" style="stroke:#181818;stroke-width:0.5;"/><text fill="#000000" font-family="sans-serif" font-size="18" lengthAdjust="spacing" textLength="116.6213" x="395.6894" y="264.0158">CatalogQuery</text></g><!--entity ICatalogAdmin_prov--><g class="entity" data-entity="ICatalogAdmin_prov" data-source-line="18" data-uid="ent0005" id="entity_ICatalogAdmin_prov"><ellipse cx="454" cy="59.774" fill="#F1F1F1" rx="8" ry="8" style="stroke:#181818;stroke-width:0.5;"/><text fill="#000000" font-family="sans-serif" font-size="18" lengthAdjust="spacing" textLength="119.8432" x="394.0784" y="96.0158">CatalogAdmin</text></g><!--entity Search--><g class="entity" data-entity="Search" data-source-line="26" data-uid="ent0009" id="entity_Search"><rect fill="#F1F1F1" height="47.24" rx="2.5" ry="2.5" style="stroke:#181818;stroke-width:0.5;" width="108.4199" x="79.5" y="343.274"/><text fill="#000000" font-family="sans-serif" font-size="20" lengthAdjust="spacing" textLength="88.4199" x="89.5" y="374.6539">Buscador</text></g><!--entity Analytics--><g class="entity" data-entity="Analytics" data-source-line="27" data-uid="ent0010" id="entity_Analytics"><rect fill="#F1F1F1" height="47.24" rx="2.5" ry="2.5" style="stroke:#181818;stroke-width:0.5;" width="99.8799" x="83.5" y="540.274"/><text fill="#000000" font-family="sans-serif" font-size="20" lengthAdjust="spacing" textLength="79.8799" x="93.5" y="571.6539">Anal&#237;tica</text></g><!--entity Inventory--><g class="entity" data-entity="Inventory" data-source-line="28" data-uid="ent0011" id="entity_Inventory"><rect fill="#F1F1F1" height="47.24" rx="2.5" ry="2.5" style="stroke:#181818;stroke-width:0.5;" width="223.1398" x="22" y="737.274"/><text fill="#000000" font-family="sans-serif" font-size="20" lengthAdjust="spacing" textLength="203.1398" x="32" y="768.6539">Gesti&#243;n de Inventario</text></g><!--entity ICatalogQuery_req_Search--><g class="entity" data-entity="ICatalogQuery_req_Search" data-source-line="31" data-uid="ent0012" id="entity_ICatalogQuery_req_Search"><ellipse cx="454" cy="395.774" fill="#F1F1F1" rx="8" ry="8" style="stroke:#181818;stroke-width:0.5;"/><text fill="#000000" font-family="sans-serif" font-size="18" lengthAdjust="spacing" textLength="116.6213" x="395.6894" y="432.0158">CatalogQuery</text></g><!--entity ICatalogQuery_req_Analytics--><g class="entity" data-entity="ICatalogQuery_req_Analytics" data-source-line="32" data-uid="ent0013" id="entity_ICatalogQuery_req_Analytics"><ellipse cx="454" cy="563.774" fill="#F1F1F1" rx="8" ry="8" style="stroke:#181818;stroke-width:0.5;"/><text fill="#000000" font-family="sans-serif" font-size="18" lengthAdjust="spacing" textLength="116.6213" x="395.6894" y="600.0158">CatalogQuery</text></g><!--entity ICatalogAdmin_req_Inventory--><g class="entity" data-entity="ICatalogAdmin_req_Inventory" data-source-line="33" data-uid="ent0014" id="entity_ICatalogAdmin_req_Inventory"><ellipse cx="454" cy="746.774" fill="#F1F1F1" rx="8" ry="8" style="stroke:#181818;stroke-width:0.5;"/><text fill="#000000" font-family="sans-serif" font-size="18" lengthAdjust="spacing" textLength="119.8432" x="394.0784" y="783.0158">CatalogAdmin</text></g><!--link Catalogo to ICatalogQuery_prov--><g class="link" data-entity-1="Catalogo" data-entity-2="ICatalogQuery_prov" data-source-line="20" data-uid="lnk6" id="link_Catalogo_ICatalogQuery_prov"><path d="M185.57,130.604 C275.65,130.604 451,130.604 451,130.604 C451,130.604 451,194.134 451,218.454" fill="none" id="Catalogo-ICatalogQuery_prov" style="stroke:#181818;stroke-width:1;"/><text fill="#000000" font-family="sans-serif" font-size="18" lengthAdjust="spacing" textLength="122.5073" x="239.21" y="150.8458">&#171;proporciona&#187;</text></g><!--link Catalogo to ICatalogAdmin_prov--><g class="link" data-entity-1="Catalogo" data-entity-2="ICatalogAdmin_prov" data-source-line="21" data-uid="lnk7" id="link_Catalogo_ICatalogAdmin_prov"><path d="M185.84,114.944 C277.39,114.944 457,114.944 457,114.944 C457,114.944 457,84.554 457,68.884" fill="none" id="Catalogo-ICatalogAdmin_prov" style="stroke:#181818;stroke-width:1;"/><text fill="#000000" font-family="sans-serif" font-size="18" lengthAdjust="spacing" textLength="122.5073" x="221.45" y="109.1858">&#171;proporciona&#187;</text></g><!--link Search to ICatalogQuery_req_Search--><g class="link" data-entity-1="Search" data-entity-2="ICatalogQuery_req_Search" data-source-line="35" data-uid="lnk15" id="link_Search_ICatalogQuery_req_Search"><path d="M187.72,365.024 C278.4,365.024 451,365.024 451,365.024 C451,365.024 451,377.644 451,386.714" fill="none" id="Search-ICatalogQuery_req_Search" style="stroke:#181818;stroke-width:1;"/><text fill="#000000" font-family="sans-serif" font-size="18" lengthAdjust="spacing" textLength="90.4854" x="239.2" y="385.2658">&#171;requiere&#187;</text></g><!--link Analytics to ICatalogQuery_req_Analytics--><g class="link" data-entity-1="Analytics" data-entity-2="ICatalogQuery_req_Analytics" data-source-line="36" data-uid="lnk16" id="link_Analytics_ICatalogQuery_req_Analytics"><path d="M183.58,563.774 C261.57,563.774 407.05,563.774 444.84,563.774" fill="none" id="Analytics-ICatalogQuery_req_Analytics" style="stroke:#181818;stroke-width:1;"/><text fill="#000000" font-family="sans-serif" font-size="18" lengthAdjust="spacing" textLength="90.4854" x="223.21" y="584.0158">&#171;requiere&#187;</text></g><!--link Inventory to ICatalogAdmin_req_Inventory--><g class="link" data-entity-1="Inventory" data-entity-2="ICatalogAdmin_req_Inventory" data-source-line="37" data-uid="lnk17" id="link_Inventory_ICatalogAdmin_req_Inventory"><path d="M245.15,746.774 C322.1,746.774 415.58,746.774 444.82,746.774" fill="none" id="Inventory-ICatalogAdmin_req_Inventory" style="stroke:#181818;stroke-width:1;"/><text fill="#000000" font-family="sans-serif" font-size="18" lengthAdjust="spacing" textLength="90.4854" x="253.98" y="767.0158">&#171;requiere&#187;</text></g><!--link ICatalogQuery_req_Search to ICatalogQuery_prov--><g class="link" data-entity-1="ICatalogQuery_req_Search" data-entity-2="ICatalogQuery_prov" data-source-line="41" data-uid="lnk18" id="link_ICatalogQuery_req_Search_ICatalogQuery_prov"><path d="M457,386.744 C457,357.574 457,266.084 457,236.854" fill="none" id="ICatalogQuery_req_Search-ICatalogQuery_prov" style="stroke:#181818;stroke-width:1;"/></g><!--link ICatalogQuery_req_Analytics to ICatalogQuery_prov--><g class="link" data-entity-1="ICatalogQuery_req_Analytics" data-entity-2="ICatalogQuery_prov" data-source-line="42" data-uid="lnk19" id="link_ICatalogQuery_req_Analytics_ICatalogQuery_prov"><path d="M463.03,563.774 C468.72,563.774 475,563.774 475,563.774 C475,563.774 475,227.774 475,227.774 C475,227.774 468.72,227.774 463.03,227.774" fill="none" id="ICatalogQuery_req_Analytics-ICatalogQuery_prov" style="stroke:#181818;stroke-width:1;"/></g><!--link ICatalogAdmin_req_Inventory to ICatalogAdmin_prov--><g class="link" data-entity-1="ICatalogAdmin_req_Inventory" data-entity-2="ICatalogAdmin_prov" data-source-line="43" data-uid="lnk20" id="link_ICatalogAdmin_req_Inventory_ICatalogAdmin_prov"><path d="M463.02,746.774 C472.79,746.774 487,746.774 487,746.774 C487,746.774 487,59.774 487,59.774 C487,59.774 472.79,59.774 463.02,59.774" fill="none" id="ICatalogAdmin_req_Inventory-ICatalogAdmin_prov" style="stroke:#181818;stroke-width:1;"/></g><!--SRC=[bLHHQXj13FtVKmZ_EFam9852AI7W6bfCeN5hwAzHTkJrrEFHTcRMhLiAFKGlq0FqgqVmJNAIQjRrxjZPccGnx4hpdaPwajo7-ny_vGV3ZvKFvA4mV8T6FXI1eKBVQQCLgd-mpD0yG61mkbW4KDfH7ZJRp2-rBT7X2eos53Ob0RkmuEGWvrN9bcoOXeqXY4oqXQ44ObcHfn8kdrqaNeTs6RrN5wbNqHmh4rwn1DHV2IwVTztL75-bN6q3kJdcbB8NMaeM3Hnnp3_B-djj9exNH8hTNeKIyoKM1Btsv6o4OVlBSC7dFK0FapUpoVlR3_0jWpORw3Me6YGMHYCJK1_6-wmyb8vBThaeYmgzd3OPro4YwLr5RbD76QUUcL3NdOIXMcbxGAWzEu8mzid0GF5dE-W82o_W-Zf9xURc1AqDta7xdgWxOkkhbHOHfV1ZWTF3lQwZsxVJOrrVLZv7GTMOAQ7B5uU0eKMp_HrqZZKacXkn_27gDVcWjtzidFwnNOiFdTxrQcUospnebgDF8f5iYOSpLPL6xeZVdWr3d3V83RfwYTRQLsZEdzHFYJvh2deQBItoyVCGcGV5xcu7UJedeqqmGcAleo1QzgYUZoQ9_xDRo0DsaqZtU1taUim-6ZBw8iCdxJ9wLMgfMaYEfFdomi3Dw9qgRb3_xNMjHdQggaVGkievfhKRzHS0]--></g></svg>