<svg xmlns="http://www.w3.org/2000/svg" xmlns:xlink="http://www.w3.org/1999/xlink" contentStyleType="text/css" data-diagram-type="ACTIVITY" height="832px" preserveAspectRatio="none" style="width:344px;height:832px;background:#FFFFFF;" version="1.1" viewBox="0 0 344 832" width="344px" zoomAndPan="magnify"><defs/><g><ellipse cx="149.6188" cy="20" fill="#222222" rx="10" ry="10" style="stroke:#222222;stroke-width:1;"/><rect fill="#F1F1F1" height="36.3441" rx="12.5" ry="12.5" style="stroke:#181818;stroke-width:0.5;" width="102.2966" x="98.4705" y="50"/><text fill="#000000" font-family="sans-serif" font-size="12" lengthAdjust="spacing" textLength="82.2966" x="108.4705" y="72.8281">Abrir checkout</text><rect fill="#F1F1F1" height="36.3441" rx="12.5" ry="12.5" style="stroke:#181818;stroke-width:0.5;" width="114.9927" x="92.1225" y="155.8351"/><text fill="#000000" font-family="sans-serif" font-size="12" lengthAdjust="spacing" textLength="94.9927" x="102.1225" y="178.6631">Introducir cup&#243;n</text><rect fill="#F1F1F1" height="36.3441" rx="12.5" ry="12.5" style="stroke:#181818;stroke-width:0.5;" width="97.5445" x="100.8465" y="212.1792"/><text fill="#000000" font-family="sans-serif" font-size="12" lengthAdjust="spacing" textLength="77.5445" x="110.8465" y="235.0073">Validar cup&#243;n</text><polygon fill="#F1F1F1" points="113.3905,282.3512,185.847,282.3512,197.847,294.3512,185.847,306.3512,113.3905,306.3512,101.3905,294.3512,113.3905,282.3512" style="stroke:#181818;stroke-width:0.5;"/><text fill="#000000" font-family="sans-serif" font-size="11" lengthAdjust="spacing" textLength="72.4565" x="113.3905" y="298.6192">Cup&#243;n v&#225;lido?</text><text fill="#000000" font-family="sans-serif" font-size="11" lengthAdjust="spacing" textLength="8.1069" x="93.2836" y="291.1283">s&#237;</text><text fill="#000000" font-family="sans-serif" font-size="11" lengthAdjust="spacing" textLength="13.4529" x="197.847" y="291.1283">no</text><rect fill="#F1F1F1" height="36.3441" rx="12.5" ry="12.5" style="stroke:#181818;stroke-width:0.5;" width="120.6567" x="11" y="316.3512"/><text fill="#000000" font-family="sans-serif" font-size="12" lengthAdjust="spacing" textLength="100.6567" x="21" y="339.1793">Aplicar descuento</text><rect fill="#F1F1F1" height="36.3441" rx="12.5" ry="12.5" style="stroke:#181818;stroke-width:0.5;" width="152.505" x="151.6567" y="316.3512"/><text fill="#000000" font-family="sans-serif" font-size="12" lengthAdjust="spacing" textLength="132.505" x="161.6567" y="339.1793">Mostrar error de cup&#243;n</text><polygon fill="#F1F1F1" points="149.6188,358.6953,161.6188,370.6953,149.6188,382.6953,137.6188,370.6953,149.6188,358.6953" style="stroke:#181818;stroke-width:0.5;"/><polygon fill="#F1F1F1" points="113.1871,106.3441,186.0505,106.3441,198.0505,118.3441,186.0505,130.3441,113.1871,130.3441,101.1871,118.3441,113.1871,106.3441" style="stroke:#181818;stroke-width:0.5;"/><text fill="#000000" font-family="sans-serif" font-size="11" lengthAdjust="spacing" textLength="8.1069" x="153.6188" y="142.103">s&#237;</text><text fill="#000000" font-family="sans-serif" font-size="11" lengthAdjust="spacing" textLength="72.8635" x="113.1871" y="122.6121">&#191;Tiene cup&#243;n?</text><polygon fill="#F1F1F1" points="149.6188,402.6953,161.6188,414.6953,149.6188,426.6953,137.6188,414.6953,149.6188,402.6953" style="stroke:#181818;stroke-width:0.5;"/><rect fill="#F1F1F1" height="36.3441" rx="12.5" ry="12.5" style="stroke:#181818;stroke-width:0.5;" width="117.9087" x="90.6644" y="496.1863"/><text fill="#000000" font-family="sans-serif" font-size="12" lengthAdjust="spacing" textLength="97.9087" x="100.6644" y="519.0144">A&#241;adir envoltorio</text><polygon fill="#F1F1F1" points="92.5842,446.6953,206.6534,446.6953,218.6534,458.6953,206.6534,470.6953,92.5842,470.6953,80.5842,458.6953,92.5842,446.6953" style="stroke:#181818;stroke-width:0.5;"/><text fill="#000000" font-family="sans-serif" font-size="11" lengthAdjust="spacing" textLength="8.1069" x="153.6188" y="482.4543">s&#237;</text><text fill="#000000" font-family="sans-serif" font-size="11" lengthAdjust="spacing" textLength="114.0692" x="92.5842" y="462.9633">&#191;Envoltorio de regalo?</text><polygon fill="#F1F1F1" points="149.6188,552.5304,161.6188,564.5304,149.6188,576.5304,137.6188,564.5304,149.6188,552.5304" style="stroke:#181818;stroke-width:0.5;"/><rect fill="#F1F1F1" height="36.3441" rx="12.5" ry="12.5" style="stroke:#181818;stroke-width:0.5;" width="180.6812" x="59.2782" y="596.5304"/><text fill="#000000" font-family="sans-serif" font-size="12" lengthAdjust="spacing" textLength="160.6812" x="69.2782" y="619.3585">Seleccionar m&#233;todo de pago</text><rect fill="#F1F1F1" height="36.3441" rx="12.5" ry="12.5" style="stroke:#181818;stroke-width:0.5;" width="101.3126" x="98.9625" y="652.8745"/><text fill="#000000" font-family="sans-serif" font-size="12" lengthAdjust="spacing" textLength="81.3126" x="108.9625" y="675.7026">Procesar pago</text><polygon fill="#F1F1F1" points="107.4341,709.2186,191.8035,709.2186,203.8035,721.2186,191.8035,733.2186,107.4341,733.2186,95.4341,721.2186,107.4341,709.2186" style="stroke:#181818;stroke-width:0.5;"/><text fill="#000000" font-family="sans-serif" font-size="11" lengthAdjust="spacing" textLength="84.3694" x="107.4341" y="725.4866">Pago aprobado?</text><text fill="#000000" font-family="sans-serif" font-size="11" lengthAdjust="spacing" textLength="8.1069" x="87.3271" y="717.9957">s&#237;</text><text fill="#000000" font-family="sans-serif" font-size="11" lengthAdjust="spacing" textLength="13.4529" x="203.8035" y="717.9957">no</text><rect fill="#F1F1F1" height="36.3441" rx="12.5" ry="12.5" style="stroke:#181818;stroke-width:0.5;" width="108.7166" x="20.6721" y="743.2186"/><text fill="#000000" font-family="sans-serif" font-size="12" lengthAdjust="spacing" textLength="88.7166" x="30.6721" y="766.0467">Generar pedido</text><ellipse cx="75.0304" cy="810.5627" fill="none" rx="11" ry="11" style="stroke:#222222;stroke-width:1;"/><ellipse cx="75.0304" cy="810.5627" fill="#222222" rx="6" ry="6" style="stroke:#222222;stroke-width:1;"/><rect fill="#F1F1F1" height="36.3441" rx="12.5" ry="12.5" style="stroke:#181818;stroke-width:0.5;" width="149.637" x="149.3887" y="743.2186"/><text fill="#000000" font-family="sans-serif" font-size="12" lengthAdjust="spacing" textLength="129.637" x="159.3887" y="766.0467">Notificar error de pago</text><ellipse cx="224.2072" cy="810.5627" fill="none" rx="11" ry="11" style="stroke:#222222;stroke-width:1;"/><ellipse cx="224.2072" cy="810.5627" fill="#222222" rx="6" ry="6" style="stroke:#222222;stroke-width:1;"/><line style="stroke:#181818;stroke-width:1;" x1="149.6188" x2="149.6188" y1="30" y2="50"/><polygon fill="#181818" points="145.6188,40,149.6188,50,153.6188,40,149.6188,44" style="stroke:#181818;stroke-width:1;"/><line style="stroke:#181818;stroke-width:1;" x1="149.6188" x2="149.6188" y1="192.1792" y2="212.1792"/><polygon fill="#181818" points="145.6188,202.1792,149.6188,212.1792,153.6188,202.1792,149.6188,206.1792" style="stroke:#181818;stroke-width:1;"/><line style="stroke:#181818;stroke-width:1;" x1="101.3905" x2="71.3284" y1="294.3512" y2="294.3512"/><line style="stroke:#181818;stroke-width:1;" x1="71.3284" x2="71.3284" y1="294.3512" y2="316.3512"/><polygon fill="#181818" points="67.3284,306.3512,71.3284,316.3512,75.3284,306.3512,71.3284,310.3512" style="stroke:#181818;stroke-width:1;"/><line style="stroke:#181818;stroke-width:1;" x1="197.847" x2="227.9092" y1="294.3512" y2="294.3512"/><line style="stroke:#181818;stroke-width:1;" x1="227.9092" x2="227.9092" y1="294.3512" y2="316.3512"/><polygon fill="#181818" points="223.9092,306.3512,227.9092,316.3512,231.9092,306.3512,227.9092,310.3512" style="stroke:#181818;stroke-width:1;"/><line style="stroke:#181818;stroke-width:1;" x1="71.3284" x2="71.3284" y1="352.6953" y2="370.6953"/><line style="stroke:#181818;stroke-width:1;" x1="71.3284" x2="137.6188" y1="370.6953" y2="370.6953"/><polygon fill="#181818" points="127.6188,366.6953,137.6188,370.6953,127.6188,374.6953,131.6188,370.6953" style="stroke:#181818;stroke-width:1;"/><line style="stroke:#181818;stroke-width:1;" x1="227.9092" x2="227.9092" y1="352.6953" y2="370.6953"/><line style="stroke:#181818;stroke-width:1;" x1="227.9092" x2="161.6188" y1="370.6953" y2="370.6953"/><polygon fill="#181818" points="171.6188,366.6953,161.6188,370.6953,171.6188,374.6953,167.6188,370.6953" style="stroke:#181818;stroke-width:1;"/><line style="stroke:#181818;stroke-width:1;" x1="149.6188" x2="149.6188" y1="248.5233" y2="282.3512"/><polygon fill="#181818" points="145.6188,272.3512,149.6188,282.3512,153.6188,272.3512,149.6188,276.3512" style="stroke:#181818;stroke-width:1;"/><line style="stroke:#181818;stroke-width:1;" x1="149.6188" x2="149.6188" y1="130.3441" y2="155.8351"/><polygon fill="#181818" points="145.6188,145.8351,149.6188,155.8351,153.6188,145.8351,149.6188,149.8351" style="stroke:#181818;stroke-width:1;"/><line style="stroke:#181818;stroke-width:1;" x1="198.0505" x2="318.1617" y1="118.3441" y2="118.3441"/><polygon fill="#181818" points="314.1617,252.3512,318.1617,262.3512,322.1617,252.3512,318.1617,256.3512" style="stroke:#181818;stroke-width:1;"/><line style="stroke:#181818;stroke-width:1;" x1="318.1617" x2="318.1617" y1="118.3441" y2="414.6953"/><line style="stroke:#181818;stroke-width:1;" x1="318.1617" x2="161.6188" y1="414.6953" y2="414.6953"/><polygon fill="#181818" points="171.6188,410.6953,161.6188,414.6953,171.6188,418.6953,167.6188,414.6953" style="stroke:#181818;stroke-width:1;"/><line style="stroke:#181818;stroke-width:1;" x1="149.6188" x2="149.6188" y1="382.6953" y2="402.6953"/><polygon fill="#181818" points="145.6188,392.6953,149.6188,402.6953,153.6188,392.6953,149.6188,396.6953" style="stroke:#181818;stroke-width:1;"/><line style="stroke:#181818;stroke-width:1;" x1="149.6188" x2="149.6188" y1="86.3441" y2="106.3441"/><polygon fill="#181818" points="145.6188,96.3441,149.6188,106.3441,153.6188,96.3441,149.6188,100.3441" style="stroke:#181818;stroke-width:1;"/><line style="stroke:#181818;stroke-width:1;" x1="149.6188" x2="149.6188" y1="470.6953" y2="496.1863"/><polygon fill="#181818" points="145.6188,486.1863,149.6188,496.1863,153.6188,486.1863,149.6188,490.1863" style="stroke:#181818;stroke-width:1;"/><line style="stroke:#181818;stroke-width:1;" x1="218.6534" x2="230.6534" y1="458.6953" y2="458.6953"/><polygon fill="#181818" points="226.6534,504.3583,230.6534,514.3583,234.6534,504.3583,230.6534,508.3583" style="stroke:#181818;stroke-width:1;"/><line style="stroke:#181818;stroke-width:1;" x1="230.6534" x2="230.6534" y1="458.6953" y2="564.5304"/><line style="stroke:#181818;stroke-width:1;" x1="230.6534" x2="161.6188" y1="564.5304" y2="564.5304"/><polygon fill="#181818" points="171.6188,560.5304,161.6188,564.5304,171.6188,568.5304,167.6188,564.5304" style="stroke:#181818;stroke-width:1;"/><line style="stroke:#181818;stroke-width:1;" x1="149.6188" x2="149.6188" y1="532.5304" y2="552.5304"/><polygon fill="#181818" points="145.6188,542.5304,149.6188,552.5304,153.6188,542.5304,149.6188,546.5304" style="stroke:#181818;stroke-width:1;"/><line style="stroke:#181818;stroke-width:1;" x1="149.6188" x2="149.6188" y1="426.6953" y2="446.6953"/><polygon fill="#181818" points="145.6188,436.6953,149.6188,446.6953,153.6188,436.6953,149.6188,440.6953" style="stroke:#181818;stroke-width:1;"/><line style="stroke:#181818;stroke-width:1;" x1="149.6188" x2="149.6188" y1="576.5304" y2="596.5304"/><polygon fill="#181818" points="145.6188,586.5304,149.6188,596.5304,153.6188,586.5304,149.6188,590.5304" style="stroke:#181818;stroke-width:1;"/><line style="stroke:#181818;stroke-width:1;" x1="149.6188" x2="149.6188" y1="632.8745" y2="652.8745"/><polygon fill="#181818" points="145.6188,642.8745,149.6188,652.8745,153.6188,642.8745,149.6188,646.8745" style="stroke:#181818;stroke-width:1;"/><line style="stroke:#181818;stroke-width:1;" x1="75.0304" x2="75.0304" y1="779.5627" y2="799.5627"/><polygon fill="#181818" points="71.0304,789.5627,75.0304,799.5627,79.0304,789.5627,75.0304,793.5627" style="stroke:#181818;stroke-width:1;"/><line style="stroke:#181818;stroke-width:1;" x1="224.2072" x2="224.2072" y1="779.5627" y2="799.5627"/><polygon fill="#181818" points="220.2072,789.5627,224.2072,799.5627,228.2072,789.5627,224.2072,793.5627" style="stroke:#181818;stroke-width:1;"/><line style="stroke:#181818;stroke-width:1;" x1="95.4341" x2="75.0304" y1="721.2186" y2="721.2186"/><line style="stroke:#181818;stroke-width:1;" x1="75.0304" x2="75.0304" y1="721.2186" y2="743.2186"/><polygon fill="#181818" points="71.0304,733.2186,75.0304,743.2186,79.0304,733.2186,75.0304,737.2186" style="stroke:#181818;stroke-width:1;"/><line style="stroke:#181818;stroke-width:1;" x1="203.8035" x2="224.2072" y1="721.2186" y2="721.2186"/><line style="stroke:#181818;stroke-width:1;" x1="224.2072" x2="224.2072" y1="721.2186" y2="743.2186"/><polygon fill="#181818" points="220.2072,733.2186,224.2072,743.2186,228.2072,733.2186,224.2072,737.2186" style="stroke:#181818;stroke-width:1;"/><line style="stroke:#181818;stroke-width:1;" x1="149.6188" x2="149.6188" y1="689.2186" y2="709.2186"/><polygon fill="#181818" points="145.6188,699.2186,149.6188,709.2186,153.6188,699.2186,149.6188,703.2186" style="stroke:#181818;stroke-width:1;"/><!--SRC=[PL2zJWCn3Dxp51dRLyWDw8GGOW1LAc9F4ryR4UB8yVLz61aO40-0nBqOJgwjJdI9Ollpz-F2bbWfq-yea7O7SAyuSgTK6FJgz-SvG0BjnZnzfvkrvWCalIhJvrffRHuI4_hHrSM6w6htnSRWxR9LgMvRfO_JkqpnFvMizJa69siUYXiXCTPDY0NqAk49yuY5IJ10X1Mvq83amw3cz-JzBXqnCbB02YNOstWbRFhfote901TmTsOnMuZWNC0aac_J1wDlJDdk1MGsX0wAZEQwYMxagsqctDdhaEPURbdjP_1oW-gwC6Qr36cUaCFG3d49EVEVmStR7m00]--></g></svg>