<svg xmlns="http://www.w3.org/2000/svg" xmlns:xlink="http://www.w3.org/1999/xlink" contentStyleType="text/css" data-diagram-type="ACTIVITY" height="632px" preserveAspectRatio="none" style="width:670px;height:632px;background:#FFFFFF;" version="1.1" viewBox="0 0 670 632" width="670px" zoomAndPan="magnify"><defs/><g><rect fill="none" height="24.5158" style="stroke:none;stroke-width:1;" width="637.0559" x="15" y="13.774"/><ellipse cx="93.4064" cy="53.2898" fill="#222222" rx="10" ry="10" style="stroke:#222222;stroke-width:1;"/><rect fill="#F1F1F1" height="36.3441" rx="12.5" ry="12.5" style="stroke:#181818;stroke-width:0.5;" width="144.8129" x="21" y="83.2898"/><text fill="#000000" font-family="sans-serif" font-size="12" lengthAdjust="spacing" textLength="124.8129" x="31" y="106.1179">Seleccionar productos</text><rect fill="#F1F1F1" height="36.3441" rx="12.5" ry="12.5" style="stroke:#181818;stroke-width:0.5;" width="117.5607" x="34.6261" y="139.6339"/><text fill="#000000" font-family="sans-serif" font-size="12" lengthAdjust="spacing" textLength="97.5607" x="44.6261" y="162.462">Confirmar carrito</text><rect fill="#F1F1F1" height="36.3441" rx="12.5" ry="12.5" style="stroke:#181818;stroke-width:0.5;" width="126.9928" x="29.9101" y="541.6986"/><text fill="#000000" font-family="sans-serif" font-size="12" lengthAdjust="spacing" textLength="106.9928" x="39.9101" y="564.5267">Recibir notificaci&#243;n</text><ellipse cx="93.4064" cy="609.0427" fill="none" rx="11" ry="11" style="stroke:#222222;stroke-width:1;"/><ellipse cx="93.4064" cy="609.0427" fill="#222222" rx="6" ry="6" style="stroke:#222222;stroke-width:1;"/><line style="stroke:#000000;stroke-width:1.5;" x1="15" x2="15" y1="13.774" y2="620.0427"/><rect fill="#F1F1F1" height="36.3441" rx="12.5" ry="12.5" style="stroke:#181818;stroke-width:0.5;" width="112.1247" x="276.4355" y="195.978"/><text fill="#000000" font-family="sans-serif" font-size="12" lengthAdjust="spacing" textLength="92.1247" x="286.4355" y="218.8061">Preparar pedido</text><rect fill="#F1F1F1" height="36.3441" rx="12.5" ry="12.5" style="stroke:#181818;stroke-width:0.5;" width="96.7885" x="284.1035" y="252.3222"/><text fill="#000000" font-family="sans-serif" font-size="12" lengthAdjust="spacing" textLength="76.7885" x="294.1035" y="275.1502">Solicitar pago</text><polygon fill="#F1F1F1" points="290.3131,365.0104,374.6825,365.0104,386.6825,377.0104,374.6825,389.0104,290.3131,389.0104,278.3131,377.0104,290.3131,365.0104" style="stroke:#181818;stroke-width:0.5;"/><text fill="#000000" font-family="sans-serif" font-size="11" lengthAdjust="spacing" textLength="84.3694" x="290.3131" y="381.2784">Pago aprobado?</text><text fill="#000000" font-family="sans-serif" font-size="11" lengthAdjust="spacing" textLength="8.1069" x="270.2062" y="373.7874">s&#237;</text><text fill="#000000" font-family="sans-serif" font-size="11" lengthAdjust="spacing" textLength="13.4529" x="386.6825" y="373.7874">no</text><rect fill="#F1F1F1" height="36.3441" rx="12.5" ry="12.5" style="stroke:#181818;stroke-width:0.5;" width="108.7166" x="194.305" y="399.0104"/><text fill="#000000" font-family="sans-serif" font-size="12" lengthAdjust="spacing" textLength="88.7166" x="204.305" y="421.8385">Generar pedido</text><rect fill="#F1F1F1" height="36.3441" rx="12.5" ry="12.5" style="stroke:#181818;stroke-width:0.5;" width="145.7009" x="175.8129" y="455.3545"/><text fill="#000000" font-family="sans-serif" font-size="12" lengthAdjust="spacing" textLength="125.7009" x="185.8129" y="478.1826">Notificar confirmaci&#243;n</text><rect fill="#F1F1F1" height="36.3441" rx="12.5" ry="12.5" style="stroke:#181818;stroke-width:0.5;" width="149.637" x="341.5138" y="399.0104"/><text fill="#000000" font-family="sans-serif" font-size="12" lengthAdjust="spacing" textLength="129.637" x="351.5138" y="421.8385">Notificar error de pago</text><polygon fill="#F1F1F1" points="332.4978,497.6986,344.4978,509.6986,332.4978,521.6986,320.4978,509.6986,332.4978,497.6986" style="stroke:#181818;stroke-width:0.5;"/><line style="stroke:#000000;stroke-width:1.5;" x1="169.8129" x2="169.8129" y1="13.774" y2="620.0427"/><rect fill="#F1F1F1" height="36.3441" rx="12.5" ry="12.5" style="stroke:#181818;stroke-width:0.5;" width="101.3126" x="523.277" y="308.6663"/><text fill="#000000" font-family="sans-serif" font-size="12" lengthAdjust="spacing" textLength="81.3126" x="533.277" y="331.4944">Procesar pago</text><line style="stroke:#000000;stroke-width:1.5;" x1="495.1508" x2="495.1508" y1="13.774" y2="620.0427"/><line style="stroke:#000000;stroke-width:1.5;" x1="650.7159" x2="650.7159" y1="13.774" y2="620.0427"/><line style="stroke:#181818;stroke-width:1;" x1="93.4064" x2="93.4064" y1="63.2898" y2="83.2898"/><polygon fill="#181818" points="89.4064,73.2898,93.4064,83.2898,97.4064,73.2898,93.4064,77.2898" style="stroke:#181818;stroke-width:1;"/><line style="stroke:#181818;stroke-width:1;" x1="93.4064" x2="93.4064" y1="119.6339" y2="139.6339"/><polygon fill="#181818" points="89.4064,129.6339,93.4064,139.6339,97.4064,129.6339,93.4064,133.6339" style="stroke:#181818;stroke-width:1;"/><line style="stroke:#181818;stroke-width:1;" x1="93.4064" x2="93.4064" y1="578.0427" y2="598.0427"/><polygon fill="#181818" points="89.4064,588.0427,93.4064,598.0427,97.4064,588.0427,93.4064,592.0427" style="stroke:#181818;stroke-width:1;"/><line style="stroke:#181818;stroke-width:1;" x1="332.4978" x2="332.4978" y1="232.3222" y2="252.3222"/><polygon fill="#181818" points="328.4978,242.3222,332.4978,252.3222,336.4978,242.3222,332.4978,246.3222" style="stroke:#181818;stroke-width:1;"/><line style="stroke:#181818;stroke-width:1;" x1="248.6634" x2="248.6634" y1="435.3545" y2="455.3545"/><polygon fill="#181818" points="244.6634,445.3545,248.6634,455.3545,252.6634,445.3545,248.6634,449.3545" style="stroke:#181818;stroke-width:1;"/><line style="stroke:#181818;stroke-width:1;" x1="278.3131" x2="248.6634" y1="377.0104" y2="377.0104"/><line style="stroke:#181818;stroke-width:1;" x1="248.6634" x2="248.6634" y1="377.0104" y2="399.0104"/><polygon fill="#181818" points="244.6634,389.0104,248.6634,399.0104,252.6634,389.0104,248.6634,393.0104" style="stroke:#181818;stroke-width:1;"/><line style="stroke:#181818;stroke-width:1;" x1="386.6825" x2="416.3323" y1="377.0104" y2="377.0104"/><line style="stroke:#181818;stroke-width:1;" x1="416.3323" x2="416.3323" y1="377.0104" y2="399.0104"/><polygon fill="#181818" points="412.3323,389.0104,416.3323,399.0104,420.3323,389.0104,416.3323,393.0104" style="stroke:#181818;stroke-width:1;"/><line style="stroke:#181818;stroke-width:1;" x1="248.6634" x2="248.6634" y1="491.6986" y2="509.6986"/><line style="stroke:#181818;stroke-width:1;" x1="248.6634" x2="320.4978" y1="509.6986" y2="509.6986"/><polygon fill="#181818" points="310.4978,505.6986,320.4978,509.6986,310.4978,513.6986,314.4978,509.6986" style="stroke:#181818;stroke-width:1;"/><line style="stroke:#181818;stroke-width:1;" x1="416.3323" x2="416.3323" y1="435.3545" y2="509.6986"/><line style="stroke:#181818;stroke-width:1;" x1="416.3323" x2="344.4978" y1="509.6986" y2="509.6986"/><polygon fill="#181818" points="354.4978,505.6986,344.4978,509.6986,354.4978,513.6986,350.4978,509.6986" style="stroke:#181818;stroke-width:1;"/><line style="stroke:#181818;stroke-width:1;" x1="93.4064" x2="93.4064" y1="175.978" y2="180.978"/><line style="stroke:#181818;stroke-width:1;" x1="93.4064" x2="332.4978" y1="180.978" y2="180.978"/><line style="stroke:#181818;stroke-width:1;" x1="332.4978" x2="332.4978" y1="180.978" y2="195.978"/><polygon fill="#181818" points="328.4978,185.978,332.4978,195.978,336.4978,185.978,332.4978,189.978" style="stroke:#181818;stroke-width:1;"/><line style="stroke:#181818;stroke-width:1;" x1="332.4978" x2="332.4978" y1="288.6663" y2="293.6663"/><line style="stroke:#181818;stroke-width:1;" x1="332.4978" x2="573.9333" y1="293.6663" y2="293.6663"/><line style="stroke:#181818;stroke-width:1;" x1="573.9333" x2="573.9333" y1="293.6663" y2="308.6663"/><polygon fill="#181818" points="569.9333,298.6663,573.9333,308.6663,577.9333,298.6663,573.9333,302.6663" style="stroke:#181818;stroke-width:1;"/><line style="stroke:#181818;stroke-width:1;" x1="573.9333" x2="573.9333" y1="345.0104" y2="350.0104"/><line style="stroke:#181818;stroke-width:1;" x1="573.9333" x2="332.4978" y1="350.0104" y2="350.0104"/><line style="stroke:#181818;stroke-width:1;" x1="332.4978" x2="332.4978" y1="350.0104" y2="365.0104"/><polygon fill="#181818" points="328.4978,355.0104,332.4978,365.0104,336.4978,355.0104,332.4978,359.0104" style="stroke:#181818;stroke-width:1;"/><line style="stroke:#181818;stroke-width:1;" x1="332.4978" x2="332.4978" y1="521.6986" y2="526.6986"/><line style="stroke:#181818;stroke-width:1;" x1="332.4978" x2="93.4064" y1="526.6986" y2="526.6986"/><line style="stroke:#181818;stroke-width:1;" x1="93.4064" x2="93.4064" y1="526.6986" y2="541.6986"/><polygon fill="#181818" points="89.4064,531.6986,93.4064,541.6986,97.4064,531.6986,93.4064,535.6986" style="stroke:#181818;stroke-width:1;"/><text fill="#000000" font-family="sans-serif" font-size="18" lengthAdjust="spacing" textLength="65.9696" x="59.4217" y="33.0158">Usuario</text><text fill="#000000" font-family="sans-serif" font-size="18" lengthAdjust="spacing" textLength="66.7256" x="299.119" y="33.0158">Sistema</text><text fill="#000000" font-family="sans-serif" font-size="18" lengthAdjust="spacing" textLength="145.5651" x="500.1508" y="33.0158">Pasarela de Pago</text><!--SRC=[LP0zRiCm38LtdOAZVGLvw92XMs74w04OYcu8EA91Afklb2b7oCKgfKQGhe_lvmEtRx-YYMx12re9SUA5YKGp6gocwKf5VGZne7aMkrILq4oA3Y5iatZX2suXZiOhMijmabIFST95I4gJyEVf7j7HU45836FLdZ4bzZVFgr5cw9e9i5ASCEb73-NC6Jf_tFe043yvy_jYbRwqo2pK87TSaiSz3u4NP-YozlzTRARMSFxcEIUPAyJh9_7892Sno7jah_EYwoy0]--></g></svg>