<svg xmlns="http://www.w3.org/2000/svg" xmlns:xlink="http://www.w3.org/1999/xlink" contentStyleType="text/css" data-diagram-type="ACTIVITY" height="348px" preserveAspectRatio="none" style="width:401px;height:348px;background:#FFFFFF;" version="1.1" viewBox="0 0 401 348" width="401px" zoomAndPan="magnify"><defs/><g><ellipse cx="171.5249" cy="20" fill="#222222" rx="10" ry="10" style="stroke:#222222;stroke-width:1;"/><rect fill="#F1F1F1" height="36.3441" rx="12.5" ry="12.5" style="stroke:#181818;stroke-width:0.5;" width="150.0089" x="96.5204" y="50"/><text fill="#000000" font-family="sans-serif" font-size="12" lengthAdjust="spacing" textLength="130.0089" x="106.5204" y="72.8281">Introducir credenciales</text><rect fill="#F1F1F1" height="36.3441" rx="12.5" ry="12.5" style="stroke:#181818;stroke-width:0.5;" width="132.5608" x="105.2444" y="106.3441"/><text fill="#000000" font-family="sans-serif" font-size="12" lengthAdjust="spacing" textLength="112.5608" x="115.2444" y="129.1722">Validar credenciales</text><polygon fill="#F1F1F1" points="114.4682,162.6882,228.5815,162.6882,240.5815,174.6882,228.5815,186.6882,114.4682,186.6882,102.4682,174.6882,114.4682,162.6882" style="stroke:#181818;stroke-width:0.5;"/><text fill="#000000" font-family="sans-serif" font-size="11" lengthAdjust="spacing" textLength="114.1132" x="114.4682" y="178.9562">&#191;Credenciales v&#225;lidas?</text><text fill="#000000" font-family="sans-serif" font-size="11" lengthAdjust="spacing" textLength="8.1069" x="94.3613" y="171.4653">s&#237;</text><text fill="#000000" font-family="sans-serif" font-size="11" lengthAdjust="spacing" textLength="13.4529" x="240.5815" y="171.4653">no</text><rect fill="#F1F1F1" height="36.3441" rx="12.5" ry="12.5" style="stroke:#181818;stroke-width:0.5;" width="120.1647" x="11" y="196.6882"/><text fill="#000000" font-family="sans-serif" font-size="12" lengthAdjust="spacing" textLength="100.1647" x="21" y="219.5163">Acceso concedido</text><ellipse cx="71.0824" cy="279.0323" fill="none" rx="11" ry="11" style="stroke:#222222;stroke-width:1;"/><ellipse cx="71.0824" cy="279.0323" fill="#222222" rx="6" ry="6" style="stroke:#222222;stroke-width:1;"/><polygon fill="#F1F1F1" points="236.3441,196.6882,307.5906,196.6882,319.5906,208.6882,307.5906,220.6882,236.3441,220.6882,224.3441,208.6882,236.3441,196.6882" style="stroke:#181818;stroke-width:0.5;"/><text fill="#000000" font-family="sans-serif" font-size="11" lengthAdjust="spacing" textLength="71.2465" x="236.3441" y="212.9562">&#191;Intentos &lt; 3?</text><text fill="#000000" font-family="sans-serif" font-size="11" lengthAdjust="spacing" textLength="8.1069" x="216.2371" y="205.4653">s&#237;</text><text fill="#000000" font-family="sans-serif" font-size="11" lengthAdjust="spacing" textLength="13.4529" x="319.5906" y="205.4653">no</text><rect fill="#F1F1F1" height="36.3441" rx="12.5" ry="12.5" style="stroke:#181818;stroke-width:0.5;" width="96.8846" x="161.1647" y="230.6882"/><text fill="#000000" font-family="sans-serif" font-size="12" lengthAdjust="spacing" textLength="76.8846" x="171.1647" y="253.5163">Mostrar error</text><rect fill="#F1F1F1" height="36.3441" rx="12.5" ry="12.5" style="stroke:#181818;stroke-width:0.5;" width="112.5567" x="278.0493" y="230.6882"/><text fill="#000000" font-family="sans-serif" font-size="12" lengthAdjust="spacing" textLength="92.5567" x="288.0493" y="253.5163">Bloquear acceso</text><ellipse cx="334.3276" cy="313.0323" fill="none" rx="11" ry="11" style="stroke:#222222;stroke-width:1;"/><ellipse cx="334.3276" cy="313.0323" fill="#222222" rx="6" ry="6" style="stroke:#222222;stroke-width:1;"/><line style="stroke:#181818;stroke-width:1;" x1="171.5249" x2="171.5249" y1="30" y2="50"/><polygon fill="#181818" points="167.5249,40,171.5249,50,175.5249,40,171.5249,44" style="stroke:#181818;stroke-width:1;"/><line style="stroke:#181818;stroke-width:1;" x1="171.5249" x2="171.5249" y1="86.3441" y2="106.3441"/><polygon fill="#181818" points="167.5249,96.3441,171.5249,106.3441,175.5249,96.3441,171.5249,100.3441" style="stroke:#181818;stroke-width:1;"/><line style="stroke:#181818;stroke-width:1;" x1="71.0824" x2="71.0824" y1="233.0323" y2="268.0323"/><polygon fill="#181818" points="67.0824,258.0323,71.0824,268.0323,75.0824,258.0323,71.0824,262.0323" style="stroke:#181818;stroke-width:1;"/><line style="stroke:#181818;stroke-width:1;" x1="334.3276" x2="334.3276" y1="267.0323" y2="302.0323"/><polygon fill="#181818" points="330.3276,292.0323,334.3276,302.0323,338.3276,292.0323,334.3276,296.0323" style="stroke:#181818;stroke-width:1;"/><line style="stroke:#181818;stroke-width:1;" x1="224.3441" x2="209.607" y1="208.6882" y2="208.6882"/><line style="stroke:#181818;stroke-width:1;" x1="209.607" x2="209.607" y1="208.6882" y2="230.6882"/><polygon fill="#181818" points="205.607,220.6882,209.607,230.6882,213.607,220.6882,209.607,224.6882" style="stroke:#181818;stroke-width:1;"/><line style="stroke:#181818;stroke-width:1;" x1="319.5906" x2="334.3276" y1="208.6882" y2="208.6882"/><line style="stroke:#181818;stroke-width:1;" x1="334.3276" x2="334.3276" y1="208.6882" y2="230.6882"/><polygon fill="#181818" points="330.3276,220.6882,334.3276,230.6882,338.3276,220.6882,334.3276,224.6882" style="stroke:#181818;stroke-width:1;"/><line style="stroke:#181818;stroke-width:1;" x1="209.607" x2="209.607" y1="267.0323" y2="336.0323"/><line style="stroke:#181818;stroke-width:1;" x1="209.607" x2="171.5249" y1="336.0323" y2="336.0323"/><line style="stroke:#181818;stroke-width:1;" x1="102.4682" x2="71.0824" y1="174.6882" y2="174.6882"/><line style="stroke:#181818;stroke-width:1;" x1="71.0824" x2="71.0824" y1="174.6882" y2="196.6882"/><polygon fill="#181818" points="67.0824,186.6882,71.0824,196.6882,75.0824,186.6882,71.0824,190.6882" style="stroke:#181818;stroke-width:1;"/><line style="stroke:#181818;stroke-width:1;" x1="240.5815" x2="271.9673" y1="174.6882" y2="174.6882"/><line style="stroke:#181818;stroke-width:1;" x1="271.9673" x2="271.9673" y1="174.6882" y2="196.6882"/><polygon fill="#181818" points="267.9673,186.6882,271.9673,196.6882,275.9673,186.6882,271.9673,190.6882" style="stroke:#181818;stroke-width:1;"/><line style="stroke:#181818;stroke-width:1;" x1="171.5249" x2="171.5249" y1="142.6882" y2="162.6882"/><polygon fill="#181818" points="167.5249,152.6882,171.5249,162.6882,175.5249,152.6882,171.5249,156.6882" style="stroke:#181818;stroke-width:1;"/><!--SRC=[TOun3i8m34NtdC9ZEp2njGW4J0nTsQF45P6Y6EoK-t00pe14BuQRBXM89SFBr_EJR3aRqvnIPlA32moEqMDomKQKLh_EDWPlVtZeeNg_ZWi8z_4nJMLNGxvWWah6Psq0chrpA0IEaaCVFBKA9TFLO1I4Aj6qceKQWYcJm0RMtnurTIIPDGQPYTl2Lbludm-mFA62GwJRW6gmfMbMb1QT9XzwKzuF]--></g></svg>