<svg xmlns="http://www.w3.org/2000/svg" xmlns:xlink="http://www.w3.org/1999/xlink" contentStyleType="text/css" data-diagram-type="ACTIVITY" height="521px" preserveAspectRatio="none" style="width:317px;height:521px;background:#FFFFFF;" version="1.1" viewBox="0 0 317 521" width="317px" zoomAndPan="magnify"><defs/><g><ellipse cx="150.139" cy="20" fill="#222222" rx="10" ry="10" style="stroke:#222222;stroke-width:1;"/><rect fill="#F1F1F1" height="36.3441" rx="12.5" ry="12.5" style="stroke:#181818;stroke-width:0.5;" width="150.0089" x="75.1345" y="94"/><text fill="#000000" font-family="sans-serif" font-size="12" lengthAdjust="spacing" textLength="130.0089" x="85.1345" y="116.8281">Introducir credenciales</text><rect fill="#F1F1F1" height="36.3441" rx="12.5" ry="12.5" style="stroke:#181818;stroke-width:0.5;" width="132.5608" x="83.8586" y="150.3441"/><text fill="#000000" font-family="sans-serif" font-size="12" lengthAdjust="spacing" textLength="112.5608" x="93.8586" y="173.1722">Validar credenciales</text><polygon fill="#F1F1F1" points="93.0824,217.8603,207.1956,217.8603,219.1956,229.8603,207.1956,241.8603,93.0824,241.8603,81.0824,229.8603,93.0824,217.8603" style="stroke:#181818;stroke-width:0.5;"/><text fill="#000000" font-family="sans-serif" font-size="11" lengthAdjust="spacing" textLength="114.1132" x="93.0824" y="234.1283">&#191;Credenciales v&#225;lidas?</text><text fill="#000000" font-family="sans-serif" font-size="11" lengthAdjust="spacing" textLength="8.1069" x="72.9754" y="226.6373">s&#237;</text><text fill="#000000" font-family="sans-serif" font-size="11" lengthAdjust="spacing" textLength="13.4529" x="219.1956" y="226.6373">no</text><rect fill="#F1F1F1" height="36.3441" rx="12.5" ry="12.5" style="stroke:#181818;stroke-width:0.5;" width="120.1647" x="11" y="251.8603"/><text fill="#000000" font-family="sans-serif" font-size="12" lengthAdjust="spacing" textLength="100.1647" x="21" y="274.6884">Acceso concedido</text><rect fill="#F1F1F1" height="36.3441" rx="12.5" ry="12.5" style="stroke:#181818;stroke-width:0.5;" width="96.8846" x="180.7533" y="251.8603"/><text fill="#000000" font-family="sans-serif" font-size="12" lengthAdjust="spacing" textLength="76.8846" x="190.7533" y="274.6884">Mostrar error</text><polygon fill="#F1F1F1" points="150.139,294.2044,162.139,306.2044,150.139,318.2044,138.139,306.2044,150.139,294.2044" style="stroke:#181818;stroke-width:0.5;"/><polygon fill="#F1F1F1" points="150.139,50,162.139,62,150.139,74,138.139,62,150.139,50" style="stroke:#181818;stroke-width:0.5;"/><polygon fill="#F1F1F1" points="85.6574,338.2044,214.6205,338.2044,226.6205,350.2044,214.6205,362.2044,85.6574,362.2044,73.6574,350.2044,85.6574,338.2044" style="stroke:#181818;stroke-width:0.5;"/><text fill="#000000" font-family="sans-serif" font-size="11" lengthAdjust="spacing" textLength="128.9631" x="85.6574" y="354.4724">&#161;no v&#225;lidas y &lt;3 intentos?</text><text fill="#000000" font-family="sans-serif" font-size="11" lengthAdjust="spacing" textLength="8.1069" x="226.6205" y="346.9814">s&#237;</text><rect fill="#F1F1F1" height="36.3441" rx="12.5" ry="12.5" style="stroke:#181818;stroke-width:0.5;" width="112.5567" x="93.8606" y="431.6953"/><text fill="#000000" font-family="sans-serif" font-size="12" lengthAdjust="spacing" textLength="92.5567" x="103.8606" y="454.5234">Bloquear acceso</text><ellipse cx="150.139" cy="499.0395" fill="none" rx="11" ry="11" style="stroke:#222222;stroke-width:1;"/><ellipse cx="150.139" cy="499.0395" fill="#222222" rx="6" ry="6" style="stroke:#222222;stroke-width:1;"/><polygon fill="#F1F1F1" points="93.0824,382.2044,207.1956,382.2044,219.1956,394.2044,207.1956,406.2044,93.0824,406.2044,81.0824,394.2044,93.0824,382.2044" style="stroke:#181818;stroke-width:0.5;"/><text fill="#000000" font-family="sans-serif" font-size="11" lengthAdjust="spacing" textLength="13.4529" x="154.139" y="417.9633">no</text><text fill="#000000" font-family="sans-serif" font-size="11" lengthAdjust="spacing" textLength="114.1132" x="93.0824" y="398.4724">&#191;Credenciales v&#225;lidas?</text><text fill="#000000" font-family="sans-serif" font-size="11" lengthAdjust="spacing" textLength="8.1069" x="219.1956" y="390.9814">s&#237;</text><ellipse cx="252.1956" cy="394.2044" fill="none" rx="11" ry="11" style="stroke:#222222;stroke-width:1;"/><ellipse cx="252.1956" cy="394.2044" fill="#222222" rx="6" ry="6" style="stroke:#222222;stroke-width:1;"/><line style="stroke:#181818;stroke-width:1;" x1="150.139" x2="150.139" y1="130.3441" y2="150.3441"/><polygon fill="#181818" points="146.139,140.3441,150.139,150.3441,154.139,140.3441,150.139,144.3441" style="stroke:#181818;stroke-width:1;"/><line style="stroke:#181818;stroke-width:1;" x1="81.0824" x2="71.0824" y1="229.8603" y2="229.8603"/><line style="stroke:#181818;stroke-width:1;" x1="71.0824" x2="71.0824" y1="229.8603" y2="251.8603"/><polygon fill="#181818" points="67.0824,241.8603,71.0824,251.8603,75.0824,241.8603,71.0824,245.8603" style="stroke:#181818;stroke-width:1;"/><line style="stroke:#181818;stroke-width:1;" x1="219.1956" x2="229.1956" y1="229.8603" y2="229.8603"/><line style="stroke:#181818;stroke-width:1;" x1="229.1956" x2="229.1956" y1="229.8603" y2="251.8603"/><polygon fill="#181818" points="225.1956,241.8603,229.1956,251.8603,233.1956,241.8603,229.1956,245.8603" style="stroke:#181818;stroke-width:1;"/><line style="stroke:#181818;stroke-width:1;" x1="71.0824" x2="71.0824" y1="288.2044" y2="306.2044"/><line style="stroke:#181818;stroke-width:1;" x1="71.0824" x2="138.139" y1="306.2044" y2="306.2044"/><polygon fill="#181818" points="128.139,302.2044,138.139,306.2044,128.139,310.2044,132.139,306.2044" style="stroke:#181818;stroke-width:1;"/><line style="stroke:#181818;stroke-width:1;" x1="229.1956" x2="229.1956" y1="288.2044" y2="306.2044"/><line style="stroke:#181818;stroke-width:1;" x1="229.1956" x2="162.139" y1="306.2044" y2="306.2044"/><polygon fill="#181818" points="172.139,302.2044,162.139,306.2044,172.139,310.2044,168.139,306.2044" style="stroke:#181818;stroke-width:1;"/><line style="stroke:#181818;stroke-width:1;" x1="150.139" x2="150.139" y1="186.6882" y2="217.8603"/><polygon fill="#181818" points="146.139,207.8603,150.139,217.8603,154.139,207.8603,150.139,211.8603" style="stroke:#181818;stroke-width:1;"/><line style="stroke:#181818;stroke-width:1;" x1="150.139" x2="150.139" y1="74" y2="94"/><polygon fill="#181818" points="146.139,84,150.139,94,154.139,84,150.139,88" style="stroke:#181818;stroke-width:1;"/><line style="stroke:#181818;stroke-width:1;" x1="226.6205" x2="291.6379" y1="350.2044" y2="350.2044"/><polygon fill="#181818" points="287.6379,206.6882,291.6379,196.6882,295.6379,206.6882,291.6379,202.6882" style="stroke:#181818;stroke-width:1;"/><line style="stroke:#181818;stroke-width:1;" x1="291.6379" x2="291.6379" y1="62" y2="350.2044"/><line style="stroke:#181818;stroke-width:1;" x1="291.6379" x2="162.139" y1="62" y2="62"/><polygon fill="#181818" points="172.139,58,162.139,62,172.139,66,168.139,62" style="stroke:#181818;stroke-width:1;"/><line style="stroke:#181818;stroke-width:1;" x1="150.139" x2="150.139" y1="318.2044" y2="338.2044"/><polygon fill="#181818" points="146.139,328.2044,150.139,338.2044,154.139,328.2044,150.139,332.2044" style="stroke:#181818;stroke-width:1;"/><line style="stroke:#181818;stroke-width:1;" x1="150.139" x2="150.139" y1="30" y2="50"/><polygon fill="#181818" points="146.139,40,150.139,50,154.139,40,150.139,44" style="stroke:#181818;stroke-width:1;"/><line style="stroke:#181818;stroke-width:1;" x1="150.139" x2="150.139" y1="468.0395" y2="488.0395"/><polygon fill="#181818" points="146.139,478.0395,150.139,488.0395,154.139,478.0395,150.139,482.0395" style="stroke:#181818;stroke-width:1;"/><line style="stroke:#181818;stroke-width:1;" x1="150.139" x2="150.139" y1="406.2044" y2="431.6953"/><polygon fill="#181818" points="146.139,421.6953,150.139,431.6953,154.139,421.6953,150.139,425.6953" style="stroke:#181818;stroke-width:1;"/><line style="stroke:#181818;stroke-width:1;" x1="219.1956" x2="241.1956" y1="394.2044" y2="394.2044"/><polygon fill="#181818" points="231.1956,390.2044,241.1956,394.2044,231.1956,398.2044,235.1956,394.2044" style="stroke:#181818;stroke-width:1;"/><line style="stroke:#181818;stroke-width:1;" x1="150.139" x2="150.139" y1="362.2044" y2="382.2044"/><polygon fill="#181818" points="146.139,372.2044,150.139,382.2044,154.139,372.2044,150.139,376.2044" style="stroke:#181818;stroke-width:1;"/><!--SRC=[bOun2W9134NxFKNAjRPJGTJAmjP-cCbYO4WqYOh7sGDu1i6zc3EoY61bc__8U-P1lL4yOl06OBPbLqddI0fHCI572XbjNhTzo9J2xq0TjC_7vkiAbw6lh2qdu0TaQ6suJmfQlgnYH1E8mX4J9QaVC1j2op8YEp7N8a9LqVVEYRgn4gu7oeL-zYmV3znWCGLYHtQfLhBHsVnHPox7vhjbjivoEcD92U_g-GUgGIy0]--></g></svg>