<svg xmlns="http://www.w3.org/2000/svg" xmlns:xlink="http://www.w3.org/1999/xlink" contentStyleType="text/css" data-diagram-type="ACTIVITY" height="342px" preserveAspectRatio="none" style="width:382px;height:342px;background:#FFFFFF;" version="1.1" viewBox="0 0 382 342" width="382px" zoomAndPan="magnify"><defs/><g><ellipse cx="175.8003" cy="20" fill="#222222" rx="10" ry="10" style="stroke:#222222;stroke-width:1;"/><rect fill="#F1F1F1" height="36.3441" rx="12.5" ry="12.5" style="stroke:#181818;stroke-width:0.5;" width="137.8048" x="106.8979" y="50"/><text fill="#000000" font-family="sans-serif" font-size="12" lengthAdjust="spacing" textLength="117.8048" x="116.8979" y="72.8281">Cliente inicia compra</text><rect fill="#F1F1F1" height="36.3441" rx="12.5" ry="12.5" style="stroke:#181818;stroke-width:0.5;" width="169.1611" x="91.2197" y="106.3441"/><text fill="#000000" font-family="sans-serif" font-size="12" lengthAdjust="spacing" textLength="149.1611" x="101.2197" y="129.1722">Generar pedido pendiente</text><rect fill="#F1F1F1" height="36.3441" rx="12.5" ry="12.5" style="stroke:#181818;stroke-width:0.5;" width="95.0845" x="128.258" y="162.6882"/><text fill="#000000" font-family="sans-serif" font-size="12" lengthAdjust="spacing" textLength="75.0845" x="138.258" y="185.5163">Esperar pago</text><polygon fill="#F1F1F1" points="92.8664,219.0323,258.7342,219.0323,270.7342,231.0323,258.7342,243.0323,92.8664,243.0323,80.8664,231.0323,92.8664,219.0323" style="stroke:#181818;stroke-width:0.5;"/><text fill="#000000" font-family="sans-serif" font-size="11" lengthAdjust="spacing" textLength="165.8678" x="92.8664" y="235.3003">&#191;Pago recibido antes de 15 min?</text><text fill="#000000" font-family="sans-serif" font-size="11" lengthAdjust="spacing" textLength="8.1069" x="72.7594" y="227.8094">s&#237;</text><text fill="#000000" font-family="sans-serif" font-size="11" lengthAdjust="spacing" textLength="13.4529" x="270.7342" y="227.8094">no</text><rect fill="#F1F1F1" height="36.3441" rx="12.5" ry="12.5" style="stroke:#181818;stroke-width:0.5;" width="119.7327" x="11" y="253.0323"/><text fill="#000000" font-family="sans-serif" font-size="12" lengthAdjust="spacing" textLength="99.7327" x="21" y="275.8604">Confirmar pedido</text><ellipse cx="70.8664" cy="320.3765" fill="none" rx="11" ry="11" style="stroke:#222222;stroke-width:1;"/><ellipse cx="70.8664" cy="320.3765" fill="#222222" rx="6" ry="6" style="stroke:#222222;stroke-width:1;"/><rect fill="#F1F1F1" height="36.3441" rx="12.5" ry="12.5" style="stroke:#181818;stroke-width:0.5;" width="181.6892" x="189.8896" y="253.0323"/><text fill="#000000" font-family="sans-serif" font-size="12" lengthAdjust="spacing" textLength="161.6892" x="199.8896" y="275.8604">Cancelar pedido por timeout</text><ellipse cx="280.7342" cy="320.3765" fill="none" rx="11" ry="11" style="stroke:#222222;stroke-width:1;"/><ellipse cx="280.7342" cy="320.3765" fill="#222222" rx="6" ry="6" style="stroke:#222222;stroke-width:1;"/><line style="stroke:#181818;stroke-width:1;" x1="175.8003" x2="175.8003" y1="30" y2="50"/><polygon fill="#181818" points="171.8003,40,175.8003,50,179.8003,40,175.8003,44" style="stroke:#181818;stroke-width:1;"/><line style="stroke:#181818;stroke-width:1;" x1="175.8003" x2="175.8003" y1="86.3441" y2="106.3441"/><polygon fill="#181818" points="171.8003,96.3441,175.8003,106.3441,179.8003,96.3441,175.8003,100.3441" style="stroke:#181818;stroke-width:1;"/><line style="stroke:#181818;stroke-width:1;" x1="175.8003" x2="175.8003" y1="142.6882" y2="162.6882"/><polygon fill="#181818" points="171.8003,152.6882,175.8003,162.6882,179.8003,152.6882,175.8003,156.6882" style="stroke:#181818;stroke-width:1;"/><line style="stroke:#181818;stroke-width:1;" x1="70.8664" x2="70.8664" y1="289.3765" y2="309.3765"/><polygon fill="#181818" points="66.8664,299.3765,70.8664,309.3765,74.8664,299.3765,70.8664,303.3765" style="stroke:#181818;stroke-width:1;"/><line style="stroke:#181818;stroke-width:1;" x1="280.7342" x2="280.7342" y1="289.3765" y2="309.3765"/><polygon fill="#181818" points="276.7342,299.3765,280.7342,309.3765,284.7342,299.3765,280.7342,303.3765" style="stroke:#181818;stroke-width:1;"/><line style="stroke:#181818;stroke-width:1;" x1="80.8664" x2="70.8664" y1="231.0323" y2="231.0323"/><line style="stroke:#181818;stroke-width:1;" x1="70.8664" x2="70.8664" y1="231.0323" y2="253.0323"/><polygon fill="#181818" points="66.8664,243.0323,70.8664,253.0323,74.8664,243.0323,70.8664,247.0323" style="stroke:#181818;stroke-width:1;"/><line style="stroke:#181818;stroke-width:1;" x1="270.7342" x2="280.7342" y1="231.0323" y2="231.0323"/><line style="stroke:#181818;stroke-width:1;" x1="280.7342" x2="280.7342" y1="231.0323" y2="253.0323"/><polygon fill="#181818" points="276.7342,243.0323,280.7342,253.0323,284.7342,243.0323,280.7342,247.0323" style="stroke:#181818;stroke-width:1;"/><line style="stroke:#181818;stroke-width:1;" x1="175.8003" x2="175.8003" y1="199.0323" y2="219.0323"/><polygon fill="#181818" points="171.8003,209.0323,175.8003,219.0323,179.8003,209.0323,175.8003,213.0323" style="stroke:#181818;stroke-width:1;"/><!--SRC=[JOun3i8m34NtdC9ZEpAmj0D3XLYvWabSiDJOaMEEnHcGu684AW6JzVtV__hLqJmCqy8aJi32aH6Yvc8uXk50GeO6XH8dRKVI1spMlfRLmhEE8V0CtUD-R0AC8f_UE3QoGYBOR26px7hm2mbqzNdh0y0mgSni-Ti_jcTrBO6MIj29hXHAfELlX1euPzAh_m9jr_m2]--></g></svg>