<svg xmlns="http://www.w3.org/2000/svg" xmlns:xlink="http://www.w3.org/1999/xlink" contentStyleType="text/css" data-diagram-type="ACTIVITY" height="428px" preserveAspectRatio="none" style="width:300px;height:428px;background:#FFFFFF;" version="1.1" viewBox="0 0 300 428" width="300px" zoomAndPan="magnify"><defs/><g><ellipse cx="139.9467" cy="20" fill="#222222" rx="10" ry="10" style="stroke:#222222;stroke-width:1;"/><rect fill="#F1F1F1" height="36.3441" rx="12.5" ry="12.5" style="stroke:#181818;stroke-width:0.5;" width="144.8129" x="67.5403" y="50"/><text fill="#000000" font-family="sans-serif" font-size="12" lengthAdjust="spacing" textLength="124.8129" x="77.5403" y="72.8281">Seleccionar productos</text><rect fill="#F1F1F1" height="36.3441" rx="12.5" ry="12.5" style="stroke:#181818;stroke-width:0.5;" width="117.5607" x="81.1664" y="106.3441"/><text fill="#000000" font-family="sans-serif" font-size="12" lengthAdjust="spacing" textLength="97.5607" x="91.1664" y="129.1722">Confirmar carrito</text><rect fill="#F1F1F1" height="36.3441" rx="12.5" ry="12.5" style="stroke:#181818;stroke-width:0.5;" width="241.6176" x="19.1379" y="162.6882"/><text fill="#000000" font-family="sans-serif" font-size="12" lengthAdjust="spacing" textLength="221.6176" x="29.1379" y="185.5163">&#171;subactividad&#187; Calcular costes de env&#237;o</text><rect fill="#F1F1F1" height="36.3441" rx="12.5" ry="12.5" style="stroke:#181818;stroke-width:0.5;" width="101.3126" x="89.2904" y="219.0323"/><text fill="#000000" font-family="sans-serif" font-size="12" lengthAdjust="spacing" textLength="81.3126" x="99.2904" y="241.8604">Procesar pago</text><polygon fill="#F1F1F1" points="97.762,275.3765,182.1314,275.3765,194.1314,287.3765,182.1314,299.3765,97.762,299.3765,85.762,287.3765,97.762,275.3765" style="stroke:#181818;stroke-width:0.5;"/><text fill="#000000" font-family="sans-serif" font-size="11" lengthAdjust="spacing" textLength="84.3694" x="97.762" y="291.6444">Pago aprobado?</text><text fill="#000000" font-family="sans-serif" font-size="11" lengthAdjust="spacing" textLength="8.1069" x="77.6551" y="284.1535">s&#237;</text><text fill="#000000" font-family="sans-serif" font-size="11" lengthAdjust="spacing" textLength="13.4529" x="194.1314" y="284.1535">no</text><rect fill="#F1F1F1" height="36.3441" rx="12.5" ry="12.5" style="stroke:#181818;stroke-width:0.5;" width="108.7166" x="11" y="309.3765"/><text fill="#000000" font-family="sans-serif" font-size="12" lengthAdjust="spacing" textLength="88.7166" x="21" y="332.2045">Generar pedido</text><rect fill="#F1F1F1" height="36.3441" rx="12.5" ry="12.5" style="stroke:#181818;stroke-width:0.5;" width="149.637" x="139.7166" y="309.3765"/><text fill="#000000" font-family="sans-serif" font-size="12" lengthAdjust="spacing" textLength="129.637" x="149.7166" y="332.2045">Notificar error de pago</text><polygon fill="#F1F1F1" points="139.9467,351.7206,151.9467,363.7206,139.9467,375.7206,127.9467,363.7206,139.9467,351.7206" style="stroke:#181818;stroke-width:0.5;"/><ellipse cx="139.9467" cy="406.7206" fill="none" rx="11" ry="11" style="stroke:#222222;stroke-width:1;"/><ellipse cx="139.9467" cy="406.7206" fill="#222222" rx="6" ry="6" style="stroke:#222222;stroke-width:1;"/><line style="stroke:#181818;stroke-width:1;" x1="139.9467" x2="139.9467" y1="30" y2="50"/><polygon fill="#181818" points="135.9467,40,139.9467,50,143.9467,40,139.9467,44" style="stroke:#181818;stroke-width:1;"/><line style="stroke:#181818;stroke-width:1;" x1="139.9467" x2="139.9467" y1="86.3441" y2="106.3441"/><polygon fill="#181818" points="135.9467,96.3441,139.9467,106.3441,143.9467,96.3441,139.9467,100.3441" style="stroke:#181818;stroke-width:1;"/><line style="stroke:#181818;stroke-width:1;" x1="139.9467" x2="139.9467" y1="142.6882" y2="162.6882"/><polygon fill="#181818" points="135.9467,152.6882,139.9467,162.6882,143.9467,152.6882,139.9467,156.6882" style="stroke:#181818;stroke-width:1;"/><line style="stroke:#181818;stroke-width:1;" x1="139.9467" x2="139.9467" y1="199.0323" y2="219.0323"/><polygon fill="#181818" points="135.9467,209.0323,139.9467,219.0323,143.9467,209.0323,139.9467,213.0323" style="stroke:#181818;stroke-width:1;"/><line style="stroke:#181818;stroke-width:1;" x1="85.762" x2="65.3583" y1="287.3765" y2="287.3765"/><line style="stroke:#181818;stroke-width:1;" x1="65.3583" x2="65.3583" y1="287.3765" y2="309.3765"/><polygon fill="#181818" points="61.3583,299.3765,65.3583,309.3765,69.3583,299.3765,65.3583,303.3765" style="stroke:#181818;stroke-width:1;"/><line style="stroke:#181818;stroke-width:1;" x1="194.1314" x2="214.5351" y1="287.3765" y2="287.3765"/><line style="stroke:#181818;stroke-width:1;" x1="214.5351" x2="214.5351" y1="287.3765" y2="309.3765"/><polygon fill="#181818" points="210.5351,299.3765,214.5351,309.3765,218.5351,299.3765,214.5351,303.3765" style="stroke:#181818;stroke-width:1;"/><line style="stroke:#181818;stroke-width:1;" x1="65.3583" x2="65.3583" y1="345.7206" y2="363.7206"/><line style="stroke:#181818;stroke-width:1;" x1="65.3583" x2="127.9467" y1="363.7206" y2="363.7206"/><polygon fill="#181818" points="117.9467,359.7206,127.9467,363.7206,117.9467,367.7206,121.9467,363.7206" style="stroke:#181818;stroke-width:1;"/><line style="stroke:#181818;stroke-width:1;" x1="214.5351" x2="214.5351" y1="345.7206" y2="363.7206"/><line style="stroke:#181818;stroke-width:1;" x1="214.5351" x2="151.9467" y1="363.7206" y2="363.7206"/><polygon fill="#181818" points="161.9467,359.7206,151.9467,363.7206,161.9467,367.7206,157.9467,363.7206" style="stroke:#181818;stroke-width:1;"/><line style="stroke:#181818;stroke-width:1;" x1="139.9467" x2="139.9467" y1="255.3765" y2="275.3765"/><polygon fill="#181818" points="135.9467,265.3765,139.9467,275.3765,143.9467,265.3765,139.9467,269.3765" style="stroke:#181818;stroke-width:1;"/><line style="stroke:#181818;stroke-width:1;" x1="139.9467" x2="139.9467" y1="375.7206" y2="395.7206"/><polygon fill="#181818" points="135.9467,385.7206,139.9467,395.7206,143.9467,385.7206,139.9467,389.7206" style="stroke:#181818;stroke-width:1;"/><!--SRC=[9Ouz3i8m38NtdC9ZUuLsOEZ0XYfn0ZTnmLA9AzlbKeWJiD6BaPJDUlxUZpcgXz1TQQ4OMJ8gh2ffYoxMXswGFBC-YXfHbLtw0dzVjaqOdP-SC7q_CE0IjwL2Oau6YO3oStyVzAWIoMektgh0CpHZEG5BqOH9JYtudJ8qjh_R0D2TAPDM0oLEnKAB4JHPZkT5d6SkQu1KHMlNFvXouZa4Srb_]--></g></svg>